<svg width="24" height="24" viewBox="0 0 24 24" fill="none" xmlns="http://www.w3.org/2000/svg">
    <path fill-rule="evenodd" clip-rule="evenodd" d="M12.5566 23.8308C12.2198 24.0564 11.7796 24.056 11.4429 23.8304L11.44 23.8285L11.4334 23.824L11.4105 23.8085C11.3911 23.7952 11.3633 23.7761 11.3278 23.7515C11.2568 23.7021 11.1548 23.6301 11.0262 23.5368C10.769 23.3503 10.4049 23.0781 9.96952 22.7302C9.10025 22.0357 7.93858 21.0328 6.77352 19.8011C4.48492 17.3817 2 13.8877 2 10C2 4.47715 6.47715 2.41411e-07 12 0C17.5229 -2.41411e-07 22 4.47715 22 10C22 13.8877 19.5151 17.3817 17.2265 19.8011C16.0614 21.0328 14.8998 22.0357 14.0305 22.7302C13.5951 23.0781 13.231 23.3503 12.9738 23.5368C12.8452 23.6301 12.7432 23.7021 12.6722 23.7515C12.6367 23.7761 12.6089 23.7952 12.5895 23.8085L12.5666 23.824L12.56 23.8285L12.5579 23.8299L12.5566 23.8308ZM8 10C8 7.79086 9.79086 6 12 6C14.2091 6 16 7.79086 16 10C16 12.2091 14.2091 14 12 14C9.79086 14 8 12.2091 8 10Z" fill="#254364"/>
</svg>
