<svg width="32" height="32" viewBox="0 0 32 32" fill="none" xmlns="http://www.w3.org/2000/svg">
    <rect width="32" height="32" rx="6" fill="#EA4335"/>
    <path d="M24.8023 14.9545H16.6977V18.2386H21.3613C20.9294 20.3279 19.1064 21.5227 16.6977 21.5227C13.8497 21.5227 11.5581 19.2832 11.5581 16.5C11.5581 13.7168 13.8497 11.4773 16.6977 11.4773C17.9203 11.4773 19.0332 11.8994 19.9044 12.6006L22.4302 10.125C20.8928 8.8085 18.9087 8 16.6977 8C11.873 8 8 11.7849 8 16.5C8 21.2151 11.873 25 16.6977 25C21.0465 25 25 21.9091 25 16.5C25 15.9992 24.9268 15.4554 24.8023 14.9545Z" fill="white"/>
</svg>
