<svg width="32" height="32" viewBox="0 0 32 32" fill="none" xmlns="http://www.w3.org/2000/svg">
<path d="M17.8331 12.1286C17.8331 11.1862 17.0055 10.4199 15.988 10.4199C14.9721 10.4199 14.1437 11.1862 14.1437 12.1286C14.1437 13.0701 14.9712 13.8381 15.988 13.8381C17.0055 13.8381 17.8331 13.0709 17.8331 12.1286Z" fill="#141116"/>
<path fill-rule="evenodd" clip-rule="evenodd" d="M32 16C32 24.8366 24.8366 32 16 32C7.16344 32 0 24.8366 0 16C0 7.16344 7.16344 0 16 0C24.8366 0 32 7.16344 32 16ZM20.4441 12.1286C20.4441 14.4053 18.4465 16.2564 15.988 16.2564C13.5312 16.2564 11.5327 14.4053 11.5327 12.1286C11.5327 9.85191 13.5312 8 15.988 8C18.4465 8 20.4441 9.85191 20.4441 12.1286ZM20.3899 18.6339C19.59 19.0989 18.7157 19.4343 17.8023 19.6266L20.2941 21.9345C20.415 22.0447 20.5112 22.1773 20.577 22.3243C20.6428 22.4713 20.6767 22.6297 20.6767 22.7897C20.6767 22.9497 20.6428 23.108 20.577 23.255C20.5112 23.402 20.415 23.5347 20.2941 23.6448C19.7849 24.1168 18.9582 24.1168 18.4498 23.6448L15.9996 21.3769L13.552 23.6456C13.297 23.8816 12.9628 24 12.6286 24C12.2944 24 11.9611 23.8816 11.7052 23.6456C11.5845 23.5353 11.4885 23.4027 11.4228 23.2557C11.3572 23.1087 11.3233 22.9504 11.3233 22.7905C11.3233 22.6305 11.3572 22.4723 11.4228 22.3253C11.4885 22.1783 11.5845 22.0456 11.7052 21.9353L14.1962 19.6258C13.2828 19.4336 12.4086 19.0984 11.6085 18.6339C11.4647 18.5526 11.3395 18.4442 11.2406 18.3152C11.1416 18.1862 11.0709 18.0393 11.0327 17.8833C10.9946 17.7273 10.9897 17.5656 11.0185 17.4078C11.0473 17.25 11.1091 17.0994 11.2002 16.9652C11.5835 16.3996 12.3894 16.2292 13.0003 16.5852C13.9063 17.1069 14.9431 17.3825 15.9996 17.3825C17.0562 17.3825 18.0929 17.1069 18.999 16.5852C19.6099 16.2292 20.4157 16.3996 20.7991 16.9652C21.1833 17.5299 21 18.2771 20.3899 18.6339Z" fill="#141116"/>
</svg>
