<svg width="40" height="40" viewBox="0 0 40 40" fill="none" xmlns="http://www.w3.org/2000/svg">
    <rect width="40" height="40" rx="20" fill="#141116"/>
    <path fill-rule="evenodd" clip-rule="evenodd" d="M10.3356 20.1514L14.7136 21.8306L16.4081 27.4309C16.5166 27.7896 16.9433 27.9222 17.2267 27.6842L19.667 25.6397C19.9228 25.4255 20.2872 25.4149 20.5545 25.6143L24.9561 28.8983C25.2591 29.1246 25.6884 28.9539 25.7644 28.5776L28.9888 12.6391C29.0718 12.228 28.6787 11.8851 28.2978 12.0365L10.3305 19.1594C9.88706 19.3351 9.89095 19.9802 10.3356 20.1514ZM16.135 20.9368L24.6912 15.5213C24.845 15.4242 25.0032 15.6379 24.8712 15.7638L17.8098 22.5091C17.5616 22.7465 17.4015 23.0643 17.3562 23.4092L17.1156 25.241C17.0838 25.4856 16.7494 25.5099 16.6838 25.2732L15.7586 21.9327C15.6527 21.5517 15.8071 21.1448 16.135 20.9368Z" fill="white"/>
</svg>
