<svg width="40" height="40" viewBox="0 0 40 40" fill="none" xmlns="http://www.w3.org/2000/svg">
    <rect width="40" height="40" rx="20" fill="#141116"/>
    <path d="M20.509 16.4634C20.5176 16.3029 20.6558 16.1798 20.8176 16.1883C21.4236 16.2202 21.928 16.4015 22.287 16.7692C22.6448 17.1355 22.8197 17.6475 22.8497 18.263C22.8576 18.4235 22.7327 18.5599 22.5708 18.5676C22.409 18.5754 22.2714 18.4516 22.2636 18.2911C22.2379 17.7642 22.0925 17.4064 21.8654 17.1739C21.6396 16.9427 21.2945 16.7961 20.7865 16.7693C20.6246 16.7608 20.5004 16.6238 20.509 16.4634Z" fill="white"/>
    <path d="M20.3772 14.6285C20.2155 14.6171 20.0752 14.7378 20.0637 14.8981C20.0522 15.0583 20.174 15.1975 20.3356 15.2089C21.4539 15.2876 22.2934 15.6608 22.894 16.3096C23.499 16.963 23.7936 17.7748 23.7708 18.7709C23.7671 18.9316 23.8954 19.0647 24.0574 19.0684C24.2195 19.072 24.3538 18.9448 24.3575 18.7842C24.3834 17.6541 24.0444 16.6918 23.3264 15.9162C22.6041 15.1361 21.6123 14.7155 20.3772 14.6285Z" fill="white"/>
    <path d="M19.5477 13.4085C19.5488 13.2478 19.681 13.1184 19.843 13.1195C21.5464 13.1303 22.989 13.6948 24.1436 14.8105L24.1439 14.8108C25.3078 15.939 25.8854 17.4691 25.8998 19.3759C25.901 19.5366 25.7706 19.6678 25.6086 19.669C25.4465 19.6702 25.3142 19.5409 25.313 19.3803C25.2995 17.5941 24.7631 16.2249 23.7338 15.227C22.6952 14.2234 21.4014 13.7112 19.8393 13.7012C19.6772 13.7002 19.5467 13.5692 19.5477 13.4085Z" fill="white"/>
    <path d="M21.4948 21.9357C21.2755 22.2084 20.8612 22.1739 20.8612 22.1739C17.8463 21.4111 17.0386 18.3841 17.0386 18.3841C17.0386 18.3841 17.0038 17.9768 17.2788 17.7559L17.8219 17.3279C18.0935 17.1208 18.2641 16.6203 17.989 16.1302C17.8359 15.8575 17.5295 15.3709 17.3032 15.0637C17.063 14.7392 16.5059 14.0765 16.5025 14.0731C16.2344 13.7555 15.8375 13.683 15.4197 13.897C15.4197 13.897 15.4163 13.9005 15.4128 13.9005C15.0159 14.1214 14.6469 14.4182 14.3022 14.7944L14.2952 14.8013C14.0376 15.1085 13.8879 15.4123 13.8531 15.7091C13.8461 15.7436 13.8427 15.7885 13.8461 15.8403C13.8427 15.9714 13.8636 16.0991 13.9053 16.2268L13.9193 16.2372C14.0481 16.6963 14.3753 17.4591 15.082 18.7327C15.5416 19.5576 16.0116 20.2479 16.4781 20.8278C16.7218 21.135 17.0003 21.4491 17.3206 21.7701L17.4459 21.8943C17.7697 22.2119 18.0865 22.488 18.3964 22.7296C18.9812 23.1921 19.674 23.6581 20.5096 24.1137C21.7942 24.8144 22.5636 25.1388 23.0267 25.2665L23.0371 25.2803C23.1659 25.3217 23.2947 25.339 23.427 25.339C23.4792 25.3424 23.5245 25.339 23.5593 25.3321C23.8587 25.2976 24.1651 25.1492 24.4749 24.8937L24.4819 24.8868C24.8614 24.5451 25.1608 24.1758 25.3836 23.7858C25.3836 23.7858 25.3871 23.7823 25.3871 23.7789C25.6029 23.3647 25.5298 22.9712 25.2095 22.7054C25.2095 22.7054 24.5376 22.1497 24.2103 21.9116C23.904 21.6872 23.4096 21.3869 23.1346 21.2316C22.6402 20.9589 22.1354 21.1281 21.9265 21.3973L21.4948 21.9357Z" fill="white"/>
    <path fill-rule="evenodd" clip-rule="evenodd" d="M28.5168 11.2428C27.9389 10.7181 25.6099 9.04067 20.4225 9.01651C20.4225 9.01651 14.3022 8.65064 11.3186 11.3636C9.658 13.01 9.07312 15.4192 9.01393 18.4082C8.95127 21.3973 8.8712 26.9923 14.3161 28.511H14.3196L14.3161 30.827C14.3161 30.827 14.2813 31.7658 14.9045 31.9556C15.5325 32.1488 15.9443 31.6848 16.4828 31.0783C16.5891 30.9585 16.7004 30.8331 16.8193 30.7062C17.2127 30.2851 17.7593 29.6638 18.1701 29.1909C21.8917 29.5016 24.7569 28.7906 25.0807 28.687C25.1477 28.6655 25.2424 28.6416 25.36 28.6119L25.3601 28.6119L25.3604 28.6118L25.3605 28.6118C26.5632 28.3085 30.1485 27.4045 30.7763 22.3085C31.49 16.5409 30.4316 12.8892 28.5168 11.2428ZM29.147 21.8943C28.6198 26.1066 25.7651 26.7634 24.7428 26.9986C24.6309 27.0243 24.5409 27.045 24.4784 27.0648C24.2069 27.1511 21.6933 27.7723 18.5321 27.5652C18.5321 27.5652 16.1752 30.3817 15.4406 31.1169C15.3257 31.2308 15.19 31.2791 15.0995 31.255C14.9741 31.2239 14.9393 31.0755 14.9393 30.858C14.9428 30.5474 14.9602 27.0095 14.9602 27.0095C10.5096 25.7846 10.6134 21.2869 10.6724 18.7349C10.6744 18.6478 10.6763 18.563 10.6781 18.4807C10.7303 15.9852 11.2037 13.9419 12.6068 12.5682C15.1308 10.3039 20.3286 10.6422 20.3286 10.6422C24.7186 10.6629 26.8214 11.9711 27.3088 12.4094C28.9277 13.7866 29.7528 17.0759 29.147 21.8943Z" fill="white"/>
</svg>
