<svg width="318" height="500" viewBox="0 0 318 500" fill="none" xmlns="http://www.w3.org/2000/svg">
<path d="M4.90037 431.941C3.58125 431.968 2.32598 432.514 1.40813 433.462C0.49029 434.41 -0.0157221 435.682 0.000372508 437.001V493.001C0.000160168 494.312 0.514571 495.57 1.43288 496.505C2.35118 497.441 3.59995 497.978 4.91038 498.001H312.91C314.219 497.983 315.467 497.446 316.38 496.509C317.293 495.571 317.796 494.31 317.78 493.001V437.001C317.781 435.698 317.272 434.445 316.362 433.511C315.452 432.577 314.214 432.035 312.91 432.001H4.90037" fill="#EE2922"/>
<path d="M306 308.44C303.34 301.25 215.79 61.53 212 51.31C203.18 27.14 192.59 3 158.88 3C125.17 3 114.21 27.53 105.68 51.31C101.26 63.57 15.0605 299.45 11.8405 308.44C11.3788 309.683 11.4228 311.058 11.9631 312.27C12.5033 313.481 13.4968 314.433 14.7305 314.92C17.4305 315.97 63.1205 333.67 65.7905 334.74C66.3978 334.964 67.0439 335.063 67.6904 335.033C68.3369 335.002 68.9707 334.842 69.5544 334.563C70.138 334.283 70.6596 333.889 71.0884 333.404C71.5171 332.919 71.8443 332.353 72.0505 331.74C72.9305 329.35 91.9805 277 94.1105 271.15H223.82C225.95 277 244.82 329.26 245.73 331.74C246.167 332.967 247.072 333.971 248.247 334.533C249.422 335.095 250.771 335.169 252 334.74C254.51 333.79 300 316.1 303.11 314.92C304.347 314.437 305.344 313.486 305.885 312.273C306.426 311.06 306.468 309.683 306 308.44V308.44ZM114.76 213L158.62 81.29H159.17L203.17 212.98L114.76 213Z" fill="#EE2922"/>
</svg>
