<svg width="40" height="24" viewBox="0 0 40 24" fill="none" xmlns="http://www.w3.org/2000/svg">
<g clip-path="url(#clip0)">
<path d="M7.30792 6.0628C6.83917 6.60324 6.08917 7.0295 5.33917 6.9686C5.24542 6.23787 5.61261 5.46147 6.04229 4.98192C6.51104 4.42626 7.33136 4.03045 7.99542 4C8.07354 4.76118 7.76886 5.50714 7.30792 6.0628ZM7.98761 7.11323C6.90167 7.05233 5.97198 7.71456 5.45636 7.71456C4.93292 7.71456 4.14386 7.14367 3.28448 7.1589C2.16729 7.17412 1.12823 7.79068 0.557918 8.7726C-0.613957 10.7364 0.25323 13.6441 1.38604 15.2426C1.94073 16.0343 2.60479 16.902 3.47979 16.8716C4.30792 16.8411 4.63604 16.3463 5.63604 16.3463C6.64385 16.3463 6.93292 16.8716 7.80792 16.8563C8.71417 16.8411 9.28448 16.0647 9.83917 15.2731C10.472 14.3749 10.7298 13.4995 10.7454 13.4539C10.7298 13.4386 8.99542 12.7916 8.97979 10.843C8.96417 9.21408 10.347 8.43768 10.4095 8.39201C9.62823 7.26546 8.40948 7.14367 7.98761 7.11323ZM14.261 4.9058V16.7726H16.1517V12.7155H18.7689C21.1595 12.7155 22.8392 11.117 22.8392 8.80304C22.8392 6.48906 21.1907 4.9058 18.8314 4.9058H14.261ZM16.1517 6.45861H18.3314C19.972 6.45861 20.9095 7.31113 20.9095 8.81066C20.9095 10.3102 19.972 11.1703 18.3235 11.1703H16.1517V6.45861ZM26.2923 16.8639C27.4798 16.8639 28.5814 16.2778 29.0814 15.3492H29.1204V16.7726H30.8704V10.8658C30.8704 9.15319 29.4642 8.04948 27.3001 8.04948C25.2923 8.04948 23.8079 9.16841 23.7532 10.706H25.4564C25.597 9.97526 26.2923 9.49572 27.2454 9.49572C28.4017 9.49572 29.0501 10.0209 29.0501 10.9876V11.6422L26.6907 11.7793C24.4954 11.9087 23.3079 12.784 23.3079 14.3064C23.3079 15.844 24.5345 16.8639 26.2923 16.8639ZM26.8001 15.4558C25.7923 15.4558 25.1517 14.9838 25.1517 14.2607C25.1517 13.5147 25.7689 13.0809 26.9485 13.0124L29.0501 12.883V13.5528C29.0501 14.6641 28.0814 15.4558 26.8001 15.4558ZM33.2064 20C35.0501 20 35.9173 19.3149 36.6751 17.2369L39.9954 8.16365H38.0735L35.847 15.1741H35.8079L33.5814 8.16365H31.6048L34.8079 16.803L34.636 17.3283C34.347 18.2188 33.8782 18.5614 33.0423 18.5614C32.8939 18.5614 32.6048 18.5461 32.4876 18.5309V19.9543C32.597 19.9848 33.0657 20 33.2064 20Z" fill="black"/>
</g>
<defs>
<clipPath id="clip0">
<rect width="40" height="24" fill="white"/>
</clipPath>
</defs>
</svg>
