<svg xmlns="http://www.w3.org/2000/svg" width="251" height="60" viewBox="0 0 251 60">
    <g fill="none" fill-rule="evenodd">
        <rect width="250" height="59" x=".5" y=".5" fill="#FFF" fill-rule="nonzero" stroke="#000" stroke-opacity=".2" rx="4"/>
        <g fill-rule="nonzero" transform="translate(12 12)">
            <rect width="34" height="34"/>
            <g transform="translate(0 1.889)">
                <rect width="31.813" height="30.222"/>
                <path fill="#299D37" d="M33.3054191,15.0978558 C33.1830655,24.2055998 25.7650311,31.5246496 16.6564652,31.5246496 C7.54789942,31.5246496 0.129864967,24.2055998 0.00751137102,15.0978558 C0.00751137102,14.7297986 0.0225341131,14.3617414 0.0450682261,14.0011956 L10.1253281,19.7323717 L31.4726446,7.5939961 C32.6804787,9.91061334 33.3093257,12.4852779 33.3054191,15.0978558 Z M10.1253281,15.5560494 L0.743625731,10.222976 C0.554667536,10.8160816 0.40412816,11.420748 0.29294347,12.0332164 L10.1253281,17.6216764 L30.5562573,6.00909682 C30.2211304,5.50550484 29.8574875,5.02148362 29.4671085,4.55940221 L10.1253281,15.5560494 Z M28.2051982,3.20735543 C27.7396825,2.76810053 27.2507279,2.35436971 26.7404808,1.96797921 L10.1253281,11.417284 L2.19332034,6.90294997 C1.89313374,7.42320684 1.62230085,7.95985718 1.38209227,8.51038337 L10.1253281,13.482911 L28.2051982,3.20735543 Z M10.1253281,9.44930474 L25.0579337,0.961455491 C24.4317562,0.597688139 23.7818057,0.276477114 23.1124886,0 L10.1253281,7.37616634 L4.34157245,4.09369721 C3.92932026,4.54133889 3.54070453,5.01018497 3.17730994,5.49832359 L10.1253281,9.44930474 Z" transform="translate(0 .563)"/>
            </g>
        </g>
        <path fill="#000" d="M58.327,18.736 L58.327,17.696 L59.64,17.696 C60.2900032,17.696 60.7839983,17.5551681 61.122,17.2735 C61.4600017,16.9918319 61.629,16.6040025 61.629,16.11 C61.629,15.5813307 61.4513351,15.2065011 61.096,14.9855 C60.7406649,14.7644989 60.2726696,14.654 59.692,14.654 C59.093997,14.654 58.556669,14.7189994 58.08,14.849 C57.603331,14.9790006 57.1830018,15.1393324 56.819,15.33 L56.819,14.173 C57.1050014,14.0256659 57.479831,13.8870007 57.9435,13.757 C58.407169,13.6269994 58.9943298,13.562 59.705,13.562 C60.6756715,13.562 61.4469971,13.763498 62.019,14.1665 C62.5910029,14.569502 62.877,15.1913291 62.877,16.032 C62.877,16.5780027 62.7145016,17.0286649 62.3895,17.384 C62.0644984,17.7393351 61.5900031,17.9906659 60.966,18.138 C61.7026703,18.2333338 62.2594981,18.4564982 62.6365,18.8075 C63.0135019,19.1585018 63.202,19.6589968 63.202,20.309 C63.202,20.8030025 63.1066676,21.2298315 62.916,21.5895 C62.7253324,21.9491685 62.4675016,22.2416655 62.1425,22.467 C61.8174984,22.6923345 61.4340022,22.8591661 60.992,22.9675 C60.5499978,23.0758339 60.0820025,23.13 59.588,23.13 C58.8859965,23.13 58.2836692,23.0455008 57.781,22.8765 C57.2783308,22.7074992 56.9100012,22.5233343 56.676,22.324 L56.676,21.154 C57.482004,21.7346696 58.4396611,22.025 59.549,22.025 C59.8696683,22.025 60.1729986,21.9968336 60.459,21.9405 C60.7450014,21.8841664 60.9963323,21.7910007 61.213,21.661 C61.4296678,21.5309994 61.6008327,21.3576678 61.7265,21.141 C61.8521673,20.9243322 61.915,20.6556683 61.915,20.335 C61.915,19.7456637 61.7265019,19.3318345 61.3495,19.0935 C60.9724981,18.8551655 60.4113371,18.736 59.666,18.736 L58.327,18.736 Z M68.753,21.713 C68.6749996,21.8690008 68.5753339,22.0314992 68.454,22.2005 C68.3326661,22.3695008 68.1810009,22.5233326 67.999,22.662 C67.8169991,22.8006674 67.6025012,22.9133329 67.3555,23 C67.1084988,23.0866671 66.820335,23.13 66.491,23.13 C65.8843303,23.13 65.3946685,22.958835 65.022,22.6165 C64.6493315,22.274165 64.463,21.7823365 64.463,21.141 C64.463,20.4043297 64.7208308,19.8626684 65.2365,19.516 C65.7521692,19.1693316 66.4866619,18.996 67.44,18.996 L68.701,18.996 L68.701,18.437 C68.701,17.9689977 68.5796679,17.6353343 68.337,17.436 C68.0943321,17.2366657 67.6783363,17.137 67.089,17.137 C66.6729979,17.137 66.2786685,17.204166 65.906,17.3385 C65.5333315,17.472834 65.1996681,17.6266658 64.905,17.8 L64.905,16.773 C65.1476679,16.6256659 65.4748313,16.4805007 65.8865,16.3375 C66.2981687,16.1944993 66.7509975,16.123 67.245,16.123 C68.0943376,16.123 68.7399978,16.2984982 69.182,16.6495 C69.6240022,17.0005018 69.845,17.5443296 69.845,18.281 L69.845,21.908 C69.845,21.9860004 69.8471666,22.0748328 69.8515,22.1745 C69.8558334,22.2741672 69.8601666,22.3759995 69.8645,22.48 C69.8688334,22.5840005 69.8753333,22.6814995 69.884,22.7725 C69.8926667,22.8635005 69.9013333,22.939333 69.91,23 L68.87,23 C68.8439999,22.8786661 68.8201668,22.7075011 68.7985,22.4865 C68.7768332,22.2654989 68.766,22.0726675 68.766,21.908 L68.753,21.713 Z M66.738,22.103 C67.0933351,22.103 67.3966654,22.0293341 67.648,21.882 C67.8993346,21.7346659 68.1029992,21.563501 68.259,21.3685 C68.4150008,21.173499 68.5276663,20.9828343 68.597,20.7965 C68.6663337,20.6101657 68.701,20.4780004 68.701,20.4 L68.701,19.906 L67.557,19.906 C66.8723299,19.906 66.3761682,20.003499 66.0685,20.1985 C65.7608318,20.393501 65.607,20.6859981 65.607,21.076 C65.607,21.3793348 65.6979991,21.6263324 65.88,21.817 C66.0620009,22.0076676 66.3479981,22.103 66.738,22.103 Z M71.639,16.253 L77.047,16.253 L77.047,23 L75.903,23 L75.903,17.228 L72.783,17.228 L72.783,23 L71.639,23 L71.639,16.253 Z M79.439,20.907 C79.5603339,20.4649978 79.6383332,19.8670038 79.673,19.113 C79.7076668,18.3589962 79.725,17.4056724 79.725,16.253 L84.262,16.253 L84.262,23 L83.105,23 L83.105,17.228 L80.804,17.228 C80.7953333,18.155338 80.7671669,18.9786631 80.7195,19.698 C80.6718331,20.4173369 80.5721674,21.0239975 80.4205,21.518 C80.2688326,22.0120025 80.0478348,22.3868321 79.7575,22.6425 C79.4671652,22.8981679 79.0793358,23.026 78.594,23.026 L78.49,23.026 C78.4553332,23.026 78.4163336,23.0216667 78.373,23.013 L78.373,21.882 C78.4163336,21.8906667 78.4726663,21.895 78.542,21.895 C78.9840022,21.895 79.2829992,21.56567 79.439,20.907 Z M90.073,21.713 C89.9949996,21.8690008 89.8953339,22.0314992 89.774,22.2005 C89.6526661,22.3695008 89.5010009,22.5233326 89.319,22.662 C89.1369991,22.8006674 88.9225012,22.9133329 88.6755,23 C88.4284988,23.0866671 88.140335,23.13 87.811,23.13 C87.2043303,23.13 86.7146685,22.958835 86.342,22.6165 C85.9693315,22.274165 85.783,21.7823365 85.783,21.141 C85.783,20.4043297 86.0408308,19.8626684 86.5565,19.516 C87.0721692,19.1693316 87.8066619,18.996 88.76,18.996 L90.021,18.996 L90.021,18.437 C90.021,17.9689977 89.8996679,17.6353343 89.657,17.436 C89.4143321,17.2366657 88.9983363,17.137 88.409,17.137 C87.9929979,17.137 87.5986685,17.204166 87.226,17.3385 C86.8533315,17.472834 86.5196681,17.6266658 86.225,17.8 L86.225,16.773 C86.4676679,16.6256659 86.7948313,16.4805007 87.2065,16.3375 C87.6181687,16.1944993 88.0709975,16.123 88.565,16.123 C89.4143376,16.123 90.0599978,16.2984982 90.502,16.6495 C90.9440022,17.0005018 91.165,17.5443296 91.165,18.281 L91.165,21.908 C91.165,21.9860004 91.1671666,22.0748328 91.1715,22.1745 C91.1758334,22.2741672 91.1801666,22.3759995 91.1845,22.48 C91.1888334,22.5840005 91.1953333,22.6814995 91.204,22.7725 C91.2126667,22.8635005 91.2213333,22.939333 91.23,23 L90.19,23 C90.1639999,22.8786661 90.1401668,22.7075011 90.1185,22.4865 C90.0968332,22.2654989 90.086,22.0726675 90.086,21.908 L90.073,21.713 Z M88.058,22.103 C88.4133351,22.103 88.7166654,22.0293341 88.968,21.882 C89.2193346,21.7346659 89.4229992,21.563501 89.579,21.3685 C89.7350008,21.173499 89.8476663,20.9828343 89.917,20.7965 C89.9863337,20.6101657 90.021,20.4780004 90.021,20.4 L90.021,19.906 L88.877,19.906 C88.1923299,19.906 87.6961682,20.003499 87.3885,20.1985 C87.0808318,20.393501 86.927,20.6859981 86.927,21.076 C86.927,21.3793348 87.0179991,21.6263324 87.2,21.817 C87.3820009,22.0076676 87.6679981,22.103 88.058,22.103 Z M95.611,17.228 L95.611,23 L94.467,23 L94.467,17.228 L92.348,17.228 L92.348,16.253 L97.769,16.253 L97.769,17.228 L95.611,17.228 Z M100.239,21.44 L103.84,16.253 L104.997,16.253 L104.997,23 L103.853,23 L103.853,17.826 L100.265,23 L99.095,23 L99.095,16.253 L100.239,16.253 L100.239,21.44 Z M109.586,17.228 L109.586,23 L108.442,23 L108.442,17.228 L106.323,17.228 L106.323,16.253 L111.744,16.253 L111.744,17.228 L109.586,17.228 Z M118.088,20.751 C118.088,21.1410019 118.018667,21.4789986 117.88,21.765 C117.741333,22.0510014 117.546335,22.2849991 117.295,22.467 C117.043665,22.6490009 116.744668,22.7833329 116.398,22.87 C116.051332,22.9566671 115.674335,23 115.267,23 L113.031,23 L113.031,16.253 L114.175,16.253 L114.175,18.606 L115.345,18.606 C116.203004,18.606 116.874664,18.7749983 117.36,19.113 C117.845336,19.4510017 118.088,19.9969962 118.088,20.751 Z M114.175,19.581 L114.175,22.025 L115.267,22.025 C115.761002,22.025 116.161832,21.9318343 116.4695,21.7455 C116.777168,21.5591657 116.931,21.2493355 116.931,20.816 C116.931,20.3739978 116.792335,20.0576676 116.515,19.867 C116.237665,19.6763324 115.847669,19.581 115.345,19.581 L114.175,19.581 Z M127.63,23 L126.486,23 L126.486,20.036 C126.251999,20.2180009 125.981168,20.3588328 125.6735,20.4585 C125.365832,20.5581672 125.017002,20.608 124.627,20.608 C123.86433,20.608 123.281502,20.4195019 122.8785,20.0425 C122.475498,19.6654981 122.274,19.0610042 122.274,18.229 L122.274,16.253 L123.431,16.253 L123.431,18.242 C123.431,18.7706693 123.552332,19.138999 123.795,19.347 C124.037668,19.555001 124.379998,19.659 124.822,19.659 C125.125335,19.659 125.419999,19.6156671 125.706,19.529 C125.992001,19.4423329 126.251999,19.3080009 126.486,19.126 L126.486,16.253 L127.63,16.253 L127.63,23 Z M134.871,22.428 C134.775666,22.4973337 134.658667,22.5709996 134.52,22.649 C134.381333,22.7270004 134.212334,22.802833 134.013,22.8765 C133.813666,22.950167 133.588335,23.0108331 133.337,23.0585 C133.085665,23.1061669 132.804002,23.13 132.492,23.13 C131.356661,23.13 130.494336,22.8223364 129.905,22.207 C129.315664,21.5916636 129.021,20.7293389 129.021,19.62 C129.021,19.0739973 129.101166,18.5843355 129.2615,18.151 C129.421834,17.7176645 129.644999,17.3515015 129.931,17.0525 C130.217001,16.7534985 130.554998,16.5238341 130.945,16.3635 C131.335002,16.2031659 131.759664,16.123 132.219,16.123 C132.704336,16.123 133.137665,16.2053325 133.519,16.37 C133.900335,16.5346675 134.214499,16.7773317 134.4615,17.098 C134.708501,17.4186683 134.8775,17.8151643 134.9685,18.2875 C135.0595,18.7598357 135.057334,19.3079969 134.962,19.932 L130.204,19.932 C130.247334,20.6600036 130.463998,21.2038315 130.854,21.5635 C131.244002,21.9231685 131.824663,22.103 132.596,22.103 C133.116003,22.103 133.562331,22.0293341 133.935,21.882 C134.307669,21.7346659 134.619665,21.5743342 134.871,21.401 L134.871,22.428 Z M132.193,17.137 C131.698998,17.137 131.274335,17.2886651 130.919,17.592 C130.563665,17.8953348 130.338334,18.3546636 130.243,18.97 L133.87,18.97 C133.904667,18.3459969 133.761668,17.8845015 133.441,17.5855 C133.120332,17.2864985 132.704336,17.137 132.193,17.137 Z M139.889,23.13 C139.368997,23.13 138.920502,23.0086679 138.5435,22.766 C138.166498,22.5233321 137.865334,22.1896688 137.64,21.765 L137.64,25.301 L136.496,25.301 L136.496,16.253 L137.497,16.253 L137.614,17.566 C137.839334,17.1239978 138.142665,16.7730013 138.524,16.513 C138.905335,16.2529987 139.377664,16.123 139.941,16.123 C140.331002,16.123 140.705832,16.1944993 141.0655,16.3375 C141.425168,16.4805007 141.741499,16.6971652 142.0145,16.9875 C142.287501,17.2778348 142.504166,17.6418311 142.6645,18.0795 C142.824834,18.5171689 142.905,19.0306637 142.905,19.62 C142.905,20.218003 142.822667,20.7358311 142.658,21.1735 C142.493333,21.6111689 142.272335,21.9751652 141.995,22.2655 C141.717665,22.5558348 141.397002,22.7724993 141.033,22.9155 C140.668998,23.0585007 140.287669,23.13 139.889,23.13 Z M139.72,22.103 C140.318003,22.103 140.801165,21.8971687 141.1695,21.4855 C141.537835,21.0738313 141.722,20.4520042 141.722,19.62 C141.722,18.8053293 141.537835,18.1878354 141.1695,17.7675 C140.801165,17.3471646 140.318003,17.137 139.72,17.137 C139.425332,17.137 139.150168,17.1889995 138.8945,17.293 C138.638832,17.3970005 138.417834,17.5508323 138.2315,17.7545 C138.045166,17.9581677 137.897834,18.2159984 137.7895,18.528 C137.681166,18.8400016 137.627,19.2039979 137.627,19.62 C137.627,20.0360021 137.681166,20.3999984 137.7895,20.712 C137.897834,21.0240016 138.045166,21.283999 138.2315,21.492 C138.417834,21.700001 138.638832,21.8538328 138.8945,21.9535 C139.150168,22.0531672 139.425332,22.103 139.72,22.103 Z M149.665,22.428 C149.569666,22.4973337 149.452667,22.5709996 149.314,22.649 C149.175333,22.7270004 149.006334,22.802833 148.807,22.8765 C148.607666,22.950167 148.382335,23.0108331 148.131,23.0585 C147.879665,23.1061669 147.598002,23.13 147.286,23.13 C146.150661,23.13 145.288336,22.8223364 144.699,22.207 C144.109664,21.5916636 143.815,20.7293389 143.815,19.62 C143.815,19.0739973 143.895166,18.5843355 144.0555,18.151 C144.215834,17.7176645 144.438999,17.3515015 144.725,17.0525 C145.011001,16.7534985 145.348998,16.5238341 145.739,16.3635 C146.129002,16.2031659 146.553664,16.123 147.013,16.123 C147.498336,16.123 147.931665,16.2053325 148.313,16.37 C148.694335,16.5346675 149.008499,16.7773317 149.2555,17.098 C149.502501,17.4186683 149.6715,17.8151643 149.7625,18.2875 C149.8535,18.7598357 149.851334,19.3079969 149.756,19.932 L144.998,19.932 C145.041334,20.6600036 145.257998,21.2038315 145.648,21.5635 C146.038002,21.9231685 146.618663,22.103 147.39,22.103 C147.910003,22.103 148.356331,22.0293341 148.729,21.882 C149.101669,21.7346659 149.413665,21.5743342 149.665,21.401 L149.665,22.428 Z M146.987,17.137 C146.492998,17.137 146.068335,17.2886651 145.713,17.592 C145.357665,17.8953348 145.132334,18.3546636 145.037,18.97 L148.664,18.97 C148.698667,18.3459969 148.555668,17.8845015 148.235,17.5855 C147.914332,17.2864985 147.498336,17.137 146.987,17.137 Z M156.074,21.037 C156.074,21.4183352 155.998167,21.7411653 155.8465,22.0055 C155.694833,22.2698347 155.489001,22.4864992 155.229,22.6555 C154.968999,22.8245008 154.667835,22.945833 154.3255,23.0195 C153.983165,23.093167 153.625669,23.13 153.253,23.13 C152.758998,23.13 152.323502,23.0780005 151.9465,22.974 C151.569498,22.8699995 151.272668,22.7443341 151.056,22.597 L151.056,21.57 C151.324668,21.7346675 151.645331,21.8646662 152.018,21.96 C152.390669,22.0553338 152.793664,22.103 153.227,22.103 C153.721002,22.103 154.134832,22.0228341 154.4685,21.8625 C154.802168,21.7021659 154.969,21.4270019 154.969,21.037 C154.969,20.6556648 154.828168,20.3870008 154.5465,20.231 C154.264832,20.0749992 153.83367,19.997 153.253,19.997 L152.356,19.997 L152.356,19.074 L153.292,19.074 C153.768669,19.074 154.132665,18.9873342 154.384,18.814 C154.635335,18.6406658 154.761,18.389335 154.761,18.06 C154.761,17.8866658 154.719834,17.7415006 154.6375,17.6245 C154.555166,17.5074994 154.444667,17.412167 154.306,17.3385 C154.167333,17.264833 154.004834,17.2128335 153.8185,17.1825 C153.632166,17.1521665 153.435001,17.137 153.227,17.137 C152.828331,17.137 152.457835,17.1846662 152.1155,17.28 C151.773165,17.3753338 151.463335,17.5096658 151.186,17.683 L151.186,16.656 C151.411334,16.5086659 151.703832,16.3830005 152.0635,16.279 C152.423168,16.1749995 152.841331,16.123 153.318,16.123 C154.141337,16.123 154.763165,16.2789984 155.1835,16.591 C155.603835,16.9030016 155.814,17.3536637 155.814,17.943 C155.814,18.3850022 155.694835,18.7316654 155.4565,18.983 C155.218165,19.2343346 154.882336,19.4076662 154.449,19.503 C154.986336,19.5723337 155.391499,19.741332 155.6645,20.01 C155.937501,20.278668 156.074,20.6209979 156.074,21.037 Z" opacity=".3"/>
        <path fill="#000" d="M61.925,44.15 C61.124996,44.15 60.4000032,44.0250013 59.75,43.775 C59.0999968,43.5249988 58.5425023,43.1625024 58.0775,42.6875 C57.6124977,42.2124976 57.2550012,41.6325034 57.005,40.9475 C56.7549987,40.2624966 56.63,39.4900043 56.63,38.63 C56.63,37.7599957 56.7449989,36.9850034 56.975,36.305 C57.2050012,35.6249966 57.5449978,35.0475024 57.995,34.5725 C58.4450023,34.0974976 58.9974967,33.7350012 59.6525,33.485 C60.3075033,33.2349988 61.0549958,33.11 61.895,33.11 C62.6250036,33.11 63.2649973,33.1874992 63.815,33.3425 C64.3650028,33.4975008 64.8149983,33.6799989 65.165,33.89 L65.165,35.24 C64.7149977,34.9499986 64.1975029,34.7350007 63.6125,34.595 C63.0274971,34.4549993 62.4500028,34.385 61.88,34.385 C60.6099936,34.385 59.672503,34.7374965 59.0675,35.4425 C58.462497,36.1475035 58.16,37.2099929 58.16,38.63 C58.16,40.0600072 58.4874967,41.1249965 59.1425,41.825 C59.7975033,42.5250035 60.7649936,42.875 62.045,42.875 C62.5950027,42.875 63.1324974,42.8000008 63.6575,42.65 C64.1825026,42.4999993 64.6849976,42.2450018 65.165,41.885 L65.165,43.235 C64.8749986,43.4650011 64.4525028,43.674999 63.8975,43.865 C63.3424972,44.055001 62.6850038,44.15 61.925,44.15 Z M74.015,40.1 C74.015,40.7500032 73.917501,41.3249975 73.7225,41.825 C73.527499,42.3250025 73.2625017,42.7474983 72.9275,43.0925 C72.5924983,43.4375017 72.1950023,43.6999991 71.735,43.88 C71.2749977,44.0600009 70.7750027,44.15 70.235,44.15 C69.6849972,44.15 69.1800023,44.0575009 68.72,43.8725 C68.2599977,43.6874991 67.8650016,43.4050019 67.535,43.025 C67.2049983,42.6449981 66.9475009,42.1650029 66.7625,41.585 C66.5774991,41.0049971 66.485,40.320004 66.485,39.53 C66.485,38.8799968 66.5049998,38.260003 66.545,37.67 C66.5850002,37.0799971 66.6749993,36.5325025 66.815,36.0275 C66.9550007,35.5224975 67.1574987,35.067502 67.4225,34.6625 C67.6875013,34.257498 68.0449977,33.9200013 68.495,33.65 C68.7450013,33.4999993 69.0049987,33.3875004 69.275,33.3125 C69.5450014,33.2374996 69.8174986,33.1800002 70.0925,33.14 C70.3675014,33.0999998 70.6449986,33.075 70.925,33.065 C71.2050014,33.055 71.4799986,33.045 71.75,33.035 C72.150002,33.0049999 72.4849986,32.9550003 72.755,32.885 C73.0250013,32.8149996 73.264999,32.7200006 73.475,32.6 L73.475,33.8 C73.2549989,33.9400007 73.0225012,34.0374997 72.7775,34.0925 C72.5324988,34.1475003 72.2350017,34.1949998 71.885,34.235 C71.3149971,34.2850003 70.7925024,34.3224999 70.3175,34.3475 C69.8424976,34.3725001 69.4100019,34.484999 69.02,34.685 C68.5199975,34.9650014 68.167501,35.3824972 67.9625,35.9375 C67.757499,36.4925028 67.6300002,37.1499962 67.58,37.91 C68.1000026,36.709994 69.0799928,36.11 70.52,36.11 C71.0100025,36.11 71.4674979,36.1974991 71.8925,36.3725 C72.3175021,36.5475009 72.6874984,36.8049983 73.0025,37.145 C73.3175016,37.4850017 73.5649991,37.9024975 73.745,38.3975 C73.9250009,38.8925025 74.015,39.4599968 74.015,40.1 Z M70.235,42.965 C70.5850018,42.965 70.9074985,42.9075006 71.2025,42.7925 C71.4975015,42.6774994 71.7549989,42.5025012 71.975,42.2675 C72.1950011,42.0324988 72.3649994,41.7350018 72.485,41.375 C72.6050006,41.0149982 72.665,40.5900025 72.665,40.1 C72.665,39.6099976 72.6050006,39.1850018 72.485,38.825 C72.3649994,38.4649982 72.1950011,38.1675012 71.975,37.9325 C71.7549989,37.6974988 71.4975015,37.5225006 71.2025,37.4075 C70.9074985,37.2924994 70.5850018,37.235 70.235,37.235 C69.5449966,37.235 68.9725023,37.4649977 68.5175,37.925 C68.0624977,38.3850023 67.835,39.0949952 67.835,40.055 C67.835,40.5550025 67.8949994,40.9874982 68.015,41.3525 C68.1350006,41.7175018 68.3024989,42.0199988 68.5175,42.26 C68.7325011,42.5000012 68.9849986,42.6774994 69.275,42.7925 C69.5650014,42.9075006 69.8849982,42.965 70.235,42.965 Z M81.86,43.34 C81.7499994,43.4200004 81.6150008,43.5049996 81.455,43.595 C81.2949992,43.6850005 81.1000011,43.7724996 80.87,43.8575 C80.6399988,43.9425004 80.3800014,44.0124997 80.09,44.0675 C79.7999985,44.1225003 79.4750018,44.15 79.115,44.15 C77.8049934,44.15 76.8100034,43.7950036 76.13,43.085 C75.4499966,42.3749964 75.11,41.3800064 75.11,40.1 C75.11,39.4699969 75.2024991,38.9050025 75.3875,38.405 C75.5725009,37.9049975 75.8299983,37.4825017 76.16,37.1375 C76.4900017,36.7924983 76.8799978,36.5275009 77.33,36.3425 C77.7800022,36.1574991 78.2699973,36.065 78.8,36.065 C79.3600028,36.065 79.8599978,36.1599991 80.3,36.35 C80.7400022,36.5400009 81.1024986,36.8199982 81.3875,37.19 C81.6725014,37.5600018 81.8674995,38.0174973 81.9725,38.5625 C82.0775005,39.1075027 82.0750005,39.7399964 81.965,40.46 L76.475,40.46 C76.5250003,41.3000042 76.7749977,41.9274979 77.225,42.3425 C77.6750023,42.7575021 78.3449955,42.965 79.235,42.965 C79.835003,42.965 80.3499978,42.8800009 80.78,42.71 C81.2100022,42.5399991 81.5699986,42.355001 81.86,42.155 L81.86,43.34 Z M78.77,37.235 C78.1999972,37.235 77.710002,37.4099983 77.3,37.76 C76.889998,38.1100018 76.6300006,38.6399964 76.52,39.35 L80.705,39.35 C80.7450002,38.6299964 80.5800019,38.0975017 80.21,37.7525 C79.8399981,37.4074983 79.3600029,37.235 78.77,37.235 Z M87.65,44.15 C87.049997,44.15 86.5325022,44.0100014 86.0975,43.73 C85.6624978,43.4499986 85.3150013,43.0650025 85.055,42.575 L85.055,46.655 L83.735,46.655 L83.735,36.215 L84.89,36.215 L85.025,37.73 C85.2850013,37.2199975 85.6349978,36.8150015 86.075,36.515 C86.5150022,36.2149985 87.0599967,36.065 87.71,36.065 C88.1600022,36.065 88.5924979,36.1474992 89.0075,36.3125 C89.4225021,36.4775008 89.7874984,36.7274983 90.1025,37.0625 C90.4175016,37.3975017 90.6674991,37.8174975 90.8525,38.3225 C91.0375009,38.8275025 91.13,39.4199966 91.13,40.1 C91.13,40.7900035 91.035001,41.3874975 90.845,41.8925 C90.6549991,42.3975025 90.4000016,42.8174983 90.08,43.1525 C89.7599984,43.4875017 89.3900021,43.7374992 88.97,43.9025 C88.5499979,44.0675008 88.1100023,44.15 87.65,44.15 Z M87.455,42.965 C88.1450035,42.965 88.7024979,42.7275024 89.1275,42.2525 C89.5525021,41.7774976 89.765,41.0600048 89.765,40.1 C89.765,39.1599953 89.5525021,38.4475024 89.1275,37.9625 C88.7024979,37.4774976 88.1450035,37.235 87.455,37.235 C87.1149983,37.235 86.7975015,37.2949994 86.5025,37.415 C86.2074985,37.5350006 85.9525011,37.7124988 85.7375,37.9475 C85.5224989,38.1825012 85.3525006,38.4799982 85.2275,38.84 C85.1024994,39.2000018 85.04,39.6199976 85.04,40.1 C85.04,40.5800024 85.1024994,40.9999982 85.2275,41.36 C85.3525006,41.7200018 85.5224989,42.0199988 85.7375,42.26 C85.9525011,42.5000012 86.2074985,42.6774994 86.5025,42.7925 C86.7975015,42.9075006 87.1149983,42.965 87.455,42.965 Z M99.755,40.1 C99.755,40.7500032 99.657501,41.3249975 99.4625,41.825 C99.267499,42.3250025 99.0025017,42.7474983 98.6675,43.0925 C98.3324983,43.4375017 97.9350023,43.6999991 97.475,43.88 C97.0149977,44.0600009 96.5150027,44.15 95.975,44.15 C95.4249973,44.15 94.9200023,44.0575009 94.46,43.8725 C93.9999977,43.6874991 93.6050016,43.4050019 93.275,43.025 C92.9449983,42.6449981 92.6875009,42.1650029 92.5025,41.585 C92.3174991,41.0049971 92.225,40.320004 92.225,39.53 C92.225,38.8799968 92.2449998,38.260003 92.285,37.67 C92.3250002,37.0799971 92.4149993,36.5325025 92.555,36.0275 C92.6950007,35.5224975 92.8974987,35.067502 93.1625,34.6625 C93.4275013,34.257498 93.7849978,33.9200013 94.235,33.65 C94.4850012,33.4999993 94.7449986,33.3875004 95.015,33.3125 C95.2850014,33.2374996 95.5574986,33.1800002 95.8325,33.14 C96.1075014,33.0999998 96.3849986,33.075 96.665,33.065 C96.9450014,33.055 97.2199987,33.045 97.49,33.035 C97.890002,33.0049999 98.2249987,32.9550003 98.495,32.885 C98.7650014,32.8149996 99.004999,32.7200006 99.215,32.6 L99.215,33.8 C98.9949989,33.9400007 98.7625012,34.0374997 98.5175,34.0925 C98.2724988,34.1475003 97.9750017,34.1949998 97.625,34.235 C97.0549971,34.2850003 96.5325024,34.3224999 96.0575,34.3475 C95.5824976,34.3725001 95.1500019,34.484999 94.76,34.685 C94.2599975,34.9650014 93.907501,35.3824972 93.7025,35.9375 C93.497499,36.4925028 93.3700003,37.1499962 93.32,37.91 C93.8400026,36.709994 94.8199928,36.11 96.26,36.11 C96.7500025,36.11 97.2074979,36.1974991 97.6325,36.3725 C98.0575021,36.5475009 98.4274984,36.8049983 98.7425,37.145 C99.0575016,37.4850017 99.3049991,37.9024975 99.485,38.3975 C99.6650009,38.8925025 99.755,39.4599968 99.755,40.1 Z M95.975,42.965 C96.3250017,42.965 96.6474985,42.9075006 96.9425,42.7925 C97.2375015,42.6774994 97.4949989,42.5025012 97.715,42.2675 C97.9350011,42.0324988 98.1049994,41.7350018 98.225,41.375 C98.3450006,41.0149982 98.405,40.5900025 98.405,40.1 C98.405,39.6099976 98.3450006,39.1850018 98.225,38.825 C98.1049994,38.4649982 97.9350011,38.1675012 97.715,37.9325 C97.4949989,37.6974988 97.2375015,37.5225006 96.9425,37.4075 C96.6474985,37.2924994 96.3250017,37.235 95.975,37.235 C95.2849966,37.235 94.7125023,37.4649977 94.2575,37.925 C93.8024977,38.3850023 93.575,39.0949952 93.575,40.055 C93.575,40.5550025 93.6349994,40.9874982 93.755,41.3525 C93.8750006,41.7175018 94.0424989,42.0199988 94.2575,42.26 C94.4725011,42.5000012 94.7249986,42.6774994 95.015,42.7925 C95.3050015,42.9075006 95.6249983,42.965 95.975,42.965 Z M105.965,42.515 C105.875,42.6950009 105.760001,42.882499 105.62,43.0775 C105.479999,43.272501 105.305001,43.4499992 105.095,43.61 C104.884999,43.7700008 104.637501,43.8999995 104.3525,44 C104.067499,44.1000005 103.735002,44.15 103.355,44.15 C102.654997,44.15 102.090002,43.952502 101.66,43.5575 C101.229998,43.162498 101.015,42.5950037 101.015,41.855 C101.015,41.0049957 101.312497,40.380002 101.9075,39.98 C102.502503,39.579998 103.349995,39.38 104.45,39.38 L105.905,39.38 L105.905,38.735 C105.905,38.1949973 105.765001,37.8100011 105.485,37.58 C105.204999,37.3499988 104.725003,37.235 104.045,37.235 C103.564998,37.235 103.110002,37.3124992 102.68,37.4675 C102.249998,37.6225008 101.865002,37.799999 101.525,38 L101.525,36.815 C101.805001,36.6449992 102.182498,36.4775008 102.6575,36.3125 C103.132502,36.1474992 103.654997,36.065 104.225,36.065 C105.205005,36.065 105.949997,36.267498 106.46,36.6725 C106.970003,37.077502 107.225,37.7049958 107.225,38.555 L107.225,42.74 C107.225,42.8300005 107.2275,42.9324994 107.2325,43.0475 C107.2375,43.1625006 107.2425,43.2799994 107.2475,43.4 C107.2525,43.5200006 107.26,43.6324995 107.27,43.7375 C107.28,43.8425005 107.29,43.9299996 107.3,44 L106.1,44 C106.07,43.8599993 106.0425,43.6625013 106.0175,43.4075 C105.9925,43.1524987 105.98,42.930001 105.98,42.74 L105.965,42.515 Z M103.64,42.965 C104.050002,42.965 104.399999,42.8800009 104.69,42.71 C104.980001,42.5399991 105.214999,42.3425011 105.395,42.1175 C105.575001,41.8924989 105.705,41.6725011 105.785,41.4575 C105.865,41.2424989 105.905,41.0900004 105.905,41 L105.905,40.43 L104.585,40.43 C103.794996,40.43 103.222502,40.5424989 102.8675,40.7675 C102.512498,40.9925011 102.335,41.3299978 102.335,41.78 C102.335,42.1300017 102.439999,42.4149989 102.65,42.635 C102.860001,42.8550011 103.189998,42.965 103.64,42.965 Z M114.38,40.55 L110.615,40.55 L110.615,44 L109.295,44 L109.295,36.215 L110.615,36.215 L110.615,39.425 L114.38,39.425 L114.38,36.215 L115.7,36.215 L115.7,44 L114.38,44 L114.38,40.55 Z M119.87,40.685 L119.18,40.685 L119.18,44 L117.86,44 L117.86,36.215 L119.18,36.215 L119.18,39.56 L119.93,39.56 L122.66,36.215 L124.16,36.215 L120.965,40.055 L124.22,44 L122.615,44 L119.87,40.685 Z M129.095,33.245 L135.65,33.245 L135.65,34.535 L130.505,34.535 L130.505,37.565 L132.635,37.565 C133.825006,37.565 134.739997,37.8099976 135.38,38.3 C136.020003,38.7900025 136.34,39.5799946 136.34,40.67 C136.34,41.270003 136.245001,41.7799979 136.055,42.2 C135.864999,42.6200021 135.597502,42.9649986 135.2525,43.235 C134.907498,43.5050014 134.495002,43.6999994 134.015,43.82 C133.534998,43.9400006 133.005003,44 132.425,44 L129.095,44 L129.095,33.245 Z M130.505,38.84 L130.505,42.725 L132.425,42.725 C132.785002,42.725 133.112499,42.6925003 133.4075,42.6275 C133.702501,42.5624997 133.957499,42.4500008 134.1725,42.29 C134.387501,42.1299992 134.554999,41.9250013 134.675,41.675 C134.795001,41.4249988 134.855,41.1100019 134.855,40.73 C134.855,40.0899968 134.660002,39.6150016 134.27,39.305 C133.879998,38.9949984 133.320004,38.84 132.59,38.84 L130.505,38.84 Z M139.55,42.2 L143.705,36.215 L145.04,36.215 L145.04,44 L143.72,44 L143.72,38.03 L139.58,44 L138.23,44 L138.23,36.215 L139.55,36.215 L139.55,42.2 Z M152.72,41.735 C152.72,42.1750022 152.632501,42.5474985 152.4575,42.8525 C152.282499,43.1575015 152.045001,43.407499 151.745,43.6025 C151.444998,43.797501 151.097502,43.9374996 150.7025,44.0225 C150.307498,44.1075004 149.895002,44.15 149.465,44.15 C148.894997,44.15 148.392502,44.0900006 147.9575,43.97 C147.522498,43.8499994 147.180001,43.7050009 146.93,43.535 L146.93,42.35 C147.240002,42.5400009 147.609998,42.6899995 148.04,42.8 C148.470002,42.9100005 148.934997,42.965 149.435,42.965 C150.005003,42.965 150.482498,42.8725009 150.8675,42.6875 C151.252502,42.5024991 151.445,42.1850022 151.445,41.735 C151.445,41.2949978 151.282502,40.9850009 150.9575,40.805 C150.632498,40.6249991 150.135003,40.535 149.465,40.535 L148.43,40.535 L148.43,39.47 L149.51,39.47 C150.060003,39.47 150.479999,39.370001 150.77,39.17 C151.060001,38.969999 151.205,38.6800019 151.205,38.3 C151.205,38.099999 151.1575,37.9325007 151.0625,37.7975 C150.9675,37.6624993 150.840001,37.5525004 150.68,37.4675 C150.519999,37.3824996 150.332501,37.3225002 150.1175,37.2875 C149.902499,37.2524998 149.675001,37.235 149.435,37.235 C148.974998,37.235 148.547502,37.2899994 148.1525,37.4 C147.757498,37.5100006 147.400002,37.664999 147.08,37.865 L147.08,36.68 C147.340001,36.5099991 147.677498,36.3650006 148.0925,36.245 C148.507502,36.1249994 148.989997,36.065 149.54,36.065 C150.490005,36.065 151.207498,36.2449982 151.6925,36.605 C152.177502,36.9650018 152.42,37.4849966 152.42,38.165 C152.42,38.6750026 152.282501,39.0749986 152.0075,39.365 C151.732499,39.6550015 151.345002,39.8549995 150.845,39.965 C151.465003,40.0450004 151.932498,40.2399985 152.2475,40.55 C152.562502,40.8600015 152.72,41.2549976 152.72,41.735 Z M159.74,40.55 L155.975,40.55 L155.975,44 L154.655,44 L154.655,36.215 L155.975,36.215 L155.975,39.425 L159.74,39.425 L159.74,36.215 L161.06,36.215 L161.06,44 L159.74,44 L159.74,40.55 Z M169.415,43.34 C169.304999,43.4200004 169.170001,43.5049996 169.01,43.595 C168.849999,43.6850005 168.655001,43.7724996 168.425,43.8575 C168.194999,43.9425004 167.935001,44.0124997 167.645,44.0675 C167.354999,44.1225003 167.030002,44.15 166.67,44.15 C165.359993,44.15 164.365003,43.7950036 163.685,43.085 C163.004997,42.3749964 162.665,41.3800064 162.665,40.1 C162.665,39.4699969 162.757499,38.9050025 162.9425,38.405 C163.127501,37.9049975 163.384998,37.4825017 163.715,37.1375 C164.045002,36.7924983 164.434998,36.5275009 164.885,36.3425 C165.335002,36.1574991 165.824997,36.065 166.355,36.065 C166.915003,36.065 167.414998,36.1599991 167.855,36.35 C168.295002,36.5400009 168.657499,36.8199982 168.9425,37.19 C169.227501,37.5600018 169.422499,38.0174973 169.5275,38.5625 C169.632501,39.1075027 169.630001,39.7399964 169.52,40.46 L164.03,40.46 C164.08,41.3000042 164.329998,41.9274979 164.78,42.3425 C165.230002,42.7575021 165.899996,42.965 166.79,42.965 C167.390003,42.965 167.904998,42.8800009 168.335,42.71 C168.765002,42.5399991 169.124999,42.355001 169.415,42.155 L169.415,43.34 Z M166.325,37.235 C165.754997,37.235 165.265002,37.4099983 164.855,37.76 C164.444998,38.1100018 164.185001,38.6399964 164.075,39.35 L168.26,39.35 C168.3,38.6299964 168.135002,38.0975017 167.765,37.7525 C167.394998,37.4074983 166.915003,37.235 166.325,37.235 Z M174.65,44.15 C174.049997,44.15 173.507502,44.0575009 173.0225,43.8725 C172.537498,43.6874991 172.125002,43.4225017 171.785,43.0775 C171.444998,42.7324983 171.185001,42.3100025 171.005,41.81 C170.824999,41.3099975 170.735,40.7400032 170.735,40.1 C170.735,39.4699969 170.827499,38.9050025 171.0125,38.405 C171.197501,37.9049975 171.459998,37.4825017 171.8,37.1375 C172.140002,36.7924983 172.554998,36.5275009 173.045,36.3425 C173.535002,36.1574991 174.089997,36.065 174.71,36.065 C175.190002,36.065 175.629998,36.1174995 176.03,36.2225 C176.430002,36.3275005 176.759999,36.479999 177.02,36.68 L177.02,37.865 C176.699998,37.6549989 176.342502,37.4975005 175.9475,37.3925 C175.552498,37.2874995 175.145002,37.235 174.725,37.235 C173.814995,37.235 173.147502,37.4699976 172.7225,37.94 C172.297498,38.4100023 172.085,39.1299951 172.085,40.1 C172.085,41.0700049 172.289998,41.7899977 172.7,42.26 C173.110002,42.7300023 173.759996,42.965 174.65,42.965 C175.120002,42.965 175.552498,42.9075006 175.9475,42.7925 C176.342502,42.6774994 176.699998,42.5300009 177.02,42.35 L177.02,43.535 C176.739999,43.7050009 176.402502,43.8499994 176.0075,43.97 C175.612498,44.0900006 175.160003,44.15 174.65,44.15 Z M186.785,44.15 C186.064996,44.15 185.390003,44.0275012 184.76,43.7825 C184.129997,43.5374988 183.585002,43.1800023 183.125,42.71 C182.664998,42.2399976 182.302501,41.6600034 182.0375,40.97 C181.772499,40.2799965 181.64,39.4850045 181.64,38.585 C181.64,37.6849955 181.772499,36.8925034 182.0375,36.2075 C182.302501,35.5224966 182.664998,34.9525023 183.125,34.4975 C183.585002,34.0424977 184.129997,33.6975012 184.76,33.4625 C185.390003,33.2274988 186.064996,33.11 186.785,33.11 C187.515004,33.11 188.194997,33.2274988 188.825,33.4625 C189.455003,33.6975012 189.999998,34.0449977 190.46,34.505 C190.920002,34.9650023 191.279999,35.5374966 191.54,36.2225 C191.800001,36.9075034 191.93,37.6999955 191.93,38.6 C191.93,39.4900045 191.800001,40.2799965 191.54,40.97 C191.279999,41.6600034 190.920002,42.2399976 190.46,42.71 C189.999998,43.1800023 189.455003,43.5374988 188.825,43.7825 C188.194997,44.0275012 187.515004,44.15 186.785,44.15 Z M186.785,42.875 C187.305003,42.875 187.784998,42.7975008 188.225,42.6425 C188.665002,42.4874992 189.047498,42.2425017 189.3725,41.9075 C189.697502,41.5724983 189.952499,41.1350027 190.1375,40.595 C190.322501,40.0549973 190.415,39.4000038 190.415,38.63 C190.415,37.8599962 190.322501,37.2050027 190.1375,36.665 C189.952499,36.1249973 189.697502,35.6875017 189.3725,35.3525 C189.047498,35.0174983 188.665002,34.7725008 188.225,34.6175 C187.784998,34.4624992 187.305003,34.385 186.785,34.385 C186.264997,34.385 185.785002,34.4624992 185.345,34.6175 C184.904998,34.7725008 184.522502,35.0174983 184.1975,35.3525 C183.872498,35.6875017 183.617501,36.1249973 183.4325,36.665 C183.247499,37.2050027 183.155,37.8599962 183.155,38.63 C183.155,39.4000038 183.247499,40.0549973 183.4325,40.595 C183.617501,41.1350027 183.872498,41.5724983 184.1975,41.9075 C184.522502,42.2425017 184.904998,42.4874992 185.345,42.6425 C185.785002,42.7975008 186.264997,42.875 186.785,42.875 Z M198.725,40.55 L194.96,40.55 L194.96,44 L193.64,44 L193.64,36.215 L194.96,36.215 L194.96,39.425 L198.725,39.425 L198.725,36.215 L200.045,36.215 L200.045,44 L198.725,44 L198.725,40.55 Z M202.805,41.585 C202.945001,41.0749974 203.035,40.3850044 203.075,39.515 C203.115,38.6449956 203.135,37.5450067 203.135,36.215 L208.37,36.215 L208.37,44 L207.035,44 L207.035,37.34 L204.38,37.34 C204.37,38.4100053 204.3375,39.3599959 204.2825,40.19 C204.2275,41.0200041 204.112501,41.7199971 203.9375,42.29 C203.762499,42.8600029 203.507502,43.2924985 203.1725,43.5875 C202.837498,43.8825015 202.390003,44.03 201.83,44.03 L201.71,44.03 C201.67,44.03 201.625,44.0250001 201.575,44.015 L201.575,42.71 C201.625,42.72 201.69,42.725 201.77,42.725 C202.280003,42.725 202.624999,42.3450038 202.805,41.585 Z M215.075,42.515 C214.985,42.6950009 214.870001,42.882499 214.73,43.0775 C214.589999,43.272501 214.415001,43.4499992 214.205,43.61 C213.994999,43.7700008 213.747501,43.8999995 213.4625,44 C213.177499,44.1000005 212.845002,44.15 212.465,44.15 C211.764996,44.15 211.200002,43.952502 210.77,43.5575 C210.339998,43.162498 210.125,42.5950037 210.125,41.855 C210.125,41.0049957 210.422497,40.380002 211.0175,39.98 C211.612503,39.579998 212.459994,39.38 213.56,39.38 L215.015,39.38 L215.015,38.735 C215.015,38.1949973 214.875001,37.8100011 214.595,37.58 C214.314999,37.3499988 213.835003,37.235 213.155,37.235 C212.674998,37.235 212.220002,37.3124992 211.79,37.4675 C211.359998,37.6225008 210.975002,37.799999 210.635,38 L210.635,36.815 C210.915001,36.6449992 211.292498,36.4775008 211.7675,36.3125 C212.242502,36.1474992 212.764997,36.065 213.335,36.065 C214.315005,36.065 215.059997,36.267498 215.57,36.6725 C216.080003,37.077502 216.335,37.7049958 216.335,38.555 L216.335,42.74 C216.335,42.8300005 216.3375,42.9324994 216.3425,43.0475 C216.3475,43.1625006 216.3525,43.2799994 216.3575,43.4 C216.3625,43.5200006 216.37,43.6324995 216.38,43.7375 C216.39,43.8425005 216.4,43.9299996 216.41,44 L215.21,44 C215.18,43.8599993 215.1525,43.6625013 215.1275,43.4075 C215.1025,43.1524987 215.09,42.930001 215.09,42.74 L215.075,42.515 Z M212.75,42.965 C213.160002,42.965 213.509999,42.8800009 213.8,42.71 C214.090001,42.5399991 214.324999,42.3425011 214.505,42.1175 C214.685001,41.8924989 214.815,41.6725011 214.895,41.4575 C214.975,41.2424989 215.015,41.0900004 215.015,41 L215.015,40.43 L213.695,40.43 C212.904996,40.43 212.332502,40.5424989 211.9775,40.7675 C211.622498,40.9925011 211.445,41.3299978 211.445,41.78 C211.445,42.1300017 211.549999,42.4149989 211.76,42.635 C211.970001,42.8550011 212.299998,42.965 212.75,42.965 Z M221.84,35.18 C221.439998,35.18 221.092501,35.1275005 220.7975,35.0225 C220.502499,34.9174995 220.257501,34.7725009 220.0625,34.5875 C219.867499,34.4024991 219.7225,34.1875012 219.6275,33.9425 C219.5325,33.6974988 219.485,33.4300014 219.485,33.14 L220.805,33.14 C220.805,33.5200019 220.897499,33.7949991 221.0825,33.965 C221.267501,34.1350008 221.519998,34.22 221.84,34.22 C222.160002,34.22 222.409999,34.1350008 222.59,33.965 C222.770001,33.7949991 222.86,33.5200019 222.86,33.14 L224.18,33.14 C224.18,33.7100029 223.987502,34.192498 223.6025,34.5875 C223.217498,34.982502 222.630004,35.18 221.84,35.18 Z M219.725,42.2 L223.88,36.215 L225.215,36.215 L225.215,44 L223.895,44 L223.895,38.03 L219.755,44 L218.405,44 L218.405,36.215 L219.725,36.215 L219.725,42.2 Z M232.46,40.55 L228.695,40.55 L228.695,44 L227.375,44 L227.375,36.215 L228.695,36.215 L228.695,39.425 L232.46,39.425 L232.46,36.215 L233.78,36.215 L233.78,44 L232.46,44 L232.46,40.55 Z"/>
    </g>
</svg>
