<svg width="24" height="24" viewBox="0 0 24 24" xmlns="http://www.w3.org/2000/svg">
    <path fill-rule="evenodd" clip-rule="evenodd" d="M17.2115 6.5H7.45831L7.0287 8.66369H11.54L11.3207 9.77877H6.8206L6.39099 11.9425H10.8834L9.58951 18.5H12.4529C15.1534 18.5 17.5 16.6203 17.5 14.1394C17.5 12.0818 15.8433 10.3914 13.7078 9.91369L13.9544 8.66369H16.8162L17.2115 6.5ZM12.4321 16.3363L13.2733 12.0482C14.3962 12.3466 15.1229 13.2211 15.1229 14.1394C15.1229 15.2766 14.0024 16.3363 12.4529 16.3363H12.4321Z" />
    <path fill-rule="evenodd" clip-rule="evenodd" d="M0 12C-2.89694e-07 5.37258 5.37258 2.89694e-07 12 0C18.6274 -2.89694e-07 24 5.37258 24 12C24 18.6274 18.6274 24 12 24C5.37259 24 2.89694e-07 18.6274 0 12ZM12 2C6.47716 2 2 6.47715 2 12C2 17.5228 6.47715 22 12 22C17.5228 22 22 17.5229 22 12C22 6.47716 17.5229 2 12 2Z" />
</svg>
