<svg width="40" height="24" viewBox="0 0 40 24" fill="none" xmlns="http://www.w3.org/2000/svg">
<g clip-path="url(#clip0)">
<path fill-rule="evenodd" clip-rule="evenodd" d="M18.9186 11.8165V16.5066H17.4414V4.92412H21.3591C21.8267 4.91428 22.2917 4.99782 22.7271 5.16992C23.1625 5.34202 23.5598 5.59927 23.896 5.92683C24.2356 6.2345 24.5058 6.61183 24.6886 7.03345C24.8714 7.45507 24.9625 7.91122 24.9557 8.37124C24.9654 8.83372 24.8757 9.29284 24.6928 9.71715C24.5099 10.1415 24.2381 10.5209 23.896 10.8295C23.2109 11.4875 22.3653 11.8162 21.3591 11.8156L18.9186 11.8165ZM18.9186 6.3501V10.3933H21.3958C21.6674 10.4014 21.9377 10.3523 22.1893 10.2492C22.441 10.1461 22.6685 9.99121 22.8574 9.79445C23.0452 9.61048 23.1946 9.39044 23.2965 9.14734C23.3985 8.90423 23.451 8.643 23.451 8.37909C23.451 8.11518 23.3985 7.85395 23.2965 7.61085C23.1946 7.36775 23.0452 7.14771 22.8574 6.96374C22.6709 6.76284 22.4442 6.60415 22.1922 6.4982C21.9402 6.39224 21.6687 6.34145 21.3958 6.34917L18.9186 6.3501Z" fill="#5F6368"/>
<path fill-rule="evenodd" clip-rule="evenodd" d="M28.3596 8.32324C29.4514 8.32324 30.3132 8.61713 30.9451 9.20489C31.5769 9.79266 31.8926 10.5985 31.8919 11.6225V16.5067H30.479V15.4069H30.4148C29.8031 16.3126 28.9896 16.7655 27.9742 16.7655C27.1075 16.7655 26.3824 16.5067 25.7989 15.9892C25.5188 15.7516 25.2949 15.4541 25.1435 15.1184C24.9921 14.7827 24.917 14.4171 24.9236 14.0484C24.9236 13.2284 25.2312 12.5762 25.8466 12.092C26.4619 11.6077 27.2834 11.365 28.311 11.3637C29.1881 11.3637 29.9105 11.5255 30.4781 11.8489V11.5088C30.4798 11.2575 30.4259 11.0089 30.3203 10.7811C30.2148 10.5533 30.0603 10.3521 29.868 10.1919C29.4773 9.83691 28.9682 9.64321 28.4422 9.64941C27.617 9.64941 26.9641 9.99998 26.4833 10.7011L25.1823 9.87583C25.898 8.84077 26.957 8.32324 28.3596 8.32324ZM26.4484 14.0808C26.4475 14.2701 26.4914 14.457 26.5766 14.6258C26.6618 14.7946 26.7859 14.9404 26.9384 15.0511C27.2651 15.31 27.6706 15.4471 28.0862 15.4393C28.7095 15.4382 29.307 15.1883 29.7478 14.7443C30.2371 14.2804 30.4818 13.7361 30.4818 13.1113C30.0212 12.7417 29.3789 12.5568 28.555 12.5568C27.955 12.5568 27.4546 12.7025 27.054 12.994C26.6494 13.2897 26.4484 13.6492 26.4484 14.0808Z" fill="#5F6368"/>
<path d="M35.0701 20L40.0026 8.58203H38.3942L36.1143 14.2749H36.0821L33.7379 8.58203H32.1323L35.3757 16.0049L33.5453 20H35.0701Z" fill="#5F6368"/>
<path d="M12.9495 10.8055C12.9501 10.352 12.912 9.8994 12.8357 9.45251H6.60596V12.0152H10.1741C10.1011 12.4245 9.94654 12.8147 9.71979 13.1622C9.49304 13.5097 9.19877 13.8074 8.85474 14.0373V15.7008H10.9842C12.2311 14.5428 12.9495 12.8303 12.9495 10.8055Z" fill="#4285F4"/>
<path d="M6.60585 17.308C8.38855 17.308 9.88957 16.7183 10.9841 15.7018L8.85463 14.0383C8.26193 14.4431 7.49858 14.6741 6.60585 14.6741C4.8828 14.6741 3.42031 13.5041 2.89734 11.9275H0.703613V13.6418C1.25344 14.7439 2.09653 15.6703 3.13877 16.3177C4.18101 16.965 5.38138 17.3079 6.60585 17.308Z" fill="#34A853"/>
<path d="M2.89763 11.9274C2.62116 11.1013 2.62116 10.2066 2.89763 9.38046V7.66614H0.703905C0.241374 8.59321 0.000488281 9.61639 0.000488281 10.6539C0.000488281 11.6915 0.241374 12.7147 0.703905 13.6418L2.89763 11.9274Z" fill="#FBBC04"/>
<path d="M6.60585 6.63393C7.54792 6.61843 8.45822 6.97696 9.13997 7.63202L11.0254 5.73287C9.82985 4.60177 8.24598 3.98077 6.60585 4.00007C5.38138 4.00013 4.18101 4.34298 3.13877 4.99037C2.09653 5.63775 1.25344 6.56417 0.703613 7.66622L2.89734 9.38053C3.42031 7.80392 4.8828 6.63393 6.60585 6.63393Z" fill="#EA4335"/>
</g>
<defs>
<clipPath id="clip0">
<rect width="40" height="24" fill="white"/>
</clipPath>
</defs>
</svg>
