<svg width="40" height="24" viewBox="0 0 61 39" fill="none" xmlns="http://www.w3.org/2000/svg">
<path fill-rule="evenodd" clip-rule="evenodd" d="M37.6704 32.1318H23.3291V6.56305H37.6704V32.1318Z" fill="#F36523"/>
<path fill-rule="evenodd" clip-rule="evenodd" d="M56.9999 19.2696C57.014 22.3171 56.159 25.3067 54.5331 27.8949C52.9073 30.483 50.5766 32.5647 47.8089 33.9008C45.0412 35.2368 41.9487 35.773 38.8869 35.4477C35.825 35.1224 32.9181 33.9488 30.5 32.0617C32.4502 30.5346 34.026 28.5906 35.1093 26.3753C36.1926 24.1599 36.7553 21.7307 36.7553 19.2696C36.7553 16.8085 36.1926 14.3793 35.1093 12.1639C34.026 9.94861 32.4502 8.00458 30.5 6.47747C32.9182 4.59083 35.8251 3.41756 38.8868 3.09245C41.9485 2.76734 45.0408 3.30358 47.8083 4.63956C50.5759 5.97553 52.9065 8.05706 54.5325 10.645C56.1584 13.2329 57.0136 16.2223 56.9999 19.2696" fill="#FA9F1B"/>
<path fill-rule="evenodd" clip-rule="evenodd" d="M24.2441 19.2706C24.2407 16.8089 24.802 14.3785 25.8857 12.1626C26.9694 9.94677 28.5471 8.00324 30.5001 6.4785C28.082 4.59147 25.175 3.41787 22.1132 3.09255C19.0513 2.76724 15.9589 3.30341 13.1912 4.63946C10.4234 5.97551 8.09274 8.05722 6.46692 10.6454C4.84109 13.2335 3.98609 16.2231 4.00017 19.2706C3.98609 22.3181 4.84109 25.3077 6.46692 27.8959C8.09274 30.4841 10.4234 32.5658 13.1912 33.9018C15.9589 35.2379 19.0513 35.774 22.1132 35.4487C25.175 35.1234 28.082 33.9498 30.5001 32.0628C28.5471 30.538 26.9694 28.5945 25.8857 26.3786C24.802 24.1628 24.2407 21.7324 24.2441 19.2706" fill="#E71B26"/>
</svg>
