<svg width="53" height="34" viewBox="0 0 53 34" fill="none" xmlns="http://www.w3.org/2000/svg">
    <path fill-rule="evenodd" clip-rule="evenodd" d="M33.6704 29.833H19.3291V4.26428H33.6704V29.833Z" fill="#F36523"/>
    <path fill-rule="evenodd" clip-rule="evenodd" d="M52.9999 16.9708C53.014 20.0183 52.159 23.0079 50.5331 25.5961C48.9073 28.1843 46.5766 30.266 43.8089 31.602C41.0412 32.9381 37.9487 33.4742 34.8869 33.1489C31.825 32.8236 28.9181 31.65 26.5 29.763C28.4502 28.2359 30.026 26.2918 31.1093 24.0765C32.1926 21.8611 32.7553 19.4319 32.7553 16.9708C32.7553 14.5097 32.1926 12.0805 31.1093 9.86518C30.026 7.64985 28.4502 5.70581 26.5 4.1787C28.9182 2.29206 31.8251 1.11879 34.8868 0.793684C37.9485 0.468574 41.0408 1.00481 43.8083 2.34079C46.5759 3.67677 48.9065 5.75829 50.5325 8.34622C52.1584 10.9341 53.0136 13.9235 52.9999 16.9708Z" fill="#FA9F1B"/>
    <path fill-rule="evenodd" clip-rule="evenodd" d="M20.2441 16.9719C20.2407 14.5101 20.802 12.0797 21.8857 9.86387C22.9694 7.64801 24.5471 5.70447 26.5001 4.17974C24.082 2.29271 21.175 1.1191 18.1132 0.793786C15.0513 0.468471 11.9589 1.00464 9.19116 2.34069C6.42343 3.67674 4.09274 5.75845 2.46692 8.34661C0.841088 10.9348 -0.0139094 13.9244 0.00017115 16.9719C-0.0139094 20.0194 0.841088 23.009 2.46692 25.5971C4.09274 28.1853 6.42343 30.267 9.19116 31.6031C11.9589 32.9391 15.0513 33.4753 18.1132 33.15C21.175 32.8246 24.082 31.651 26.5001 29.764C24.5471 28.2393 22.9694 26.2957 21.8857 24.0799C20.802 21.864 20.2407 19.4336 20.2441 16.9719Z" fill="#E71B26"/>
</svg>


