<svg width="40" height="24" viewBox="0 0 56 30" fill="none" xmlns="http://www.w3.org/2000/svg">
    <path fill-rule="evenodd" clip-rule="evenodd" d="M31.1789 9.58432L27.6416 16.863H27.2813V8.00205H22.2553V22.9999H26.5216C27.06 23.0064 27.5895 22.8614 28.0501 22.5815C28.5108 22.3016 28.8843 21.8978 29.1284 21.4158L32.6667 14.1362H33.0251V22.9999H38.052V8.00205H33.7867C33.2481 7.99551 32.7185 8.1404 32.2577 8.42035C31.7969 8.70029 31.4232 9.10413 31.1789 9.5862V9.58432ZM12.32 9.97052L10.2303 16.8639H9.87187L7.7784 9.97052C7.58756 9.38969 7.2168 8.88536 6.72026 8.53121C6.22373 8.17705 5.62745 7.99164 5.01853 8.00205H0V22.9999H5.02413V14.1352H5.3844L8.25627 22.9999H11.8459L14.7177 14.1362H15.0761V22.9999H20.1021V8.00205H15.0827C14.4733 7.99104 13.8764 8.17617 13.3793 8.53036C12.8822 8.88456 12.511 9.38922 12.32 9.97052ZM40.2015 14.8167V22.9999H45.2172V18.2268H50.6119C51.7018 18.2426 52.7708 17.9249 53.6767 17.3159C54.5826 16.707 55.2825 15.8356 55.6836 14.8176H40.2052L40.2015 14.8167Z" fill="#3BA634"/>
    <path fill-rule="evenodd" clip-rule="evenodd" d="M50.6154 8.00194H39.4863C39.8744 9.76847 40.8601 11.3453 42.2756 12.4641C43.6911 13.5828 45.4489 14.1744 47.2498 14.1379H55.8925C55.9638 13.8011 55.9998 13.4577 55.9998 13.1134C55.9593 11.719 55.3696 10.3976 54.3601 9.43933C53.3507 8.48105 52.0039 7.96411 50.6154 8.00194Z" fill="#009BDB"/>
</svg>
