<svg width="56" height="15" viewBox="0 0 56 15" fill="none" xmlns="http://www.w3.org/2000/svg">
    <path fill-rule="evenodd" clip-rule="evenodd" d="M31.1789 1.58432L27.6416 8.86297H27.2813V0.00205147H22.2553V14.9999H26.5216C27.06 15.0064 27.5895 14.8614 28.0501 14.5815C28.5108 14.3016 28.8843 13.8978 29.1284 13.4158L32.6667 6.13617H33.0251V14.9999H38.052V0.00205147H33.7867C33.2481 -0.00448802 32.7185 0.140404 32.2577 0.42035C31.7969 0.700295 31.4232 1.10413 31.1789 1.5862V1.58432ZM12.32 1.97052L10.2303 8.86391H9.87187L7.7784 1.97052C7.58756 1.38969 7.2168 0.885356 6.72026 0.531205C6.22373 0.177055 5.62745 -0.00835871 5.01853 0.00205147H0V14.9999H5.02413V6.13524H5.3844L8.25627 14.9999H11.8459L14.7177 6.13617H15.0761V14.9999H20.1021V0.00205147H15.0827C14.4733 -0.00896387 13.8764 0.176168 13.3793 0.530362C12.8822 0.884555 12.511 1.38922 12.32 1.97052ZM40.2015 6.8167V14.9999H45.2172V10.2268H50.6119C51.7018 10.2426 52.7708 9.92486 53.6767 9.31592C54.5826 8.70698 55.2825 7.83563 55.6836 6.81764H40.2052L40.2015 6.8167Z" fill="#3BA634"/>
    <path fill-rule="evenodd" clip-rule="evenodd" d="M50.6154 0.00193969H39.4863C39.8744 1.76848 40.8601 3.34533 42.2756 4.46409C43.6911 5.58285 45.4489 6.17436 47.2498 6.13794H55.8925C55.9638 5.80114 55.9998 5.45774 55.9998 5.1134C55.9593 3.71895 55.3696 2.39761 54.3601 1.43933C53.3507 0.481048 52.0039 -0.0358948 50.6154 0.00193969Z" fill="#009BDB"/>
</svg>
