<svg width="501" height="252" viewBox="0 0 501 252" fill="none" xmlns="http://www.w3.org/2000/svg">
<g clip-path="url(#clip0_1334_519)" filter="url(#filter0_d_1334_519)">
<path d="M6.25782 122C6.25388 105.953 9.41125 90.0617 15.5496 75.2347C21.688 60.4077 30.687 46.9351 42.0329 35.5865C53.3788 24.2378 66.8491 15.2354 81.6746 9.09342C96.5001 2.95142 112.39 -0.209844 128.438 -0.209843H372.808C388.946 -0.355846 404.954 2.69675 419.906 8.77166C434.859 14.8466 448.459 23.8234 459.923 35.1838C471.387 46.5443 480.486 60.0632 486.696 74.9599C492.906 89.8566 496.103 105.836 496.103 121.975C496.103 138.114 492.906 154.094 486.696 168.99C480.486 183.887 471.387 197.406 459.923 208.766C448.459 220.127 434.859 229.104 419.906 235.179C404.954 241.254 388.946 244.306 372.808 244.16H128.438C96.0379 244.158 64.9655 231.287 42.0535 208.379C19.1415 185.47 6.26577 154.4 6.25782 122V122Z" fill="#21A038"/>
<path d="M250 135.24V163.12H234V73.5898H263.78C292.05 73.5898 304.06 83.6999 304.06 103.91C304.06 124.76 289.99 135.24 263.78 135.24H250ZM250 88.3098V120.52H265C279.83 120.52 287.51 115.66 287.51 103.52C287.51 92.5199 280.83 88.2999 265.27 88.2999L250 88.3098Z" fill="white"/>
<path d="M312.509 103.658C316.719 100.498 324.389 97.8984 335.399 97.8984C354.069 97.8984 363.279 104.308 363.279 120.898V163.108H349.219V151.618C346.149 159.028 338.359 164.148 328.109 164.148C315.199 164.148 307.539 156.858 307.539 144.328C307.539 129.738 318.149 125.648 333.869 125.648H348.319V122.848C348.319 113.768 343.979 110.948 335.399 110.948C323.639 110.948 316.869 115.558 312.529 122.328L312.509 103.658ZM348.299 140.558V135.378H335.649C326.829 135.378 322.649 137.048 322.649 142.788C322.649 147.648 326.219 150.718 332.869 150.718C342.929 150.718 347.669 144.998 348.299 140.558Z" fill="white"/>
<path d="M370.68 99.1806H387.36L404.88 143.001L419.19 99.1406H435.05L409.48 169.871C403.85 185.211 398.11 188.661 389.66 188.661C385.66 188.661 381.32 187.511 379.43 185.861V172.001C381.491 174.004 384.236 175.148 387.11 175.201C391.7 175.201 395.11 172.131 397.59 163.521L370.68 99.1806Z" fill="white"/>
<path d="M102.406 103.719V123.359L128.406 139.679L190.726 93.8188C188.529 88.981 185.774 84.4166 182.516 80.2188L128.436 119.999L102.406 103.719Z" fill="white"/>
<path d="M180.999 120.522V121.942C181.026 133.708 177.112 145.144 169.882 154.426C162.651 163.708 152.521 170.301 141.106 173.154C129.691 176.006 117.649 174.954 106.902 170.164C96.1553 165.374 87.322 157.124 81.8114 146.728C76.3009 136.332 74.4306 124.39 76.499 112.808C78.5673 101.225 84.4551 90.6684 93.2231 82.8224C101.991 74.9764 113.134 70.2928 124.875 69.5187C136.615 68.7447 148.277 71.9249 157.999 78.5518L171.349 68.7518C158.882 58.6833 143.273 53.316 127.251 53.588C111.228 53.8599 95.8106 59.7538 83.6927 70.2396C71.5747 80.7253 63.5269 95.1361 60.9558 110.953C58.3847 126.771 61.4538 142.989 69.6267 156.773C77.7997 170.557 90.5566 181.03 105.668 186.363C120.78 191.696 137.285 191.549 152.299 185.947C167.313 180.346 179.881 169.646 187.807 155.718C195.732 141.791 198.512 125.521 195.659 109.752L180.999 120.522Z" fill="white"/>
</g>
<defs>
<filter id="filter0_d_1334_519" x="-4" y="0" width="508" height="252" filterUnits="userSpaceOnUse" color-interpolation-filters="sRGB">
<feFlood flood-opacity="0" result="BackgroundImageFix"/>
<feColorMatrix in="SourceAlpha" type="matrix" values="0 0 0 0 0 0 0 0 0 0 0 0 0 0 0 0 0 0 127 0" result="hardAlpha"/>
<feOffset dy="4"/>
<feGaussianBlur stdDeviation="2"/>
<feComposite in2="hardAlpha" operator="out"/>
<feColorMatrix type="matrix" values="0 0 0 0 0 0 0 0 0 0 0 0 0 0 0 0 0 0 0.25 0"/>
<feBlend mode="normal" in2="BackgroundImageFix" result="effect1_dropShadow_1334_519"/>
<feBlend mode="normal" in="SourceGraphic" in2="effect1_dropShadow_1334_519" result="shape"/>
</filter>
<clipPath id="clip0_1334_519">
<rect width="500" height="244" fill="white"/>
</clipPath>
</defs>
</svg>
