<svg width="98" height="120" viewBox="0 0 98 120" fill="none" xmlns="http://www.w3.org/2000/svg">
<path d="M0 26.12L14.532 52.095V67.939L0.017 93.863L0 26.12Z" fill="#5B57A2"/>
<path d="M55.797 42.643L69.414 34.297L97.282 34.271L55.797 59.685V42.643Z" fill="#D90751"/>
<path d="M55.72 25.967L55.797 60.357L41.231 51.407V0L55.721 25.967H55.72Z" fill="#FAB718"/>
<path d="M97.282 34.271L69.413 34.297L55.72 25.967L41.231 0L97.281 34.271H97.282Z" fill="#ED6F26"/>
<path d="M55.797 94.007V77.322L41.231 68.542L41.239 120L55.797 94.007Z" fill="#63B22F"/>
<path d="M69.38 85.737L14.531 52.095L0 26.12L97.223 85.703L69.379 85.737H69.38Z" fill="#1487C9"/>
<path d="M41.24 120L55.796 94.007L69.379 85.737L97.222 85.703L41.24 120Z" fill="#017F36"/>
<path d="M0.0170898 93.863L41.3501 68.543L27.4541 60.017L14.5321 67.939L0.0170898 93.863Z" fill="#984995"/>
</svg>
