<svg width="477" height="437" viewBox="0 0 477 437" fill="none" xmlns="http://www.w3.org/2000/svg">
<g clip-path="url(#clip0_1334_532)">
<path fill-rule="evenodd" clip-rule="evenodd" d="M470.446 204.21L476.806 183.88L455.806 184.54C446 184.155 436.53 180.866 428.596 175.09C429.526 175.18 430.456 175.31 431.426 175.31C444.306 175.31 456.796 167.55 461.786 156.44L470.786 136.38C463.529 136.434 456.276 136.003 449.076 135.09C448.996 135.09 440.816 134.03 431.366 124.37C424.596 117.46 416.206 113.79 407.126 113.79C403.529 113.802 399.956 114.375 396.536 115.49C397.045 113.852 397.443 112.181 397.726 110.49C400.616 91.7097 388.546 77.3997 388.546 77.4097L372.746 57.8497L362.936 80.8497C362.936 80.9197 360.426 86.3197 356.006 88.9497C354.333 80.7558 350.289 73.2342 344.376 67.3197C339.467 62.2904 333.593 58.304 327.107 55.5993C320.62 52.8947 313.654 51.5275 306.626 51.5797C304.159 51.5665 301.695 51.7471 299.256 52.1197L280.176 55.8697C281.804 49.3857 284.41 43.1878 287.906 37.4897L298.436 21.0897L271.936 24.0897L263.496 6.17969L247.156 14.6097L231.996 -0.320312L216.996 14.6097L200.616 6.17969L192.156 24.0997L165.666 21.0997L176.216 37.4997C179.717 43.1799 182.321 49.3659 183.936 55.8397L165.726 52.2497L165.096 52.1497C162.582 51.7609 160.041 51.5703 157.496 51.5797C149.076 51.5797 132.976 53.5797 119.786 67.3097C113.856 73.2411 109.799 80.783 108.116 88.9997C103.726 86.3897 101.266 81.0797 101.266 81.0797L91.4462 57.8997L75.3862 77.5997C73.3862 80.1297 63.7462 93.5997 66.3862 110.53C66.6747 112.22 67.0722 113.89 67.5762 115.53C64.1621 114.401 60.5922 113.813 56.9962 113.79C47.9062 113.79 39.5162 117.46 32.7262 124.37C23.3062 133.99 15.1862 135.07 15.2562 135.07C8.00951 136.155 0.680649 136.593 -6.64375 136.38L2.35625 156.44C7.35625 167.55 19.8562 175.31 32.7262 175.31C33.7262 175.31 34.6162 175.18 35.5662 175.09C27.6924 180.83 18.3007 184.12 8.56625 184.55L-12.8438 183.88L-6.35375 204.21C-3.08375 214.69 7.81625 232.05 28.6963 233.92C26.4263 243.43 21.3863 254.11 10.3263 258.7L-5.61375 265.27L3.07625 280.42C7.99625 288.59 19.5462 298.14 35.9963 298.14C39.4506 298.138 42.8956 297.78 46.2762 297.07C47.1343 300.847 48.1823 304.578 49.4162 308.25C54.2462 322.8 49.9963 332.93 49.9963 333L42.1162 349.5L59.6962 354.13C63.6731 355.146 67.7616 355.66 71.8663 355.66C74.7623 355.667 77.6491 355.331 80.4662 354.66C82.4788 354.187 84.4514 353.559 86.3663 352.78C88.6191 356.864 91.396 360.635 94.6263 364C105.886 375.55 121.846 381.4 142.066 381.4H142.136L156.566 381.22L126.746 393.62L149.386 404.56C158.471 409.161 167.786 413.289 177.296 416.93L174.466 424.67L182.266 428.23C182.966 428.54 197.976 435.23 222.906 436.68C222.906 436.68 228.906 436.96 232.246 436.96C235.586 436.96 241.516 436.67 241.516 436.67C266.286 435.2 281.176 428.54 281.876 428.23L289.696 424.66L286.846 416.92C296.455 413.226 305.871 409.048 315.056 404.4L337.266 393.61L307.546 381.22L322.036 381.4C342.286 381.4 358.256 375.55 369.496 363.97C372.723 360.639 375.499 356.901 377.756 352.85C379.675 353.629 381.651 354.261 383.666 354.74C386.483 355.389 389.366 355.708 392.256 355.69C396.302 355.681 400.331 355.181 404.256 354.2L421.996 349.54L414.306 333.35C414.116 332.93 409.916 322.8 414.796 308.24C416.036 304.53 417.086 300.79 417.936 297.07C421.337 297.78 424.802 298.139 428.276 298.14C434.827 298.212 441.286 296.605 447.04 293.474C452.794 290.342 457.65 285.79 461.146 280.25L469.756 265.25L453.756 258.71C442.676 254.1 437.646 243.43 435.396 233.92C455.996 232.14 467.076 214.76 470.446 204.21Z" fill="#FFFFFE"/>
<path fill-rule="evenodd" clip-rule="evenodd" d="M232.052 62C215.162 62 202.502 67.55 199.742 74.06L232.052 86.81L264.362 74C261.622 67.51 249.002 62 232.052 62Z" fill="#FFFFFE"/>
<path fill-rule="evenodd" clip-rule="evenodd" d="M232.391 399.441H231.741C221.511 399.511 207.401 397.441 200.631 395.441L192.461 417.541C197.841 419.461 216.091 423.141 232.081 423.141C248.071 423.141 266.291 419.461 271.661 417.541L263.511 395.441C256.701 397.411 242.611 399.511 232.391 399.441Z" fill="#FFFFFE"/>
<path fill-rule="evenodd" clip-rule="evenodd" d="M294.196 377.449C288.116 380.879 274.536 386.049 266.656 388.449L273.276 406.709C283.835 403.926 294.091 400.104 303.896 395.299L290.136 390.729L294.196 377.449Z" fill="#FFFFFE"/>
<path fill-rule="evenodd" clip-rule="evenodd" d="M169.932 377.449L174.002 390.729L160.242 395.299C170.041 400.101 180.291 403.923 190.842 406.709L197.482 388.449C189.592 386.049 176.002 380.879 169.932 377.449Z" fill="#FFFFFE"/>
<path fill-rule="evenodd" clip-rule="evenodd" d="M232.05 40.8309C244.78 40.8309 257.26 43.8309 266.86 49.2309C267.9 45.7449 269.159 42.3281 270.63 39.0009L267 39.4009L263.19 39.8009L261.58 36.3309L256.72 26.0809L247.87 30.6809L244.42 32.4409L241.67 29.7309L232.05 20.2109L222.45 29.7309L219.7 32.4409L216.25 30.6809L207.36 26.0809L202.57 36.3309L200.92 39.8009L197.12 39.4009L193.5 39.0009C194.968 42.3396 196.227 45.7662 197.27 49.2609C206.9 43.8809 219.37 40.8309 232.05 40.8309Z" fill="#FFFFFE"/>
<path fill-rule="evenodd" clip-rule="evenodd" d="M426.41 159.37C428.018 159.925 429.709 160.202 431.41 160.19C438.61 160.19 445.56 155.54 447.96 150.19C447.96 150.19 434.76 149.39 420.55 134.98C416.04 130.31 411.26 128.91 407.15 128.91C403.191 128.978 399.33 130.148 396 132.29C413.14 141.43 416.64 156.08 426.41 159.37Z" fill="#FFFFFE"/>
<path fill-rule="evenodd" clip-rule="evenodd" d="M32.7097 160.19C34.4109 160.203 36.1019 159.926 37.7097 159.37C47.4897 156.07 51.0297 141.43 68.1597 132.3C64.8255 130.16 60.9607 128.993 56.9997 128.93C52.8797 128.93 48.0997 130.33 43.5597 135C29.3697 149.41 16.1797 150.22 16.1797 150.22C18.5397 155.53 25.5197 160.19 32.7097 160.19Z" fill="#FFFFFE"/>
<path fill-rule="evenodd" clip-rule="evenodd" d="M421.229 264.551C407.999 258.001 399.579 240.641 397.559 234.391C395.349 268.831 378.559 292.721 358.889 315.731C352.885 322.65 348.222 330.626 345.139 339.251C345.139 339.251 347.139 326.111 355.929 315.421C374.259 293.421 391.689 265.971 392.979 234.271C393.869 212.141 388.189 194.191 379.299 179.411C384.299 194.801 383.559 213.671 366.699 231.271C366.699 231.271 400.279 191.041 353.339 149.791C334.549 134.091 313.989 124.401 303.409 117.531C341.639 130.011 360.319 116.271 360.319 116.271C348.109 126.861 332.319 126.681 322.489 125.151C325.149 126.451 327.919 127.791 330.889 129.401C363.129 146.911 392.109 175.721 397.049 215.631V215.321C404.549 254.501 421.229 264.551 421.229 264.551ZM431.049 218.901C431.349 218.901 431.599 218.901 431.909 218.901C449.909 218.901 455.909 199.661 455.909 199.661H455.559C446.095 199.334 436.817 196.947 428.372 192.665C419.926 188.383 412.516 182.311 406.659 174.871C394.229 159.091 384.039 145.201 363.919 139.741L361.919 139.391L361.489 137.391C360.939 134.321 363.049 131.391 367.819 128.331C395.659 110.151 376.799 87.0013 376.799 87.0013C376.799 87.0013 368.869 105.541 351.129 105.541H349.809C347.823 105.501 345.843 105.304 343.889 104.951L340.619 104.311C340.619 104.311 345.689 90.5513 333.469 77.9213C329.989 74.33 325.815 71.4835 321.201 69.5548C316.587 67.626 311.629 66.6552 306.629 66.7013C304.843 66.68 303.059 66.8206 301.299 67.1213C307.439 75.1213 311.869 88.4413 304.789 96.6513C298.669 103.711 283.719 104.051 283.719 114.561C283.719 119.021 287.879 124.221 295.349 128.881C317.829 143.031 340.129 161.811 349.419 186.981C360.999 218.361 347.939 239.201 329.309 251.151C333.356 254.572 338.346 256.685 343.619 257.211C345.349 257.381 347.039 257.461 348.619 257.461C366.509 257.461 375.769 249.061 375.769 249.061C374.215 257.351 370.472 265.075 364.929 271.431C356.339 281.371 345.069 287.231 327.849 287.431C327.849 287.431 327.319 295.431 334.929 302.321C339.809 306.681 351.059 308.101 351.059 308.101C351.059 308.101 329.989 312.371 327.649 343.501C326.389 360.371 322.079 366.241 322.079 366.241H322.459C371.379 366.241 370.129 324.241 370.129 324.241C371.389 328.087 373.614 331.546 376.589 334.289C379.565 337.032 383.193 338.967 387.129 339.911C388.794 340.321 390.504 340.519 392.219 340.501C394.985 340.49 397.741 340.154 400.429 339.501C400.429 339.501 393.279 324.431 400.369 303.351C406.249 285.851 405.299 272.891 405.299 272.891C405.299 272.891 411.889 282.891 428.229 282.941H428.389C432.257 283.018 436.081 282.118 439.509 280.325C442.937 278.532 445.857 275.903 447.999 272.681C415.379 259.141 418.609 215.441 418.609 215.441C418.609 215.441 422.799 218.611 431.049 218.901Z" fill="#FFFFFE"/>
<path fill-rule="evenodd" clip-rule="evenodd" d="M105.211 315.731C85.5706 292.731 68.7706 268.831 66.5406 234.391C64.5406 240.651 56.1606 258.011 42.9006 264.561C42.9006 264.561 59.5706 254.501 67.0606 215.321V215.621C72.0606 175.731 100.981 146.911 133.231 129.411C136.231 127.801 138.971 126.411 141.621 125.161C131.821 126.671 116.011 126.851 103.811 116.271C103.811 116.271 122.481 130.001 160.701 117.531C150.131 124.401 129.581 134.091 110.801 149.791C63.8006 191.041 97.4306 231.281 97.4306 231.281C80.5306 213.661 79.8606 194.811 84.8206 179.401C75.9306 194.191 70.2406 212.141 71.1606 234.271C72.4406 265.971 89.8606 293.391 108.161 315.431C117.001 326.111 119.001 339.251 119.001 339.251C115.897 330.626 111.221 322.651 105.211 315.731V315.731ZM113.071 308.141C113.071 308.141 124.331 306.731 129.211 302.361C136.831 295.451 136.281 287.461 136.281 287.461C119.071 287.221 107.811 281.361 99.1606 271.461C93.6485 265.094 89.9251 257.378 88.3706 249.101C88.3706 249.101 97.6306 257.491 115.501 257.491C117.101 257.491 118.771 257.411 120.501 257.241C125.782 256.713 130.781 254.601 134.841 251.181C116.191 239.231 103.131 218.401 114.711 187.011C123.991 161.851 146.281 143.061 168.711 128.911C176.181 124.251 180.341 119.051 180.341 114.591C180.341 104.081 165.401 103.741 159.281 96.6807C152.201 88.4707 156.641 75.1707 162.761 67.1507C161.006 66.8553 159.229 66.7181 157.451 66.7407C152.455 66.6872 147.501 67.6478 142.888 69.5643C138.274 71.4808 134.098 74.3134 130.611 77.8907C118.371 90.5207 123.451 104.291 123.451 104.291L120.181 104.921C118.225 105.271 116.246 105.472 114.261 105.521H112.961C95.1806 105.521 87.2906 86.9707 87.2906 86.9707C87.2906 86.9707 68.4406 110.171 96.2006 128.351C100.971 131.451 103.081 134.351 102.521 137.411L102.091 139.411L100.091 139.771C80.0006 145.231 69.8306 159.111 57.3906 174.891C51.5378 182.332 44.1301 188.406 35.6853 192.686C27.2406 196.966 17.9627 199.35 8.50063 199.671H8.14062C8.14062 199.671 14.2306 218.921 32.2106 218.921C32.5006 218.921 32.7706 218.921 33.0606 218.921C41.3306 218.631 45.5706 215.471 45.5706 215.471C45.5706 215.471 48.7606 259.151 16.1706 272.701C18.3016 275.919 21.2085 278.55 24.6232 280.35C28.038 282.15 31.8509 283.061 35.7106 283.001H35.8706C52.2206 282.901 58.7906 272.941 58.7906 272.941C58.7906 272.941 57.8506 285.941 63.7106 303.391C70.8006 324.491 63.7106 339.551 63.7106 339.551C66.3885 340.204 69.1341 340.54 71.8906 340.551C73.6104 340.586 75.3277 340.401 77.0006 340.001C80.9326 339.056 84.558 337.122 87.5332 334.384C90.5083 331.645 92.7345 328.191 94.0006 324.351C94.0006 324.351 92.7506 366.301 141.681 366.301H142.001C142.001 366.301 137.711 360.431 136.461 343.561C134.171 312.411 113.071 308.141 113.071 308.141V308.141Z" fill="#FFFFFE"/>
<path fill-rule="evenodd" clip-rule="evenodd" d="M221 153.542H244.06V161.452C241.35 158.142 236.06 158.812 236.06 158.812V170.212C236.06 170.212 236.26 175.832 238.22 178.212H226.83C228.83 175.782 229.01 170.212 229.01 170.212V158.812C229.01 158.812 223.74 158.142 221.01 161.452L221 153.542ZM195.88 154.732C196.67 155.582 197.46 156.522 198.23 157.462C198.41 157.692 198.57 157.882 198.75 158.142C199.46 159.072 200.16 160.062 200.84 161.072C201 161.272 201.15 161.512 201.31 161.742C202.13 162.982 202.9 164.262 203.67 165.582C210.74 177.762 222 185.002 232 185.062C242 185.122 253.32 177.762 260.39 165.582C261.18 164.222 261.97 162.912 262.78 161.682C262.9 161.512 263.04 161.332 263.15 161.152C263.85 160.092 264.57 159.082 265.33 158.092L265.8 157.502C266.59 156.502 267.4 155.582 268.22 154.702C268.346 154.564 268.479 154.434 268.62 154.312C272.305 150.467 276.969 147.701 282.11 146.312L279.61 144.862H279.47L269.54 139.092L259.34 133.252L232.12 148.002H232.04L204.77 133.172L194.58 139.012L184.63 144.782H184.51L182 146.272C187.143 147.662 191.81 150.428 195.5 154.272C195.6 154.422 195.71 154.592 195.89 154.732H195.88Z" fill="#FFFFFE"/>
<path fill-rule="evenodd" clip-rule="evenodd" d="M223.363 103.251V110.701L221.933 110.041C221.873 110.041 219.773 109.521 216.113 106.621C210.113 101.941 209.953 97.6211 209.953 97.6211L223.363 103.251ZM229.693 138.201V91.8711L200.203 81.8711L208.003 126.761L229.693 138.201Z" fill="#FFFFFE"/>
<path fill-rule="evenodd" clip-rule="evenodd" d="M240.756 103.251L254.156 97.6111C254.156 97.6111 254.046 101.941 247.986 106.611C244.346 109.511 242.246 109.991 242.176 110.031L240.756 110.691V103.251ZM256.126 126.761L263.876 81.8711L234.406 91.8711V138.201L256.126 126.761Z" fill="#FFFFFE"/>
<path fill-rule="evenodd" clip-rule="evenodd" d="M188.002 245.578C190.631 246.426 193.379 246.852 196.142 246.838C196.212 246.618 196.302 246.348 196.392 246.008C196.561 245.476 196.701 244.935 196.812 244.388C197.244 241.961 197.481 239.503 197.522 237.038C195.878 236.064 194.538 234.651 193.652 232.958C192.562 230.648 191.002 229.578 188.722 229.578C185.722 229.578 182.572 231.358 181.202 232.198C180.102 238.598 184.822 244.408 188.002 245.578Z" fill="#FFFFFE"/>
<path fill-rule="evenodd" clip-rule="evenodd" d="M253.213 221C247.743 227 237.013 237.32 236.493 237.84L235.853 238.5L202.003 238C201.974 240.801 201.604 243.588 200.903 246.3C200.816 246.653 200.726 247.013 200.633 247.38L240.923 254.62C245.113 251.69 256.653 243.27 261.133 239.96C258.365 235.717 257.347 230.567 258.293 225.59C256.352 224.358 254.635 222.806 253.213 221V221Z" fill="#FFFFFE"/>
<path fill-rule="evenodd" clip-rule="evenodd" d="M257.8 180.271C250 188.011 242.51 190.881 235.8 191.541C234.58 191.661 233.36 191.741 232.11 191.741H232C230.75 191.741 229.52 191.661 228.31 191.541C227.091 191.434 225.882 191.244 224.69 190.971C223.909 193.903 224.12 197.011 225.29 199.811C226.7 202.931 229.58 205.261 233.78 206.811L235.18 207.361V208.881C235.348 211.962 236.524 214.903 238.525 217.251C240.527 219.6 243.244 221.226 246.26 221.881C248.01 220.081 249.6 218.441 250.78 217.081C248.59 211.911 249.78 206.641 252.93 204.081C252.79 204.631 251.39 217.571 261.75 222.371L263.46 223.181L262.95 225.001C262.79 225.551 259.32 238.071 271.88 242.721L274.11 243.561L273.11 245.721C272.89 246.201 267.97 257.551 279.56 264.011H304.7V244.011C295.76 242.911 291.98 235.731 291 230.641C287.219 230.155 283.779 228.205 281.42 225.211C276.15 218.261 280.68 211.901 280.75 211.561C280.75 211.561 280.75 218.381 284.92 222.561C287.097 224.83 290.026 226.227 293.16 226.491L294.98 226.651L295.14 228.521C295.14 228.921 296.14 238.091 304.7 239.521V198.741C304.7 192.431 306.54 186.081 308.76 180.211L257.8 180.271Z" fill="#FFFFFE"/>
<path fill-rule="evenodd" clip-rule="evenodd" d="M190.143 198.999L189.453 224.949L192.453 225.409L199.673 200.499L196.003 192.789L190.143 198.999Z" fill="#FFFFFE"/>
<path fill-rule="evenodd" clip-rule="evenodd" d="M205.771 295.079C205.57 295.078 205.371 295.036 205.187 294.955C205.002 294.875 204.836 294.757 204.699 294.61C204.561 294.463 204.455 294.29 204.387 294.101C204.319 293.911 204.29 293.71 204.302 293.509C204.315 293.308 204.368 293.112 204.458 292.932C204.549 292.753 204.675 292.593 204.83 292.464C204.984 292.335 205.163 292.239 205.356 292.181C205.549 292.124 205.751 292.106 205.951 292.129C206.152 292.13 206.351 292.173 206.536 292.253C206.72 292.334 206.886 292.451 207.024 292.598C207.161 292.745 207.267 292.919 207.335 293.108C207.403 293.297 207.432 293.498 207.42 293.699C207.408 293.9 207.355 294.096 207.264 294.276C207.173 294.456 207.047 294.615 206.893 294.744C206.738 294.873 206.559 294.97 206.366 295.027C206.174 295.085 205.971 295.103 205.771 295.079ZM269.701 318.079C269.941 318.08 270.179 318.11 270.411 318.169C274.901 319.449 276.041 335.639 283.911 337.079C284.609 337.221 285.319 337.291 286.031 337.289C288.301 337.289 289.661 336.289 291.121 334.589C291.121 334.589 287.121 328.369 284.201 324.159C280.261 318.659 277.201 312.019 269.871 312.019C269.685 312.009 269.498 312.009 269.311 312.019C267.914 312.073 266.561 312.524 265.411 313.319C262.962 311.711 260.101 310.843 257.171 310.819C252.581 310.819 249.011 312.929 247.221 312.929H247.151L230.781 311.319C228.231 311.069 226.201 308.489 225.471 307.479C225.291 307.209 225.191 307.039 225.191 307.039C225.191 306.599 225.191 306.149 225.191 305.739C224.641 292.349 214.281 286.629 210.581 286.529C210.581 286.529 211.021 283.989 210.021 283.019L206.411 287.399L194.561 281.449L203.011 291.319L195.861 299.319C195.508 299.659 195.276 300.105 195.202 300.59C195.128 301.074 195.216 301.57 195.451 301.999L198.541 304.729L202.461 302.349C202.77 302.193 203.117 302.127 203.461 302.159C204.541 302.159 206.171 302.439 207.631 302.439C209.091 302.439 210.631 302.099 210.781 300.599C210.291 305.599 205.681 314.189 208.701 320.969L210.941 326.079L196.441 323.999L189.661 335.439C187.571 339.249 187.241 343.359 189.251 345.609L191.781 348.779C191.781 348.779 195.341 345.009 196.141 342.529L195.001 341.299C194.578 340.899 194.312 340.36 194.251 339.78C194.191 339.201 194.34 338.619 194.671 338.139L198.911 331.139L216.001 335.139L216.911 333.589C217.377 332.782 218.06 332.121 218.881 331.681C219.703 331.241 220.631 331.04 221.561 331.099C222.345 331.112 223.127 331.182 223.901 331.309C228.379 332.223 232.932 332.716 237.501 332.779C243.231 332.779 248.911 331.779 251.941 328.359C258.131 337.539 270.671 338.989 269.691 343.649L266.381 359.369C268.561 359.279 270.671 359.129 272.671 358.849L275.811 342.509C276.161 340.719 276.491 338.329 276.491 338.329C275.281 337.099 272.341 334.509 270.701 331.329C268.481 327.069 269.701 324.849 267.631 319.329C267.835 318.955 268.133 318.64 268.496 318.417C268.86 318.194 269.275 318.071 269.701 318.059V318.079Z" fill="#FFFFFE"/>
<path fill-rule="evenodd" clip-rule="evenodd" d="M182.438 332.93C182.438 332.93 188.098 330.6 188.608 328.93L187.848 327.04C187.539 326.512 187.427 325.893 187.532 325.291C187.636 324.689 187.95 324.143 188.417 323.75L194.537 319.52L204.748 321.52C203.601 319.958 203.013 318.056 203.078 316.12L193.328 314L184.138 319.6C182.532 320.788 181.372 322.48 180.843 324.405C180.313 326.331 180.445 328.378 181.218 330.22L182.438 332.93Z" fill="#FFFFFE"/>
<path fill-rule="evenodd" clip-rule="evenodd" d="M254.68 359.572C256.5 359.492 258.53 359.462 260.74 359.462C260.74 359.462 265.99 344.092 266.29 343.602C263.35 342.302 257.23 339.062 254.86 337.602C256.43 339.932 260.22 342.602 259.47 344.652L254.68 359.572Z" fill="#FFFFFE"/>
<path fill-rule="evenodd" clip-rule="evenodd" d="M304.7 268.422H159.43V323.072C159.43 345.412 175.6 359.402 199.43 359.402C219.36 359.402 224.62 360.182 232.04 367.542C237.15 362.442 241.37 360.542 250.04 359.832L250.25 358.982L254.83 344.832C254.57 344.512 247.09 336.012 247.09 336.012C244.09 337.012 241.62 337.162 237.44 337.162C232.598 337.108 227.771 336.609 223.02 335.672C222.522 335.553 222.011 335.496 221.5 335.502C220.86 335.502 220.81 335.502 220.64 335.872L219.74 337.362L218.07 340.112L215 339.402L201 336.112L199.09 339.262L199.37 339.602L201.07 341.472L200.32 343.912C199.32 347.092 195.96 350.812 194.95 351.842L191.46 355.572L188.28 351.572L185.9 348.572C183.39 345.762 182.81 341.472 184.22 336.972C184.183 337.004 184.138 337.024 184.09 337.032L180.15 338.652L178.39 334.812L177.14 332.092C175.951 329.319 175.741 326.225 176.545 323.317C177.348 320.409 179.116 317.861 181.56 316.092L192.78 309.762L203.46 311.862C203.71 310.862 204.09 307.162 204.4 306.232C204.19 306.232 204 306.162 203.79 306.162L197.64 308.462L191.7 304.362C191.7 304.362 189.38 302.132 191.49 299.892L197.23 291.182L182.7 272.862L205.08 282.052L206.58 280.202L209.58 276.592L213.01 279.852C213.907 280.736 214.529 281.862 214.8 283.092C220.97 285.492 232.03 292.572 233 304.092L229.54 305.472V305.562C229.966 306.147 230.534 306.615 231.19 306.922L247.19 308.492C247.69 308.377 248.184 308.237 248.67 308.072C251.391 307.051 254.264 306.493 257.17 306.422C260.053 306.435 262.898 307.087 265.5 308.332C266.662 307.915 267.877 307.666 269.11 307.592H269.88C278.42 307.592 282.69 313.972 286.09 319.072C286.66 319.962 287.23 320.782 287.82 321.612C290.82 325.832 294.7 331.992 294.82 332.262L296.58 335.012L294.43 337.522C293.437 338.819 292.16 339.87 290.696 340.595C289.233 341.319 287.623 341.698 285.99 341.702C285.016 341.693 284.045 341.593 283.09 341.402C282.219 341.23 281.367 340.968 280.55 340.622C280.43 341.472 280.25 342.472 280.1 343.342L277.3 357.952C294.05 353.832 304.69 341.192 304.69 323.082L304.7 268.422Z" fill="#FFE52B"/>
<path fill-rule="evenodd" clip-rule="evenodd" d="M159.421 264.002H272.421C270.187 261.644 268.626 258.731 267.9 255.565C267.174 252.4 267.308 249.097 268.291 246.002C266.772 245.272 265.359 244.34 264.091 243.232C259.671 246.492 246.191 256.302 242.671 258.762L241.911 259.272L197.571 251.272H196.661C195.217 251.275 193.774 251.192 192.341 251.022C192.13 251.975 191.602 252.829 190.842 253.443C190.083 254.057 189.137 254.395 188.161 254.402C187.922 254.403 187.684 254.379 187.451 254.332C186.314 254.138 185.298 253.505 184.623 252.57C183.948 251.635 183.667 250.472 183.841 249.332L184.011 248.382C179.431 245.152 175.211 237.952 177.081 230.382L177.261 229.582L177.911 229.122C178.001 229.052 178.771 228.532 179.911 227.872L176.681 227.382C176.106 227.281 175.594 226.96 175.252 226.488C174.91 226.016 174.766 225.428 174.851 224.852C174.896 224.565 174.997 224.289 175.148 224.041C175.3 223.793 175.499 223.578 175.734 223.407C175.969 223.236 176.235 223.113 176.518 223.045C176.801 222.977 177.094 222.966 177.381 223.012L185.061 224.232L185.761 197.232L197.181 185.152L204.321 200.152L196.791 226.152L203.571 227.222C204.125 227.296 204.631 227.58 204.983 228.015C205.334 228.451 205.506 229.004 205.463 229.562C205.419 230.12 205.164 230.641 204.749 231.016C204.333 231.392 203.79 231.594 203.231 231.582C203.114 231.592 202.997 231.592 202.881 231.582L197.361 230.692C197.431 230.862 197.541 230.962 197.611 231.132C198.22 232.205 199.145 233.064 200.261 233.592L234.071 234.122C235.501 232.732 239.071 229.262 242.701 225.582C239.518 224.419 236.723 222.392 234.63 219.728C232.536 217.064 231.227 213.869 230.851 210.502C226.201 208.502 222.991 205.502 221.211 201.692C219.622 197.929 219.337 193.744 220.401 189.802C215.07 187.712 210.259 184.488 206.301 180.352H155.391C157.571 186.222 159.391 192.572 159.391 198.882L159.421 264.002Z" fill="#FFE52B"/>
<path fill-rule="evenodd" clip-rule="evenodd" d="M206.002 292.13C205.807 292.114 205.611 292.136 205.425 292.197C205.24 292.257 205.068 292.354 204.92 292.481C204.771 292.609 204.65 292.765 204.563 292.94C204.476 293.115 204.425 293.305 204.412 293.5C204.394 293.697 204.417 293.896 204.479 294.083C204.54 294.271 204.64 294.444 204.771 294.592C204.902 294.74 205.062 294.86 205.241 294.944C205.42 295.028 205.615 295.074 205.812 295.08C206.012 295.103 206.214 295.086 206.406 295.028C206.598 294.971 206.777 294.875 206.931 294.746C207.085 294.618 207.212 294.459 207.302 294.28C207.393 294.101 207.447 293.905 207.46 293.705C207.473 293.505 207.445 293.304 207.377 293.115C207.31 292.926 207.205 292.752 207.069 292.605C206.933 292.457 206.768 292.339 206.584 292.258C206.401 292.176 206.203 292.133 206.002 292.13V292.13Z" fill="#1A1919"/>
<path fill-rule="evenodd" clip-rule="evenodd" d="M273.279 406.71L266.649 388.45C274.539 386.05 288.119 380.88 294.199 377.45L290.139 390.73L303.889 395.3C294.087 400.103 283.833 403.924 273.279 406.71ZM232.079 423.12C216.079 423.12 197.839 419.44 192.459 417.53L200.629 395.42C207.409 397.42 221.509 399.5 231.739 399.42H232.379C242.609 399.49 256.699 397.42 263.509 395.42L271.669 417.53C266.289 419.44 247.999 423.12 232.079 423.12V423.12ZM160.229 395.3L173.999 390.73L169.929 377.45C175.999 380.88 189.589 386.05 197.469 388.45L190.829 406.71C180.28 403.92 170.03 400.098 160.229 395.3V395.3ZM304.509 391.24L296.139 388.04L298.449 379.38L300.999 370C289.575 375.845 277.608 380.564 265.269 384.09C259.339 385.78 254.859 386.56 254.859 386.56V392.98C247.425 394.188 239.91 394.837 232.379 394.92H231.739C224.211 394.838 216.7 394.189 209.269 392.98V386.56C209.269 386.56 204.769 385.78 198.849 384.09C186.519 380.566 174.562 375.847 163.149 370L165.649 379.42L167.999 388L159.599 391.2L150.289 394.68C160.959 399.83 175.749 407.33 189.289 411.04L186.089 419.77C186.089 419.77 203.259 427.58 231.849 427.66H232.239C260.869 427.58 278.019 419.77 278.019 419.77L274.809 411.04C288.349 407.33 303.159 399.83 313.809 394.68L304.509 391.24Z" fill="#1A1919"/>
<path fill-rule="evenodd" clip-rule="evenodd" d="M197.12 39.3992L200.92 39.7992L202.57 36.3292L207.36 26.0792L216.25 30.6792L219.7 32.4392L222.44 29.7192L232 20.1992L241.63 29.7192L244.39 32.4392L247.83 30.6792L256.68 26.0792L261.54 36.3292L263.15 39.7992L266.95 39.3992L270.59 38.9592C269.121 42.3008 267.862 45.7308 266.82 49.2292C257.21 43.8792 244.74 40.8292 232 40.8292C219.26 40.8292 206.87 43.8292 197.23 49.2292C196.191 45.7482 194.945 42.3321 193.5 38.9992L197.12 39.3992ZM232 46.1792C249 46.1792 262.67 51.8192 270.2 57.8392C271.939 48.8644 275.282 40.2768 280.07 32.4892L266.4 34.0492L259.21 18.7992L245.42 25.9092L232 12.6992L218.71 25.9092L204.89 18.7992L197.72 34.0492L184 32.4892C188.793 40.2734 192.133 48.8625 193.86 57.8392C201.45 51.8192 215 46.1792 232 46.1792Z" fill="#1A1919"/>
<path fill-rule="evenodd" clip-rule="evenodd" d="M447.996 272.68C445.864 275.908 442.952 278.546 439.529 280.35C436.107 282.154 432.285 283.065 428.416 283H428.256C411.916 282.9 405.326 272.94 405.326 272.94C405.326 272.94 406.276 285.94 400.386 303.4C393.306 324.48 400.446 339.55 400.446 339.55C397.762 340.203 395.009 340.539 392.246 340.55C390.532 340.563 388.822 340.364 387.156 339.96C383.213 339.021 379.576 337.087 376.591 334.344C373.606 331.601 371.374 328.14 370.106 324.29C370.106 324.29 371.366 366.24 322.446 366.24H322.066C322.066 366.24 326.376 360.38 327.646 343.51C329.966 312.38 351.046 308.11 351.046 308.11C351.046 308.11 339.796 306.69 334.916 302.33C327.296 295.42 327.836 287.44 327.836 287.44C345.056 287.19 356.326 281.34 364.916 271.44C370.461 265.087 374.204 257.367 375.756 249.08C375.756 249.08 366.496 257.47 348.606 257.47C347.026 257.47 345.346 257.39 343.606 257.22C338.329 256.691 333.336 254.575 329.286 251.15C347.936 239.2 360.996 218.36 349.416 187C340.126 161.85 317.816 143.06 295.356 128.91C287.886 124.24 283.716 119.05 283.716 114.59C283.716 104.08 298.666 103.74 304.796 96.6796C311.866 88.4696 307.426 75.1596 301.296 67.1496C303.053 66.8491 304.834 66.7085 306.616 66.7296C311.614 66.6743 316.571 67.635 321.187 69.5534C325.802 71.4718 329.98 74.3079 333.466 77.8896C345.686 90.5196 340.616 104.28 340.616 104.28L343.886 104.92C345.841 105.273 347.82 105.47 349.806 105.51H351.126C368.866 105.51 376.796 86.9596 376.796 86.9596C376.796 86.9596 395.656 110.16 367.886 128.34C363.106 131.44 361.006 134.34 361.556 137.4L361.986 139.4L363.986 139.75C384.106 145.2 394.286 159.09 406.726 174.88C412.585 182.316 419.996 188.385 428.442 192.663C436.887 196.941 446.164 199.325 455.626 199.65H455.996C455.996 199.65 449.906 218.9 431.936 218.9C431.636 218.9 431.386 218.9 431.086 218.9C422.836 218.61 418.596 215.45 418.596 215.45C418.596 215.45 415.346 259.14 447.996 272.68ZM431.896 224.81C453.896 224.81 461.306 202.4 461.606 201.44L464.066 193.54L455.806 193.8C447.203 193.503 438.769 191.333 431.091 187.44C423.414 183.547 416.679 178.025 411.356 171.26L409.726 169.26C398.466 154.95 387.786 141.32 368.726 135.11C369.486 134.442 370.295 133.834 371.146 133.29C381.286 126.64 387.146 118.53 388.656 109.15C390.826 95.0096 381.806 83.7396 381.406 83.2796L375.276 75.6896L371.446 84.6896C371.186 85.2496 364.746 99.6896 351.186 99.6896H350.186C349.256 99.6896 348.366 99.6096 347.496 99.5396C347.976 93.1196 346.806 83.1696 337.786 73.8396C333.738 69.7042 328.898 66.4284 323.554 64.2083C318.21 61.9883 312.473 60.8697 306.686 60.9196C304.527 60.9113 302.37 61.0752 300.236 61.4096L290.966 63.2496L296.686 70.7796C301.166 76.5896 305.236 87.3096 300.416 92.8996C298.866 94.6796 295.696 96.1296 292.666 97.5796C286.436 100.45 277.906 104.46 277.906 114.64C277.906 121.23 283.026 128.12 292.296 133.98C319.726 151.23 336.646 169.23 343.956 189.1C355.266 219.66 340.506 237.1 326.186 246.29L319.756 250.43L325.386 255.59C330.402 259.884 336.615 262.537 343.186 263.19C345.106 263.31 346.946 263.42 348.676 263.42C354.288 263.447 359.873 262.638 365.246 261.02C363.903 263.372 362.336 265.589 360.566 267.64C352.376 277.12 342.296 281.45 327.816 281.64L322.426 281.73L322.016 287.13C321.966 288.21 321.566 298.23 331.016 306.74C332.519 308.067 334.202 309.175 336.016 310.03C329.586 315.82 323.016 325.9 321.796 343.16C320.726 357.58 317.286 362.9 317.246 362.96L311.286 372L322.046 372.15C339.806 372.15 353.406 367.28 362.846 357.54C367.716 352.429 371.352 346.272 373.476 339.54C377.016 342.557 381.232 344.674 385.766 345.71C387.891 346.202 390.066 346.444 392.246 346.43C395.508 346.41 398.756 346.014 401.926 345.25L408.796 343.43L405.796 337.02C405.566 336.5 399.796 323.64 406.006 305.3C408.252 298.618 409.816 291.726 410.676 284.73C416.119 287.509 422.155 288.93 428.266 288.87C433.187 288.941 438.045 287.764 442.387 285.449C446.73 283.134 450.414 279.755 453.096 275.63L456.446 269.8L450.246 267.25C429.986 258.84 425.506 236.25 424.606 224.03C426.675 224.455 428.776 224.703 430.886 224.77L431.896 224.81Z" fill="#1A1919"/>
<path fill-rule="evenodd" clip-rule="evenodd" d="M407.148 128.929C411.248 128.929 416.038 130.329 420.558 134.999C434.758 149.409 447.958 150.219 447.958 150.219C445.558 155.529 438.598 160.219 431.398 160.219C429.697 160.225 428.007 159.948 426.398 159.399C416.638 156.099 413.138 141.399 395.988 132.329C399.318 130.176 403.183 128.998 407.148 128.929V128.929ZM393.148 137.499C401.368 141.889 406.148 147.749 410.358 152.949C414.568 158.149 418.358 162.949 424.518 164.949C426.721 165.691 429.033 166.063 431.358 166.049C440.548 166.049 449.778 160.429 453.288 152.639L456.808 144.829L448.288 144.329C447.888 144.329 436.928 143.329 424.728 130.859C419.728 125.739 413.638 123.059 407.108 123.059C401.939 123.137 396.895 124.662 392.548 127.459L384.758 132.999L393.148 137.499Z" fill="#1A1919"/>
<path fill-rule="evenodd" clip-rule="evenodd" d="M397.048 215.32V215.62C392.108 175.72 363.138 146.91 330.888 129.4C327.888 127.79 325.158 126.4 322.488 125.15C332.298 126.67 348.108 126.85 360.308 116.27C360.308 116.27 341.638 130.01 303.398 117.53C313.978 124.4 334.558 134.09 353.338 149.79C400.278 191.04 366.698 231.27 366.698 231.27C383.558 213.67 384.268 194.81 379.308 179.41C388.188 194.19 393.858 212.13 392.978 234.27C391.688 265.97 374.258 293.39 355.928 315.42C347.108 326.11 345.148 339.25 345.148 339.25C348.227 330.621 352.89 322.645 358.898 315.73C378.548 292.73 395.358 268.83 397.548 234.39C399.548 240.64 407.958 258.01 421.228 264.55C421.228 264.55 404.548 254.5 397.048 215.32Z" fill="#1A1919"/>
<path fill-rule="evenodd" clip-rule="evenodd" d="M141.67 366.272C92.75 366.272 94 324.322 94 324.322C92.7382 328.168 90.5139 331.628 87.5385 334.372C84.5631 337.116 80.9353 339.054 77 340.002C75.3434 340.422 73.6389 340.624 71.93 340.602C69.1669 340.591 66.4147 340.255 63.73 339.602C63.73 339.602 70.85 324.542 63.73 303.442C57.87 285.952 58.82 272.982 58.82 272.982C58.82 272.982 52.24 282.982 35.89 283.042H35.7C31.8394 283.102 28.0259 282.188 24.611 280.387C21.1962 278.585 18.2898 275.952 16.16 272.732C48.76 259.182 45.57 215.502 45.57 215.502C45.57 215.502 41.33 218.662 33.07 218.952C32.77 218.952 32.49 218.952 32.21 218.952C14.21 218.952 8.14 199.702 8.14 199.702H8.5C17.9613 199.377 27.2377 196.992 35.6819 192.712C44.126 188.432 51.5344 182.36 57.39 174.922C69.83 159.142 80.03 145.262 100.12 139.802L102.12 139.452L102.55 137.452C103.11 134.382 101 131.452 96.23 128.392C68.48 110.152 87.33 87.0018 87.33 87.0018C87.33 87.0018 95.22 105.552 113.01 105.552H114.31C116.296 105.503 118.275 105.302 120.23 104.952L123.5 104.312C123.5 104.312 118.42 90.5518 130.66 77.9218C134.139 74.3317 138.311 71.4859 142.923 69.5572C147.535 67.6285 152.491 66.657 157.49 66.7018C159.269 66.678 161.047 66.8186 162.8 67.1218C156.69 75.1218 152.25 88.4418 159.33 96.6518C165.45 103.712 180.33 104.052 180.33 114.562C180.33 119.022 176.17 124.222 168.71 128.882C146.28 143.002 124 161.822 114.7 187.002C103.13 218.392 116.19 239.222 134.84 251.172C130.781 254.592 125.782 256.705 120.5 257.232C118.77 257.402 117.1 257.482 115.5 257.482C97.62 257.482 88.37 249.092 88.37 249.092C89.9244 257.369 93.6479 265.085 99.16 271.452C107.81 281.392 119.07 287.242 136.28 287.452C136.28 287.452 136.82 295.452 129.21 302.352C124.33 306.712 113.07 308.132 113.07 308.132C113.07 308.132 134.16 312.402 136.49 343.532C137.74 360.402 142.02 366.262 142.02 366.262L141.67 366.272ZM146.87 362.922C146.87 362.862 143.44 357.532 142.35 343.122C141.07 325.852 134.54 315.772 128.09 309.992C129.91 309.147 131.595 308.039 133.09 306.702C142.56 298.192 142.16 288.182 142.09 287.082L141.73 281.682L136.3 281.602C121.86 281.372 111.76 277.052 103.57 267.602C101.808 265.545 100.241 263.329 98.89 260.982C104.26 262.602 109.841 263.411 115.45 263.382C117.19 263.382 119.02 263.282 120.94 263.152C127.516 262.495 133.734 259.843 138.76 255.552L144.39 250.382L138 246.212C123.64 237.002 108.94 219.592 120.23 189.002C127.54 169.132 144.44 151.132 171.91 133.882C181.18 128.022 186.25 121.132 186.25 114.542C186.25 104.352 177.75 100.352 171.51 97.4718C168.51 96.0218 165.31 94.5918 163.77 92.8018C158.94 87.2118 163.01 76.4918 167.49 70.6818L173.25 63.1518L163.94 61.3118C161.806 60.9814 159.649 60.8175 157.49 60.8218C151.712 60.7739 145.984 61.8926 140.649 64.1109C135.313 66.3292 130.481 69.6015 126.44 73.7318C117.44 83.0718 116.21 93.0118 116.68 99.4418C115.81 99.5118 114.93 99.5418 114 99.6018H113C99.4 99.6018 93 85.1918 92.73 84.6018L88.91 75.6018L82.72 83.1818C82.37 83.6418 73.33 94.9218 75.53 109.052C76.99 118.452 82.89 126.542 93.03 133.212C93.884 133.745 94.6903 134.35 95.44 135.022C76.32 141.232 65.66 154.852 54.44 169.172L52.81 171.172C47.4926 177.962 40.7538 183.506 33.0664 187.415C25.379 191.325 16.9292 193.504 8.31 193.802L0 193.542L2.53 201.442C2.82 202.442 10.17 224.812 32.21 224.812H33.27C35.3829 224.732 37.4862 224.484 39.56 224.072C38.65 236.292 34.15 258.872 13.89 267.292L7.7 269.842L11.05 275.672C13.7384 279.8 17.43 283.179 21.7794 285.493C26.1289 287.807 30.9941 288.98 35.92 288.902C42.0173 288.959 48.0381 287.542 53.47 284.772C54.3288 291.769 55.8968 298.661 58.15 305.342C64.31 323.682 58.58 336.552 58.36 337.062L55.36 343.462L62.24 345.292C65.4139 346.056 68.6654 346.452 71.93 346.472C74.1006 346.481 76.2649 346.239 78.38 345.752C82.9217 344.72 87.1457 342.603 90.69 339.582C92.8089 346.314 96.4418 352.472 101.31 357.582C110.77 367.302 124.373 372.172 142.12 372.192L152.88 372.062L146.87 362.922Z" fill="#1A1919"/>
<path fill-rule="evenodd" clip-rule="evenodd" d="M43.5525 135.001C48.0925 130.331 52.8625 128.931 56.9925 128.931C60.9496 128.999 64.8098 130.166 68.1425 132.301C51.0025 141.431 47.4725 156.071 37.6825 159.371C36.0747 159.927 34.3837 160.204 32.6825 160.191C25.4825 160.191 18.5125 155.541 16.1425 150.191C16.1725 150.221 29.3725 149.411 43.5525 135.001ZM32.7125 166.001C35.0351 166.044 37.3491 165.706 39.5625 165.001C45.7125 163.001 49.5625 158.081 53.7425 153.001C57.9225 147.921 62.7425 141.931 70.9125 137.551L79.3825 133.001L71.5225 127.481C67.1913 124.677 62.1613 123.142 57.0025 123.051C53.686 123.081 50.4106 123.788 47.3773 125.13C44.344 126.471 41.6166 128.418 39.3625 130.851C27.1625 143.311 16.2225 144.321 15.8225 144.321L7.3125 144.821L10.8125 152.641C14.3125 160.421 23.5425 166.001 32.7125 166.001Z" fill="#1A1919"/>
<path fill-rule="evenodd" clip-rule="evenodd" d="M71.1606 234.27C70.2406 212.13 75.9206 194.2 84.8206 179.4C79.8206 194.81 80.5306 213.66 97.4306 231.27C97.4306 231.27 63.8406 191.04 110.801 149.79C129.571 134.09 150.131 124.4 160.701 117.53C122.481 130 103.811 116.27 103.811 116.27C116.011 126.85 131.811 126.68 141.631 125.15C138.971 126.44 136.191 127.8 133.231 129.4C101.001 146.91 72.0006 175.72 67.0506 215.62V215.32C59.5706 254.5 42.8906 264.56 42.8906 264.56C56.1606 258.01 64.5106 240.65 66.5506 234.39C68.7606 268.83 85.5506 292.72 105.211 315.73C111.223 322.648 115.899 330.624 119.001 339.25C119.001 339.25 117.001 326.11 108.161 315.43C89.8506 293.39 72.4306 266 71.1606 234.27Z" fill="#1A1919"/>
<path fill-rule="evenodd" clip-rule="evenodd" d="M221 153.539V161.459C223.73 158.139 229 158.809 229 158.809V170.219C229 170.219 228.82 175.829 226.82 178.219H238.23C236.23 175.789 236.07 170.219 236.07 170.219V158.809C236.07 158.809 241.35 158.139 244.07 161.459V153.539H221V153.539Z" fill="#1A1919"/>
<path fill-rule="evenodd" clip-rule="evenodd" d="M216.11 106.621C219.76 109.521 221.86 110.001 221.94 110.041L223.36 110.701V103.251L210 97.6211C210 97.6211 210.07 101.941 216.11 106.621Z" fill="#1A1919"/>
<path fill-rule="evenodd" clip-rule="evenodd" d="M247.998 106.621C254.048 101.941 254.168 97.6211 254.168 97.6211L240.758 103.251V110.701L242.168 110.041C242.248 110.001 244.348 109.521 247.998 106.621Z" fill="#1A1919"/>
<path fill-rule="evenodd" clip-rule="evenodd" d="M232.053 86.7812L199.743 74.0013C202.503 67.4913 215.163 62.0013 232.053 62.0013C248.943 62.0013 261.623 67.5413 264.353 74.0013L232.053 86.7812ZM256.133 126.781L234.423 138.201V91.8713L263.883 81.8713L256.133 126.781ZM269.583 139.071L279.513 144.841H279.653L282.153 146.301C277.014 147.694 272.351 150.46 268.663 154.301C268.533 154.421 268.413 154.551 268.273 154.691C267.443 155.571 266.633 156.521 265.843 157.491C265.703 157.681 265.543 157.871 265.383 158.081C264.623 159.081 263.883 160.081 263.193 161.141L262.833 161.681C262.003 162.911 261.213 164.221 260.433 165.571C253.363 177.751 242.083 185.031 232.053 185.051C222.023 185.071 210.743 177.751 203.683 165.571C202.913 164.251 202.133 162.971 201.323 161.731C201.163 161.501 201.013 161.261 200.863 161.061C200.173 160.061 199.473 159.061 198.773 158.121C198.583 157.871 198.413 157.681 198.233 157.451C197.473 156.521 196.683 155.581 195.883 154.721C195.713 154.581 195.603 154.421 195.453 154.281C191.771 150.434 187.106 147.667 181.963 146.281L184.483 144.821H184.593L194.533 139.051L204.743 133.211L232.003 148.051L232.053 147.991L232.133 148.051L259.383 133.211L269.583 139.071ZM308.753 180.291C306.523 186.161 304.693 192.511 304.693 198.821V239.601C296.173 238.171 295.173 228.991 295.143 228.601L294.983 226.741L293.143 226.581C290.014 226.305 287.091 224.906 284.913 222.641C280.733 218.461 280.733 211.701 280.733 211.641C280.673 211.991 276.143 218.351 281.413 225.301C283.771 228.298 287.211 230.248 290.993 230.731C291.993 235.821 295.753 243.011 304.693 244.101V264.001H279.573C267.983 257.561 272.893 246.201 273.113 245.721L274.113 243.571L271.903 242.731C259.343 238.071 262.803 225.551 262.973 225.011L263.473 223.181L261.763 222.371C251.403 217.571 252.763 204.631 252.943 204.081C249.753 206.671 248.603 211.941 250.803 217.081C249.613 218.441 248.023 220.081 246.273 221.891C243.251 221.234 240.529 219.6 238.528 217.241C236.528 214.882 235.359 211.93 235.203 208.841V207.321L233.793 206.771C229.603 205.221 226.723 202.891 225.303 199.771C224.141 196.97 223.933 193.863 224.713 190.931C225.906 191.204 227.115 191.395 228.333 191.501C229.543 191.621 230.783 191.701 232.023 191.701H232.193C233.433 191.701 234.663 191.621 235.873 191.501C242.573 190.841 250.053 187.971 257.873 180.231L308.753 180.291ZM277.343 358.001L280.153 343.381C280.293 342.511 280.473 341.501 280.593 340.661C281.409 341.012 282.261 341.274 283.133 341.441C284.089 341.626 285.06 341.726 286.033 341.741C287.666 341.738 289.277 341.359 290.74 340.634C292.203 339.909 293.481 338.858 294.473 337.561L296.623 335.051L294.863 332.301C294.703 332.031 290.813 325.871 287.863 321.651C287.273 320.831 286.703 320.001 286.133 319.111C282.733 314.011 278.473 307.621 269.913 307.621H269.153C267.923 307.689 266.71 307.938 265.553 308.361C262.949 307.117 260.1 306.464 257.213 306.451C254.308 306.522 251.435 307.08 248.713 308.101C248.143 308.271 247.643 308.451 247.243 308.521L231.243 306.951C230.588 306.644 230.02 306.176 229.593 305.591V305.501L233.063 304.121C232.063 292.601 221.063 285.521 214.853 283.121C214.591 281.888 213.968 280.76 213.063 279.881L209.623 276.621L206.623 280.241L205.133 282.081L182.753 272.891L197.313 291.161L191.563 299.871C189.463 302.101 191.783 304.341 191.783 304.341L197.723 308.441L203.873 306.141C204.083 306.141 204.273 306.191 204.483 306.211C204.183 307.151 203.793 310.811 203.543 311.841L192.863 309.741L181.593 316.001C179.155 317.774 177.39 320.323 176.589 323.23C175.788 326.136 175.998 329.229 177.183 332.001L178.433 334.721L180.203 338.561L184.123 336.941L184.273 336.881C182.863 341.391 183.433 345.671 185.943 348.481L188.333 351.481L191.503 355.481L194.993 351.741C195.993 350.741 199.333 347.001 200.353 343.821L201.113 341.391L199.413 339.511L199.133 339.171L201.043 336.021L215.003 339.401L218.143 340.121L219.813 337.371L220.723 335.871C220.893 335.541 220.933 335.501 221.573 335.501C222.085 335.495 222.596 335.552 223.093 335.671C227.844 336.606 232.672 337.102 237.513 337.151C241.693 337.151 244.193 336.991 247.163 336.001C247.163 336.001 254.643 344.501 254.903 344.831L250.303 359.001L250.093 359.851C241.413 360.561 237.193 362.461 232.093 367.561C224.673 360.201 219.423 359.431 199.483 359.431C175.613 359.431 159.483 345.431 159.483 323.081V268.421H304.703V323.061C304.733 341.181 294.093 353.831 277.343 358.001ZM187.853 327.101L188.613 328.991C188.113 330.651 182.443 332.991 182.443 332.991L181.213 330.311C180.442 328.469 180.312 326.42 180.843 324.495C181.374 322.569 182.536 320.878 184.143 319.691L193.333 314.081L203.083 316.161C203.018 318.096 203.602 319.997 204.743 321.561L194.533 319.561L188.433 323.781C187.966 324.17 187.651 324.711 187.544 325.31C187.438 325.909 187.548 326.526 187.853 327.051V327.101ZM275.853 342.551L272.723 358.891C270.633 359.167 268.531 359.338 266.423 359.401L269.733 343.701C270.733 339.041 258.173 337.571 251.983 328.391C248.983 331.801 243.273 332.811 237.543 332.811C232.975 332.748 228.422 332.263 223.943 331.361C223.171 331.221 222.388 331.147 221.603 331.141C220.672 331.083 219.743 331.286 218.922 331.728C218.1 332.169 217.418 332.832 216.953 333.641L216.043 335.181L198.953 331.181L194.713 338.181C194.381 338.662 194.232 339.246 194.293 339.827C194.353 340.409 194.619 340.949 195.043 341.351L196.193 342.611C195.393 345.101 191.843 348.861 191.843 348.861L189.303 345.691C187.303 343.441 187.623 339.331 189.723 335.521L196.443 324.001L210.913 326.091L208.663 321.001C205.663 314.221 210.253 305.601 210.743 300.631C210.573 302.131 209.193 302.471 207.593 302.471C205.993 302.471 204.503 302.191 203.423 302.191C203.078 302.158 202.73 302.228 202.423 302.391L198.503 304.761L195.423 302.001C195.188 301.572 195.102 301.078 195.178 300.595C195.254 300.111 195.488 299.667 195.843 299.331L202.993 291.331L194.533 281.451L206.383 287.401L210.003 283.001C211.003 284.001 210.563 286.531 210.563 286.531C214.253 286.611 224.633 292.351 225.183 305.721C225.183 306.131 225.183 306.591 225.183 307.041L225.463 307.471C226.193 308.471 228.223 311.061 230.783 311.301L247.143 312.921H247.213C249.003 312.921 252.573 310.811 257.163 310.811C260.095 310.836 262.956 311.708 265.403 313.321C266.551 312.521 267.905 312.07 269.303 312.021C269.49 312.007 269.677 312.007 269.863 312.021C277.203 312.021 280.253 318.661 284.193 324.161C287.193 328.361 291.123 334.591 291.123 334.591C289.653 336.331 288.293 337.291 286.023 337.291C285.311 337.294 284.601 337.223 283.903 337.081C276.033 335.641 274.903 319.451 270.403 318.171C270.171 318.112 269.933 318.082 269.693 318.081C269.264 318.093 268.845 318.219 268.479 318.445C268.114 318.672 267.815 318.991 267.613 319.371C269.673 324.891 268.463 327.111 270.683 331.371C272.333 334.521 275.263 337.111 276.473 338.371C276.483 338.321 276.153 340.711 275.803 342.501L275.853 342.551ZM260.783 359.551C258.583 359.551 256.553 359.551 254.733 359.651L259.523 344.721C260.273 342.661 256.523 340.001 254.923 337.671C258.628 339.866 262.443 341.869 266.353 343.671C266.003 344.091 260.733 359.461 260.733 359.461L260.783 359.551ZM189.453 224.911L190.143 198.961L195.963 192.791L199.623 200.451L192.403 225.371L189.453 224.911ZM193.643 232.911C194.53 234.604 195.87 236.017 197.513 236.991C197.473 239.456 197.236 241.914 196.803 244.341C196.683 244.911 196.533 245.441 196.383 245.961C196.293 246.301 196.203 246.571 196.133 246.791C193.371 246.805 190.623 246.379 187.993 245.531C184.833 244.361 180.103 238.531 181.203 232.151C182.563 231.321 185.743 229.531 188.713 229.531C191.003 229.581 192.563 230.651 193.643 233.001V232.911ZM261.113 239.911C256.633 243.211 245.113 251.641 240.903 254.571L200.613 247.321C200.703 246.961 200.803 246.601 200.893 246.251C201.584 243.554 201.957 240.785 202.003 238.001L235.873 238.541L236.523 237.881C237.033 237.361 247.763 226.991 253.233 221.041C254.655 222.829 256.366 224.366 258.293 225.591C257.351 230.556 258.361 235.693 261.113 239.931V239.911ZM206.313 180.251C210.273 184.381 215.08 187.605 220.403 189.701C219.349 193.646 219.638 197.829 221.223 201.591C223.003 205.451 226.223 208.421 230.863 210.401C231.242 213.768 232.552 216.962 234.645 219.626C236.738 222.289 239.532 224.317 242.713 225.481C239.063 229.161 235.513 232.631 234.073 234.031L200.283 233.491C199.164 232.965 198.235 232.106 197.623 231.031C197.563 230.861 197.443 230.771 197.373 230.601L202.893 231.481C203.01 231.491 203.127 231.491 203.243 231.481C203.765 231.49 204.272 231.309 204.671 230.973C205.07 230.636 205.334 230.167 205.413 229.651C205.503 229.074 205.361 228.484 205.018 228.01C204.676 227.536 204.16 227.217 203.583 227.121L196.803 226.051L204.333 200.051L197.193 185.051L185.773 197.131L185.073 224.131L177.393 223.001C177.106 222.956 176.813 222.967 176.531 223.035C176.248 223.103 175.982 223.226 175.747 223.397C175.512 223.567 175.313 223.783 175.161 224.031C175.01 224.279 174.908 224.554 174.863 224.841C174.779 225.42 174.925 226.008 175.269 226.481C175.612 226.953 176.127 227.273 176.703 227.371L179.913 227.861C178.773 228.521 178.003 229.041 177.913 229.111L177.263 229.571L177.083 230.371C175.223 237.961 179.443 245.161 184.003 248.371L183.843 249.371C183.67 250.512 183.951 251.674 184.626 252.61C185.301 253.545 186.316 254.177 187.453 254.371C188.536 254.553 189.648 254.313 190.558 253.698C191.468 253.084 192.107 252.144 192.343 251.071C193.781 251.234 195.227 251.315 196.673 251.311H197.573L241.913 259.311L242.663 258.811C246.193 256.341 259.663 246.531 264.083 243.271C265.352 244.388 266.769 245.323 268.293 246.051C267.305 249.147 267.168 252.452 267.896 255.619C268.625 258.786 270.192 261.698 272.433 264.051H159.433V198.801C159.433 192.491 157.583 186.141 155.433 180.271L206.313 180.251ZM200.203 81.8512L229.693 91.8512V138.201L208.003 126.761L200.203 81.8512ZM272.153 76.2613C272.153 64.9613 253.153 54.7812 232.153 54.7812H232.003C211.003 54.7812 192.003 64.9613 192.003 76.2613L192.423 79.0413L200.813 127.181L192.383 132.071L170.593 144.801H170.673C170.673 144.801 165.773 147.321 163.493 148.861C155.193 154.631 153.433 163.041 158.253 166.521C159.443 159.661 164.863 152.521 175.013 152.521C182.323 152.521 187.893 156.291 192.383 161.941C193.578 163.402 194.677 164.938 195.673 166.541C196.923 168.611 198.193 170.431 199.453 172.171H143.273C147.393 180.471 151.273 189.251 151.273 198.801V323.061C151.273 353.141 174.393 367.501 199.423 367.501C218.763 367.501 221.363 366.611 232.033 377.241C242.653 366.611 245.253 367.501 264.613 367.501C289.613 367.501 312.743 353.141 312.743 323.061V198.801C312.743 189.251 316.663 180.471 320.813 172.171H264.693C265.943 170.431 267.213 168.611 268.473 166.541C269.483 164.952 270.575 163.417 271.743 161.941C276.273 156.271 281.833 152.521 289.153 152.521C299.293 152.521 304.703 159.681 305.913 166.521C310.733 163.041 308.983 154.631 300.643 148.861C298.403 147.321 293.493 144.801 293.493 144.801H293.573L271.743 132.071L263.353 127.181L271.743 79.0413L272.153 76.2613Z" fill="#1A1919"/>
</g>
<defs>
<clipPath id="clip0_1334_532">
<rect width="477" height="437" fill="white"/>
</clipPath>
</defs>
</svg>
