<svg width="500" height="348" viewBox="0 0 500 348" fill="none" xmlns="http://www.w3.org/2000/svg">
<g clip-path="url(#clip0_1334_529)">
<path d="M320.002 -0.109375C297.148 -0.109375 274.519 4.39191 253.405 13.1375C232.291 21.8831 213.107 34.7017 196.947 50.8614C180.788 67.0211 167.969 86.2055 159.223 107.319C150.478 128.433 145.977 151.062 145.977 173.916C145.977 196.769 150.478 219.398 159.223 240.512C167.969 261.626 180.788 280.81 196.947 296.97C213.107 313.13 232.291 325.948 253.405 334.694C274.519 343.439 297.148 347.941 320.002 347.941C415.822 347.941 494.002 269.731 494.002 173.941C494.002 78.1506 415.802 -0.109375 320.002 -0.109375ZM320.002 237.791C284.752 237.791 255.002 208.061 255.002 172.791C255.002 137.521 284.742 107.791 320.002 107.791C355.262 107.791 385.002 137.531 385.002 172.791C383.862 209.161 355.222 237.791 320.002 237.791Z" fill="url(#paint0_linear_1334_529)"/>
<path d="M144.847 49.4492V302.779H83.1672L3.86719 49.4492H144.847Z" fill="url(#paint1_linear_1334_529)"/>
</g>
<defs>
<linearGradient id="paint0_linear_1334_529" x1="319.982" y1="-0.109375" x2="319.982" y2="347.941" gradientUnits="userSpaceOnUse">
<stop stop-color="#0160D1"/>
<stop offset="1" stop-color="#00479C"/>
</linearGradient>
<linearGradient id="paint1_linear_1334_529" x1="74.3572" y1="49.4492" x2="74.3572" y2="302.779" gradientUnits="userSpaceOnUse">
<stop stop-color="#0160D1"/>
<stop offset="1" stop-color="#00479C"/>
</linearGradient>
<clipPath id="clip0_1334_529">
<rect width="500" height="348" fill="white"/>
</clipPath>
</defs>
</svg>
