<svg width="50" height="18" viewBox="0 0 50 18" fill="none" xmlns="http://www.w3.org/2000/svg">
    <path fill-rule="evenodd" clip-rule="evenodd" d="M46.2528 17.2852L45.7741 14.8576H40.5889L39.738 17.2852H35.4843L41.5685 2.15961C41.7125 1.7785 41.9731 1.45426 42.3121 1.23445C42.651 1.01464 43.0505 0.910848 43.4519 0.938297H46.7324L50 17.2852H46.2528ZM43.9065 5.38765L41.7593 11.5036H45.1093L43.9065 5.38765ZM30.0833 5.4816C30.0833 7.3286 35.7769 7.72506 35.7769 11.9743C35.7769 16.0657 31.5759 17.5698 28.7926 17.5698C27.2103 17.5965 25.6404 17.2817 24.187 16.6463L24.7944 12.9777C26.4611 14.3765 31.5259 14.7721 31.5259 12.5558C31.5259 10.3396 25.8824 10.2861 25.8824 6.06313C25.8824 1.57244 30.6907 0.650818 32.7148 0.650818C33.9695 0.682608 35.2106 0.922526 36.3889 1.36106L35.8028 4.87188C34.0565 3.86852 30.0833 3.63083 30.0833 5.47878V5.4816ZM17.5926 17.2852L20.1426 0.938297H24.2231L21.6731 17.2852H17.5926ZM7.80926 17.2852L4.26481 3.08688C2.9477 2.24176 1.50883 1.61006 0 1.2145L0.075 0.938297H6.50185C6.94856 0.887273 7.39762 1.01123 7.75729 1.28484C8.11696 1.55845 8.3601 1.96107 8.43704 2.41045L9.81481 9.76372L10.2778 12.1847L14.1667 0.943934H18.5583L12.0667 17.2908H7.80926V17.2852Z" fill="#0057A0"/>
    <path fill-rule="evenodd" clip-rule="evenodd" d="M9.66389 8.89361L8.82315 2.81897C8.76888 2.19357 8.4739 1.61506 8.00212 1.20883C7.53034 0.802599 6.91978 0.60138 6.30278 0.648785H0V1.51686C2.15502 2.00283 4.16058 3.01513 5.84259 4.46587C7.37903 5.68528 8.67539 7.18737 9.66389 8.89361Z" fill="#FAA61A"/>
</svg>
