<svg width="56" height="24" viewBox="0 0 56 24" fill="none" xmlns="http://www.w3.org/2000/svg">
<path fill-rule="evenodd" clip-rule="evenodd" d="M5.0934 6.65398H4.33402C3.18568 6.65398 2.07456 7.43927 2.07456 9.71861C2.07456 11.9211 3.09299 12.6299 4.33402 12.6299H5.0934V6.65398ZM3.90798 13.8559L1.64852 19.1039H0L2.48205 13.4919C1.31486 12.879 0.536944 11.7681 0.536944 9.71882C0.536944 6.84573 2.29653 5.40918 4.38963 5.40918H6.51964V19.1039H5.0934V13.8559H3.90798Z" fill="#FF0000"/>
<path fill-rule="evenodd" clip-rule="evenodd" d="M34.2298 14.2772C34.2298 11.2507 35.3599 9.31641 37.5455 9.31641C38.3788 9.31641 38.8604 9.54627 39.2679 9.81416L39.0642 11.2319C38.6752 10.8868 38.1196 10.5614 37.5269 10.5614C36.4896 10.5614 35.7489 11.7679 35.7489 14.2005C35.7489 16.6137 36.3044 17.993 37.4712 17.993C38.175 17.993 38.7123 17.7057 39.0456 17.3993L39.379 18.51C38.8789 18.9504 38.2862 19.2377 37.4342 19.2377C35.4338 19.2377 34.2298 17.5716 34.2298 14.2772ZM30.007 14.296V19.1037H28.5622V9.45022H30.007V13.9131L32.2481 9.45022H33.7114L31.3962 13.9897L34.0446 19.1037H32.4704L30.007 14.296ZM23.2095 13.396H25.5988C25.5988 11.7488 25.3395 10.5421 24.5061 10.5421C23.617 10.5421 23.3022 11.6721 23.2095 13.396ZM24.8024 19.2377C22.8761 19.2377 21.6909 17.6483 21.6909 14.6797C21.6909 11.5764 22.5244 9.31641 24.5061 9.31641C26.0619 9.31641 27.0807 10.5229 27.0807 13.7979V14.6219H23.1909C23.1909 16.8055 23.7836 17.9547 24.932 17.9547C25.747 17.9547 26.3953 17.5716 26.7657 17.3036L27.0992 18.4521C26.5065 18.9314 25.7284 19.2377 24.8024 19.2377ZM18.6532 10.6569H17.0417V10.8296C17.0417 12.8597 16.9492 15.8282 16.1713 17.8778H18.6532V10.6569ZM20.8201 20.9999H19.5238V19.1037H15.523V20.9999H14.2266V17.8778H14.8008C15.6526 15.8282 15.7452 12.8406 15.7452 10.2738V9.45022H20.0794V17.8778H20.8201V20.9999ZM13.3931 9.44997V19.1034H11.9669V14.7749H9.81831V19.1034H8.37354V9.44997H9.81831V13.5486H11.9669V9.44997H13.3931Z" fill="black"/>
<path fill-rule="evenodd" clip-rule="evenodd" d="M43.0002 10.4327C43.0002 9.47814 43.0806 8.8724 45.0684 7.39666C46.714 6.17495 52 2 52 2V9H56V19H44.2531C43.564 19 43 18.4391 43 17.7537L43.0002 10.4327Z" fill="#FACA22"/>
<path d="M52 13V9L54 9.00001V15L45 18L52 13Z" fill="#C9A521"/>
<path fill-rule="evenodd" clip-rule="evenodd" d="M48.3743 8.50845C48.8052 8.02762 49.4345 7.85783 49.78 8.1294C50.1256 8.40097 50.0565 9.01096 49.6256 9.49178C49.195 9.97255 48.5655 10.1421 48.2199 9.87054C47.8744 9.59903 47.9436 8.98921 48.3743 8.50845Z" fill="#6F8F9D"/>
</svg>
