<svg id="Слой_1" data-name="Слой 1" xmlns="http://www.w3.org/2000/svg" viewBox="0 0 180 180"><defs><style>.cls-1{fill:#fff;}.cls-2{fill:#141116;}</style></defs><title>Безымянный-1</title><path class="cls-1" d="M76.12,166.27,17,116.12,30.88,39.84l73-26.11L163,63.88l-13.87,76.28Z"/><path class="cls-2" d="M92.65,127.39h-13l7.5-44.59h-26l1.32-7.92H88.47l2.41-14.35H64.81l1.32-7.92h50.54l-1.23,7.92H98.91L96.45,75.16a26.25,26.25,0,0,1-3.8,52.23ZM89,119.47h3.66A18.33,18.33,0,0,0,95.13,83Z"/><path class="cls-2" d="M75.15,171.62,11.89,118,26.74,36.33,104.85,8.38l63.26,53.67-14.85,81.62ZM25.85,113,77.8,157,142,134.08l12.19-67L102.2,23,38,45.92Z"/></svg>