<?xml version="1.0" standalone="no"?>
<!DOCTYPE svg PUBLIC "-//W3C//DTD SVG 20010904//EN"
 "http://www.w3.org/TR/2001/REC-SVG-20010904/DTD/svg10.dtd">
<svg version="1.0" xmlns="http://www.w3.org/2000/svg"
 width="700.000000pt" height="700.000000pt" viewBox="0 0 700.000000 700.000000"
 preserveAspectRatio="xMidYMid meet">
<metadata>
Created by potrace 1.11, written by Peter Selinger 2001-2013
</metadata>
<g transform="translate(0.000000,700.000000) scale(0.100000,-0.100000)"
fill="#000000" stroke="none">
<path d="M3960 6293 c-8 -3 -600 -221 -1315 -485 -715 -264 -1301 -481 -1303
-483 -10 -9 -511 -2790 -504 -2796 4 -4 494 -412 1089 -907 l1083 -899 1321
488 c726 268 1323 490 1326 493 3 3 119 631 259 1396 l254 1392 -32 26 c-433
365 -2145 1782 -2153 1781 -5 0 -17 -3 -25 -6z m876 -1183 c499 -415 911 -758
916 -761 10 -7 -417 -2362 -429 -2367 -4 -2 -510 -189 -1123 -416 l-1115 -412
-45 36 c-48 39 -1780 1478 -1793 1489 -6 6 416 2358 425 2366 13 11 2227 823
2240 822 9 -1 425 -342 924 -757z"/>
<path d="M2721 4438 c-18 -90 -35 -173 -38 -185 l-5 -23 361 0 c337 0 361 -1
361 -17 0 -10 -7 -61 -15 -113 -8 -52 -15 -98 -15 -102 0 -5 -163 -8 -363 -8
l-363 0 -33 -172 c-19 -95 -36 -179 -39 -185 -3 -10 76 -13 377 -13 210 0 381
-3 381 -6 0 -4 -47 -274 -105 -601 -58 -326 -105 -601 -105 -609 0 -14 34 -15
293 -12 273 4 296 6 357 27 101 35 189 86 264 151 146 126 224 243 283 420 35
105 38 124 38 226 l0 112 -72 144 c-48 98 -88 163 -125 204 -111 125 -237 215
-355 255 -61 20 -65 23 -60 48 3 14 11 77 18 139 l12 112 234 0 c178 0 235 3
238 13 5 14 35 299 35 333 l0 24 -764 0 -763 0 -32 -162z m978 -852 c64 -33
167 -120 197 -168 32 -50 52 -130 60 -239 7 -86 6 -91 -24 -152 -37 -74 -130
-172 -200 -210 -83 -45 -242 -75 -242 -47 0 13 128 785 135 818 7 28 15 28 74
-2z"/>
</g>
</svg>
