<svg width="94" height="96" viewBox="0 0 94 96" fill="none" xmlns="http://www.w3.org/2000/svg">
<path d="M36.2414 45.5172C36.2414 45.0602 36.6119 44.6897 37.0689 44.6897H56.931C57.3881 44.6897 57.7586 45.0602 57.7586 45.5172C57.7586 45.9743 57.3881 46.3448 56.931 46.3448H37.0689C36.6119 46.3448 36.2414 45.9743 36.2414 45.5172Z" fill="#141116"/>
<path fill-rule="evenodd" clip-rule="evenodd" d="M29.6207 36.4138C29.1636 36.4138 28.7931 36.7843 28.7931 37.2414V68.6897C28.7931 69.1467 29.1636 69.5172 29.6207 69.5172H64.3793C64.8363 69.5172 65.2069 69.1467 65.2069 68.6897V37.2414C65.2069 36.7843 64.8363 36.4138 64.3793 36.4138H57.7272C57.3047 30.8587 52.6633 26.4828 47 26.4828C41.3366 26.4828 36.6953 30.8587 36.2727 36.4138H29.6207ZM37.9336 36.4138H56.0663C55.6482 31.7739 51.7487 28.1379 47 28.1379C42.2513 28.1379 38.3518 31.7739 37.9336 36.4138ZM30.4483 67.8621V38.069H63.5517V67.8621H30.4483Z" fill="#141116"/>
<path fill-rule="evenodd" clip-rule="evenodd" d="M38.3659 96L84.7107 79.4136L93.3448 31.4136L55.6342 0L9.28927 16.5864L0.655151 64.5864L38.3659 96ZM2.45473 63.9313L38.6986 94.123L83.2513 78.178L91.5452 32.0688L55.3014 1.87706L10.7487 17.822L2.45473 63.9313Z" fill="#141116"/>
</svg>
