<svg width="94" height="96" viewBox="0 0 94 96" fill="none" xmlns="http://www.w3.org/2000/svg">
<path fill-rule="evenodd" clip-rule="evenodd" d="M36.6552 43.0345C36.6552 42.7864 36.5439 42.5515 36.352 42.3943C36.1601 42.2371 35.9078 42.1743 35.6646 42.2231L30.1014 43.3403C29.9029 43.3802 29.726 43.4914 29.604 43.653L24.8223 49.984C24.6331 50.2345 24.602 50.5706 24.7419 50.8516C24.8818 51.1327 25.1688 51.3104 25.4827 51.3104H35.8276C36.2846 51.3104 36.6552 50.9398 36.6552 50.4828V43.0345ZM27.1449 49.6552L30.7354 44.9012L35 44.0448V49.6552H27.1449Z" fill="#141116"/>
<path fill-rule="evenodd" clip-rule="evenodd" d="M38.7241 28.9655C38.2671 28.9655 37.8965 29.336 37.8965 29.7931V39.0258L28.1358 40.6908C27.9288 40.7261 27.743 40.8388 27.616 41.0059L20.6499 50.173C20.5569 50.2955 20.4998 50.4414 20.485 50.5945L19.6934 58.8221C19.6766 58.9971 19.716 59.173 19.8058 59.3242L22.1806 63.3194C22.3298 63.5704 22.6001 63.7241 22.892 63.7241H28.8291C28.8969 63.7241 28.9629 63.716 29.026 63.7006C29.7306 66.1056 31.9533 67.8621 34.5862 67.8621C37.2105 67.8621 39.4272 66.1171 40.1394 63.7241H56.931C57.0109 63.7241 57.0882 63.7128 57.1614 63.6917C57.8631 66.1013 60.088 67.8621 62.7241 67.8621C65.3484 67.8621 67.5651 66.1171 68.2773 63.7241H71.8276C72.2846 63.7241 72.6552 63.3536 72.6552 62.8966V29.7931C72.6552 29.336 72.2846 28.9655 71.8276 28.9655H38.7241ZM34.5862 56.2759C31.3867 56.2759 28.7931 58.8695 28.7931 62.069L23.3629 62.069L21.3669 58.7111L22.1101 50.9872L28.7362 42.2675L37.8965 40.7049V57.3142C36.9582 56.6597 35.817 56.2759 34.5862 56.2759ZM39.5517 59.0834C40.0771 59.9553 40.3793 60.9768 40.3793 62.069H56.931C56.931 58.8695 59.5247 56.2759 62.7241 56.2759C65.9236 56.2759 68.5172 58.8695 68.5172 62.069H71V30.6207H39.5517V59.0834ZM58.5862 62.069C58.5862 59.7837 60.4388 57.931 62.7241 57.931C65.0094 57.931 66.862 59.7837 66.862 62.069C66.862 64.3543 65.0094 66.2069 62.7241 66.2069C60.4388 66.2069 58.5862 64.3543 58.5862 62.069ZM34.5862 57.931C32.3009 57.931 30.4483 59.7837 30.4483 62.069C30.4483 64.3543 32.3009 66.2069 34.5862 66.2069C36.8715 66.2069 38.7241 64.3543 38.7241 62.069C38.7241 59.7837 36.8715 57.931 34.5862 57.931Z" fill="#141116"/>
<path fill-rule="evenodd" clip-rule="evenodd" d="M38.3659 96L84.7107 79.4136L93.3448 31.4136L55.6342 0L9.28927 16.5864L0.655151 64.5864L38.3659 96ZM2.45473 63.9313L38.6986 94.123L83.2513 78.178L91.5452 32.0688L55.3014 1.87706L10.7487 17.822L2.45473 63.9313Z" fill="#141116"/>
</svg>
