<svg width="94" height="96" viewBox="0 0 94 96" fill="none" xmlns="http://www.w3.org/2000/svg">
<path fill-rule="evenodd" clip-rule="evenodd" d="M35.4138 29.7931C34.9567 29.7931 34.5862 30.1636 34.5862 30.6207C34.5862 31.0778 34.9567 31.4483 35.4138 31.4483H48.092L46.4368 41.3793H33.7587C33.3016 41.3793 32.931 41.7498 32.931 42.2069C32.931 42.664 33.3019 43.0345 33.759 43.0345H46.161L42.4595 65.2433C42.4195 65.4832 42.4871 65.7286 42.6444 65.9142C42.8016 66.0999 43.0326 66.2069 43.2758 66.2069C46.2101 66.2069 49.7926 65.8973 52.8735 64.2467C56.0078 62.5677 58.5349 59.5484 59.4025 54.343C59.9583 51.0082 59.0706 47.7535 56.9361 45.3321C54.9466 43.0752 51.923 41.5954 48.1112 41.4011L49.77 31.4483H60.2414C60.6984 31.4483 61.0689 31.0778 61.0689 30.6207C61.0689 30.1636 60.6984 29.7931 60.2414 29.7931H35.4138ZM33.7586 42.2069C33.7586 41.3793 33.7587 41.3793 33.7587 41.3793L33.7586 42.2069ZM33.759 43.0345C33.759 43.0345 33.7586 43.0345 33.7586 42.2069L33.759 43.0345ZM44.2549 64.5387L47.8371 43.0457C51.3517 43.1797 54.0043 44.5093 55.6944 46.4266C57.4811 48.4534 58.2485 51.1987 57.7699 54.0708C56.9823 58.7965 54.7508 61.3634 52.0919 62.7877C49.6852 64.0771 46.8587 64.4672 44.2549 64.5387Z" fill="#141116"/>
<path fill-rule="evenodd" clip-rule="evenodd" d="M38.3659 96L84.7107 79.4136L93.3448 31.4136L55.6342 0L9.28927 16.5864L0.655151 64.5864L38.3659 96ZM2.45473 63.9313L38.6986 94.123L83.2513 78.178L91.5452 32.0688L55.3014 1.87706L10.7487 17.822L2.45473 63.9313Z" fill="#141116"/>
</svg>
