<svg width="186" height="50" viewBox="0 0 186 50" fill="none" xmlns="http://www.w3.org/2000/svg">
<path fill-rule="evenodd" clip-rule="evenodd" d="M24.2644 28.7028H3.7533V4.5815H0V31.6583H24.2644V28.7028ZM20.1428 14.1595L25.1957 4.5815H21.1294L17.3601 14.1595H20.1428ZM45.2513 30.5823C37.7178 30.5823 31.5114 24.4768 31.5114 17.1218C31.5114 9.77458 37.4264 3.37728 45.5416 3.37728C53.4596 3.37728 59.2774 9.77345 59.2774 17.1218C59.2782 24.4768 52.7815 30.5823 45.2513 30.5823ZM45.38 0C34.494 0 27.0738 7.74038 27.0738 17.1137C27.0738 26.9795 35.2716 33.9407 45.38 33.9407C55.4876 33.9407 63.6803 27.0788 63.6803 17.1137C63.6803 7.74038 56.1675 0 45.38 0ZM84.9513 17.1H72.4188V7.78808H85.3904C88.3751 7.78808 90.0554 9.19383 90.6609 10.9787C91.0606 12.2047 90.8035 13.8119 90.1439 14.905C89.0591 16.7168 87 17.1 84.9513 17.1ZM88.1662 20.3392C94.3145 18.6832 94.9141 14.064 94.8846 12.4172C94.5162 7.57963 91.2866 4.5815 85.477 4.5815H68.5598V31.6583H72.4174V20.3023H83.4296L91.5318 31.6583H96.3927C96.3945 31.6583 90.5662 24.0152 88.1662 20.3392ZM136.932 21.2615L143.362 8.3262L149.873 21.2615H136.932ZM140.747 4.5815L127.099 31.6583H131.711L135.205 24.6505H151.574L155.097 31.6583H159.662L146.002 4.5815H140.747ZM186 28.7028H165.489V4.5815H161.736V31.6583H186V28.7028ZM120.615 0.209528H113.664L110.413 3.89063L120.615 0.209528ZM120.243 19.2392V16.2452H105.308V7.53085H125.193V4.5815H101.189V31.6583H125.193V28.7028H105.308V19.2392H120.243ZM107.783 49.607H109.708V41.8767H107.783V49.607ZM107.771 40.732H109.695V38.791H107.771V40.732ZM122.482 43.8402L118.348 43.1303C117.501 42.9815 116.634 42.6787 116.634 41.7593C116.634 40.1193 118.71 39.8633 119.941 39.8633C121.575 39.8633 123.43 40.3905 123.529 42.0623H125.365C125.285 40.8718 124.78 38.6125 119.719 38.6125C116.211 38.6125 114.737 40.2682 114.737 41.9548C114.737 43.839 116.875 44.3357 117.823 44.5003L120.788 45.0147C123.166 45.4353 123.873 45.7978 123.873 46.9265C123.873 48.4782 121.494 48.7492 120.081 48.7492C118.226 48.7492 116.089 48.1773 116.089 46.2187H114.253C114.253 47.2293 114.495 48.1328 115.726 48.9607C116.37 49.3963 117.42 50 120.101 50C122.581 50 125.768 49.2923 125.768 46.731C125.769 45.0155 124.356 44.1718 122.482 43.8402ZM77.6396 45.223L80.3022 40.4628H80.3485L82.8026 45.223H77.6396ZM79.1447 38.8518L72.8929 49.6677H75.2091L76.9454 46.5187H83.6136L85.2574 49.6677H87.7126L81.6922 38.8518H79.1447ZM93.3637 43.8522H97.4006C99.2197 43.8522 100.454 43.3695 100.454 41.9092C100.454 40.5383 99.1576 40.1005 97.4843 40.1005H93.3637V43.8522ZM103.017 49.5892H100.728L97.6654 45.2012C97.6269 45.1447 97.5524 45.1157 97.4753 45.1018H97.5758C97.5434 45.096 97.5097 45.094 97.4753 45.1018H93.3637V49.6665H91.335V38.8507H98.0896C100.87 38.8507 102.544 40.1462 102.544 41.8923C102.544 43.1373 101.725 44.5142 99.5985 44.954L103.017 49.5892ZM67.2101 43.8522H63.1744V40.1005H67.2938C68.9673 40.1005 70.2637 40.5383 70.2637 41.9092C70.2637 43.3695 69.0293 43.8522 67.2101 43.8522ZM67.9003 38.8518H61.1457V49.6677H63.1744V45.103H67.9003C71.1624 45.103 72.3545 43.4005 72.3545 41.8943C72.3545 40.1473 70.682 38.8518 67.9003 38.8518Z" fill="black"/>
</svg>
