<svg width="180" height="50" viewBox="0 0 180 50" fill="none" xmlns="http://www.w3.org/2000/svg">
<g clip-path="url(#clip0)">
<path d="M0.546006 0.976139H23.9151C44.0081 0.976139 51.8706 12.6898 51.8706 25.0904C51.8706 37.7079 41.7877 48.9516 22.6046 48.9516H0.582406C0.182002 48.9516 0.0364004 48.6985 0.0364004 48.4816C0.0364004 48.2285 0.291203 48.0116 0.655207 48.0116H4.76845C6.04247 48.0116 6.87968 47.2523 6.87968 45.8424V4.15763C6.87968 3.10918 6.37007 1.95228 4.69565 1.95228H0.509606C0.182002 1.95228 0 1.73536 0 1.48228C0 1.26537 0.0728008 0.976139 0.546006 0.976139ZM15.1426 46.71C15.1426 47.7585 15.6158 48.0839 16.3074 48.0839H22.4954C37.7472 48.0839 43.2801 36.4787 43.2801 24.8373C43.2801 13.1959 37.4196 1.91612 24.5339 1.91612H16.1254C15.2518 1.91612 15.179 2.63919 15.179 2.96457L15.1426 46.71ZM54.2002 0.976139C53.8362 0.976139 53.5086 1.12075 53.5086 1.40998C53.5086 1.6992 53.6906 1.87997 54.0182 1.87997H58.1314C59.0778 1.87997 59.9879 2.53073 59.9879 4.33839V45.8785C59.9879 46.7462 59.3326 48.0477 58.1678 48.0477H54.091C53.6178 48.0477 53.5814 48.4093 53.5814 48.5539C53.5814 48.6985 53.545 48.9516 54.091 48.9516H73.8928C74.184 48.9516 74.5844 48.9154 74.5844 48.6262C74.5844 48.3369 74.5116 48.0477 74.002 48.0477H70.18C69.634 48.0477 68.1415 47.7223 68.1415 46.0593V3.90456C68.1415 2.7115 68.906 1.91612 70.2892 1.91612H74.0384C74.366 1.91612 74.548 1.73536 74.548 1.48228C74.548 1.22921 74.366 1.01229 73.9292 1.01229H54.2002V0.976139ZM85.1405 24.9819C85.1405 11.7137 91.1102 0.976139 102.322 0.976139C113.314 0.976139 119.503 11.7137 119.503 24.9819C119.503 38.2502 113.86 48.9877 102.322 48.9877C91.1466 49.0239 85.1405 38.2502 85.1405 24.9819ZM102.322 50C118.265 50 128.311 38.7925 128.311 25.0181C128.311 11.2437 118.374 0 102.322 0C86.3053 0 76.3316 11.2075 76.3316 24.9819C76.3316 38.7563 86.7057 50 102.322 50ZM179.272 48.6623C173.011 49.3131 169.553 39.1179 166.386 34.2733C164.02 30.6941 158.997 27.0427 154.046 26.3196C162.2 25.8496 171.337 23.2466 171.337 14.0636C171.337 6.61605 166.714 0.976139 149.751 0.976139H130.204C129.949 0.976139 129.695 1.12075 129.695 1.40998C129.695 1.6992 129.949 1.87997 130.204 1.87997H134.681C135.628 1.87997 136.538 2.53073 136.538 4.33839V45.8785C136.538 46.7462 135.883 48.0477 134.718 48.0477H130.313C129.949 48.0477 129.804 48.337 129.804 48.4816C129.804 48.6262 129.949 48.9516 130.313 48.9516H151.062C151.353 48.9516 151.608 48.8069 151.608 48.5177C151.608 48.2285 151.426 48.0477 151.025 48.0477H146.839C146.293 48.0477 144.801 47.6862 144.801 46.0593V26.4281H146.948C157.213 26.4281 157.978 37.491 163.074 43.8178C167.442 49.2408 173.157 49.9277 176.396 49.9277C177.78 49.9277 178.726 49.8915 179.6 49.6746C180.146 49.4939 180.255 48.5539 179.272 48.6623ZM146.876 1.87997H149.897C155.066 1.87997 163.438 3.90456 163.438 13.5936C163.438 22.4873 156.012 25.4881 149.132 25.4881H144.728V3.90456C144.728 2.67534 145.492 1.87997 146.876 1.87997Z" fill="black"/>
</g>
<defs>
<clipPath id="clip0">
<rect width="180" height="50" fill="white"/>
</clipPath>
</defs>
</svg>
