<svg width="94" height="96" viewBox="0 0 94 96" fill="none" xmlns="http://www.w3.org/2000/svg">
<path fill-rule="evenodd" clip-rule="evenodd" d="M59.2352 31.7633C57.1344 30.0006 54.0024 30.2746 52.2396 32.3754C50.4769 34.4762 50.7509 37.6082 52.8517 39.371C54.9524 41.1337 58.0845 40.8597 59.8472 38.7589C61.61 36.6581 61.336 33.5261 59.2352 31.7633ZM53.5076 33.4393C54.6827 32.0388 56.7708 31.8561 58.1713 33.0313C59.5718 34.2065 59.7545 36.2945 58.5793 37.695C57.4041 39.0955 55.3161 39.2782 53.9156 38.103C52.5151 36.9279 52.3324 34.8398 53.5076 33.4393Z" fill="#141116"/>
<path fill-rule="evenodd" clip-rule="evenodd" d="M41.2641 58.0002C42.2299 55.929 44.6919 55.0329 46.7631 55.9988C48.8343 56.9646 49.7304 59.4266 48.7646 61.4978C47.7987 63.569 45.3368 64.465 43.2656 63.4992C41.1944 62.5334 40.2983 60.0714 41.2641 58.0002ZM46.0636 57.4989C44.8209 56.9194 43.3437 57.457 42.7642 58.6997C42.1847 59.9425 42.7223 61.4196 43.9651 61.9991C45.2078 62.5786 46.685 62.041 47.2645 60.7983C47.844 59.5555 47.3063 58.0783 46.0636 57.4989Z" fill="#141116"/>
<path fill-rule="evenodd" clip-rule="evenodd" d="M41.159 40.6015C39.0878 39.6357 36.6258 40.5318 35.66 42.603C34.6942 44.6742 35.5903 47.1362 37.6615 48.102C39.7327 49.0678 42.1947 48.1717 43.1605 46.1005C44.1263 44.0293 43.2302 41.5673 41.159 40.6015ZM37.1601 43.3025C37.7396 42.0598 39.2168 41.5221 40.4595 42.1016C41.7022 42.6811 42.2399 44.1583 41.6604 45.401C41.0809 46.6437 39.6037 47.1814 38.361 46.6019C37.1183 46.0224 36.5806 44.5452 37.1601 43.3025Z" fill="#141116"/>
<path d="M55.0878 47.3641C55.2441 47.7936 55.0227 48.2685 54.5932 48.4248L30.3975 57.2313C29.968 57.3876 29.4931 57.1662 29.3368 56.7367C29.1805 56.3072 29.4019 55.8323 29.8314 55.6759L54.0271 46.8694C54.4566 46.7131 54.9315 46.9346 55.0878 47.3641Z" fill="#141116"/>
<path fill-rule="evenodd" clip-rule="evenodd" d="M60.423 25.1978C60.263 25.0635 60.0581 24.9947 59.8495 25.0052L44.0584 25.7993C43.8286 25.8109 43.614 25.9176 43.466 26.0939L19.5277 54.6224C19.234 54.9726 19.2796 55.4946 19.6298 55.7884L42.4526 74.939C42.8027 75.2328 43.3247 75.1871 43.6185 74.837L67.5568 46.3084C67.7047 46.1322 67.7726 45.9022 67.744 45.6739L65.784 29.9848C65.7581 29.7775 65.6548 29.5877 65.4948 29.4535L60.423 25.1978ZM44.502 27.4343L59.6081 26.6746L64.1819 30.5125L66.0569 45.521L42.8825 73.1391L21.3276 55.0524L44.502 27.4343Z" fill="#141116"/>
<path fill-rule="evenodd" clip-rule="evenodd" d="M38.3659 95.9999L84.7107 79.4135L93.3448 31.4136L55.6342 -6.11352e-05L9.28927 16.5863L0.655151 64.5863L38.3659 95.9999ZM2.45473 63.9312L38.6986 94.1229L83.2513 78.1779L91.5452 32.0687L55.3014 1.877L10.7487 17.822L2.45473 63.9312Z" fill="#141116"/>
</svg>
