<svg width="18" height="20" viewBox="0 0 18 20" xmlns="http://www.w3.org/2000/svg">
    <path d="M17.3379 18.6555L17.3323 18.6575L17.3216 18.6613L17.2847 18.6741C17.2533 18.6849 17.2084 18.7002 17.1508 18.7192C17.0355 18.7572 16.869 18.8104 16.6567 18.8736C16.2323 19 15.6234 19.1669 14.8736 19.3334C13.3773 19.6656 11.302 20 9 20C6.69802 20 4.62275 19.6656 3.1264 19.3334C2.37655 19.1669 1.76774 19 1.34331 18.8736C1.13099 18.8104 0.964501 18.7572 0.849242 18.7192C0.791603 18.7002 0.746746 18.6849 0.715346 18.6741L0.67841 18.6613L0.667662 18.6575L0.664245 18.6562L0.662143 18.6555" />
    <path fill-rule="evenodd" clip-rule="evenodd" d="M17.3379 18.6555C17.7351 18.5129 18 18.1363 18 17.7143C18 14.1011 15.7414 11.032 12.5466 9.70391C13.7413 8.69501 14.5 7.18611 14.5 5.5C14.5 2.46243 12.0376 -1.32776e-07 9 0C5.96243 1.32776e-07 3.5 2.46243 3.5 5.5C3.5 7.18611 4.25873 8.69501 5.45339 9.70391C2.25865 11.032 -1.57939e-07 14.1011 0 17.7143C1.84471e-08 18.1363 0.264938 18.5129 0.662143 18.6555M1 17.7143L0.662143 18.6555C0.661947 18.6554 0.663689 18.6512 1 17.7143ZM17 17.7143C17.3379 18.6555 17.3381 18.6554 17.3379 18.6555L17 17.7143ZM9 9C10.933 9 12.5 7.433 12.5 5.5C12.5 3.567 10.933 2 9 2C7.067 2 5.5 3.567 5.5 5.5C5.5 7.433 7.067 9 9 9ZM9 11C5.35756 11 2.41375 13.651 2.04006 16.9938C2.41788 17.1036 2.93466 17.2421 3.55989 17.3809C4.95898 17.6915 6.8837 18 9 18C11.1163 18 13.041 17.6915 14.4401 17.3809C15.0653 17.2421 15.5821 17.1036 15.9599 16.9938C15.5862 13.651 12.6424 11 9 11Z" />
</svg>
