<svg width="24" height="24" viewBox="0 0 24 24" xmlns="http://www.w3.org/2000/svg">
    <path d="M20.3379 20.6555L20.3323 20.6575L20.3216 20.6613L20.2847 20.6741C20.2533 20.6849 20.2084 20.7002 20.1508 20.7192C20.0355 20.7572 19.869 20.8104 19.6567 20.8736C19.2323 21 18.6234 21.1669 17.8736 21.3334C16.3773 21.6656 14.302 22 12 22C9.69802 22 7.62275 21.6656 6.1264 21.3334C5.37655 21.1669 4.76774 21 4.34331 20.8736C4.13099 20.8104 3.9645 20.7572 3.84924 20.7192C3.7916 20.7002 3.74675 20.6849 3.71535 20.6741L3.67841 20.6613L3.66766 20.6575L3.66425 20.6562L3.66214 20.6555" />
    <path fill-rule="evenodd" clip-rule="evenodd" d="M20.3379 20.6555C20.7351 20.5129 21 20.1363 21 19.7143C21 16.1011 18.7414 13.032 15.5466 11.7039C16.7413 10.695 17.5 9.18611 17.5 7.5C17.5 4.46243 15.0376 2 12 2C8.96243 2 6.5 4.46243 6.5 7.5C6.5 9.18611 7.25873 10.695 8.45339 11.7039C5.25865 13.032 3 16.1011 3 19.7143C3 20.1363 3.26494 20.5129 3.66214 20.6555M4 19.7143L3.66214 20.6555C3.66195 20.6554 3.66369 20.6512 4 19.7143ZM20 19.7143C20.3379 20.6555 20.3381 20.6554 20.3379 20.6555L20 19.7143ZM12 11C13.933 11 15.5 9.433 15.5 7.5C15.5 5.567 13.933 4 12 4C10.067 4 8.5 5.567 8.5 7.5C8.5 9.433 10.067 11 12 11ZM12 13C8.35756 13 5.41375 15.651 5.04006 18.9938C5.41788 19.1036 5.93466 19.2421 6.55989 19.3809C7.95898 19.6915 9.8837 20 12 20C14.1163 20 16.041 19.6915 17.4401 19.3809C18.0653 19.2421 18.5821 19.1036 18.9599 18.9938C18.5862 15.651 15.6424 13 12 13Z" />
</svg>
