<svg width="26" height="18" viewBox="0 0 26 18" xmlns="http://www.w3.org/2000/svg">
    <path fill-rule="evenodd" clip-rule="evenodd" d="M22.7676 1H13.2324L11 4.34861V4.5V5V14.5C11 15.8807 12.1193 17 13.5 17H22.5C23.8807 17 25 15.8807 25 14.5V5V4.5V4.34861L22.7676 1ZM23.5657 4L22.2324 2H13.7676L12.4343 4H23.5657ZM12 5V14.5C12 15.3284 12.6716 16 13.5 16H22.5C23.3284 16 24 15.3284 24 14.5V5H12ZM15.5 7C15.5 8.12849 16.5131 9 18 9C19.4869 9 20.5 8.12849 20.5 7H21.5C21.5 8.87151 19.8268 10 18 10C16.1732 10 14.5 8.87151 14.5 7H15.5Z" />
    <path fill-rule="evenodd" clip-rule="evenodd" d="M3 9V6H4V9H7V10H4V13H3V10H0V9H3Z" />
</svg>


