<svg xmlns="http://www.w3.org/2000/svg" viewBox="0 0 20 18">
    <path d="M19.3288 3.09916L17.9269 3.09909V1.64785C17.9269 1.3156 17.6838 1.03331 17.3552 0.984152C17.2978 0.975533 15.932 0.77715 14.2874 1.07641C12.4539 1.41001 10.9917 2.2327 9.99997 3.4764C9.00818 2.2327 7.54597 1.41001 5.71257 1.07641C4.06786 0.777217 2.70208 0.975533 2.64477 0.984152C2.31615 1.03338 2.07306 1.31567 2.07306 1.64785V3.09909H0.671109C0.300538 3.09909 0 3.39963 0 3.77027V16.417C0 16.6343 0.105185 16.8382 0.282356 16.9641C0.459527 17.09 0.686664 17.1223 0.891849 17.0508C0.942219 17.0334 5.97136 15.317 9.72145 17.0276C9.89842 17.1083 10.1016 17.1083 10.2786 17.0276C14.0181 15.3219 19.058 17.0335 19.1081 17.0508C19.1801 17.0759 19.2545 17.0882 19.3288 17.0882C19.4663 17.0882 19.6025 17.0459 19.7176 16.9642C19.8948 16.8382 20 16.6344 20 16.4171V3.77034C19.9999 3.3997 19.6995 3.09916 19.3288 3.09916ZM1.34229 15.519V4.44138H2.07306V13.3791C2.07306 13.5741 2.15838 13.7593 2.30592 13.8868C2.45346 14.0143 2.64969 14.0714 2.84255 14.043C2.87959 14.0376 5.79513 13.6373 7.92523 15.0988C5.30133 14.6501 2.67521 15.1691 1.34229 15.519ZM9.32886 14.4935C8.39068 13.6459 7.16866 13.0727 5.71257 12.8077C5.01183 12.6802 4.36174 12.643 3.84187 12.643C3.68753 12.643 3.54463 12.6463 3.41541 12.6515V2.26415H3.41534C4.70524 2.20597 7.84307 2.34388 9.32886 4.86259V14.4935ZM10.6711 4.86265C12.1515 2.35472 15.2943 2.21054 16.5846 2.26583V12.6515C16.0201 12.6288 15.196 12.6424 14.2874 12.8077C12.8313 13.0727 11.6093 13.6458 10.6711 14.4935V4.86265ZM12.0725 15.0992C14.2028 13.6368 17.1199 14.0375 17.1563 14.0429C17.3496 14.0719 17.5457 14.0151 17.6937 13.8877C17.8418 13.7601 17.9269 13.5745 17.9269 13.3791V4.44144H18.6576V15.519C17.3243 15.1689 14.6971 14.6498 12.0725 15.0992Z"/>
</svg>
