<svg width="16" height="16" viewBox="0 0 16 16" xmlns="http://www.w3.org/2000/svg">
    <path fill-rule="evenodd" clip-rule="evenodd" d="M7.70392 1.56333C7.70372 1.56343 7.70352 1.56352 7.70332 1.56362L2.37147 4.22955L2.36999 4.23029C2.25892 4.28548 2.16545 4.37057 2.10008 4.47597C2.03474 4.58134 2.00008 4.70285 1.99999 4.82683C1.99999 4.82679 1.99999 4.82687 1.99999 4.82683V11.1779C1.99913 11.3022 2.03298 11.4242 2.09777 11.5302C2.16245 11.636 2.25538 11.7217 2.3661 11.7776C2.36591 11.7775 2.36628 11.7777 2.3661 11.7776L7.69813 14.4437C7.79076 14.49 7.89309 14.5142 7.99666 14.5142C8.10023 14.5142 8.20237 14.4901 8.29499 14.4437L13.6285 11.777L13.63 11.7762C13.7411 11.7211 13.8345 11.636 13.8999 11.5306C13.9653 11.4252 13.9999 11.3036 14 11.1796V4.82696C13.9999 4.70293 13.9653 4.58138 13.8999 4.47597C13.8345 4.37057 13.7411 4.28548 13.63 4.23029L13.6285 4.22955L8.29666 1.56362C8.29646 1.56352 8.29626 1.56343 8.29606 1.56333C8.20403 1.51771 8.10271 1.49398 7.99999 1.49398C7.89728 1.49398 7.79595 1.51771 7.70392 1.56333ZM8.59333 0.966604L8.88999 0.369583C8.61344 0.232159 8.30881 0.160645 7.99999 0.160645C7.69117 0.160645 7.38655 0.232159 7.10999 0.369583L7.10852 0.370319L1.77666 3.03625C1.77638 3.03639 1.77611 3.03652 1.77584 3.03666C1.44298 3.20225 1.16287 3.45734 0.966938 3.77329C0.770846 4.08951 0.666856 4.45417 0.666658 4.82625L0.666658 11.1712C0.664545 11.543 0.766141 11.9081 0.960062 12.2254C1.15443 12.5435 1.4338 12.8009 1.76667 12.9686L1.76852 12.9696L7.10166 15.6361C7.37952 15.7752 7.68595 15.8476 7.99666 15.8476C8.3073 15.8476 8.61366 15.7752 8.89147 15.6362C8.89153 15.6362 8.89141 15.6363 8.89147 15.6362L14.2233 12.9703C14.2235 12.9702 14.2238 12.9701 14.224 12.97C14.5569 12.8044 14.8371 12.5493 15.033 12.2332C15.2291 11.917 15.3331 11.5524 15.3333 11.1803V4.8266C15.3331 4.45452 15.2291 4.08951 15.033 3.77329C14.8371 3.45735 14.557 3.20226 14.2242 3.03667C14.2239 3.03653 14.2236 3.03639 14.2233 3.03625L8.89147 0.370319L8.59333 0.966604Z" />
    <path fill-rule="evenodd" clip-rule="evenodd" d="M0.950373 3.80846C1.11503 3.47914 1.51548 3.34566 1.8448 3.51032L7.99999 6.58791L14.1552 3.51032C14.4845 3.34566 14.885 3.47914 15.0496 3.80846C15.2143 4.13778 15.0808 4.53823 14.7515 4.70289L8.29813 7.92955C8.11045 8.0234 7.88953 8.0234 7.70185 7.92955L1.24852 4.70289C0.919197 4.53823 0.785714 4.13778 0.950373 3.80846Z" />
    <path fill-rule="evenodd" clip-rule="evenodd" d="M7.99999 6.6666C8.36818 6.6666 8.66666 6.96508 8.66666 7.33327V15.1733C8.66666 15.5415 8.36818 15.8399 7.99999 15.8399C7.6318 15.8399 7.33333 15.5415 7.33333 15.1733V7.33327C7.33333 6.96508 7.6318 6.6666 7.99999 6.6666Z" />
</svg>
