<svg width="20" height="20" viewBox="0 0 20 20" xmlns="http://www.w3.org/2000/svg">
    <path d="M7.5 7C7.5 8.38071 8.61929 9.5 10 9.5C11.3807 9.5 12.5 8.38071 12.5 7H13.5C13.5 8.933 11.933 10.5 10 10.5C8.067 10.5 6.5 8.933 6.5 7H7.5Z" />
    <path fill-rule="evenodd" clip-rule="evenodd" d="M15.2342 1H4.76581L2 4.31897V16.5C2 17.8807 3.11929 19 4.5 19H15.5C16.8807 19 18 17.8807 18 16.5V4.31897L15.2342 1ZM16.4325 4L14.7658 2H5.23419L3.56752 4H16.4325ZM3 5V16.5C3 17.3284 3.67157 18 4.5 18H15.5C16.3284 18 17 17.3284 17 16.5V5H3Z" />
</svg>
