<svg width="20" height="20" viewBox="0 0 20 20" xmlns="http://www.w3.org/2000/svg">
    <path d="M2.5 10C2.5 5.85786 5.85786 2.5 10 2.5C11.1776 2.5 12.2905 2.77105 13.281 3.25371L13.719 2.35476C12.5951 1.80706 11.3327 1.5 10 1.5C5.30558 1.5 1.5 5.30558 1.5 10C1.5 14.6944 5.30558 18.5 10 18.5C14.6944 18.5 18.5 14.6944 18.5 10C18.5 9.55744 18.4661 9.12247 18.4008 8.69759L17.4124 8.84965C17.47 9.22438 17.5 9.60853 17.5 10C17.5 14.1421 14.1421 17.5 10 17.5C5.85786 17.5 2.5 14.1421 2.5 10Z" />
    <path d="M10 12.2071L18.8536 3.35356L18.1465 2.64645L10 10.7929L6.85359 7.64645L6.14648 8.35356L10 12.2071Z" />
</svg>
