<svg width="14" height="14" viewBox="0 0 14 14" xmlns="http://www.w3.org/2000/svg">
    <path d="M2.20711 0.79292C1.81658 0.402395 1.18342 0.402395 0.792892 0.792921C0.402369 1.18344 0.402369 1.81661 0.792893 2.20713L5.58579 7.00003L0.792922 11.7929C0.402398 12.1834 0.402398 12.8166 0.792923 13.2071C1.18345 13.5976 1.81661 13.5976 2.20714 13.2071L7 8.41424L11.7929 13.2071C12.1834 13.5977 12.8166 13.5977 13.2071 13.2071C13.5976 12.8166 13.5976 12.1834 13.2071 11.7929L8.41421 7.00003L13.2071 2.20711C13.5977 1.81658 13.5977 1.18342 13.2071 0.792893C12.8166 0.402369 12.1834 0.402369 11.7929 0.792893L7 5.58581L2.20711 0.79292Z" />
</svg>
