<svg width="24" height="24" viewBox="0 0 24 24"  xmlns="http://www.w3.org/2000/svg">
    <path d="M8.5 12C8.5 12.8284 7.82843 13.5 7 13.5C6.17157 13.5 5.5 12.8284 5.5 12C5.5 11.1716 6.17157 10.5 7 10.5C7.82843 10.5 8.5 11.1716 8.5 12Z" />
    <path d="M13.5 12C13.5 12.8284 12.8284 13.5 12 13.5C11.1716 13.5 10.5 12.8284 10.5 12C10.5 11.1716 11.1716 10.5 12 10.5C12.8284 10.5 13.5 11.1716 13.5 12Z" />
    <path d="M17 13.5C17.8284 13.5 18.5 12.8284 18.5 12C18.5 11.1716 17.8284 10.5 17 10.5C16.1716 10.5 15.5 11.1716 15.5 12C15.5 12.8284 16.1716 13.5 17 13.5Z" />
    <path d="M8.5 16C8.5 16.8284 7.82843 17.5 7 17.5C6.17157 17.5 5.5 16.8284 5.5 16C5.5 15.1716 6.17157 14.5 7 14.5C7.82843 14.5 8.5 15.1716 8.5 16Z" />
    <path d="M12 17.5C12.8284 17.5 13.5 16.8284 13.5 16C13.5 15.1716 12.8284 14.5 12 14.5C11.1716 14.5 10.5 15.1716 10.5 16C10.5 16.8284 11.1716 17.5 12 17.5Z" />
    <path d="M18.5 16C18.5 16.8284 17.8284 17.5 17 17.5C16.1716 17.5 15.5 16.8284 15.5 16C15.5 15.1716 16.1716 14.5 17 14.5C17.8284 14.5 18.5 15.1716 18.5 16Z" />
    <path fill-rule="evenodd" clip-rule="evenodd" d="M8 3C8 2.44772 7.55228 2 7 2C6.44772 2 6 2.44772 6 3L6 4L2 4C1.44772 4 1 4.44772 1 5L1 21C1 21.5523 1.44772 22 2 22L22 22C22.5523 22 23 21.5523 23 21L23 5C23 4.44772 22.5523 4 22 4L18 4V3C18 2.44772 17.5523 2 17 2C16.4477 2 16 2.44772 16 3V4L8 4V3ZM16 7V6L8 6L8 7C8 7.55228 7.55228 8 7 8C6.44772 8 6 7.55228 6 7L6 6L3 6L3 20L21 20L21 6L18 6V7C18 7.55228 17.5523 8 17 8C16.4477 8 16 7.55228 16 7Z" />
</svg>
