<svg width="22" height="21" viewBox="0 0 22 21" xmlns="http://www.w3.org/2000/svg">
    <path fill-rule="evenodd" clip-rule="evenodd" d="M5.43006 -0.000186344L5.37131 -0.00051822C5.03371 -0.00323045 4.18985 -0.0100092 3.35036 0.507813C2.42104 1.08105 1.68459 2.16196 1.33885 3.97951C0.619972 7.75868 0.246952 9.89619 0.088107 10.9891C0.0859749 11.0038 0.0818902 11.0256 0.0766041 11.0539C0.0228036 11.3413 -0.155432 12.2934 0.33422 13.1367C0.932045 14.1662 2.21208 14.6662 4.18653 14.6662H7.91839C7.82163 15.0898 7.70267 15.6245 7.62317 16.1697C7.51536 16.909 7.45784 17.7934 7.66059 18.6081C7.8745 19.4678 8.3943 20.2884 9.41521 20.7115C10.1092 20.9991 10.792 20.8666 11.3161 20.5725C11.8242 20.2875 12.2225 19.8366 12.4779 19.3589C13.5716 17.313 15.2621 14.5789 16.7138 13.1001C16.7449 13.0684 16.7738 13.0347 16.8002 12.9995H19.0001C20.657 12.9995 22.0001 11.6564 22.0001 9.99951L22.0001 2.99951C22.0001 1.34266 20.657 -0.000490278 19.0001 -0.000490205L5.43006 -0.000186344ZM17.0001 10.9995L17.0002 1.99951H19.0001C19.5524 1.99951 20.0001 2.44723 20.0001 2.99951L20.0001 9.99951C20.0001 10.5518 19.5524 10.9995 19.0001 10.9995L17.0001 10.9995ZM15.0001 1.99994L5.40448 1.99981C5.07841 1.99966 4.74163 1.99951 4.40034 2.21003C4.08594 2.40396 3.57886 2.90633 3.30362 4.35325C2.58438 8.1343 2.21911 10.2323 2.06731 11.2768L2.0511 11.3872C1.99396 11.774 1.96592 11.9638 2.06379 12.1324C2.1105 12.2128 2.4304 12.6662 4.18653 12.6662L9.00505 12.6662C9.22534 12.6662 9.46926 12.7342 9.67879 12.9043C9.87338 13.0623 9.96939 13.2524 10.0168 13.3838C10.1015 13.6191 10.0931 13.8423 10.0875 13.941C10.0743 14.1726 10.0168 14.4494 9.96549 14.6827C9.93937 14.8014 9.91138 14.9239 9.8826 15.0498C9.78373 15.4823 9.67556 15.9555 9.60223 16.4583C9.50695 17.1118 9.49285 17.6889 9.6014 18.1252C9.69879 18.5165 9.87321 18.7364 10.1809 18.8639L10.1825 18.8645C10.1965 18.8706 10.2338 18.8865 10.3375 18.8283C10.4616 18.7587 10.6088 18.613 10.7141 18.416C11.7585 16.4624 13.4191 13.7283 15.0001 12.0015L15.0001 1.99994ZM8.0907 13.8272L8.09035 13.8324C8.0903 13.817 8.09144 13.8141 8.0907 13.8272Z" />
</svg>
