<svg width="24" height="24" viewBox="0 0 24 24" fill="none" xmlns="http://www.w3.org/2000/svg">
<path d="M7 11C7 10.4477 7.44772 10 8 10H16C16.5523 10 17 10.4477 17 11C17 11.5523 16.5523 12 16 12H8C7.44772 12 7 11.5523 7 11Z" fill="#141116"/>
<path d="M8 6C7.44772 6 7 6.44772 7 7C7 7.55228 7.44772 8 8 8H11C11.5523 8 12 7.55228 12 7C12 6.44772 11.5523 6 11 6L8 6Z" fill="#141116"/>
<path d="M7 15C7 14.4477 7.44772 14 8 14H14C14.5523 14 15 14.4477 15 15C15 15.5523 14.5523 16 14 16H8C7.44772 16 7 15.5523 7 15Z" fill="#141116"/>
<path d="M8 18C7.44772 18 7 18.4477 7 19C7 19.5523 7.44772 20 8 20H16C16.5523 20 17 19.5523 17 19C17 18.4477 16.5523 18 16 18H8Z" fill="#141116"/>
<path fill-rule="evenodd" clip-rule="evenodd" d="M3 1C3 0.447716 3.44772 5.04966e-07 4 4.80825e-07L15 0C15.2968 -1.29726e-08 15.5782 0.131824 15.7682 0.359816L20.7682 6.35982C20.918 6.53953 21 6.76606 21 7L21 23C21 23.5523 20.5523 24 20 24H4C3.44772 24 3 23.5523 3 23L3 1ZM5 2V22H19V8H15C14.4477 8 14 7.55229 14 7V2L5 2ZM16 3.76205L17.865 6H16V3.76205Z" fill="#141116"/>
</svg>
