<svg width="16" height="16" viewBox="0 0 16 16" xmlns="http://www.w3.org/2000/svg">
    <path fill-rule="evenodd" clip-rule="evenodd" d="M15.5584 8.56052C15.8325 8.23138 15.8325 7.76861 15.5584 7.43948C14.4714 6.13383 11.4978 3 7.9999 3C4.50201 3 1.52845 6.13384 0.44137 7.43948C0.167329 7.76862 0.16733 8.23139 0.441371 8.56052C1.52845 9.86617 4.50201 13 7.9999 13C11.4978 13 14.4714 9.86617 15.5584 8.56052ZM7.99991 10.5C9.38062 10.5 10.4999 9.38071 10.4999 8C10.4999 6.61929 9.38062 5.5 7.99991 5.5C6.6192 5.5 5.49991 6.61929 5.49991 8C5.49991 9.38071 6.6192 10.5 7.99991 10.5Z" />
</svg>
