<svg width="16" height="16" viewBox="0 0 16 16" xmlns="http://www.w3.org/2000/svg">
    <path fill-rule="evenodd" clip-rule="evenodd" d="M7.9999 5.5C6.61919 5.5 5.4999 6.61929 5.4999 8C5.4999 9.38071 6.61919 10.5 7.9999 10.5C9.38062 10.5 10.4999 9.38071 10.4999 8C10.4999 6.61929 9.38062 5.5 7.9999 5.5ZM6.4999 8C6.4999 7.17157 7.17148 6.5 7.9999 6.5C8.82833 6.5 9.4999 7.17157 9.4999 8C9.4999 8.82843 8.82833 9.5 7.9999 9.5C7.17148 9.5 6.4999 8.82843 6.4999 8Z" />
    <path fill-rule="evenodd" clip-rule="evenodd" d="M15.5584 7.43948C15.8325 7.76861 15.8325 8.23138 15.5584 8.56052C14.4714 9.86617 11.4978 13 7.9999 13C4.50201 13 1.52845 9.86617 0.441371 8.56052C0.16733 8.23139 0.167329 7.76862 0.44137 7.43948C1.52845 6.13384 4.50201 3 7.9999 3C11.4978 3 14.4714 6.13383 15.5584 7.43948ZM12.0994 5.54201C13.2708 6.38431 14.1957 7.37517 14.7234 8C14.1957 8.62483 13.2708 9.61569 12.0994 10.458C10.8678 11.3436 9.45437 12 7.9999 12C6.54544 12 5.13205 11.3436 3.90039 10.458C2.72902 9.61569 1.80413 8.62483 1.2764 8C1.80413 7.37517 2.72902 6.38431 3.90039 5.54202C5.13205 4.65637 6.54544 4 7.9999 4C9.45437 4 10.8678 4.65637 12.0994 5.54201Z" />
</svg>
