<svg width="24" height="24" viewBox="0 0 24 24" xmlns="http://www.w3.org/2000/svg">
    <path d="M4 15C3.44772 15 3 15.4477 3 16C3 16.5523 3.44772 17 4 17L16 17V18C16 18.5523 16.4477 19 17 19C17.5523 19 18 18.5523 18 18V17H20C20.5523 17 21 16.5523 21 16C21 15.4477 20.5523 15 20 15H18V14C18 13.4477 17.5523 13 17 13C16.4477 13 16 13.4477 16 14V15H4Z" />
    <path d="M4 7C3.44772 7 3 7.44772 3 8C3 8.55229 3.44772 9 4 9H6V10C6 10.5523 6.44772 11 7 11C7.55228 11 8 10.5523 8 10V9L20 9C20.5523 9 21 8.55228 21 8C21 7.44772 20.5523 7 20 7L8 7V6C8 5.44772 7.55229 5 7 5C6.44772 5 6 5.44772 6 6V7L4 7Z" />
</svg>
