<svg width="18" height="14" viewBox="0 0 18 14" xmlns="http://www.w3.org/2000/svg">
    <path fill-rule="evenodd" clip-rule="evenodd" d="M1 10C0.447715 10 -1.55275e-07 10.4477 -1.31134e-07 11C-1.06993e-07 11.5523 0.447715 12 1 12L13 12L13 13C13 13.5523 13.4477 14 14 14C14.5523 14 15 13.5523 15 13L15 12L17 12C17.5523 12 18 11.5523 18 11C18 10.4477 17.5523 10 17 10L15 10L15 9C15 8.44771 14.5523 8 14 8C13.4477 8 13 8.44771 13 9L13 10L1 10ZM1 2C0.447715 2 -5.04966e-07 2.44771 -4.80825e-07 3C-4.56684e-07 3.55228 0.447715 4 1 4L3 4L3 5C3 5.55228 3.44772 6 4 6C4.55228 6 5 5.55228 5 5L5 4L17 4C17.5523 4 18 3.55228 18 3C18 2.44771 17.5523 2 17 2L5 2L5 0.999999C5 0.447715 4.55228 -1.15266e-06 4 -1.12852e-06C3.44772 -1.10438e-06 3 0.447715 3 0.999999L3 2L1 2Z" />
</svg>
