<svg width="16" height="16" viewBox="0 0 16 16" xmlns="http://www.w3.org/2000/svg">
    <path fill-rule="evenodd" clip-rule="evenodd" d="M2.66669 7.33317C3.03488 7.33317 3.33335 7.63165 3.33335 7.99984V13.9998H12.6667V7.99984C12.6667 7.63165 12.9652 7.33317 13.3334 7.33317C13.7015 7.33317 14 7.63165 14 7.99984V14.6665C14 15.0347 13.7015 15.3332 13.3334 15.3332H2.66669C2.2985 15.3332 2.00002 15.0347 2.00002 14.6665V7.99984C2.00002 7.63165 2.2985 7.33317 2.66669 7.33317Z" />
    <path fill-rule="evenodd" clip-rule="evenodd" d="M0.666687 4.6665C0.666687 4.29831 0.965164 3.99984 1.33335 3.99984H14.6667C15.0349 3.99984 15.3334 4.29831 15.3334 4.6665V7.99984C15.3334 8.36803 15.0349 8.6665 14.6667 8.6665H1.33335C0.965164 8.6665 0.666687 8.36803 0.666687 7.99984V4.6665ZM2.00002 5.33317V7.33317H14V5.33317H2.00002Z" />
    <path fill-rule="evenodd" clip-rule="evenodd" d="M8.00002 3.99984C8.36821 3.99984 8.66669 4.29831 8.66669 4.6665V14.6665C8.66669 15.0347 8.36821 15.3332 8.00002 15.3332C7.63183 15.3332 7.33335 15.0347 7.33335 14.6665V4.6665C7.33335 4.29831 7.63183 3.99984 8.00002 3.99984Z" />
    <path fill-rule="evenodd" clip-rule="evenodd" d="M5.00002 1.99984C4.7348 1.99984 4.48045 2.10519 4.29291 2.29273C4.10538 2.48027 4.00002 2.73462 4.00002 2.99984C4.00002 3.26505 4.10538 3.51941 4.29291 3.70694C4.48045 3.89448 4.7348 3.99984 5.00002 3.99984H7.1027C7.02132 3.78691 6.91829 3.55278 6.79088 3.32112C6.37157 2.55873 5.79595 1.99984 5.00002 1.99984ZM8.00002 4.6665C8.65374 4.53576 8.6537 4.53553 8.65365 4.53529L8.65327 4.53342L8.65254 4.52986L8.6503 4.51912C8.64846 4.51039 8.6459 4.49854 8.6426 4.48376C8.636 4.45422 8.62642 4.41294 8.61358 4.36158C8.58794 4.25901 8.54912 4.11546 8.49496 3.94441C8.38739 3.60471 8.21556 3.14473 7.95916 2.67856C7.46181 1.77427 6.53742 0.666504 5.00002 0.666504C4.38118 0.666504 3.78769 0.912336 3.3501 1.34992C2.91252 1.78751 2.66669 2.381 2.66669 2.99984C2.66669 3.61868 2.91252 4.21217 3.3501 4.64975C3.78769 5.08734 4.38118 5.33317 5.00002 5.33317H8.00002C8.19975 5.33317 8.38896 5.24362 8.51558 5.08916C8.64221 4.9347 8.69282 4.73114 8.65365 4.53529L8.00002 4.6665Z" />
    <path fill-rule="evenodd" clip-rule="evenodd" d="M8.04088 2.67856C8.53823 1.77427 9.46262 0.666504 11 0.666504C11.6189 0.666504 12.2123 0.912336 12.6499 1.34992C13.0875 1.78751 13.3334 2.381 13.3334 2.99984C13.3334 3.61868 13.0875 4.21217 12.6499 4.64975C12.2123 5.08734 11.6189 5.33317 11 5.33317H8.00002C7.80029 5.33317 7.61108 5.24362 7.48446 5.08916C7.35783 4.9347 7.30713 4.73161 7.3463 4.53576L8.00002 4.6665C7.3463 4.53576 7.34625 4.536 7.3463 4.53576L7.3465 4.53474L7.34677 4.53342L7.3475 4.52986L7.34974 4.51912C7.35158 4.51039 7.35414 4.49854 7.35744 4.48376C7.36404 4.45422 7.37362 4.41294 7.38646 4.36158C7.4121 4.25901 7.45092 4.11546 7.50508 3.94441C7.61265 3.60471 7.78448 3.14473 8.04088 2.67856ZM8.89734 3.99984H11C11.2652 3.99984 11.5196 3.89448 11.7071 3.70694C11.8947 3.51941 12 3.26505 12 2.99984C12 2.73462 11.8947 2.48027 11.7071 2.29273C11.5196 2.10519 11.2652 1.99984 11 1.99984C10.2041 1.99984 9.62847 2.55873 9.20916 3.32112C9.08175 3.55278 8.97872 3.78691 8.89734 3.99984ZM8.65351 4.79837C8.65347 4.79858 8.65348 4.79855 8.65351 4.79837V4.79837Z" />
</svg>
