<svg width="24" height="24" viewBox="0 0 24 24" xmlns="http://www.w3.org/2000/svg">
    <path fill-rule="evenodd" clip-rule="evenodd" d="M1 7C1 6.44772 1.44772 6 2 6H5.53513C5.19479 5.41165 5 4.72858 5 4C5 1.79086 6.79086 3.58833e-07 9 2.62268e-07C10.1947 2.10047e-07 11.2671 0.523756 12 1.35418C12.7329 0.523756 13.8053 5.22217e-08 15 0C17.2091 -9.65646e-08 19 1.79086 19 4C19 4.72857 18.8052 5.41165 18.4649 6L22 6C22.5523 6 23 6.44772 23 7V12C23 12.5523 22.5523 13 22 13V23C22 23.5523 21.5523 24 21 24H3C2.44772 24 2 23.5523 2 23L2 13C1.44772 13 1 12.5523 1 12L1 7ZM13 8V11H21V8H13ZM11 6V4C11 2.89543 10.1046 2 9 2C7.89543 2 7 2.89543 7 4C7 5.10457 7.89543 6 9 6L11 6ZM15 6C16.1046 6 17 5.10457 17 4C17 2.89543 16.1046 2 15 2C13.8954 2 13 2.89543 13 4V6H15ZM3 8L11 8V11L3 11V8ZM13 22H20V13H13V22ZM11 13V22H4V13L11 13Z" />
</svg>
