<svg width="16" height="16" viewBox="0 0 16 16" xmlns="http://www.w3.org/2000/svg">
    <path d="M3.35865 7.25458L7.66214 3.30971C7.8533 3.13448 8.1467 3.13448 8.33786 3.30971L12.6414 7.25458C12.8678 7.46212 12.9862 7.76219 12.9627 8.06843L12.6188 12.5383C12.5988 12.7988 12.3816 13 12.1203 13H9.33333C9.05719 13 8.83333 12.7761 8.83333 12.5V10.5C8.83333 10.0398 8.46024 9.66667 8 9.66667C7.53976 9.66667 7.16667 10.0398 7.16667 10.5V12.5C7.16667 12.7761 6.94281 13 6.66667 13H3.87968C3.61841 13 3.40119 12.7988 3.38115 12.5383L3.03731 8.06843C3.01376 7.76219 3.13224 7.46212 3.35865 7.25458Z" />
</svg>
