<svg width="22" height="21" viewBox="0 0 22 21" xmlns="http://www.w3.org/2000/svg">
    <path fill-rule="evenodd" clip-rule="evenodd" d="M3 21.0001L16.5701 20.9998L16.6288 21.0001C16.9664 21.0028 17.8103 21.0096 18.6498 20.4918C19.5791 19.9185 20.3155 18.8376 20.6613 17.0201C21.3802 13.2409 21.7532 11.1034 21.912 10.0104C21.9141 9.99579 21.9182 9.97404 21.9235 9.9459C21.9773 9.6585 22.1556 8.70619 21.6659 7.86291C21.0681 6.83333 19.788 6.33335 17.8136 6.33335H14.0817C14.1785 5.9098 14.2975 5.37505 14.377 4.82986C14.4848 4.09057 14.5423 3.20623 14.3395 2.39145C14.1256 1.53181 13.6058 0.711156 12.5849 0.288079C11.8909 0.000464246 11.2082 0.132958 10.684 0.427054C10.1759 0.712113 9.77758 1.16296 9.52221 1.64068C8.42854 3.68653 6.73802 6.42071 5.28637 7.89944C5.25518 7.93121 5.22633 7.96484 5.19991 8.00007H3C1.34315 8.00006 -7.24234e-08 9.34321 0 11.0001L3.0598e-07 18.0001C3.78403e-07 19.6569 1.34315 21.0001 3 21.0001ZM7 18.9996L7 8.99808C8.58105 7.2713 10.2417 4.53714 11.286 2.58356C11.3913 2.38659 11.5386 2.24088 11.6626 2.17127C11.7664 2.11307 11.8036 2.12902 11.8176 2.13503L11.8192 2.13571C12.1269 2.26321 12.3013 2.48303 12.3987 2.8744C12.5073 3.31063 12.4932 3.88783 12.3979 4.54126C12.3246 5.04409 12.2164 5.51729 12.1175 5.94978C12.0887 6.0757 12.0608 6.19818 12.0346 6.31692C11.9833 6.55022 11.9259 6.82695 11.9127 7.05861C11.907 7.15729 11.8986 7.3805 11.9834 7.61577C12.0307 7.74719 12.1267 7.93729 12.3213 8.09527C12.5309 8.26537 12.7748 8.33335 12.9951 8.33335L17.8136 8.33335C19.5697 8.33335 19.8896 8.78675 19.9363 8.86718C20.0342 9.03575 20.0062 9.22561 19.949 9.6124L19.9328 9.72278C19.781 10.7673 19.4157 12.8653 18.6965 16.6463C18.4213 18.0932 17.9142 18.5956 17.5998 18.7895C17.2585 19.0001 16.9217 18.9999 16.5956 18.9998L7 18.9996ZM4.99997 10.0001H3C2.44772 10.0001 2 10.4478 2 11.0001L2 18.0001C2 18.5523 2.44772 19.0001 3 19.0001H4.99997L4.99997 10.0001ZM13.9094 7.17235L13.9098 7.16716C13.9098 7.18253 13.9087 7.18546 13.9094 7.17235Z" />
</svg>
