<svg width="24" height="24" viewBox="0 0 24 24" xmlns="http://www.w3.org/2000/svg">
    <path d="M3 6C2.44772 6 2 6.44772 2 7C2 7.55228 2.44772 8 3 8H4C4.55228 8 5 7.55228 5 7C5 6.44772 4.55228 6 4 6H3Z" />
    <path d="M9 6C8.44772 6 8 6.44772 8 7C8 7.55228 8.44772 8 9 8H21C21.5523 8 22 7.55228 22 7C22 6.44772 21.5523 6 21 6H9Z" />
    <path d="M9 11C8.44772 11 8 11.4477 8 12C8 12.5523 8.44772 13 9 13H21C21.5523 13 22 12.5523 22 12C22 11.4477 21.5523 11 21 11H9Z" />
    <path d="M8 17C8 16.4477 8.44772 16 9 16H21C21.5523 16 22 16.4477 22 17C22 17.5523 21.5523 18 21 18H9C8.44772 18 8 17.5523 8 17Z" />
    <path d="M2 12C2 11.4477 2.44772 11 3 11H4C4.55228 11 5 11.4477 5 12C5 12.5523 4.55228 13 4 13H3C2.44772 13 2 12.5523 2 12Z" />
    <path d="M3 16C2.44772 16 2 16.4477 2 17C2 17.5523 2.44772 18 3 18H4C4.55228 18 5 17.5523 5 17C5 16.4477 4.55228 16 4 16H3Z" />
</svg>
