<svg width="128" height="47" viewBox="0 0 128 47" xmlns="http://www.w3.org/2000/svg">
    <path fill-rule="evenodd" clip-rule="evenodd" d="M120.536 4.87257L120.397 5.6127H121.924L121.492 8.2186H122.433C122.71 8.2186 123.019 8.15692 123.343 7.94105C123.666 7.72517 123.944 7.37053 124.037 6.9542C124.145 6.53787 124.067 6.21406 124.021 6.07529C123.975 5.93651 123.852 5.58186 123.497 5.27348C123.127 4.9805 122.787 4.91883 122.787 4.91883L122.895 4.31747H123.867L123.975 3.57733H120.736L120.613 4.31747H122.14L122.047 4.87257H120.536ZM123.327 6.4762C123.358 6.69207 123.281 6.9542 123.08 7.17007C122.88 7.38594 122.618 7.46304 122.356 7.47846L122.664 5.65896C122.664 5.65896 122.849 5.70522 123.034 5.87484C123.219 6.04445 123.312 6.26032 123.327 6.4762Z" />
    <path fill-rule="evenodd" clip-rule="evenodd" d="M116.742 7.92562L121.322 11.7805L126.951 9.74512L128 3.85487L123.42 0L117.791 2.03537L116.742 7.92562ZM121.6 10.2077L118.238 7.38593L119.009 3.05306L123.142 1.55737L126.504 4.37913L125.733 8.71201L121.6 10.2077Z" />
    <path fill-rule="evenodd" clip-rule="evenodd" d="M5.92196 11.21L6.46172 8.18776L10.7489 8.2186L11.1808 5.89026H4.28726L0.956177 24.702H7.84967L9.86991 13.1837L10.3017 10.7011L5.92196 11.21ZM3.94798 22.3891L5.49015 13.6925L7.24822 13.4921L5.69063 22.3891H3.94798Z" />
    <path d="M16.5783 8.4036L15.5758 13.9392H18.3517L17.7811 16.4526H15.144L14.1262 22.204H17.8891L17.4573 24.7174H11.1344L14.4655 5.90564H20.7884L20.2486 8.41902H16.5783V8.4036Z" />
    <path d="M28.1291 8.38819L27.4814 11.9501L30.026 12.0889L31.1209 5.87482H23.4872L20.1561 24.6866H27.7899L28.9928 17.8249L26.3865 18.087L25.6771 22.1886H23.1634L25.6154 8.38819H28.1291Z" />
    <path d="M37.6752 11.9501L38.3229 8.38819H35.8091L33.3571 22.1886H35.8708L36.5802 18.087L39.1865 17.8249L37.9836 24.6866H30.3499L33.6809 5.87482H41.3147L40.2197 12.0889L37.6752 11.9501Z" />
    <path fill-rule="evenodd" clip-rule="evenodd" d="M40.7595 24.702H48.64L51.9711 5.89026H44.0906L40.7595 24.702ZM46.2034 8.40364H48.9639L46.5118 22.2041H43.7513L46.2034 8.40364Z" />
    <path fill-rule="evenodd" clip-rule="evenodd" d="M62.2574 8.40364L60.8232 14.4635L61.5172 14.6177L60.3451 22.1887L59.9133 24.702H51.6627L54.9938 5.89026H62.7046L62.2574 8.40364ZM57.9085 22.1887L58.7721 16.7918L55.6415 16.5297L54.6391 22.1887H57.9085ZM59.6974 8.40364H57.1066L56.1196 14.0317L58.3249 14.2168L59.6974 8.40364Z" />
    <path d="M67.0844 13.9238L68.0868 8.40364H71.7571L72.2969 5.89026H65.974L62.6429 24.702H68.9658L69.3976 22.1887H65.6193L66.6372 16.4372H69.2743L69.8449 13.9238H67.0844Z" />
    <path d="M78.9745 11.9501L79.6222 8.38819H77.1084L74.6564 22.1886H77.1701L77.8795 18.087L80.4858 17.8249L79.2829 24.6866H71.6492L74.9802 5.87482H82.614L81.519 12.0889L78.9745 11.9501Z" />
    <path d="M89.6154 8.40364H92.1446L92.6072 5.89026H84.6188L84.1561 8.40364H87.0554L84.187 24.702H86.747L89.6154 8.40364Z" />
    <path d="M102.631 5.89026L102.629 5.90568H100.071L98.668 13.8621L96.0308 13.9855L97.4651 5.89026H94.9051L91.574 24.702H94.134L95.6145 16.3601L98.2207 16.2367L96.7402 24.702H99.3002L102.629 5.90568H102.631V5.89026Z" />
    <path fill-rule="evenodd" clip-rule="evenodd" d="M102.631 24.702H110.512L113.843 5.89026H105.962L102.631 24.702ZM108.091 8.40364H110.851L108.399 22.2041H105.639L108.091 8.40364Z" />
    <path d="M7.98843 29.7288H5.45928L2.59084 46.0272H0.0308434L2.89928 29.7288H0L0.462651 27.2154H8.45108L7.98843 29.7288Z" />
    <path fill-rule="evenodd" clip-rule="evenodd" d="M13.7407 46.0272L14.9898 27.2154H10.0703L4.67273 46.0272H7.30984L8.40478 41.9873H11.412L11.1036 46.0272H13.7407ZM11.6588 30.0834H12.3219L11.6125 39.4739H9.09875L10.7951 33.3369L11.6588 30.0834Z" />
    <path d="M25.0757 46.0272H22.5157L25.415 29.7288H23.3639L19.1846 46.0272H14.6506L15.0824 43.5138H17.2723L21.4362 27.2154H28.4068L25.0757 46.0272Z" />
    <path fill-rule="evenodd" clip-rule="evenodd" d="M35.6858 46.0272L36.935 27.2154H32.0309L26.6333 46.0272H29.2704L30.3653 41.9873H33.3572L33.0487 46.0272H35.6858ZM33.6193 30.0834H34.2825L33.5731 39.4739H31.0593L32.7557 33.3369L33.6193 30.0834Z" />
    <path d="M48.3624 27.2154L48.3597 27.2308H45.787L44.3836 35.1873L41.7465 35.3106L43.1807 27.2154H40.6361L37.3051 46.0272H39.8651L41.3455 37.6852L43.9518 37.5619L42.4713 46.0272H45.0313L48.3597 27.2308H48.3624V27.2154Z" />
    <path d="M54.9012 29.7288H57.4303L57.893 27.2154H49.9045L49.4419 29.7288H52.3412L49.4727 46.0272H52.0327L54.9012 29.7288Z" />
    <path d="M64.0925 46.0272H61.5325L64.4318 29.7288H62.3807L58.2015 46.0272H53.6675L54.0993 43.5138H56.2737L60.453 27.2154H67.4236L64.0925 46.0272Z" />
    <path d="M74.2245 46.0271L77.5248 27.3233L75.0573 27.1382L69.9373 38.7029L71.9884 27.2153L69.3976 27.3387L66.1282 45.9192L68.5648 46.1042L73.5614 35.2797L71.6646 46.0271H74.2245Z" />
    <path fill-rule="evenodd" clip-rule="evenodd" d="M86.8396 29.7288L85.4054 35.7886L86.0993 35.9428L84.9273 43.5138L84.4955 46.0272H76.2449L79.576 27.2154H87.2868L86.8396 29.7288ZM82.4907 43.5292L83.3543 38.1324L80.2237 37.8703L79.2213 43.5292H82.4907ZM84.2796 29.7288H81.6887L80.6863 35.3569L82.8916 35.5419L84.2796 29.7288Z" />
    <path fill-rule="evenodd" clip-rule="evenodd" d="M89.4458 27.2154L86.1147 46.0272H93.0237L95.4757 32.0263L91.096 32.5351L92.0367 27.2154H89.4458ZM90.6487 35.0177L92.4222 34.8172L90.8492 43.7142H89.1066L90.6487 35.0177Z" />
    <path d="M96.5861 46.0272L99.9172 27.2154H97.3572L94.0261 46.0272H96.5861Z" />
    <path d="M110.018 27.3233L106.718 46.0271H104.158L106.055 35.2797L101.058 46.1042L98.6217 45.9192L101.891 27.3387L104.482 27.2153L102.431 38.7029L107.551 27.1382L110.018 27.3233Z" />
</svg>
