<svg width="341" height="35" viewBox="0 0 341 35" xmlns="http://www.w3.org/2000/svg">
    <path fill-rule="evenodd" clip-rule="evenodd" d="M317.4 34.7999L322.3 6.79995H318.6L311 23.9L314 6.79995H310.2L305.3 34.7999H309L316.4 18.7999L313.6 34.7999H317.4ZM313.4 0.799951L314.3 4.29995V4.19995H319.2L321.3 0.699951L318.8 0.199951L318 1.89995H316.1L315.9 0.199951L313.4 0.799951ZM7.4 14.8L8.2 10.3H14.5L15.1 6.80005H4.9L0 34.8H10.3L13.3 17.7001L13.9 14L7.4 14.8ZM4.5 31.4L6.7 18.5L9.3 18.2001L7 31.4H4.5ZM19.2 18.8L20.7 10.6V10.5H26.1L26.9 6.80005H17.5L12.6 34.8H22L22.6 31.1H17L18.6 22.5H22.5L23.3 18.8H19.2ZM35.2 15.9L36.2 10.6H32.5L28.8 31.1H32.5L33.6 25L37.5 24.6L35.7 34.8H24.3L29.2 6.80005H40.5L39 16.1L35.2 15.9ZM50 10.6L49 15.9L52.7 16L54.3 6.80005H43L38.1 34.8H49.5L51.3 24.6L47.4 25L46.3 31.1H42.6L46.3 10.6H50ZM63.7 34.8H52L56.9 6.80005H68.6L63.7 34.8ZM64.2 10.6H60.1L56.4 31.1H60.5L64.2 10.6ZM79.8 19.6L81.9 10.6L82.6 6.80005H71.1L66.2 34.8H78.4L79 31.1L80.8 19.8L79.8 19.6ZM76.8 23.1L75.5 31.1H70.7L72.2 22.7001L76.8 23.1ZM74.3 10.6H78.1L76.1 19.3L72.8 19L74.3 10.6ZM89 10.6L87.5 18.8H91.6L90.8 22.5H86.9L85.4 31.1H91L90.4 34.8H81L85.9 6.80005H95.3L94.5 10.5H89V10.6ZM104.5 10.6L103.5 15.9L107.2 16L108.8 6.80005H97.5L92.6 34.8H104L105.8 24.6L101.9 25L100.8 31.1H97.1L100.8 10.6H104.5ZM123.2 6.8999L122.5 10.5999H118.7L114.4 34.7999H110.6L114.9 10.5999H110.6L111.3 6.8999H123.2ZM132.1 34.8L137 6.80005H133.2L131.1 18.6L127.2 18.8L129.3 6.80005H125.5L120.6 34.8H124.4L126.6 22.4L130.5 22.2001L128.3 34.8H132.1ZM146.1 34.8H134.4L139.3 6.80005H151L146.1 34.8ZM146.6 10.6H142.5L138.8 31.1H142.9L146.6 10.6ZM166.4 10.5999H170.2L170.9 6.8999H159L158.3 10.5999H162.6L158.3 34.7999H162.1L166.4 10.5999ZM181.2 6.80005L179.3 34.8H175.4L175.9 28.8H171.4L169.8 34.8H165.9L173.9 6.80005H181.2ZM177.2 11.1H176.2L174.9 15.9L172.4 25H176.1L176.8 15.9L177.2 11.1ZM192.9 34.7999H196.7L201.7 6.8999H191.3L185.1 31.0999H181.9L181.3 34.7999H188L194.2 10.5999H197.2L192.9 34.7999ZM214.4 6.80005L212.5 34.8H208.6L209.1 28.8H204.6L203 34.8H199L207 6.80005H214.4ZM210.4 11.1H209.4L208.1 15.9L205.6 25H209.3L210 15.9L210.4 11.1ZM226.4 34.8L231.3 6.80005H227.5L225.4 18.6L221.5 18.8L223.6 6.80005H219.8L214.9 34.8H218.7L220.9 22.4L224.8 22.2001L222.6 34.8H226.4ZM244.8 10.5999H241L236.7 34.7999H232.9L237.2 10.5999H232.9L233.6 6.8999H245.5L244.8 10.5999ZM251.3 34.7999H255.1L260 6.8999H249.7L243.5 31.0999H240.3L239.7 34.7999H246.4L252.6 10.5999H255.6L251.3 34.7999ZM274.7 6.80005L269.8 34.8H266L268.8 18.8L261.4 34.8H257.7L262.6 6.80005H266.4L263.4 23.9L271 6.80005H274.7ZM286.1 19.6L288.2 10.6L288.8 6.80005H277.3L272.4 34.8H284.7L285.3 31.1L287.1 19.8L286.1 19.6ZM283 23.1L281.7 31.1H276.9L278.4 22.7001L283 23.1ZM280.6 10.6H284.4L282.4 19.3L279.1 19L280.6 10.6ZM287.2 34.8L287.217 34.7001H297.3L301 13.9L294.5 14.7L295.9 6.80005H292.1L287.217 34.7001H287.2V34.8ZM296.5 18.1L293.9 18.4L291.6 31.3H294.2L296.5 18.1ZM307.7 6.80005L302.8 34.8H299L303.9 6.80005H307.7Z" />
    <path d="M330.2 7.29985L330.4 6.29985H332.4L332.5 5.59985H330.5L330.7 4.59985H334.9L334.8 5.59985H333.5L333.4 6.39985C333.4 6.39985 333.9 6.49985 334.3 6.89985C334.8 7.29985 334.9 7.79985 335 7.89985C335.1 8.09985 335.2 8.49985 335 8.99985C334.9 9.49985 334.5 9.99985 334.1 10.2999C333.7 10.5999 333.3 10.6999 332.9 10.6999C332.5 10.6999 331.7 10.6999 331.7 10.6999L332.3 7.29985H330.2ZM333.7 9.29985C334 8.99985 334.1 8.69985 334 8.39985C334 8.09985 333.9 7.79985 333.6 7.59985C333.4 7.39985 333.1 7.29985 333.1 7.29985L332.7 9.69985C333.1 9.69985 333.4 9.59985 333.7 9.29985Z" />
    <path d="M331.4 15.2999L325.4 10.2999L326.8 2.5999L334.1 -0.100098L340.1 4.8999L338.7 12.5999L331.4 15.2999ZM327.4 9.5999L331.8 13.2999L337.2 11.3999L338.2 5.7999L333.8 1.9999L328.4 3.9999L327.4 9.5999Z" />
</svg>
