<svg width="32" height="32" viewBox="0 0 32 32" xmlns="http://www.w3.org/2000/svg">
    <path fill-rule="evenodd" clip-rule="evenodd" d="M13.7093 23.2326H16.3026C19.1829 23.2326 21.5317 20.9282 21.5317 18.0896C21.5317 15.5442 19.5974 13.3655 17.0679 12.9989L17.5568 10.1289H20.8409L21.0853 8.57861H11.031L10.7653 10.1289H15.9519L15.4736 12.9465H10.2977L10.032 14.4968H15.1973L13.7093 23.2326ZM16.3026 21.6824H15.5799L16.7915 14.5282C18.5877 14.7691 19.9481 16.2879 19.9481 18.0896C19.9481 20.0693 18.3114 21.6824 16.3026 21.6824Z" />
    <path fill-rule="evenodd" clip-rule="evenodd" d="M0.615356 21.4835L13.1992 32L28.7376 26.5322L31.6923 10.527L19.1085 0L3.57 5.47823L0.615356 21.4835ZM13.72 29.1404L3.38932 20.4989L5.82319 7.36367L18.5771 2.85957L28.9077 11.4907L26.4844 24.6363L13.72 29.1404Z" />
</svg>
