<svg width="24" height="24" viewBox="0 0 24 24" xmlns="http://www.w3.org/2000/svg">
    <path fill-rule="evenodd" clip-rule="evenodd" d="M7.9834 2.00102C7.89323 2.00183 7.80156 2.01526 7.71044 2.04282L0.71044 4.16047C0.288569 4.28809 -1.92659e-08 4.67688 0 5.11763L6.9424e-07 21C7.23086e-07 21.6599 0.657908 22.1482 1.28956 21.9571L8.01822 19.9216L15.7351 21.9643C15.9146 22.0136 16.1067 22.0125 16.2896 21.9572L23.2896 19.8395C23.7114 19.7119 24 19.3231 24 18.8824V3.00001C24 2.6835 23.8502 2.38567 23.596 2.19703C23.3418 2.00838 23.0134 1.9512 22.7104 2.04285L15.9819 4.07838L8.25589 2.03326C8.16455 2.00908 8.07305 1.99885 7.9834 2.00102ZM7 18.1401V4.34726L2 5.85987L2 19.6527L7 18.1401ZM9 4.29911V18.1126L15 19.7008V5.88735L9 4.29911ZM17 5.85989V19.6527L22 18.1401V4.34729L17 5.85989Z" />
</svg>
