<?xml version="1.0" encoding="UTF-8"?>
<svg version="1.1" viewBox="0 0 202.94 74.796" xmlns="http://www.w3.org/2000/svg">
 <path d="m7.164 59.91h-2.916v10.746h-1.332v-10.746h-2.916v-1.26h7.164zm6.6826 9.846c-0.744 0.744-1.686 1.116-2.826 1.116s-2.088-0.372-2.844-1.116c-0.744-0.744-1.116-1.68-1.116-2.808 0-1.14 0.372-2.082 1.116-2.826 0.756-0.744 1.704-1.116 2.844-1.116s2.082 0.372 2.826 1.116c0.756 0.744 1.134 1.686 1.134 2.826 0 1.128-0.378 2.064-1.134 2.808zm-0.972-4.86c-0.504-0.492-1.122-0.738-1.854-0.738s-1.356 0.252-1.872 0.756c-0.504 0.492-0.756 1.17-0.756 2.034s0.258 1.542 0.774 2.034 1.134 0.738 1.854 0.738 1.338-0.246 1.854-0.738 0.774-1.17 0.774-2.034c0-0.876-0.258-1.56-0.774-2.052zm4.0935-1.71h2.826c0.684 0 1.206 0.144 1.566 0.432 0.432 0.348 0.648 0.816 0.648 1.404 0 0.648-0.27 1.146-0.81 1.494 0.372 0.096 0.684 0.264 0.936 0.504 0.396 0.384 0.594 0.864 0.594 1.44 0 0.72-0.258 1.284-0.774 1.692-0.444 0.336-1.032 0.504-1.764 0.504h-3.222zm1.296 3.042h1.368c0.348 0 0.624-0.072 0.828-0.216 0.24-0.18 0.36-0.438 0.36-0.774 0-0.3-0.12-0.54-0.36-0.72-0.18-0.12-0.528-0.18-1.044-0.18h-1.152zm0 3.276h1.602c0.552 0 0.942-0.084 1.17-0.252 0.288-0.216 0.432-0.492 0.432-0.828 0-0.36-0.126-0.642-0.378-0.846-0.228-0.18-0.618-0.27-1.17-0.27h-1.656zm12.162-5.256v-1.062h1.296v7.47h-1.296v-1.044c-0.648 0.84-1.5 1.26-2.556 1.26-1.008 0-1.866-0.348-2.574-1.044s-1.062-1.668-1.062-2.916c0-1.224 0.348-2.178 1.044-2.862 0.708-0.696 1.572-1.044 2.592-1.044 1.08 0 1.932 0.414 2.556 1.242zm-2.412-0.09c-0.684 0-1.266 0.246-1.746 0.738-0.468 0.48-0.702 1.152-0.702 2.016 0 0.828 0.216 1.506 0.648 2.034 0.444 0.516 1.044 0.774 1.8 0.774s1.356-0.27 1.8-0.81c0.456-0.54 0.684-1.2 0.684-1.98 0-0.888-0.252-1.572-0.756-2.052s-1.08-0.72-1.728-0.72zm7.4586 5.454v5.184h-1.296v-11.61h1.296v1.044c0.66-0.816 1.512-1.224 2.556-1.224 1.116 0 1.998 0.396 2.646 1.188 0.66 0.78 0.99 1.704 0.99 2.772 0 1.08-0.324 2.004-0.972 2.772-0.648 0.756-1.518 1.134-2.61 1.134s-1.962-0.42-2.61-1.26zm2.43 0.108c0.732 0 1.32-0.264 1.764-0.792 0.444-0.54 0.666-1.194 0.666-1.962 0-0.864-0.246-1.548-0.738-2.052s-1.062-0.756-1.71-0.756-1.224 0.252-1.728 0.756-0.756 1.182-0.756 2.034c0 0.78 0.228 1.44 0.684 1.98 0.468 0.528 1.074 0.792 1.818 0.792zm10.49-6.534h5.256v6.282h1.116v3.168h-1.188v-1.98h-5.688v1.98h-1.188v-3.168c0.624-0.012 1.086-0.336 1.386-0.972 0.204-0.42 0.306-1.08 0.306-1.98zm3.96 6.282v-5.094h-2.664v2.808c0 0.996-0.3 1.758-0.9 2.286zm10.097 0.288c-0.744 0.744-1.686 1.116-2.826 1.116s-2.0879-0.372-2.8439-1.116c-0.744-0.744-1.116-1.68-1.116-2.808 0-1.14 0.372-2.082 1.116-2.826 0.756-0.744 1.7039-1.116 2.8439-1.116s2.082 0.372 2.826 1.116c0.756 0.744 1.134 1.686 1.134 2.826 0 1.128-0.378 2.064-1.134 2.808zm-0.972-4.86c-0.504-0.492-1.122-0.738-1.854-0.738s-1.356 0.252-1.8719 0.756c-0.504 0.492-0.756 1.17-0.756 2.034s0.258 1.542 0.774 2.034c0.5159 0.492 1.1339 0.738 1.8539 0.738s1.338-0.246 1.854-0.738 0.774-1.17 0.774-2.034c0-0.876-0.258-1.56-0.774-2.052zm9.944-1.17v1.548c-0.588-0.744-1.368-1.116-2.34-1.116-0.732 0-1.356 0.252-1.872 0.756-0.516 0.492-0.774 1.17-0.774 2.034s0.258 1.542 0.774 2.034 1.134 0.738 1.854 0.738c0.96 0 1.764-0.39 2.412-1.17v1.548c-0.708 0.516-1.5 0.774-2.376 0.774-1.164 0-2.124-0.366-2.88-1.098-0.744-0.744-1.116-1.68-1.116-2.808 0-1.14 0.378-2.082 1.134-2.826 0.756-0.756 1.71-1.134 2.862-1.134 0.864 0 1.638 0.24 2.322 0.72zm6.938 0.648h-2.34v6.282h-1.296v-6.282h-2.34v-1.188h5.976zm1.696 10.422 2.376-4.842-3.438-6.768h1.476l2.646 5.346 2.43-5.346h1.44l-5.49 11.61zm8.297-11.61h6.012v7.47h-1.296v-6.282h-3.42v6.282h-1.296zm13.999 4.968 1.08 0.594c-0.252 0.48-0.558 0.882-0.918 1.206-0.684 0.612-1.512 0.918-2.484 0.918-1.008 0-1.878-0.324-2.61-0.972-0.72-0.66-1.08-1.638-1.08-2.934 0-1.14 0.324-2.082 0.972-2.826 0.66-0.756 1.542-1.134 2.646-1.134 1.248 0 2.19 0.456 2.826 1.368 0.504 0.72 0.738 1.656 0.702 2.808h-5.814c0.012 0.756 0.246 1.368 0.702 1.836s1.014 0.702 1.674 0.702c0.588 0 1.098-0.18 1.53-0.54 0.336-0.288 0.594-0.63 0.774-1.026zm-4.59-2.052h4.392c-0.108-0.588-0.366-1.056-0.774-1.404-0.396-0.36-0.87-0.54-1.422-0.54-0.54 0-1.02 0.186-1.44 0.558-0.408 0.36-0.66 0.822-0.756 1.386zm7.712 4.554v-7.47h1.296v3.06h3.528v-3.06h1.296v7.47h-1.296v-3.222h-3.528v3.222zm13.302-7.47h5.256v6.282h1.116v3.168h-1.188v-1.98h-5.688v1.98h-1.188v-3.168c0.624-0.012 1.086-0.336 1.386-0.972 0.204-0.42 0.306-1.08 0.306-1.98zm3.96 6.282v-5.094h-2.664v2.808c0 0.996-0.3 1.758-0.9 2.286zm9.976-6.282v7.47h-1.296v-6.282h-2.664v3.366c0 0.972-0.192 1.692-0.576 2.16-0.432 0.528-1.032 0.792-1.8 0.792-0.096 0-0.228-0.012-0.396-0.036v-1.188c0.12 0.024 0.216 0.036 0.288 0.036 0.42 0 0.732-0.162 0.936-0.486 0.168-0.264 0.252-0.69 0.252-1.278v-4.554zm1.587 7.47 2.322-3.078c-0.072 0-0.174-0.012-0.306-0.036-0.12-0.024-0.3-0.084-0.54-0.18s-0.438-0.222-0.594-0.378c-0.396-0.372-0.594-0.87-0.594-1.494 0-0.708 0.222-1.266 0.666-1.674 0.444-0.42 1.176-0.63 2.196-0.63h2.61v7.47h-1.296v-3.006h-0.792l-2.124 3.006zm4.464-4.086v-2.232h-1.206c-0.564 0-0.954 0.066-1.17 0.198-0.312 0.204-0.468 0.51-0.468 0.918s0.156 0.708 0.468 0.9c0.228 0.144 0.612 0.216 1.152 0.216zm7.949-3.384h6.012v7.47h-1.296v-6.282h-3.42v6.282h-1.296zm14.773 6.57c-0.744 0.744-1.686 1.116-2.826 1.116s-2.088-0.372-2.844-1.116c-0.744-0.744-1.116-1.68-1.116-2.808 0-1.14 0.372-2.082 1.116-2.826 0.756-0.744 1.704-1.116 2.844-1.116s2.082 0.372 2.826 1.116c0.756 0.744 1.134 1.686 1.134 2.826 0 1.128-0.378 2.064-1.134 2.808zm-0.972-4.86c-0.504-0.492-1.122-0.738-1.854-0.738s-1.356 0.252-1.872 0.756c-0.504 0.492-0.756 1.17-0.756 2.034s0.258 1.542 0.774 2.034 1.134 0.738 1.854 0.738 1.338-0.246 1.854-0.738 0.774-1.17 0.774-2.034c0-0.876-0.258-1.56-0.774-2.052zm4.094-1.71h1.296v3.06l3.024-3.06h1.584l-3.24 3.33 3.636 4.14h-1.692l-2.916-3.276-0.396 0.378v2.898h-1.296zm7.576 11.61 2.376-4.842-3.438-6.768h1.476l2.646 5.346 2.43-5.346h1.44l-5.49 11.61zm8.297-11.61h6.012v7.47h-1.296v-6.282h-3.42v6.282h-1.296zm8.455 0h1.296v3.06l3.024-3.06h1.584l-3.24 3.33 3.636 4.14h-1.692l-2.916-3.276-0.396 0.378v2.898h-1.296zm7.594 0h1.296v4.932l5.112-5.508v8.046h-1.296v-4.986l-5.112 5.508z" fill="#babdc2"/>
 <path d="m45.923 16.656v-2.208h-0.432c-1.872 0-3.376-0.4-4.512-1.2-1.6-1.136-2.4-2.832-2.4-5.088s0.8-3.952 2.4-5.088c1.136-0.8 2.64-1.2 4.512-1.2h0.432v-1.872h3.12v1.872h0.432c1.872 0 3.376 0.4 4.512 1.2 1.6 1.136 2.4 2.832 2.4 5.088s-0.8 3.952-2.4 5.088c-1.136 0.8-2.64 1.2-4.512 1.2h-0.432v2.208zm0-4.896v-7.2h-0.48c-0.96 0-1.744 0.224-2.352 0.672-0.864 0.64-1.296 1.616-1.296 2.928 0 1.264 0.432 2.24 1.296 2.928 0.576 0.448 1.36 0.672 2.352 0.672zm3.12-7.2v7.2h0.48c1.008 0 1.8-0.224 2.376-0.672 0.848-0.656 1.272-1.632 1.272-2.928 0-1.328-0.424-2.304-1.272-2.928-0.608-0.448-1.4-0.672-2.376-0.672zm11.497 2.832c1.056-0.976 2.456-1.464 4.2-1.464s3.144 0.488 4.2 1.464c1.168 1.056 1.752 2.416 1.752 4.08 0 1.648-0.584 3-1.752 4.056-1.056 0.976-2.456 1.464-4.2 1.464s-3.144-0.488-4.2-1.464c-1.168-1.056-1.752-2.408-1.752-4.056 0-1.664 0.584-3.024 1.752-4.08zm2.112 6.144c0.56 0.576 1.256 0.864 2.088 0.864s1.528-0.288 2.088-0.864 0.84-1.264 0.84-2.064c0-0.816-0.28-1.512-0.84-2.088s-1.256-0.864-2.088-0.864-1.528 0.288-2.088 0.864-0.84 1.272-0.84 2.088c0 0.8 0.28 1.488 0.84 2.064zm18.225-4.776h-2.88v7.896h-2.928v-7.896h-2.88v-2.496h8.688zm3.241-1.368c1.056-0.976 2.456-1.464 4.2-1.464s3.144 0.488 4.2 1.464c1.168 1.056 1.752 2.416 1.752 4.08 0 1.648-0.584 3-1.752 4.056-1.056 0.976-2.456 1.464-4.2 1.464s-3.144-0.488-4.2-1.464c-1.168-1.056-1.752-2.408-1.752-4.056 0-1.664 0.584-3.024 1.752-4.08zm2.112 6.144c0.56 0.576 1.256 0.864 2.088 0.864s1.528-0.288 2.088-0.864 0.84-1.264 0.84-2.064c0-0.816-0.28-1.512-0.84-2.088s-1.256-0.864-2.088-0.864-1.528 0.288-2.088 0.864-0.84 1.272-0.84 2.088c0 0.8 0.28 1.488 0.84 2.064zm24.69-6.984v2.88c-0.656-0.608-1.456-0.912-2.4-0.912-0.928 0-1.648 0.288-2.16 0.864-0.512 0.56-0.768 1.248-0.768 2.064 0 0.848 0.28 1.552 0.84 2.112 0.576 0.56 1.304 0.84 2.184 0.84 0.864 0 1.632-0.304 2.304-0.912v2.856c-0.864 0.432-1.76 0.648-2.688 0.648-1.616 0-2.952-0.504-4.008-1.512-1.104-1.04-1.656-2.368-1.656-3.984 0-1.76 0.6-3.168 1.8-4.224 1.008-0.896 2.256-1.344 3.744-1.344 1.008 0 1.944 0.208 2.808 0.624zm2.687-0.288h2.928v4.032l3.888-4.032h3.648l-4.704 4.632 4.944 5.76h-3.744l-3.6-4.296-0.432 0.432v3.864h-2.928zm13.47 1.128c1.056-0.976 2.456-1.464 4.2-1.464s3.144 0.488 4.2 1.464c1.168 1.056 1.752 2.416 1.752 4.08 0 1.648-0.584 3-1.752 4.056-1.056 0.976-2.456 1.464-4.2 1.464s-3.144-0.488-4.2-1.464c-1.168-1.056-1.752-2.408-1.752-4.056 0-1.664 0.584-3.024 1.752-4.08zm2.112 6.144c0.56 0.576 1.256 0.864 2.088 0.864s1.528-0.288 2.088-0.864 0.84-1.264 0.84-2.064c0-0.816-0.28-1.512-0.84-2.088s-1.256-0.864-2.088-0.864-1.528 0.288-2.088 0.864-0.84 1.272-0.84 2.088c0 0.8 0.28 1.488 0.84 2.064zm13.712 1.776v6.84h-2.928v-15.888h2.928v1.344c0.784-1.12 1.912-1.68 3.384-1.68 1.44 0 2.624 0.464 3.552 1.392 1.04 1.04 1.56 2.416 1.56 4.128 0 1.76-0.544 3.16-1.632 4.2-0.96 0.896-2.136 1.344-3.528 1.344s-2.504-0.56-3.336-1.68zm2.592-6.792c-0.752 0-1.384 0.232-1.896 0.696-0.656 0.56-0.984 1.304-0.984 2.232 0 0.944 0.32 1.696 0.96 2.256 0.528 0.464 1.168 0.696 1.92 0.696 0.784 0 1.44-0.248 1.968-0.744 0.608-0.56 0.912-1.296 0.912-2.208 0-0.896-0.296-1.624-0.888-2.184-0.544-0.496-1.208-0.744-1.992-0.744zm9.872-1.128c1.056-0.976 2.456-1.464 4.2-1.464s3.144 0.488 4.2 1.464c1.168 1.056 1.752 2.416 1.752 4.08 0 1.648-0.584 3-1.752 4.056-1.056 0.976-2.456 1.464-4.2 1.464s-3.144-0.488-4.2-1.464c-1.168-1.056-1.752-2.408-1.752-4.056 0-1.664 0.584-3.024 1.752-4.08zm2.112 6.144c0.56 0.576 1.256 0.864 2.088 0.864s1.528-0.288 2.088-0.864 0.84-1.264 0.84-2.064c0-0.816-0.28-1.512-0.84-2.088s-1.256-0.864-2.088-0.864-1.528 0.288-2.088 0.864-0.84 1.272-0.84 2.088c0 0.8 0.28 1.488 0.84 2.064zm-101.68 16.728h9.8402v10.392h-2.928v-7.896h-3.984v7.896h-2.9282zm14.337 1.128c1.056-0.976 2.456-1.464 4.2-1.464s3.144 0.488 4.2 1.464c1.168 1.056 1.752 2.416 1.752 4.08 0 1.648-0.584 3-1.752 4.056-1.056 0.976-2.456 1.464-4.2 1.464s-3.144-0.488-4.2-1.464c-1.168-1.056-1.752-2.408-1.752-4.056 0-1.664 0.584-3.024 1.752-4.08zm2.112 6.144c0.56 0.576 1.256 0.864 2.088 0.864s1.528-0.288 2.088-0.864 0.84-1.264 0.84-2.064c0-0.816-0.28-1.512-0.84-2.088s-1.256-0.864-2.088-0.864-1.528 0.288-2.088 0.864-0.84 1.272-0.84 2.088c0 0.8 0.28 1.488 0.84 2.064zm9.872 3.12 3.072-3.888c-0.672-0.096-1.232-0.368-1.68-0.816-0.544-0.544-0.816-1.28-0.816-2.208 0-1.072 0.416-1.944 1.248-2.616 0.736-0.576 1.808-0.864 3.216-0.864h4.128v10.392h-2.928v-3.648h-0.336l-2.544 3.648zm6.24-5.76v-2.328h-1.272c-0.448 0-0.776 0.096-0.984 0.288-0.256 0.24-0.384 0.544-0.384 0.912 0 0.384 0.128 0.672 0.384 0.864 0.224 0.176 0.552 0.264 0.984 0.264zm6.191-4.632h4.584c1.104 0 1.928 0.208 2.472 0.624 0.672 0.512 1.008 1.192 1.008 2.04 0 0.448-0.128 0.872-0.384 1.272-0.24 0.384-0.592 0.672-1.056 0.864 0.512 0.096 0.968 0.32 1.368 0.672 0.528 0.48 0.792 1.128 0.792 1.944 0 0.976-0.368 1.744-1.104 2.304-0.608 0.448-1.384 0.672-2.328 0.672h-5.352zm2.928 4.128h1.344c0.304 0 0.56-0.064 0.768-0.192 0.256-0.16 0.384-0.4 0.384-0.72 0-0.336-0.112-0.584-0.336-0.744-0.16-0.112-0.448-0.168-0.864-0.168h-1.296zm0 3.96h1.368c0.496 0 0.856-0.088 1.08-0.264 0.256-0.192 0.384-0.472 0.384-0.84 0-0.336-0.128-0.584-0.384-0.744-0.224-0.16-0.56-0.24-1.008-0.24h-1.44zm8.498-8.088h2.928v6.408l4.8-6.408h2.928v10.392h-2.928v-6.408l-4.8 6.408h-2.928zm21.349 2.496h-2.88v7.896h-2.928v-7.896h-2.88v-2.496h8.688zm9.841-2.208v2.88c-0.656-0.608-1.456-0.912-2.4-0.912-0.928 0-1.648 0.288-2.16 0.864-0.512 0.56-0.768 1.248-0.768 2.064 0 0.848 0.28 1.552 0.84 2.112 0.576 0.56 1.304 0.84 2.184 0.84 0.864 0 1.632-0.304 2.304-0.912v2.856c-0.864 0.432-1.76 0.648-2.688 0.648-1.616 0-2.952-0.504-4.008-1.512-1.104-1.04-1.656-2.368-1.656-3.984 0-1.76 0.6-3.168 1.8-4.224 1.008-0.896 2.256-1.344 3.744-1.344 1.008 0 1.944 0.208 2.808 0.624zm1.775 10.104 3.072-3.888c-0.672-0.096-1.232-0.368-1.68-0.816-0.544-0.544-0.816-1.28-0.816-2.208 0-1.072 0.416-1.944 1.248-2.616 0.736-0.576 1.808-0.864 3.216-0.864h4.128v10.392h-2.928v-3.648h-0.336l-2.544 3.648zm6.24-5.76v-2.328h-1.272c-0.448 0-0.776 0.096-0.984 0.288-0.256 0.24-0.384 0.544-0.384 0.912 0 0.384 0.128 0.672 0.384 0.864 0.224 0.176 0.552 0.264 0.984 0.264z" fill="#d0d2d6"/>
</svg>
