<svg width="41" height="42" viewBox="0 0 41 42" fill="none" xmlns="http://www.w3.org/2000/svg">
<path fill-rule="evenodd" clip-rule="evenodd" d="M27.1701 6.58868C28.6906 4.77667 31.392 4.54032 33.2041 6.06078C35.0161 7.58123 35.2524 10.2827 33.732 12.0947C32.2115 13.9067 29.51 14.1431 27.698 12.6226C25.886 11.1022 25.6497 8.40068 27.1701 6.58868ZM31.9185 7.59287C30.9526 6.78242 29.5126 6.9084 28.7022 7.87425C27.8917 8.84011 28.0177 10.2801 28.9836 11.0905C29.9494 11.901 31.3894 11.775 32.1999 10.8091C33.0103 9.84329 32.8843 8.40331 31.9185 7.59287Z" fill="#141116"/>
<path fill-rule="evenodd" clip-rule="evenodd" d="M23.2336 25.2407C21.4185 24.3943 19.2609 25.1796 18.4145 26.9947C17.5681 28.8099 18.3534 30.9675 20.1685 31.8139C21.9837 32.6603 24.1413 31.875 24.9877 30.0599C25.8341 28.2447 25.0488 26.0871 23.2336 25.2407ZM20.2271 27.84C20.6067 27.0259 21.5744 26.6737 22.3884 27.0533C23.2025 27.4329 23.5547 28.4006 23.1751 29.2146C22.7955 30.0287 21.8278 30.3809 21.0138 30.0013C20.1997 29.6217 19.8475 28.654 20.2271 27.84Z" fill="#141116"/>
<path fill-rule="evenodd" clip-rule="evenodd" d="M13.968 14.7789C14.8144 12.9638 16.972 12.1785 18.7871 13.0249C20.6022 13.8713 21.3876 16.0289 20.5411 17.844C19.6947 19.6592 17.5371 20.4445 15.722 19.5981C13.9069 18.7517 13.1215 16.5941 13.968 14.7789ZM17.9419 14.8375C17.1278 14.4579 16.1602 14.8101 15.7806 15.6242C15.401 16.4382 15.7532 17.4059 16.5672 17.7855C17.3813 18.1651 18.3489 17.8129 18.7285 16.9988C19.1081 16.1848 18.7559 15.2171 17.9419 14.8375Z" fill="#141116"/>
<path d="M29.4178 19.8656C29.9368 19.6768 30.2044 19.1029 30.0155 18.5839C29.8266 18.065 29.2527 17.7974 28.7338 17.9863L9.53749 24.9731C9.01851 25.162 8.75092 25.7359 8.93982 26.2548C9.12871 26.7738 9.70255 27.0414 10.2215 26.8525L29.4178 19.8656Z" fill="#141116"/>
<path fill-rule="evenodd" clip-rule="evenodd" d="M33.4534 0.619183C33.7054 0.606505 33.953 0.689629 34.1464 0.851877L38.1702 4.22825C38.3635 4.3905 38.4884 4.61987 38.5197 4.87033L40.0747 17.3177C40.1092 17.5936 40.0272 17.8714 39.8485 18.0844L20.8564 40.7184C20.5014 41.1414 19.8706 41.1966 19.4475 40.8416L1.34039 25.6479C0.917315 25.2929 0.862132 24.6622 1.21713 24.2391L20.2093 1.60516C20.388 1.39215 20.6474 1.26318 20.9251 1.24921L33.4534 0.619183ZM33.1616 2.63638L21.461 3.22479L3.39201 24.7586L19.9671 38.6667L38.0361 17.1329L36.5838 5.50793L33.1616 2.63638Z" fill="#141116"/>
</svg>
