<svg width="94" height="96" viewBox="0 0 94 96" fill="none" xmlns="http://www.w3.org/2000/svg">
<path fill-rule="evenodd" clip-rule="evenodd" d="M43.2889 21.9547C44.0214 20.6534 45.73 20.2887 46.9306 21.1774L50.2897 23.6639C51.3433 24.4438 51.9646 25.6765 51.9646 26.9867V36.4391H52.7922C53.2493 36.4391 53.6198 36.8094 53.6198 37.2661V50.4983H55.275C55.732 50.4983 56.1026 50.8686 56.1026 51.3253V68.6925C56.1026 70.9763 54.25 72.8276 51.9646 72.8276H42.0336C39.7483 72.8276 37.8957 70.9763 37.8957 68.6925V51.3253C37.8957 50.8686 38.2662 50.4983 38.7233 50.4983H40.3784V37.2661C40.3784 36.8094 40.749 36.4391 41.206 36.4391H42.0336V25.268C42.0336 24.5579 42.2166 23.8597 42.565 23.2407L43.2889 21.9547ZM45.9454 22.5065C45.5452 22.2103 44.9757 22.3319 44.7315 22.7656L44.0076 24.0516C43.7986 24.423 43.6888 24.8419 43.6888 25.268V36.4391H50.3095V26.9867C50.3095 26.2006 49.9366 25.461 49.3045 24.993L45.9454 22.5065ZM50.3095 50.4983C49.8524 50.4983 49.4819 50.8686 49.4819 51.3253C49.4819 51.782 49.8524 52.1523 50.3095 52.1523H54.4474V68.6925C54.4474 70.0628 53.3358 71.1736 51.9646 71.1736H42.0336C40.6624 71.1736 39.5508 70.0628 39.5508 68.6925V52.1523H46.1715C46.6286 52.1523 46.9991 51.782 46.9991 51.3253C46.9991 50.8686 46.6286 50.4983 46.1715 50.4983H42.0336V38.0931H51.9646V50.4983H50.3095Z" fill="#141116"/>
<path fill-rule="evenodd" clip-rule="evenodd" d="M84.7099 79.4136L38.3651 96L0.654297 64.5864L9.28842 16.5864L55.6333 0L93.344 31.4136L84.7099 79.4136ZM38.6978 94.123L2.45388 63.9313L10.7479 17.822L55.3006 1.87706L91.5444 32.0688L83.2504 78.178L38.6978 94.123Z" fill="#141116"/>
</svg>
