<svg width="94" height="96" viewBox="0 0 94 96" fill="none" xmlns="http://www.w3.org/2000/svg">
<path fill-rule="evenodd" clip-rule="evenodd" d="M23.6347 36.3565C22.1038 33.9908 22.6748 30.9395 24.7893 29.1581L30.5677 24.2901C32.211 22.9058 34.6404 23.0094 36.1597 24.5288L36.222 24.5911C37.1916 25.5607 37.1916 27.1327 36.222 28.1023L32.7024 31.6218C32.056 32.2682 32.056 33.3162 32.7024 33.9626L34.1407 35.4009L40.0011 29.5405C40.3243 29.2174 40.8483 29.2174 41.1714 29.5405C41.4946 29.8637 41.4946 30.3877 41.1714 30.7109L35.3111 36.5713L38.2371 39.4973L44.0974 33.637C44.4206 33.3138 44.9446 33.3138 45.2678 33.637C45.591 33.9601 45.591 34.4841 45.2678 34.8073L39.4075 40.6677L42.3334 43.5936L48.1937 37.7333C48.5169 37.4101 49.0409 37.4101 49.3641 37.7333C49.6873 38.0565 49.6873 38.5805 49.3641 38.9036L43.5038 44.764L46.4297 47.6899L52.2901 41.8296C52.6133 41.5064 53.1373 41.5064 53.4605 41.8296C53.7837 42.1528 53.7837 42.6768 53.4605 43L47.6001 48.8603L50.5261 51.7863L56.3864 45.926C56.7096 45.6028 57.2336 45.6028 57.5568 45.926C57.88 46.2492 57.88 46.7732 57.5568 47.0964L51.6965 52.9567L54.6224 55.8826L60.4828 50.0223C60.806 49.6991 61.33 49.6991 61.6531 50.0223C61.9763 50.3455 61.9763 50.8695 61.6531 51.1927L55.7928 57.053L58.7188 59.979L64.5791 54.1186C64.9023 53.7954 65.4263 53.7954 65.7495 54.1186C66.0727 54.4418 66.0727 54.9658 65.7495 55.289L59.8892 61.1493L61.0366 62.2968C61.683 62.9432 62.731 62.9432 63.3774 62.2968L66.8969 58.7772C67.8665 57.8076 69.4385 57.8076 70.4081 58.7772L70.4704 58.8395C71.9898 60.3589 72.0934 62.7883 70.7091 64.4315L65.8041 70.2538C64.0419 72.3456 61.0278 72.928 58.6741 71.4274C54.5056 68.7696 47.1364 63.5947 39.4916 55.9499C31.791 48.2493 26.4038 40.6356 23.6347 36.3565ZM25.8557 30.4239C24.3381 31.7025 23.9749 33.8356 25.0243 35.4572C27.7522 39.6726 33.0682 47.1858 40.662 54.7795C48.1992 62.3167 55.4659 67.4189 59.564 70.0317C61.1713 71.0565 63.2739 70.6882 64.5383 69.1874L69.4433 63.3651C70.2739 62.3791 70.2117 60.9215 69.3001 60.0099L69.2377 59.9476C68.9145 59.6244 68.3905 59.6244 68.0673 59.9476L64.5478 63.4672C63.255 64.7599 61.159 64.7599 59.8662 63.4672L31.532 35.133C30.2393 33.8402 30.2393 31.7442 31.5321 30.4515L35.0516 26.9319C35.3748 26.6087 35.3748 26.0847 35.0516 25.7615L34.9893 25.6992C34.0777 24.7876 32.6201 24.7253 31.6341 25.556L25.8557 30.4239Z" fill="#141116"/>
<path fill-rule="evenodd" clip-rule="evenodd" d="M84.7099 79.4136L38.3651 96L0.654297 64.5864L9.28842 16.5864L55.6333 0L93.344 31.4136L84.7099 79.4136ZM38.6978 94.123L2.45388 63.9313L10.7479 17.822L55.3006 1.87706L91.5444 32.0688L83.2504 78.178L38.6978 94.123Z" fill="#141116"/>
</svg>
