<svg width="94" height="96" viewBox="0 0 94 96" fill="none" xmlns="http://www.w3.org/2000/svg">
<path d="M26.3095 27.3103C24.4812 27.3103 22.9991 28.7924 22.9991 30.6207V59.5862C22.9991 60.0433 23.3696 60.4138 23.8267 60.4138C24.2838 60.4138 24.6543 60.0433 24.6543 59.5862V30.6207C24.6543 29.7066 25.3953 28.9655 26.3095 28.9655H67.6888C68.6029 28.9655 69.3439 29.7066 69.3439 30.6207V59.5862C69.3439 60.0433 69.7145 60.4138 70.1715 60.4138C70.6286 60.4138 70.9991 60.0433 70.9991 59.5862V30.6207C70.9991 28.7924 69.517 27.3103 67.6888 27.3103H26.3095Z" fill="#141116"/>
<path fill-rule="evenodd" clip-rule="evenodd" d="M18.3261 64.137C18.0563 63.0895 18.8473 62.069 19.929 62.069H74.0693C75.151 62.069 75.9419 63.0895 75.6721 64.137L75.5658 64.5499C75.1891 66.0124 73.8703 67.0345 72.3601 67.0345H21.6382C20.1279 67.0345 18.8091 66.0123 18.4324 64.5499L18.3261 64.137ZM74.0693 63.7241H19.929L20.0353 64.137C20.2237 64.8682 20.883 65.3793 21.6382 65.3793H72.3601C73.1152 65.3793 73.7746 64.8682 73.9629 64.137L74.0693 63.7241Z" fill="#141116"/>
<path d="M46.9991 32.2759C47.4562 32.2759 47.8267 31.9053 47.8267 31.4483C47.8267 30.9912 47.4562 30.6207 46.9991 30.6207C46.5421 30.6207 46.1715 30.9912 46.1715 31.4483C46.1715 31.9053 46.5421 32.2759 46.9991 32.2759Z" fill="#141116"/>
<path fill-rule="evenodd" clip-rule="evenodd" d="M38.3651 96L84.7099 79.4136L93.344 31.4136L55.6333 0L9.28842 16.5864L0.654297 64.5864L38.3651 96ZM2.45388 63.9313L38.6978 94.123L83.2504 78.178L91.5444 32.0688L55.3006 1.87706L10.7479 17.822L2.45388 63.9313Z" fill="#141116"/>
</svg>
