<svg width="94" height="96" viewBox="0 0 94 96" fill="none" xmlns="http://www.w3.org/2000/svg">
<path fill-rule="evenodd" clip-rule="evenodd" d="M36.6543 43.0345C36.6543 42.7864 36.543 42.5515 36.3511 42.3943C36.1592 42.2371 35.907 42.1743 35.6638 42.2231L30.1005 43.3403C29.9021 43.3802 29.7251 43.4914 29.6031 43.653L24.8215 49.984C24.6323 50.2345 24.6011 50.5706 24.7411 50.8516C24.881 51.1327 25.1679 51.3104 25.4819 51.3104H35.8267C36.2838 51.3104 36.6543 50.9398 36.6543 50.4828V43.0345ZM27.144 49.6552L30.7345 44.9012L34.9991 44.0448V49.6552H27.144Z" fill="#141116"/>
<path fill-rule="evenodd" clip-rule="evenodd" d="M38.7233 28.9655C38.2662 28.9655 37.8957 29.336 37.8957 29.7931V39.0258L28.1349 40.6908C27.928 40.7261 27.7422 40.8388 27.6152 41.0059L20.649 50.173C20.556 50.2955 20.4989 50.4414 20.4842 50.5945L19.6926 58.8221C19.6757 58.9971 19.7151 59.173 19.805 59.3242L22.1798 63.3194C22.3289 63.5704 22.5993 63.7241 22.8912 63.7241H28.8282C28.8961 63.7241 28.962 63.716 29.0252 63.7006C29.7298 66.1056 31.9524 67.8621 34.5853 67.8621C37.2096 67.8621 39.4264 66.1171 40.1385 63.7241H56.9302C57.0101 63.7241 57.0874 63.7128 57.1605 63.6917C57.8622 66.1013 60.0871 67.8621 62.7233 67.8621C65.3476 67.8621 67.5643 66.1171 68.2765 63.7241H71.8267C72.2838 63.7241 72.6543 63.3536 72.6543 62.8966V29.7931C72.6543 29.336 72.2838 28.9655 71.8267 28.9655H38.7233ZM34.5853 56.2759C31.3859 56.2759 28.7922 58.8695 28.7922 62.069L23.362 62.069L21.3661 58.7111L22.1092 50.9872L28.7353 42.2675L37.8957 40.7049V57.3142C36.9573 56.6597 35.8162 56.2759 34.5853 56.2759ZM39.5508 59.0834C40.0762 59.9553 40.3784 60.9768 40.3784 62.069H56.9302C56.9302 58.8695 59.5238 56.2759 62.7233 56.2759C65.9227 56.2759 68.5164 58.8695 68.5164 62.069H70.9991V30.6207H39.5508V59.0834ZM58.5853 62.069C58.5853 59.7837 60.4379 57.931 62.7233 57.931C65.0086 57.931 66.8612 59.7837 66.8612 62.069C66.8612 64.3543 65.0086 66.2069 62.7233 66.2069C60.4379 66.2069 58.5853 64.3543 58.5853 62.069ZM34.5853 57.931C32.3 57.931 30.4474 59.7837 30.4474 62.069C30.4474 64.3543 32.3 66.2069 34.5853 66.2069C36.8706 66.2069 38.7233 64.3543 38.7233 62.069C38.7233 59.7837 36.8706 57.931 34.5853 57.931Z" fill="#141116"/>
<path fill-rule="evenodd" clip-rule="evenodd" d="M38.3651 96L84.7099 79.4136L93.344 31.4136L55.6333 0L9.28842 16.5864L0.654297 64.5864L38.3651 96ZM2.45388 63.9313L38.6978 94.123L83.2504 78.178L91.5444 32.0688L55.3006 1.87706L10.7479 17.822L2.45388 63.9313Z" fill="#141116"/>
</svg>
