<svg width="94" height="96" viewBox="0 0 94 96" fill="none" xmlns="http://www.w3.org/2000/svg">
<path d="M65.0487 33.0224C65.503 33.0729 65.9121 32.7456 65.9626 32.2913C66.0131 31.837 65.6858 31.4279 65.2315 31.3774L59.9648 30.7922C59.7149 30.7644 59.466 30.8518 59.2882 31.0295C59.1104 31.2073 59.0231 31.4562 59.0508 31.7061L59.636 36.9728C59.6865 37.4271 60.0957 37.7544 60.55 37.704C61.0042 37.6535 61.3316 37.2443 61.2811 36.7901L60.9564 33.8681L61.0438 33.9555C68.8004 41.7121 68.8004 54.2881 61.0438 62.0447C54.8598 68.2286 45.6109 69.4835 38.1833 65.8047C37.7737 65.6019 37.2772 65.7694 37.0744 66.179C36.8715 66.5886 37.0391 67.0851 37.4487 67.2879C45.4933 71.2723 55.513 69.9162 62.2142 63.2151C70.6172 54.812 70.6172 41.1881 62.2142 32.7851L62.1269 32.6978L65.0487 33.0224Z" fill="#141116"/>
<path d="M55.8151 30.1954C56.2246 30.3983 56.7211 30.2307 56.924 29.8211C57.1268 29.4115 56.9593 28.9151 56.5497 28.7122C48.5051 24.7278 38.4854 26.0839 31.7842 32.7851C23.3812 41.1881 23.3812 54.812 31.7842 63.2151L31.8715 63.3024L28.9496 62.9777C28.4953 62.9273 28.0862 63.2546 28.0357 63.7089C27.9852 64.1631 28.3125 64.5723 28.7668 64.6228L34.0335 65.208C34.2834 65.2357 34.5324 65.1484 34.7101 64.9706C34.8879 64.7929 34.9752 64.5439 34.9475 64.2941L34.3623 59.0273C34.3118 58.5731 33.9026 58.2457 33.4483 58.2962C32.9941 58.3467 32.6667 58.7559 32.7172 59.2101L33.0419 62.132L32.9546 62.0447C25.198 54.2881 25.198 41.7121 32.9546 33.9555C39.1385 27.7715 48.3875 26.5166 55.8151 30.1954Z" fill="#141116"/>
<path fill-rule="evenodd" clip-rule="evenodd" d="M38.3651 96L84.7099 79.4136L93.344 31.4136L55.6333 0L9.28842 16.5864L0.654297 64.5864L38.3651 96ZM2.45388 63.9313L38.6978 94.123L83.2504 78.178L91.5444 32.0688L55.3006 1.87706L10.7479 17.822L2.45388 63.9313Z" fill="#141116"/>
</svg>
