<svg width="94" height="96" viewBox="0 0 94 96" fill="none" xmlns="http://www.w3.org/2000/svg">
<path fill-rule="evenodd" clip-rule="evenodd" d="M38.3651 96L84.7099 79.4136L93.344 31.4136L55.6333 0L9.28842 16.5864L0.654297 64.5864L38.3651 96ZM2.45388 63.9313L38.6978 94.123L83.2504 78.178L91.5444 32.0688L55.3006 1.87706L10.7479 17.822L2.45388 63.9313Z" fill="#141116"/>
<path fill-rule="evenodd" clip-rule="evenodd" d="M32.9305 42.2069C32.0164 42.2069 31.2753 42.948 31.2753 43.8621V59.5862C31.2753 60.5003 32.0164 61.2414 32.9305 61.2414H61.0684C61.9826 61.2414 62.7236 60.5003 62.7236 59.5862V43.8621C62.7236 42.948 61.9826 42.2069 61.0684 42.2069H32.9305ZM61.0684 59.5862H52.7926V52.5517H61.0684V59.5862ZM51.1374 59.5862V52.5517H42.8615V59.5862H51.1374ZM61.0684 50.8966H52.7926V43.8621H61.0684V50.8966ZM51.1374 50.8966V43.8621H42.8615V50.8966H51.1374ZM41.2064 43.8621H32.9305V50.8966H41.2064V43.8621ZM41.2064 52.5517H32.9305V59.5862H41.2064V52.5517Z" fill="#141116"/>
<path fill-rule="evenodd" clip-rule="evenodd" d="M24.6546 27.3104C23.2834 27.3104 22.1719 28.4219 22.1719 29.7931V66.2069C22.1719 67.5781 23.2834 68.6897 24.6546 68.6897H69.3443C70.7155 68.6897 71.827 67.5781 71.827 66.2069V29.7931C71.827 28.4219 70.7155 27.3104 69.3443 27.3104H24.6546ZM23.827 29.7931C23.827 29.3361 24.1976 28.9655 24.6546 28.9655H69.3443C69.8013 28.9655 70.1719 29.3361 70.1719 29.7931V34.7586H23.827V29.7931ZM23.827 36.4138H70.1719V66.2069C70.1719 66.664 69.8013 67.0345 69.3443 67.0345H24.6546C24.1976 67.0345 23.827 66.664 23.827 66.2069V36.4138Z" fill="#141116"/>
</svg>
