<svg width="94" height="96" viewBox="0 0 94 96" fill="none" xmlns="http://www.w3.org/2000/svg">
<path fill-rule="evenodd" clip-rule="evenodd" d="M41.3449 22.3046C41.3664 21.8637 41.7301 21.5172 42.1716 21.5172H51.8267C52.2682 21.5172 52.6319 21.8637 52.6533 22.3046L53.5806 41.3793H53.6198C53.8965 41.3793 54.1553 41.5182 54.3088 41.7484C54.3088 41.7484 54.3084 41.7478 53.6199 42.2069L54.3088 41.7484L54.3094 41.7493L54.3111 41.7519L54.3167 41.7604L54.3368 41.7911C54.3448 41.8033 54.3544 41.8181 54.3656 41.8355C54.3786 41.8556 54.3937 41.8791 54.4108 41.906C54.4746 42.0061 54.5667 42.1532 54.6832 42.3453C54.916 42.7295 55.2461 43.2941 55.6409 44.0246C56.4305 45.4852 57.4798 47.6106 58.5282 50.2841C60.624 55.6284 62.7233 63.1808 62.7233 72C62.7233 72.4571 62.3527 72.8276 61.8957 72.8276H32.1026C31.6455 72.8276 31.275 72.4571 31.275 72C31.275 63.1808 33.3742 55.6284 35.47 50.2841C36.5185 47.6106 37.5678 45.4852 38.3573 44.0246C38.7521 43.2941 39.0822 42.7295 39.3151 42.3453C39.4315 42.1532 39.5237 42.0061 39.5875 41.906C39.6194 41.8559 39.6442 41.8175 39.6614 41.7911L39.6815 41.7604L39.6889 41.7493L39.6898 41.7478L40.3762 42.2054C39.9313 41.9088 39.7749 41.8043 39.7198 41.7676C39.6899 41.7477 39.6898 41.7478 39.6898 41.7478C39.8433 41.5176 40.1017 41.3793 40.3784 41.3793H40.4177L41.3449 22.3046ZM51.0384 23.1724L51.9235 41.3793H45.7577C45.3007 41.3793 44.9302 41.7498 44.9302 42.2069C44.9302 42.664 45.3007 43.0345 45.7577 43.0345H46.1715V56.2759H45.5804C45.1944 56.2759 44.8596 56.5427 44.7736 56.919L42.882 65.1949C42.8259 65.4405 42.8846 65.6982 43.0417 65.8952C43.1987 66.0922 43.4369 66.2069 43.6888 66.2069H50.3095C50.5614 66.2069 50.7996 66.0922 50.9566 65.8952C51.1136 65.6982 51.1724 65.4405 51.1163 65.1949L49.2246 56.919C49.1386 56.5427 48.8039 56.2759 48.4179 56.2759H47.8267V43.0345H53.1646C53.196 43.0856 53.2305 43.1418 53.2677 43.2032C53.4874 43.5657 53.8039 44.1067 54.1849 44.8116C54.9471 46.2217 55.9667 48.286 56.9873 50.8884C58.9633 55.9272 60.9361 62.9666 61.0617 71.1724H32.9365C33.0622 62.9666 35.035 55.9272 37.011 50.8884C38.0315 48.286 39.0511 46.2217 39.8134 44.8116C40.1944 44.1067 40.5108 43.5657 40.7306 43.2032C40.7678 43.1418 40.8022 43.0856 40.8337 43.0345H42.8612C43.3183 43.0345 43.6888 42.664 43.6888 42.2069C43.6888 41.7498 43.3183 41.3793 42.8612 41.3793H42.0748L42.9599 23.1724H51.0384ZM44.7269 64.5517L46.1951 58.1281C46.2835 58.49 46.61 58.7586 46.9991 58.7586C47.3883 58.7586 47.7147 58.49 47.8031 58.1281L49.2714 64.5517H44.7269Z" fill="#141116"/>
<path fill-rule="evenodd" clip-rule="evenodd" d="M84.7099 79.4136L38.3651 96L0.654297 64.5864L9.28842 16.5864L55.6333 0L93.344 31.4136L84.7099 79.4136ZM38.6978 94.123L2.45388 63.9313L10.7479 17.822L55.3006 1.87706L91.5444 32.0688L83.2504 78.178L38.6978 94.123Z" fill="#141116"/>
</svg>
