<svg width="94" height="96" viewBox="0 0 94 96" fill="none" xmlns="http://www.w3.org/2000/svg">
<path fill-rule="evenodd" clip-rule="evenodd" d="M84.7099 79.4136L38.3651 96L0.654297 64.5864L9.28842 16.5864L55.6333 0L93.344 31.4136L84.7099 79.4136ZM38.6978 94.123L2.45388 63.9313L10.7479 17.822L55.3006 1.87706L91.5444 32.0688L83.2504 78.178L38.6978 94.123Z" fill="#141116"/>
<path fill-rule="evenodd" clip-rule="evenodd" d="M33.7995 26.62L37.9413 31.1383C46.6537 33.8327 54.4408 33.8342 59.0488 31.5752C60.3013 30.9611 61.3011 30.1892 62.0283 29.2771C63.5456 27.3742 64.0087 24.6758 62.7171 21.0641C62.1314 21.2956 61.4596 21.4042 60.7724 21.4485C59.6298 21.522 58.2708 21.426 56.8109 21.2598C55.6195 21.1242 54.3724 20.9448 53.0872 20.76L53.0872 20.76C51.1366 20.4795 49.0983 20.1864 47.0341 20.0144C43.6426 19.7318 40.4753 19.8145 38.0822 20.8017C36.9028 21.2882 35.927 21.9883 35.1968 22.9655C34.5184 23.8733 34.0221 25.0602 33.7995 26.62ZM35.9467 31.4118L32.5366 27.6917C32.2182 27.689 31.9967 27.7848 31.8219 27.9271C31.5729 28.1299 31.3334 28.4991 31.1462 29.0919C30.769 30.2864 30.7057 32.0564 30.8588 34.0219C31.0101 35.9636 31.3644 38.0033 31.7577 39.6843C31.9112 40.3405 32.0695 40.9369 32.2222 41.4472C32.7326 40.0372 32.6266 38.7086 32.5203 37.3769C32.4917 37.0176 32.463 36.658 32.4464 36.2966C32.3982 35.2457 32.4634 34.0948 33.2315 33.1064C33.8017 32.3727 34.6852 31.822 35.9467 31.4118ZM32.2131 26.0524C31.6768 26.1071 31.1924 26.3052 30.7769 26.6435C30.1822 27.1277 29.8074 27.8349 29.5679 28.5934C29.0916 30.1015 29.0515 32.1332 29.2087 34.1505C29.3677 36.1915 29.7376 38.3156 30.146 40.0614C30.3346 40.8672 30.533 41.5996 30.7254 42.2117C30.6438 42.2166 30.5628 42.2252 30.4824 42.2377C29.8429 42.3367 29.3304 42.6657 28.9502 43.1213C28.2302 43.9842 27.9776 45.2986 27.9653 46.5659C27.9527 47.8707 28.1925 49.3038 28.6292 50.5578C29.0208 51.6823 29.6087 52.7713 30.414 53.4581C30.3797 53.7122 30.3442 53.9709 30.3082 54.2337C30.0493 56.1212 29.7615 58.2196 29.6507 60.3269C29.512 62.9664 29.6439 65.7025 30.485 68.1813C31.3337 70.6828 32.9009 72.9078 35.5836 74.4913C38.2464 76.063 41.944 76.9655 46.9994 76.9655C52.0549 76.9655 55.7525 76.063 58.4152 74.4913C61.0979 72.9078 62.6651 70.6828 63.5139 68.1813C64.3549 65.7025 64.4868 62.9664 64.3481 60.3269C64.2374 58.2197 63.9496 56.1215 63.6907 54.234L63.6907 54.2339L63.6907 54.2337C63.6546 53.9709 63.6192 53.7122 63.5848 53.4581C64.3901 52.7713 64.978 51.6823 65.3696 50.5578C65.8063 49.3038 66.0462 47.8707 66.0335 46.5659C66.0212 45.2986 65.7687 43.9842 65.0486 43.1213C64.6684 42.6657 64.1559 42.3367 63.5164 42.2377C63.4148 42.2219 63.3121 42.2123 63.2085 42.2086C64.1575 39.4599 65.5725 34.8374 63.6209 29.9112C65.4766 27.2782 65.6652 23.7501 63.9005 19.542C63.7968 19.2948 63.5798 19.1131 63.3183 19.0545C63.0567 18.9959 62.7829 19.0676 62.5837 19.2469C62.2814 19.519 61.6861 19.731 60.666 19.7967C59.675 19.8605 58.4348 19.7788 56.9981 19.6152C55.9142 19.4918 54.7042 19.3186 53.4304 19.1363C51.4217 18.8488 49.2542 18.5385 47.1715 18.3649C43.7355 18.0786 40.2303 18.1251 37.451 19.2716C36.0442 19.8519 34.8088 20.7197 33.8709 21.9747C33.0553 23.0661 32.491 24.4152 32.2131 26.0524ZM30.7357 43.8734C30.8957 43.8486 31.1236 43.8597 31.4349 43.9632C31.6718 45.505 31.6309 47.1695 31.451 48.6778C31.3202 49.774 31.1196 50.7593 30.9139 51.5253C30.6487 51.1239 30.4011 50.6131 30.1923 50.0135C29.8166 48.9345 29.6097 47.6908 29.6204 46.5819C29.6315 45.4355 29.8726 44.5993 30.221 44.1818C30.3751 43.9972 30.5405 43.9036 30.7357 43.8734ZM33.8055 56.2669C33.1993 55.6292 32.5386 55.0483 31.933 54.5692C31.6782 56.4286 31.4089 58.4111 31.3036 60.4138C31.1698 62.96 31.3083 65.4564 32.0524 67.6495C32.7887 69.8198 34.1214 71.7061 36.425 73.0659C38.7486 74.4375 42.1238 75.3103 46.9994 75.3103C51.8751 75.3103 55.2502 74.4375 57.5738 73.0659C59.8775 71.7061 61.2101 69.8198 61.9465 67.6495C62.6906 65.4564 62.829 62.96 62.6952 60.4138C62.59 58.4111 62.3206 56.4286 62.0658 54.5692C61.4602 55.0483 60.7996 55.6292 60.1933 56.2669C59.3104 57.1956 58.625 58.1598 58.3198 59.0451C58.7868 58.9441 59.3208 58.7813 59.9365 58.5378C60.2263 58.4232 60.5559 58.4812 60.7893 58.6877C61.0227 58.8943 61.1202 59.2144 61.0417 59.516C60.6457 61.0365 59.5915 62.0836 58.2973 62.7419C57.0161 63.3935 55.4655 63.6866 53.9393 63.7208C52.4082 63.7551 50.846 63.5303 49.5133 63.0971C48.5688 62.79 47.6761 62.3573 46.9995 61.7871C46.3229 62.3573 45.4301 62.79 44.4856 63.0971C43.1529 63.5303 41.5907 63.7551 40.0596 63.7208C38.5334 63.6866 36.9828 63.3935 35.7016 62.7419C34.4074 62.0836 33.3531 61.0365 32.9572 59.516C32.8786 59.2144 32.9762 58.8943 33.2096 58.6877C33.4429 58.4812 33.7726 58.4232 34.0624 58.5378C34.6781 58.7813 35.212 58.9441 35.679 59.0451C35.3738 58.1598 34.6884 57.1956 33.8055 56.2669ZM37.4187 59.1395C37.1148 57.6629 36.0753 56.2521 35.0051 55.1264C34.1021 54.1767 33.0983 53.3485 32.2743 52.7516C32.5915 51.8017 32.9104 50.4174 33.0945 48.8739C33.2921 47.2174 33.3416 45.3198 33.0409 43.5252C34.511 41.1397 34.315 38.857 34.167 37.1341L34.167 37.1341C34.139 36.8086 34.1128 36.5031 34.0998 36.2206C34.0555 35.2543 34.1509 34.6207 34.5384 34.122C34.9222 33.6283 35.7159 33.1115 37.4456 32.7175C45.9879 35.3603 53.9751 35.5783 59.1659 33.3425C59.5905 33.9597 59.7498 34.5239 59.7906 35.0682C59.84 35.7253 59.7238 36.372 59.5823 37.1588L59.5823 37.1589L59.5823 37.1589L59.5823 37.159L59.5823 37.159C59.5656 37.2522 59.5485 37.3473 59.5312 37.4447C59.3755 38.3251 59.222 39.3458 59.4198 40.4629C59.6003 41.4821 60.0611 42.526 60.967 43.6219C60.7679 45.2223 60.8496 47.0052 61.0344 48.6118C61.2194 50.2202 61.5136 51.6998 61.7662 52.7215C60.9346 53.3204 59.912 54.1606 58.9938 55.1264C57.9235 56.2521 56.884 57.6629 56.5801 59.1395C56.4918 59.126 56.4075 59.1094 56.3267 59.0905C55.5426 58.9064 54.9757 58.4725 54.2468 57.906L54.2332 57.8955C53.5315 57.3501 52.6821 56.69 51.4649 56.4124C50.2902 56.1446 48.8744 56.2499 46.9995 56.9162C45.1246 56.2499 43.7088 56.1445 42.5341 56.4124C41.3169 56.6899 40.4675 57.35 39.7657 57.8955L39.7522 57.906C39.0233 58.4725 38.4564 58.9063 37.6722 59.0905C37.5914 59.1094 37.507 59.1259 37.4187 59.1395ZM62.5944 43.9533C62.4383 45.331 62.5053 46.9151 62.6787 48.4227C62.805 49.5208 62.9848 50.5543 63.1632 51.4028C63.3988 51.0219 63.6184 50.5537 63.8065 50.0135C64.1822 48.9345 64.3892 47.6908 64.3784 46.5819C64.3673 45.4355 64.1262 44.5993 63.7778 44.1818C63.6238 43.9972 63.4584 43.9036 63.2632 43.8734C63.1084 43.8494 62.8901 43.859 62.5944 43.9533ZM62.3697 31.3254C61.8558 31.7952 61.2803 32.2161 60.6517 32.5893C61.1546 33.3818 61.3826 34.1642 61.4412 34.9443C61.5074 35.8263 61.3502 36.691 61.2122 37.4497L61.2122 37.4498C61.1947 37.5459 61.1775 37.6404 61.1611 37.733C61.0086 38.5952 60.9066 39.3664 61.0496 40.1743C61.1326 40.6428 61.303 41.1475 61.6271 41.6982C62.5015 39.1416 63.6674 35.3996 62.3697 31.3254ZM36.452 61.2666C36.1366 61.1062 35.8543 60.9237 35.608 60.7184C36.542 60.8887 37.339 60.8689 38.0505 60.7018C39.2017 60.4315 40.0228 59.7926 40.7043 59.2624L40.7679 59.2129C41.4864 58.6545 42.0767 58.2143 42.902 58.0261C43.7177 57.8401 44.8746 57.8813 46.7077 58.5719C46.8958 58.6428 47.1032 58.6428 47.2912 58.5719C49.1244 57.8813 50.2813 57.8402 51.0969 58.0261C51.9223 58.2144 52.5126 58.6545 53.2311 59.2129L53.2947 59.2624C53.9761 59.7926 54.7972 60.4315 55.9483 60.7018C56.6599 60.8689 57.4568 60.8887 58.3908 60.7184C58.1446 60.9238 57.8623 61.1062 57.5469 61.2666C56.5511 61.773 55.2639 62.0355 53.9023 62.066C52.5455 62.0964 51.1697 61.8951 50.025 61.523C48.8531 61.142 48.0428 60.6219 47.6711 60.1056C47.5156 59.8896 47.2656 59.7615 46.9995 59.7615C46.7333 59.7615 46.4834 59.8896 46.3278 60.1056C45.9561 60.6219 45.1459 61.142 43.9739 61.523C42.8292 61.8951 41.4534 62.0964 40.0967 62.066C38.735 62.0355 37.4477 61.773 36.452 61.2666Z" fill="#141116"/>
</svg>
