<svg width="94" height="96" viewBox="0 0 94 96" fill="none" xmlns="http://www.w3.org/2000/svg">
<path fill-rule="evenodd" clip-rule="evenodd" d="M35.4129 29.7931C34.9559 29.7931 34.5853 30.1636 34.5853 30.6207C34.5853 31.0778 34.9559 31.4483 35.4129 31.4483H48.0912L46.436 41.3793H33.7578C33.3008 41.3793 32.9302 41.7498 32.9302 42.2069C32.9302 42.664 33.3011 43.0345 33.7581 43.0345H46.1601L42.4587 65.2433C42.4187 65.4832 42.4863 65.7286 42.6435 65.9142C42.8008 66.0999 43.0317 66.2069 43.275 66.2069C46.2093 66.2069 49.7917 65.8973 52.8727 64.2467C56.0069 62.5677 58.5341 59.5484 59.4016 54.343C59.9575 51.0082 59.0698 47.7535 56.9352 45.3321C54.9458 43.0752 51.9221 41.5954 48.1104 41.4011L49.7692 31.4483H60.2405C60.6976 31.4483 61.0681 31.0778 61.0681 30.6207C61.0681 30.1636 60.6976 29.7931 60.2405 29.7931H35.4129ZM33.7577 42.2069C33.7577 41.3793 33.7578 41.3793 33.7578 41.3793L33.7577 42.2069ZM33.7581 43.0345C33.7581 43.0345 33.7577 43.0345 33.7577 42.2069L33.7581 43.0345ZM44.2541 64.5387L47.8363 43.0457C51.3508 43.1797 54.0035 44.5093 55.6936 46.4266C57.4802 48.4534 58.2477 51.1987 57.769 54.0708C56.9814 58.7965 54.7499 61.3634 52.0911 62.7877C49.6843 64.0771 46.8579 64.4672 44.2541 64.5387Z" fill="#141116"/>
<path fill-rule="evenodd" clip-rule="evenodd" d="M38.3651 96L84.7099 79.4136L93.344 31.4136L55.6333 0L9.28842 16.5864L0.654297 64.5864L38.3651 96ZM2.45388 63.9313L38.6978 94.123L83.2504 78.178L91.5444 32.0688L55.3006 1.87706L10.7479 17.822L2.45388 63.9313Z" fill="#141116"/>
</svg>
