<svg width="94" height="96" viewBox="0 0 94 96" fill="none" xmlns="http://www.w3.org/2000/svg">
<path fill-rule="evenodd" clip-rule="evenodd" d="M38.3651 96L84.7099 79.4136L93.344 31.4136L55.6333 0L9.28842 16.5864L0.654297 64.5864L38.3651 96ZM2.45388 63.9313L38.6978 94.123L83.2504 78.178L91.5444 32.0688L55.3006 1.87706L10.7479 17.822L2.45388 63.9313Z" fill="#141116"/>
<path d="M63.3853 40.9775C63.7085 41.3007 64.2325 41.3007 64.5557 40.9775C64.8789 40.6543 64.8789 40.1303 64.5557 39.8071L55.1926 30.444C54.8694 30.1208 54.3454 30.1208 54.0222 30.444C53.6991 30.7672 53.6991 31.2912 54.0222 31.6144L63.3853 40.9775Z" fill="#141116"/>
<path d="M55.7779 45.0739C55.4547 45.3971 54.9307 45.3971 54.6075 45.0739L49.9259 40.3924C49.6027 40.0692 49.6027 39.5452 49.9259 39.222C50.2491 38.8988 50.7731 38.8988 51.0963 39.222L55.7779 43.9035C56.101 44.2267 56.101 44.7507 55.7779 45.0739Z" fill="#141116"/>
<path d="M38.8073 50.3407C39.1305 50.0175 39.1305 49.4935 38.8073 49.1703C38.4841 48.8471 37.9601 48.8471 37.6369 49.1703L29.4442 57.363C29.121 57.6862 29.121 58.2102 29.4442 58.5334C29.7674 58.8566 30.2914 58.8566 30.6146 58.5334L38.8073 50.3407Z" fill="#141116"/>
<path d="M47 47.9998C47.3232 48.323 47.3232 48.847 47 49.1701L34.1258 62.0444C33.8026 62.3676 33.2786 62.3676 32.9554 62.0444C32.6322 61.7212 32.6322 61.1972 32.9554 60.874L45.8296 47.9998C46.1528 47.6766 46.6768 47.6766 47 47.9998Z" fill="#141116"/>
<path d="M50.5112 52.6813C50.8343 52.3581 50.8343 51.8341 50.5112 51.5109C50.188 51.1878 49.664 51.1878 49.3408 51.5109L36.4665 64.3852C36.1434 64.7084 36.1434 65.2324 36.4665 65.5555C36.7897 65.8787 37.3137 65.8787 37.6369 65.5555L50.5112 52.6813Z" fill="#141116"/>
<path fill-rule="evenodd" clip-rule="evenodd" d="M18.9108 58.5333C17.9412 57.5637 17.9412 55.9917 18.9108 55.0222L54.0223 19.9107C54.9919 18.9411 56.5639 18.9411 57.5334 19.9107L75.0892 37.4664C76.0588 38.436 76.0588 40.008 75.0892 40.9776L39.9777 76.0891C39.0081 77.0586 37.4361 77.0586 36.4665 76.0891L18.9108 58.5333ZM20.0812 56.1925C19.758 56.5157 19.758 57.0397 20.0812 57.3629L37.6369 74.9187C37.9601 75.2419 38.4841 75.2419 38.8073 74.9187L61.6298 52.0962L58.1186 48.585C57.7954 48.2618 57.7954 47.7378 58.1186 47.4146C58.4417 47.0914 58.9657 47.0914 59.2889 47.4146L62.8001 50.9257L73.9188 39.8072C74.242 39.484 74.242 38.96 73.9188 38.6368L56.363 21.081C56.0399 20.7578 55.5159 20.7578 55.1927 21.081L44.074 32.1997L47.5851 35.7108C47.9083 36.034 47.9083 36.558 47.5851 36.8812C47.2619 37.2043 46.7379 37.2043 46.4147 36.8812L42.9036 33.3701L20.0812 56.1925Z" fill="#141116"/>
</svg>
