<svg width="94" height="96" viewBox="0 0 94 96" fill="none" xmlns="http://www.w3.org/2000/svg">
<path d="M36.2405 45.5172C36.2405 45.0602 36.611 44.6897 37.0681 44.6897H56.9302C57.3872 44.6897 57.7577 45.0602 57.7577 45.5172C57.7577 45.9743 57.3872 46.3448 56.9302 46.3448H37.0681C36.611 46.3448 36.2405 45.9743 36.2405 45.5172Z" fill="#141116"/>
<path fill-rule="evenodd" clip-rule="evenodd" d="M29.6198 36.4138C29.1628 36.4138 28.7922 36.7843 28.7922 37.2414V68.6897C28.7922 69.1467 29.1628 69.5172 29.6198 69.5172H64.3784C64.8355 69.5172 65.206 69.1467 65.206 68.6897V37.2414C65.206 36.7843 64.8355 36.4138 64.3784 36.4138H57.7264C57.3038 30.8587 52.6625 26.4828 46.9991 26.4828C41.3358 26.4828 36.6944 30.8587 36.2719 36.4138H29.6198ZM37.9328 36.4138H56.0655C55.6473 31.7739 51.7478 28.1379 46.9991 28.1379C42.2504 28.1379 38.3509 31.7739 37.9328 36.4138ZM30.4474 67.8621V38.069H63.5508V67.8621H30.4474Z" fill="#141116"/>
<path fill-rule="evenodd" clip-rule="evenodd" d="M38.3651 96L84.7099 79.4136L93.344 31.4136L55.6333 0L9.28842 16.5864L0.654297 64.5864L38.3651 96ZM2.45388 63.9313L38.6978 94.123L83.2504 78.178L91.5444 32.0688L55.3006 1.87706L10.7479 17.822L2.45388 63.9313Z" fill="#141116"/>
</svg>
