<svg width="32" height="32" viewBox="0 0 32 32" fill="none" xmlns="http://www.w3.org/2000/svg">
    <path d="M22.3701 3.60715C20.6169 1.86903 18.4935 1 16 1C13.5065 1 11.3831 1.86903 9.62987 3.60715C7.87662 5.34527 7 7.44464 7 9.90532C7 11.3895 7.74998 13.8698 9.25 17.346C10.75 20.8222 12.25 23.9859 13.75 26.8372C15.25 29.6884 16 31.075 16 30.9969C16.2338 30.5672 16.5552 29.9813 16.9643 29.2392C17.3734 28.4972 18.0941 27.1008 19.1266 25.0502C20.1591 22.9997 21.065 21.1151 21.8442 19.3965C22.6234 17.678 23.3442 15.9008 24.0065 14.065C24.6688 12.2293 25 10.8427 25 9.90532C25 7.44464 24.1234 5.34527 22.3701 3.60715ZM17.9286 11.7801C17.3831 12.3269 16.7305 12.6004 15.9708 12.6004C15.211 12.6004 14.5584 12.3269 14.013 11.7801C13.4676 11.2333 13.1948 10.5791 13.1948 9.81744C13.1948 9.0558 13.4676 8.41134 14.013 7.88405C14.5584 7.35676 15.211 7.09311 15.9708 7.09311C16.7305 7.09311 17.3831 7.35676 17.9286 7.88405C18.474 8.41134 18.7468 9.0558 18.7468 9.81744C18.7468 10.5791 18.474 11.2333 17.9286 11.7801Z" fill="#010002"/>
</svg>
