<svg width="64" height="64" viewBox="0 0 64 64" xmlns="http://www.w3.org/2000/svg">
    <path d="M41.4881 34.1279L27.2118 42.3903C26.8927 42.5751 26.5436 42.6667 26.195 42.6667C25.8004 42.6667 25.4065 42.549 25.0577 42.3152C24.4011 41.8745 24 41.0862 24 40.2359V23.764C24 22.9152 24.3999 22.1277 25.0553 21.6867C25.7111 21.2457 26.5265 21.2156 27.2067 21.607L41.4831 29.8162C42.2094 30.2338 42.6656 31.0641 42.6667 31.9701C42.6676 32.8767 42.2134 33.7083 41.4881 34.1279Z" />
    <path fill-rule="evenodd" clip-rule="evenodd" d="M32 0C14.3269 7.72516e-07 -7.72516e-07 14.3269 0 32C7.72516e-07 49.6731 14.3269 64 32 64C49.6731 64 64 49.6731 64 32C64 14.3269 49.6731 -7.72517e-07 32 0ZM5.33334 32C5.33334 17.2724 17.2724 5.33333 32 5.33333C46.7276 5.33333 58.6667 17.2724 58.6667 32C58.6667 46.7276 46.7276 58.6667 32 58.6667C17.2724 58.6667 5.33334 46.7276 5.33334 32Z" />
</svg>
