<svg width="20" height="20" viewBox="0 0 20 20" xmlns="http://www.w3.org/2000/svg">
    <path d="M9.81055 11.1445C9.71289 11.4141 9.66016 11.7812 9.65234 12.2461H10.7363C10.7363 11.6523 10.8789 11.1973 11.1641 10.8809L11.8027 10.248C12.4355 9.58398 12.752 8.91016 12.752 8.22656C12.752 7.53516 12.5449 6.99219 12.1309 6.59766C11.7207 6.19922 11.1465 6 10.4082 6C9.69727 6 9.11914 6.19531 8.67383 6.58594C8.23242 6.97266 8.00781 7.48242 8 8.11523H9.08398C9.08398 7.75977 9.20508 7.47656 9.44727 7.26562C9.68945 7.05469 10.0098 6.94922 10.4082 6.94922C10.8184 6.94922 11.1309 7.06641 11.3457 7.30078C11.5605 7.53125 11.668 7.85156 11.668 8.26172C11.668 8.6875 11.5039 9.08594 11.1758 9.45703L10.4082 10.248C10.1074 10.5762 9.9082 10.875 9.81055 11.1445Z" />
    <path d="M9.76367 13.6641C9.6582 13.7812 9.60547 13.9277 9.60547 14.1035C9.60547 14.2793 9.6582 14.4258 9.76367 14.543C9.87305 14.6562 10.0332 14.7129 10.2441 14.7129C10.4551 14.7129 10.6152 14.6562 10.7246 14.543C10.834 14.4258 10.8887 14.2793 10.8887 14.1035C10.8887 13.9277 10.834 13.7812 10.7246 13.6641C10.6152 13.543 10.4551 13.4824 10.2441 13.4824C10.0332 13.4824 9.87305 13.543 9.76367 13.6641Z" />
    <path fill-rule="evenodd" clip-rule="evenodd" d="M19 10.5C19 15.1944 15.1944 19 10.5 19C5.80558 19 2 15.1944 2 10.5C2 5.80558 5.80558 2 10.5 2C15.1944 2 19 5.80558 19 10.5ZM18 10.5C18 14.6421 14.6421 18 10.5 18C6.35786 18 3 14.6421 3 10.5C3 6.35786 6.35786 3 10.5 3C14.6421 3 18 6.35786 18 10.5Z" />
</svg>
