<svg width="16" height="16" viewBox="0 0 16 16" xmlns="http://www.w3.org/2000/svg">
    <path opacity="0.1" d="M8 2C8.20761 2 8.39722 2.12335 8.48911 2.3182L10.0478 5.6231L13.5334 6.15633C13.7388 6.18776 13.9094 6.33847 13.9734 6.54514C14.0374 6.7518 13.9838 6.97859 13.8351 7.13018L11.3134 9.70087L11.9085 13.3326C11.9436 13.5468 11.8595 13.7633 11.6915 13.891C11.5235 14.0187 11.3008 14.0355 11.117 13.9344L8 12.2188L4.88298 13.9344C4.69921 14.0355 4.47651 14.0187 4.30852 13.891C4.14053 13.7633 4.0564 13.5468 4.0915 13.3326L4.68663 9.70087L2.16489 7.13018C2.01619 6.97859 1.96258 6.7518 2.02661 6.54514C2.09063 6.33847 2.26119 6.18776 2.46658 6.15633L5.95223 5.6231L7.51089 2.3182C7.60278 2.12335 7.79239 2 8 2Z" />
</svg>
