<svg width="12" height="12" viewBox="0 0 12 12" fill="none" xmlns="http://www.w3.org/2000/svg">
    <path d="M7.59555 3.83638C7.66652 3.98687 7.8077 4.09219 7.97216 4.11735L11.4578 4.65058C11.4642 4.65157 11.4854 4.65971 11.4958 4.6931C11.5067 4.72833 11.4951 4.76276 11.4782 4.78004L8.95643 7.35074C8.84488 7.46446 8.79419 7.62453 8.81995 7.78173L9.41508 11.4135C9.42133 11.4516 9.40432 11.4812 9.38886 11.493L9.69148 11.891L9.38886 11.493C9.38186 11.4983 9.37626 11.4997 9.3725 11.4999C9.36879 11.5002 9.36415 11.4997 9.35812 11.4964L6.2411 9.78072C6.09098 9.6981 5.90902 9.6981 5.7589 9.78072L2.64188 11.4964L2.88298 11.9344L2.64188 11.4964C2.63585 11.4997 2.63121 11.5002 2.6275 11.4999C2.62374 11.4997 2.61814 11.4983 2.61114 11.493L2.30852 11.891L2.61114 11.493C2.59568 11.4812 2.57867 11.4516 2.58492 11.4135L3.18005 7.78173C3.20581 7.62453 3.15512 7.46446 3.04357 7.35074L0.521824 4.78004C0.504872 4.76276 0.4933 4.72833 0.504215 4.6931C0.514559 4.65971 0.535772 4.65157 0.542192 4.65058L4.02784 4.11735C4.19231 4.09219 4.33348 3.98687 4.40446 3.83638L5.96312 0.531478C5.97644 0.50323 5.99508 0.5 6 0.5C6.00492 0.5 6.02356 0.50323 6.03688 0.531479L7.59555 3.83638Z" stroke="#141116" stroke-linecap="round" stroke-linejoin="round"/>
</svg>