<svg width="12" height="12" viewBox="0 0 12 12" fill="none" xmlns="http://www.w3.org/2000/svg">
    <path d="M6 0C6.20761 0 6.39722 0.123352 6.48911 0.318198L8.04777 3.6231L11.5334 4.15633C11.7388 4.18776 11.9094 4.33847 11.9734 4.54514C12.0374 4.7518 11.9838 4.97859 11.8351 5.13018L9.31337 7.70087L9.9085 11.3326C9.9436 11.5468 9.85947 11.7633 9.69148 11.891C9.52349 12.0187 9.30079 12.0355 9.11702 11.9344L6 10.2188L2.88298 11.9344C2.69921 12.0355 2.47651 12.0187 2.30852 11.891C2.14053 11.7633 2.0564 11.5468 2.0915 11.3326L2.68663 7.70087L0.164889 5.13018C0.0161881 4.97859 -0.0374151 4.7518 0.0266089 4.54514C0.0906329 4.33847 0.261185 4.18776 0.466581 4.15633L3.95223 3.6231L5.51089 0.318198C5.60278 0.123352 5.79239 0 6 0Z" fill="#141116"/>
</svg>


