<svg width="24" height="24" viewBox="0 0 24 24" fill="none" xmlns="http://www.w3.org/2000/svg">
<path d="M17.8001 8.60006C18.1314 8.15823 18.0419 7.53143 17.6001 7.20006C17.1582 6.86869 16.5314 6.95823 16.2001 7.40006L10.8001 14.6001L7.60006 12.2001C7.15823 11.8687 6.53143 11.9582 6.20006 12.4001C5.86869 12.8419 5.95823 13.4687 6.40006 13.8001L10.4001 16.8001C10.8419 17.1314 11.4687 17.0419 11.8001 16.6001L17.8001 8.60006Z" fill="#3BA634"/>
<path fill-rule="evenodd" clip-rule="evenodd" d="M0 12C0 5.37258 5.37258 0 12 0C18.6274 0 24 5.37258 24 12C24 18.6274 18.6274 24 12 24C5.37259 24 0 18.6274 0 12ZM12 2C6.47716 2 2 6.47715 2 12C2 17.5228 6.47715 22 12 22C17.5228 22 22 17.5229 22 12C22 6.47716 17.5229 2 12 2Z" fill="#3BA634"/>
</svg>
