<svg width="16" height="16" viewBox="0 0 16 16" fill="none" xmlns="http://www.w3.org/2000/svg">
<rect width="16" height="16" fill="white"/>
<path d="M11.8667 5.73337C12.0876 5.43882 12.0279 5.02095 11.7334 4.80004C11.4388 4.57913 11.021 4.63882 10.8 4.93337L7.20004 9.73337L5.06671 8.13337C4.77215 7.91246 4.35429 7.97215 4.13337 8.26671C3.91246 8.56126 3.97215 8.97913 4.26671 9.20004L6.93337 11.2C7.22792 11.421 7.64579 11.3613 7.86671 11.0667L11.8667 5.73337Z" fill="#3BA634"/>
<path fill-rule="evenodd" clip-rule="evenodd" d="M0 8C0 3.58172 3.58172 0 8 0C12.4183 0 16 3.58172 16 8C16 12.4183 12.4183 16 8 16C3.58172 16 0 12.4183 0 8ZM8 1.33333C4.3181 1.33333 1.33333 4.3181 1.33333 8C1.33333 11.6819 4.3181 14.6667 8 14.6667C11.6819 14.6667 14.6667 11.6819 14.6667 8C14.6667 4.31811 11.6819 1.33333 8 1.33333Z" fill="#3BA634"/>
</svg>
