<svg width="16" height="16" viewBox="0 0 16 16" fill="none" xmlns="http://www.w3.org/2000/svg">
<path d="M8.66667 8.66667C8.66667 9.03486 8.36819 9.33333 8 9.33333C7.63181 9.33333 7.33333 9.03486 7.33333 8.66667V4.66667C7.33333 4.29848 7.63181 4 8 4C8.36819 4 8.66667 4.29848 8.66667 4.66667V8.66667Z" fill="#141116"/>
<path d="M7.40171 11.4316C7.24501 11.2678 7.16667 11.0684 7.16667 10.8333C7.16667 10.5983 7.24501 10.4024 7.40171 10.2457C7.56553 10.0819 7.76496 10 8 10C8.23504 10 8.43091 10.0819 8.58761 10.2457C8.75142 10.4024 8.83333 10.5983 8.83333 10.8333C8.83333 11.0684 8.75142 11.2678 8.58761 11.4316C8.43091 11.5883 8.23504 11.6667 8 11.6667C7.76496 11.6667 7.56553 11.5883 7.40171 11.4316Z" fill="#141116"/>
<path fill-rule="evenodd" clip-rule="evenodd" d="M8 0C3.58172 1.93129e-07 -1.93129e-07 3.58172 0 8C1.93129e-07 12.4183 3.58172 16 8 16C12.4183 16 16 12.4183 16 8C16 3.58172 12.4183 -1.93129e-07 8 0ZM1.33333 8C1.33333 4.3181 4.3181 1.33333 8 1.33333C11.6819 1.33333 14.6667 4.31811 14.6667 8C14.6667 11.6819 11.6819 14.6667 8 14.6667C4.3181 14.6667 1.33333 11.6819 1.33333 8Z" fill="#141116"/>
</svg>
