<svg width="16" height="16" viewBox="0 0 16 16" xmlns="http://www.w3.org/2000/svg">
    <path fill-rule="evenodd" clip-rule="evenodd" d="M0 3.33335C0 2.96516 0.298477 2.66669 0.666667 2.66669H15.3333C15.7015 2.66669 16 2.96516 16 3.33335V6.66669C16 7.03488 15.7015 7.33335 15.3333 7.33335C14.9651 7.33335 14.6667 7.63183 14.6667 8.00002C14.6667 8.36821 14.9651 8.66669 15.3333 8.66669C15.7015 8.66669 16 8.96516 16 9.33335V12.6667C16 13.0349 15.7015 13.3334 15.3333 13.3334H0.666667C0.298477 13.3334 0 13.0349 0 12.6667L0 9.33335C0 8.96516 0.298477 8.66669 0.666667 8.66669C1.03486 8.66669 1.33333 8.36821 1.33333 8.00002C1.33333 7.63183 1.03486 7.33335 0.666667 7.33335C0.298477 7.33335 0 7.03488 0 6.66669L0 3.33335ZM1.33333 6.11382C2.11013 6.38838 2.66667 7.12921 2.66667 8.00002C2.66667 8.87083 2.11013 9.61166 1.33333 9.88622V12H9.33333V4.00002H1.33333V6.11382ZM14.6667 4.00002V6.11382C13.8899 6.38838 13.3333 7.12921 13.3333 8.00002C13.3333 8.87083 13.8899 9.61166 14.6667 9.88622V12H10.6667V4.00002H14.6667Z" />
</svg>
