<svg width="24" height="24" viewBox="0 0 24 24" xmlns="http://www.w3.org/2000/svg">
    <path d="M10 8C10.5523 8 11 8.44772 11 9V18C11 18.5523 10.5523 19 10 19C9.44772 19 9 18.5523 9 18V9C9 8.44772 9.44772 8 10 8Z" />
    <path d="M15 9C15 8.44772 14.5523 8 14 8C13.4477 8 13 8.44772 13 9V18C13 18.5523 13.4477 19 14 19C14.5523 19 15 18.5523 15 18V9Z" />
    <path fill-rule="evenodd" clip-rule="evenodd" d="M10 1C9.44772 1 9 1.44772 9 2V4H4C3.44772 4 3 4.44772 3 5C3 5.55228 3.44772 6 4 6H4.52898L5.00043 22.0294C5.01633 22.57 5.45916 23 6 23H18C18.5408 23 18.9837 22.57 18.9996 22.0294L19.471 6H20C20.5523 6 21 5.55228 21 5C21 4.44772 20.5523 4 20 4H15V2C15 1.44772 14.5523 1 14 1H10ZM13 4V3H11V4H13ZM6.97102 21L6.52984 6H17.4702L17.029 21H6.97102Z" />
</svg>
