<svg width="830" height="858" viewBox="0 0 830 858" fill="none" xmlns="http://www.w3.org/2000/svg">
<path d="M461.823 17.1077C463.75 6.23149 474.13 -1.02321 485.007 0.903836L488.928 1.59872C499.805 3.52577 507.059 13.9048 505.131 24.781L464.04 256.603C462.112 267.479 451.733 274.734 440.856 272.807L436.934 272.112C426.058 270.185 418.804 259.806 420.732 248.93L461.823 17.1077Z" fill="white"/>
<path d="M546.074 60.2566C556.003 55.4175 567.976 59.5432 572.817 69.4717L574.559 73.0455C579.4 82.974 575.275 94.9455 565.346 99.7846L486.028 138.441C476.099 143.28 464.126 139.154 459.285 129.226L457.543 125.652C452.702 115.723 456.827 103.752 466.756 98.9127L546.074 60.2566Z" fill="white"/>
<path d="M583.392 143.748C593.321 138.909 605.294 143.035 610.135 152.963L611.878 156.537C616.718 166.465 612.593 178.437 602.664 183.276L467.01 249.388C457.081 254.227 445.107 250.102 440.267 240.173L438.524 236.599C433.683 226.671 437.808 214.7 447.738 209.86L583.392 143.748Z" fill="white"/>
<path d="M416.512 38.0901C409.285 29.7372 396.653 28.8234 388.299 36.0491L385.289 38.6523C376.934 45.878 376.021 58.507 383.248 66.8599L440.976 133.578C448.204 141.931 460.835 142.844 469.19 135.619L472.199 133.015C480.554 125.79 481.467 113.161 474.24 104.808L416.512 38.0901Z" fill="white"/>
<path d="M354.488 95.6775C347.261 87.3245 334.629 86.4107 326.275 93.6364L323.265 96.2396C314.91 103.465 313.997 116.094 321.224 124.447L425.12 244.523C432.348 252.876 444.979 253.79 453.334 246.564L456.344 243.961C464.698 236.735 465.612 224.106 458.384 215.753L354.488 95.6775Z" fill="white"/>
<path d="M310.21 832.245C307.966 843.06 314.915 853.645 325.731 855.888L329.624 856.695C340.44 858.937 351.027 851.987 353.27 841.172L401.093 610.639C403.336 599.824 396.387 589.239 385.571 586.997L381.679 586.19C370.863 583.947 360.276 590.897 358.032 601.712L310.21 832.245Z" fill="white"/>
<path d="M404.455 823.403C411.881 831.578 424.531 832.186 432.709 824.76L435.656 822.084C443.834 814.658 444.443 802.011 437.016 793.836L377.693 728.533C370.266 720.358 357.616 719.75 349.438 727.176L346.491 729.852C338.313 737.278 337.705 749.925 345.131 758.101L404.455 823.403Z" fill="white"/>
<path d="M469.85 756.118C477.277 764.294 489.927 764.901 498.105 757.475L501.052 754.799C509.229 747.373 509.838 734.726 502.411 726.55L400.951 614.864C393.524 606.688 380.874 606.081 372.696 613.507L369.749 616.183C361.572 623.609 360.963 636.256 368.39 644.431L469.85 756.118Z" fill="white"/>
<path d="M275.908 795.958C266.098 801.036 254.029 797.202 248.95 787.394L247.122 783.864C242.043 774.056 245.878 761.988 255.688 756.91L334.048 716.347C343.858 711.269 355.928 715.103 361.006 724.911L362.834 728.441C367.913 738.249 364.078 750.317 354.268 755.395L275.908 795.958Z" fill="white"/>
<path d="M239.664 719.482C229.854 724.56 217.784 720.725 212.705 710.918L210.877 707.388C205.799 697.58 209.634 685.513 219.444 680.434L360.47 607.433C370.28 602.355 382.35 606.189 387.429 615.997L389.257 619.526C394.336 629.334 390.5 641.402 380.69 646.48L239.664 719.482Z" fill="white"/>
<path d="M711.203 723.132C719.425 730.509 732.071 729.826 739.449 721.606L742.106 718.646C749.484 710.427 748.8 697.783 740.578 690.406L565.318 533.155C557.096 525.778 544.45 526.461 537.072 534.681L534.415 537.641C527.037 545.86 527.721 558.504 535.942 565.881L711.203 723.132Z" fill="white"/>
<path d="M750.952 637.241C761.755 634.934 768.642 624.308 766.334 613.507L765.503 609.615C763.195 598.814 752.566 591.928 741.763 594.235L655.474 612.662C644.671 614.969 637.784 625.595 640.092 636.396L640.924 640.288C643.231 651.089 653.86 657.975 664.663 655.668L750.952 637.241Z" fill="white"/>
<path d="M728.203 546.542C739.006 544.236 745.893 533.609 743.585 522.808L742.753 518.916C740.445 508.115 729.817 501.229 719.014 503.536L571.434 535.052C560.631 537.359 553.744 547.985 556.052 558.786L556.883 562.678C559.191 573.479 569.819 580.365 580.622 578.058L728.203 546.542Z" fill="white"/>
<path d="M662.586 734.526C662.043 745.557 652.659 754.059 641.625 753.516L637.648 753.32C626.615 752.777 618.11 743.395 618.653 732.363L622.988 644.253C623.531 633.222 632.915 624.719 643.949 625.262L647.926 625.458C658.959 626.001 667.464 635.384 666.921 646.415L662.586 734.526Z" fill="white"/>
<path d="M578.244 727.39C577.701 738.421 568.317 746.924 557.284 746.381L553.305 746.185C542.272 745.642 533.767 736.259 534.31 725.228L542.113 566.649C542.655 555.618 552.04 547.116 563.073 547.659L567.052 547.855C578.085 548.398 586.589 557.781 586.047 568.812L578.244 727.39Z" fill="white"/>
<path d="M13.797 556.307C3.46535 560.213 -1.74191 571.755 2.16627 582.087L3.57382 585.808C7.482 596.139 19.0257 601.347 29.3574 597.441L249.62 514.158C259.952 510.251 265.159 498.709 261.251 488.378L259.844 484.657C255.935 474.326 244.392 469.117 234.06 473.024L13.797 556.307Z" fill="white"/>
<path d="M71.808 631.095C68.8893 641.748 75.1596 652.75 85.8132 655.668L89.656 656.72C100.31 659.638 111.312 653.368 114.231 642.716L137.542 557.636C140.461 546.983 134.19 535.982 123.537 533.064L119.694 532.011C109.04 529.093 98.0378 535.363 95.1191 546.016L71.808 631.095Z" fill="white"/>
<path d="M161.366 650.665C158.447 661.318 164.717 672.319 175.371 675.237L179.214 676.29C189.868 679.208 200.871 672.938 203.789 662.285L243.659 516.772C246.578 506.119 240.308 495.118 229.654 492.2L225.811 491.147C215.157 488.229 204.154 494.499 201.236 505.152L161.366 650.665Z" fill="white"/>
<path d="M26.037 507.904C16.4892 502.349 13.2532 490.107 18.8092 480.561L20.809 477.125C26.365 467.579 38.6091 464.343 48.1569 469.898L124.423 514.269C133.971 519.824 137.207 532.066 131.651 541.612L129.651 545.048C124.095 554.594 111.851 557.83 102.304 552.275L26.037 507.904Z" fill="white"/>
<path d="M71.1603 436.305C61.6125 430.75 58.3766 418.508 63.9326 408.962L65.9322 405.526C71.4882 395.98 83.7323 392.744 93.2801 398.299L230.539 478.155C240.087 483.71 243.323 495.952 237.767 505.498L235.768 508.934C230.212 518.48 217.967 521.716 208.42 516.161L71.1603 436.305Z" fill="white"/>
<path d="M801.209 267.269C811.596 263.51 822.994 268.907 826.669 279.323L828.004 283.108C831.679 293.524 826.237 305.016 815.851 308.775L588.312 391.122C577.925 394.881 566.526 389.485 562.852 379.068L561.516 375.283C557.842 364.867 563.283 353.375 573.67 349.616L801.209 267.269Z" fill="white"/>
<path d="M804.208 362.549C813.394 368.685 815.725 381.008 809.415 390.073L806.648 394.048C800.338 403.113 787.776 405.488 778.591 399.351L704.721 350.001C695.536 343.865 693.205 331.541 699.515 322.476L702.282 318.501C708.592 309.436 721.154 307.062 730.339 313.199L804.208 362.549Z" fill="white"/>
<path d="M746.815 436.926C756.001 443.062 758.331 455.385 752.021 464.45L749.254 468.425C742.944 477.49 730.383 479.864 721.198 473.728L594.972 389.4C585.786 383.264 583.455 370.941 589.765 361.876L592.532 357.901C598.842 348.836 611.404 346.462 620.589 352.598L746.815 436.926Z" fill="white"/>
<path d="M759.73 238.477C763.527 228.106 758.124 216.821 747.663 213.273L743.455 211.845C732.994 208.297 721.436 213.828 717.639 224.2L686.697 308.726C682.901 319.098 688.303 330.382 698.764 333.931L702.973 335.358C713.434 338.907 724.992 333.375 728.789 323.004L759.73 238.477Z" fill="white"/>
<path d="M677.745 213.862C681.541 203.49 676.139 192.206 665.677 188.657L661.469 187.23C651.008 183.681 639.449 189.213 635.653 199.584L580.118 351.292C576.321 361.664 581.724 372.948 592.185 376.497L596.394 377.924C606.855 381.473 618.413 375.941 622.21 365.57L677.745 213.862Z" fill="white"/>
<path d="M108.41 140.399C100.155 133.06 87.5673 133.85 80.2953 142.163L77.6547 145.182C70.3827 153.496 71.1799 166.185 79.4353 173.524L260.272 334.292C268.527 341.632 281.115 340.842 288.387 332.528L291.027 329.509C298.299 321.195 297.502 308.506 289.247 301.167L108.41 140.399Z" fill="white"/>
<path d="M70.3218 227.785C59.5168 230.082 52.7862 240.665 55.2887 251.423L56.3867 256.143C58.8892 266.901 69.677 273.759 80.4821 271.462L167.38 252.985C178.185 250.688 184.915 240.104 182.413 229.347L181.315 224.626C178.812 213.869 168.024 207.011 157.219 209.308L70.3218 227.785Z" fill="white"/>
<path d="M95.1231 319.898C84.3181 322.195 77.5875 332.778 80.09 343.536L81.1881 348.257C83.6905 359.015 94.4784 365.873 105.283 363.575L253.772 332.002C264.578 329.705 271.308 319.122 268.806 308.364L267.707 303.643C265.205 292.886 254.417 286.027 243.612 288.325L95.1231 319.898Z" fill="white"/>
<path d="M157.607 129.017C157.923 117.977 167.122 109.497 178.154 110.076L182.591 110.308C193.622 110.887 202.309 120.307 201.993 131.347L199.417 221.32C199.101 232.361 189.901 240.841 178.87 240.262L174.433 240.029C163.401 239.45 154.714 230.031 155.03 218.991L157.607 129.017Z" fill="white"/>
<path d="M242.878 136.519C243.195 125.479 252.394 116.998 263.425 117.577L267.864 117.81C278.895 118.389 287.582 127.808 287.266 138.848L282.642 300.333C282.326 311.373 273.127 319.853 262.095 319.274L257.656 319.041C246.625 318.462 237.938 309.043 238.254 298.003L242.878 136.519Z" fill="white"/>
<path fill-rule="evenodd" clip-rule="evenodd" d="M310.224 371.743L301.997 415.596H392.503L366.905 569.999H422.672C439.128 569.999 457.411 566.344 476.61 553.553C495.808 540.763 512.265 519.749 517.75 495.082C524.15 470.414 519.579 451.228 516.836 443.005C514.094 434.783 506.779 413.769 485.752 395.497C463.811 378.138 443.699 374.484 443.699 374.484L450.099 338.852H507.694L514.094 294.999H322.109L314.795 338.852H405.302L399.817 371.743H310.224ZM475.697 466.759C477.525 479.55 472.953 495.082 461.069 507.872C449.184 520.663 433.643 525.231 418.101 526.145L436.386 418.337C436.386 418.337 447.356 421.078 458.326 431.128C469.297 441.178 474.783 453.969 475.697 466.759Z" fill="white"/>
</svg>
