<svg width="24" height="24" viewBox="0 0 24 24" xmlns="http://www.w3.org/2000/svg">
    <path fill-rule="evenodd" clip-rule="evenodd" d="M16.05 5C18.3095 5 20 6.68477 20 8.83762C20 10.174 19.3975 11.4683 18.1197 12.9876C16.8325 14.5181 14.967 16.1549 12.6134 18.1898L12 18.6996L11.3867 18.1898C9.033 16.1549 7.16746 14.5181 5.88032 12.9876C4.60255 11.4683 4 10.174 4 8.83762C4 6.68477 5.69051 5 7.95 5C9.18957 5 10.4438 5.57742 11.244 6.50165C11.4339 6.72104 11.7098 6.84709 12 6.84709C12.2902 6.84709 12.5661 6.72104 12.756 6.50165C13.5562 5.57742 14.8104 5 16.05 5ZM22 8.83762C22 5.53715 19.3705 3 16.05 3C14.5841 3 13.1277 3.53812 12 4.45922C10.8723 3.53812 9.4159 3 7.95 3C4.62949 3 2 5.53715 2 8.83762C2 10.8436 2.92745 12.5838 4.34968 14.2749C5.76121 15.9533 7.76312 17.7009 10.086 19.7091L10.1008 19.7217L11.3608 20.769C11.7313 21.077 12.2687 21.077 12.6392 20.769L13.8992 19.7217L13.914 19.7091C16.2369 17.7009 18.2388 15.9533 19.6503 14.2749C21.0725 12.5838 22 10.8436 22 8.83762Z" />
</svg>
