<svg width="16" height="16" viewBox="0 0 16 16" xmlns="http://www.w3.org/2000/svg">
    <path fill-rule="evenodd" clip-rule="evenodd" d="M15.5 5.62822C15.5 3.27954 13.5678 1.5 11.15 1.5C9.99927 1.5 8.85032 1.93929 8 2.68418C7.14968 1.93929 6.00073 1.5 4.85 1.5C2.43222 1.5 0.5 3.27954 0.5 5.62822C0.5 7.05515 1.18209 8.3068 2.26818 9.55209C3.34962 10.7921 4.88866 12.0886 6.69983 13.5985L6.70723 13.6047L7.68728 14.3901C7.87003 14.5366 8.12997 14.5366 8.31272 14.3901L9.30022 13.5986C11.1114 12.0887 12.6504 10.7921 13.7318 9.55209C14.8179 8.3068 15.5 7.05515 15.5 5.62822Z" />
</svg>
