<svg width="20" height="18" viewBox="0 0 20 18" fill="none" xmlns="http://www.w3.org/2000/svg">
<path fill-rule="evenodd" clip-rule="evenodd" d="M20 5.83762C20 2.53715 17.3705 0 14.05 0C12.5841 0 11.1277 0.538122 10 1.45922C8.8723 0.538122 7.4159 0 5.95 0C2.62949 0 0 2.53715 0 5.83762C0 7.84359 0.927452 9.58382 2.34968 11.2749C3.76121 12.9533 5.76312 14.7009 8.08599 16.7091L8.10077 16.7217L9.36077 17.769C9.73128 18.077 10.2687 18.077 10.6392 17.769L11.8992 16.7217L11.914 16.7091C14.2369 14.7009 16.2388 12.9533 17.6503 11.2749C19.0725 9.58382 20 7.84359 20 5.83762Z" fill="#141116"/>
</svg>
