<svg width="20" height="20" viewBox="0 0 20 20" xmlns="http://www.w3.org/2000/svg">
    <path d="M3.50705 11.9229C4.82684 13.5903 6.72819 15.3603 9.07466 17.5157L10 18.3329L10.9253 17.5157C13.2718 15.3603 15.1732 13.5903 16.493 11.9229C17.8072 10.2625 18.5 8.75804 18.5 7.13997C18.5 4.50112 16.5463 2.5 14.05 2.5C12.6766 2.5 11.2867 3.17504 10.3876 4.27839L10 4.75405L9.6124 4.27839C8.7133 3.17504 7.32339 2.5 5.95 2.5C3.45372 2.5 1.5 4.50112 1.5 7.13997C1.5 8.75805 2.19276 10.2625 3.50705 11.9229Z" stroke="#141116"/>
</svg>

