<svg width="16" height="16" viewBox="0 0 16 16" xmlns="http://www.w3.org/2000/svg">
    <path fill-rule="evenodd" clip-rule="evenodd" d="M11.15 2.5C13.0722 2.5 14.5 3.8869 14.5 5.62822C14.5 6.70805 13.9921 7.73228 12.9782 8.8948C11.9603 10.0619 10.4906 11.3042 8.66353 12.8274L8 13.3592L7.33648 12.8274C5.50937 11.3042 4.03969 10.0619 3.02182 8.8948C2.00791 7.73228 1.5 6.70805 1.5 5.62822C1.5 3.8869 2.92778 2.5 4.85 2.5C5.90128 2.5 6.95493 2.96979 7.62796 3.71936C7.72279 3.82498 7.85805 3.88532 8 3.88532C8.14195 3.88532 8.27721 3.82498 8.37204 3.71936C9.04507 2.96979 10.0987 2.5 11.15 2.5ZM15.5 5.62822C15.5 3.27954 13.5678 1.5 11.15 1.5C9.99927 1.5 8.85032 1.93929 8 2.68418C7.14968 1.93929 6.00073 1.5 4.85 1.5C2.43222 1.5 0.5 3.27954 0.5 5.62822C0.5 7.05515 1.18209 8.3068 2.26818 9.55209C3.34962 10.7921 4.88866 12.0886 6.69983 13.5985L6.70723 13.6047L7.68728 14.3901C7.87003 14.5366 8.12997 14.5366 8.31272 14.3901L9.30022 13.5986C11.1114 12.0887 12.6504 10.7921 13.7318 9.55209C14.8179 8.3068 15.5 7.05515 15.5 5.62822Z" />
</svg>
