<svg width="20" height="18" viewBox="0 0 20 18" xmlns="http://www.w3.org/2000/svg">
    <path fill-rule="evenodd" clip-rule="evenodd" d="M14.05 2C16.3095 2 18 3.68477 18 5.83762C18 7.17401 17.3975 8.46829 16.1197 9.98762C14.8325 11.5181 12.967 13.1549 10.6134 15.1898L10 15.6996L9.38667 15.1898C7.033 13.1549 5.16746 11.5181 3.88032 9.98762C2.60255 8.46829 2 7.17401 2 5.83762C2 3.68477 3.69051 2 5.95 2C7.18957 2 8.44378 2.57742 9.24399 3.50165C9.43394 3.72104 9.70981 3.84709 10 3.84709C10.2902 3.84709 10.5661 3.72104 10.756 3.50165C11.5562 2.57742 12.8104 2 14.05 2ZM20 5.83762C20 2.53715 17.3705 0 14.05 0C12.5841 0 11.1277 0.538122 10 1.45922C8.8723 0.538122 7.4159 0 5.95 0C2.62949 0 0 2.53715 0 5.83762C0 7.84359 0.927452 9.58382 2.34968 11.2749C3.76121 12.9533 5.76312 14.7009 8.08599 16.7091L8.10077 16.7217L9.36077 17.769C9.73128 18.077 10.2687 18.077 10.6392 17.769L11.8992 16.7217L11.914 16.7091C14.2369 14.7009 16.2388 12.9533 17.6503 11.2749C19.0725 9.58382 20 7.84359 20 5.83762Z" />
</svg>
