<svg width="18" height="17" viewBox="0 0 18 17" xmlns="http://www.w3.org/2000/svg">
    <path d="M13 0C11.8 0 10.6 0.5 9.7 1.2C9.4 1.5 9.2 1.7 9 2C8.8 1.7 8.6 1.5 8.3 1.2C7.4 0.5 6.2 0 4.9 0C2.2 0 0 2.2 0 5.1C0 8.7 3.1 11.5 7.7 15.8L9 17L10.3 15.9C14.9 11.6 18 8.7 18 5.1C18 2.2 15.8 0 13 0ZM9.6 15.1L9 15.7L8.4 15.2C6.1 13 4.2 11.2 2.9 9.6C1.6 8 1 6.6 1 5.1C1 2.8 2.7 1 4.9 1C6.1 1 7.4 1.6 8.2 2.6L9 3.6L9.8 2.6C10.6 1.6 11.8 1 13 1C15.2 1 17 2.8 17 5.1C17 6.6 16.4 8 15.1 9.6C13.8 11.2 11.9 13 9.6 15.1Z" fill="#141116"/>
    <path d="M13 0C11.8 0 10.6 0.5 9.7 1.2C9.4 1.5 9.2 1.7 9 2C8.8 1.7 8.6 1.5 8.3 1.2C7.4 0.5 6.2 0 4.9 0C2.2 0 0 2.2 0 5.1C0 8.7 3.1 11.5 7.7 15.8L9 17L10.3 15.9C14.9 11.6 18 8.7 18 5.1C18 2.2 15.8 0 13 0Z" />
</svg>