<svg width="20" height="20" viewBox="0 0 20 20" xmlns="http://www.w3.org/2000/svg">
    <mask id="path-1-inside-1">
    <path fill-rule="evenodd" clip-rule="evenodd" d="M10.7064 3.24789C10.4496 3.46276 10.2124 3.70189 10 3.96253C9.78761 3.70189 9.55036 3.46276 9.29359 3.24789C8.35351 2.46125 7.15176 2 5.95 2C3.16 2 1 4.2429 1 7.13997C1 10.6912 4.06 13.5883 8.74 17.8872L10 19L11.26 17.8872C15.94 13.5883 19 10.6912 19 7.13997C19 4.2429 16.84 2 14.05 2C12.8482 2 11.6465 2.46125 10.7064 3.24789ZM10.5907 17.1442C12.9435 14.9828 14.8113 13.2418 16.1009 11.6126C17.3795 9.99728 18 8.60049 18 7.13997C18 4.75935 16.2526 3 14.05 3C12.8332 3 11.5834 3.60244 10.7752 4.59424L10 5.54556L9.22479 4.59424C8.41659 3.60244 7.16677 3 5.95 3C3.74745 3 2 4.75935 2 7.13997C2 8.60049 2.62052 9.99728 3.89909 11.6126C5.1887 13.2418 7.05645 14.9828 9.4093 17.1441L10 17.6658L10.5907 17.1442Z"/>
    </mask>
    <path fill-rule="evenodd" clip-rule="evenodd" d="M10.7064 3.24789C10.4496 3.46276 10.2124 3.70189 10 3.96253C9.78761 3.70189 9.55036 3.46276 9.29359 3.24789C8.35351 2.46125 7.15176 2 5.95 2C3.16 2 1 4.2429 1 7.13997C1 10.6912 4.06 13.5883 8.74 17.8872L10 19L11.26 17.8872C15.94 13.5883 19 10.6912 19 7.13997C19 4.2429 16.84 2 14.05 2C12.8482 2 11.6465 2.46125 10.7064 3.24789ZM10.5907 17.1442C12.9435 14.9828 14.8113 13.2418 16.1009 11.6126C17.3795 9.99728 18 8.60049 18 7.13997C18 4.75935 16.2526 3 14.05 3C12.8332 3 11.5834 3.60244 10.7752 4.59424L10 5.54556L9.22479 4.59424C8.41659 3.60244 7.16677 3 5.95 3C3.74745 3 2 4.75935 2 7.13997C2 8.60049 2.62052 9.99728 3.89909 11.6126C5.1887 13.2418 7.05645 14.9828 9.4093 17.1441L10 17.6658L10.5907 17.1442Z" fill="#141116"/>
    <path d="M10.7064 3.24789L10.0647 2.48098V2.48098L10.7064 3.24789ZM10 3.96253L9.22479 4.59424L10 5.54556L10.7752 4.59424L10 3.96253ZM9.29359 3.24789L9.93533 2.48098V2.48098L9.29359 3.24789ZM8.74 17.8872L8.06352 18.6236L8.07071 18.6303L8.07803 18.6367L8.74 17.8872ZM10 19L9.33803 19.7495L10 20.3342L10.662 19.7495L10 19ZM11.26 17.8872L11.922 18.6367L11.9293 18.6303L11.9365 18.6236L11.26 17.8872ZM10.5907 17.1442L11.2526 17.8937L11.26 17.8872L11.2672 17.8806L10.5907 17.1442ZM16.1009 11.6126L15.3168 10.9919L16.1009 11.6126ZM10.7752 4.59424L11.5504 5.22594V5.22594L10.7752 4.59424ZM10 5.54556L9.22479 6.17726L10 7.12858L10.7752 6.17726L10 5.54556ZM9.22479 4.59424L10 3.96253L9.22479 4.59424ZM3.89909 11.6126L3.115 12.2332H3.115L3.89909 11.6126ZM9.4093 17.1441L8.73281 17.8806L8.74 17.8872L8.74733 17.8937L9.4093 17.1441ZM10 17.6658L9.33803 18.4154L10 19L10.662 18.4154L10 17.6658ZM10.0647 2.48098C9.76044 2.73555 9.47827 3.01976 9.22479 3.33083L10.7752 4.59424C10.9465 4.38402 11.1388 4.18996 11.3482 4.01481L10.0647 2.48098ZM10.7752 3.33083C10.5217 3.01976 10.2396 2.73555 9.93533 2.48098L8.65184 4.01481C8.86115 4.18996 9.05349 4.38402 9.22479 4.59424L10.7752 3.33083ZM9.93533 2.48098C8.82777 1.55419 7.40214 1 5.95 1V3C6.90137 3 7.87925 3.36832 8.65184 4.01481L9.93533 2.48098ZM5.95 1C2.57255 1 0 3.72644 0 7.13997H2C2 4.75935 3.74745 3 5.95 3V1ZM0 7.13997C0 9.23071 0.909477 11.0581 2.33091 12.8539C3.73998 14.634 5.73975 16.4891 8.06352 18.6236L9.41648 17.1507C7.06025 14.9864 5.19001 13.2435 3.89909 11.6126C2.62052 9.99728 2 8.60049 2 7.13997H0ZM8.07803 18.6367L9.33803 19.7495L10.662 18.2505L9.40197 17.1377L8.07803 18.6367ZM10.662 19.7495L11.922 18.6367L10.598 17.1377L9.33803 18.2505L10.662 19.7495ZM11.9365 18.6236C14.2603 16.4891 16.26 14.634 17.6691 12.8539C19.0905 11.0581 20 9.23071 20 7.13997H18C18 8.60049 17.3795 9.99728 16.1009 11.6126C14.81 13.2435 12.9397 14.9864 10.5835 17.1507L11.9365 18.6236ZM20 7.13997C20 3.72644 17.4274 1 14.05 1V3C16.2526 3 18 4.75935 18 7.13997H20ZM14.05 1C12.5979 1 11.1722 1.55419 10.0647 2.48098L11.3482 4.01481C12.1207 3.36832 13.0986 3 14.05 3V1ZM11.2672 17.8806C13.6037 15.7343 15.5363 13.9371 16.885 12.2332L15.3168 10.9919C14.0863 12.5465 12.2834 14.2314 9.91418 16.4077L11.2672 17.8806ZM16.885 12.2332C18.2352 10.5274 19 8.91538 19 7.13997H17C17 8.2856 16.5238 9.46713 15.3168 10.9919L16.885 12.2332ZM19 7.13997C19 4.24017 16.8374 2 14.05 2V4C15.6677 4 17 5.27853 17 7.13997H19ZM14.05 2C12.5202 2 10.9902 2.74745 10 3.96253L11.5504 5.22594C12.1767 4.45743 13.1462 4 14.05 4V2ZM10 3.96253L9.22479 4.91385L10.7752 6.17726L11.5504 5.22594L10 3.96253ZM10.7752 4.91385L10 3.96253L8.44958 5.22594L9.22479 6.17726L10.7752 4.91385ZM10 3.96253C9.00985 2.74745 7.47977 2 5.95 2V4C6.85378 4 7.82334 4.45743 8.44958 5.22594L10 3.96253ZM5.95 2C3.16263 2 1 4.24017 1 7.13997H3C3 5.27853 4.33227 4 5.95 4V2ZM1 7.13997C1 8.91538 1.7648 10.5274 3.115 12.2332L4.68319 10.9919C3.47625 9.46713 3 8.2856 3 7.13997H1ZM3.115 12.2332C4.46371 13.9371 6.3963 15.7343 8.73281 17.8806L10.0858 16.4077C7.7166 14.2314 5.9137 12.5465 4.68319 10.9919L3.115 12.2332ZM8.74733 17.8937L9.33803 18.4154L10.662 16.9163L10.0713 16.3946L8.74733 17.8937ZM10.662 18.4154L11.2526 17.8937L9.9287 16.3946L9.33803 16.9163L10.662 18.4154Z" fill="#141116" mask="url(#path-1-inside-1)"/>
</svg>
