<svg width="24" height="24" viewBox="0 0 24 24" xmlns="http://www.w3.org/2000/svg">
    <path fill-rule="evenodd" clip-rule="evenodd" d="M22 8.83762C22 5.53715 19.3705 3 16.05 3C14.5841 3 13.1277 3.53812 12 4.45922C10.8723 3.53812 9.4159 3 7.95 3C4.62949 3 2 5.53715 2 8.83762C2 10.8436 2.92745 12.5838 4.34968 14.2749C5.76121 15.9533 7.76312 17.7009 10.086 19.7091L10.1008 19.7217L11.3608 20.769C11.7313 21.077 12.2687 21.077 12.6392 20.769L13.8992 19.7217L13.914 19.7091C16.2369 17.7009 18.2388 15.9533 19.6503 14.2749C21.0725 12.5838 22 10.8436 22 8.83762Z" />
</svg>
