<svg width="120" height="40" viewBox="0 0 120 40" fill="none" xmlns="http://www.w3.org/2000/svg">
    <g clip-path="url(#clip0)">
    <path d="M25.4847 17.9217C25.0715 18.6476 24.8492 19.466 24.8384 20.3007C24.8394 21.2395 25.1175 22.1574 25.6381 22.9396C26.1587 23.7219 26.8987 24.3341 27.7658 24.6999C27.4249 25.8043 26.911 26.848 26.2431 27.7924C25.3462 29.1303 24.4058 30.4373 22.9133 30.4615C22.2034 30.4778 21.7243 30.2743 21.225 30.0622C20.7042 29.8409 20.1615 29.6104 19.3122 29.6104C18.4115 29.6104 17.8445 29.8484 17.2977 30.0779C16.8251 30.2762 16.3676 30.4682 15.7228 30.4949C14.3013 30.5474 13.215 29.0669 12.2855 27.7416C10.4277 25.035 8.98105 20.1139 10.9205 16.7655C11.3682 15.9632 12.0167 15.2902 12.8028 14.8122C13.5889 14.3341 14.4857 14.0673 15.406 14.0376C16.2121 14.0211 16.9857 14.3309 17.6639 14.6026C18.1826 14.8104 18.6455 14.9958 19.0246 14.9958C19.3578 14.9958 19.8078 14.8177 20.3322 14.6101C21.1583 14.2832 22.1691 13.8831 23.1992 13.9909C23.9886 14.0156 24.7614 14.2234 25.4561 14.598C26.1509 14.9725 26.7485 15.5035 27.2015 16.1486C26.4885 16.5858 25.8978 17.1957 25.4847 17.9217Z" fill="white"/>
    <path d="M23.2167 8.72027C23.3138 9.9845 22.9129 11.2367 22.0991 12.2109C21.7094 12.6942 21.2148 13.0831 20.6526 13.3482C20.0903 13.6132 19.4751 13.7477 18.8532 13.7413C18.8135 13.1333 18.8944 12.5235 19.0912 11.9468C19.288 11.37 19.5969 10.8375 20.0001 10.3799C20.8249 9.44305 21.9734 8.85049 23.2167 8.72027Z" fill="white"/>
    <path fill-rule="evenodd" clip-rule="evenodd" d="M42.421 27.1397H37.6743L36.5344 30.4961H34.5239L39.0199 18.0781H41.1088L45.6047 30.4961H43.56L42.421 27.1397ZM38.166 25.5908H41.9285L40.0737 20.1436H40.0218L38.166 25.5908Z" fill="white"/>
    <path fill-rule="evenodd" clip-rule="evenodd" d="M55.3145 25.9697C55.3145 28.7832 53.8045 30.5908 51.5256 30.5908C50.9484 30.6209 50.3742 30.4883 49.869 30.2082C49.3638 29.9281 48.9479 29.5117 48.669 29.0068H48.6259V33.4912H46.7623V21.4424H48.5662V22.9482H48.6004C48.8922 22.4458 49.3151 22.0316 49.8242 21.7497C50.3332 21.4679 50.9094 21.3289 51.4913 21.3477C53.7956 21.3477 55.3145 23.1641 55.3145 25.9697ZM53.399 25.9697C53.399 24.1367 52.4491 22.9316 50.9997 22.9316C49.5758 22.9316 48.6181 24.1621 48.6181 25.9697C48.6181 27.794 49.5758 29.0156 50.9997 29.0156C52.4491 29.0156 53.399 27.8193 53.399 25.9697Z" fill="white"/>
    <path fill-rule="evenodd" clip-rule="evenodd" d="M65.3074 25.9697C65.3074 28.7832 63.7973 30.5908 61.5184 30.5908C60.9412 30.6209 60.3671 30.4883 59.8619 30.2082C59.3566 29.9281 58.9408 29.5117 58.6618 29.0068H58.6187V33.4912H56.7551V21.4424H58.5589V22.9482H58.5932C58.885 22.4458 59.3079 22.0316 59.817 21.7497C60.326 21.4679 60.9022 21.3289 61.4841 21.3477C63.7885 21.3477 65.3074 23.1641 65.3074 25.9697ZM63.3918 25.9697C63.3918 24.1367 62.4419 22.9316 60.9925 22.9316C59.5686 22.9316 58.6109 24.1621 58.6109 25.9697C58.6109 27.794 59.5686 29.0156 60.9925 29.0156C62.4419 29.0156 63.3918 27.8193 63.3918 25.9697Z" fill="white"/>
    <path d="M71.9118 27.0361C72.0499 28.2676 73.2495 29.0761 74.8889 29.0761C76.4597 29.0761 77.5898 28.2675 77.5898 27.1572C77.5898 26.1933 76.9082 25.6162 75.2943 25.2207L73.6804 24.833C71.3938 24.2822 70.3322 23.2158 70.3322 21.4853C70.3322 19.3427 72.2046 17.871 74.8634 17.871C77.4948 17.871 79.2987 19.3427 79.3594 21.4853H77.4781C77.3655 20.246 76.3382 19.498 74.837 19.498C73.3357 19.498 72.3084 20.2548 72.3084 21.3564C72.3084 22.2343 72.9645 22.7509 74.5696 23.1464L75.9416 23.4823C78.4966 24.0849 79.5582 25.1083 79.5582 26.9247C79.5582 29.248 77.7024 30.703 74.7508 30.703C71.9891 30.703 70.1245 29.2821 70.0041 27.036L71.9118 27.0361Z" fill="white"/>
    <path d="M83.5802 19.2998V21.4424H85.3067V22.9141H83.5802V27.9053C83.5802 28.6807 83.9259 29.042 84.6848 29.042C84.8898 29.0384 85.0944 29.0241 85.2979 28.999V30.4619C84.9567 30.5255 84.6098 30.5543 84.2628 30.5478C82.4246 30.5478 81.7078 29.8593 81.7078 28.1035V22.9141H80.3877V21.4424H81.7077V19.2998H83.5802Z" fill="white"/>
    <path fill-rule="evenodd" clip-rule="evenodd" d="M86.3066 25.9697C86.3066 23.1211 87.9891 21.3311 90.6126 21.3311C93.245 21.3311 94.9196 23.1211 94.9196 25.9697C94.9196 28.8262 93.2538 30.6084 90.6126 30.6084C87.9724 30.6084 86.3066 28.8262 86.3066 25.9697ZM93.0207 25.9697C93.0207 24.0156 92.1227 22.8623 90.6126 22.8623C89.1025 22.8623 88.2055 24.0244 88.2055 25.9697C88.2055 27.9316 89.1025 29.0762 90.6126 29.0762C92.1227 29.0762 93.0207 27.9316 93.0207 25.9697Z" fill="white"/>
    <path d="M96.4561 21.4424H98.2335V22.9834H98.2766C98.3969 22.5021 98.6796 22.0768 99.0773 21.7789C99.4751 21.481 99.9635 21.3287 100.46 21.3476C100.675 21.3469 100.889 21.3702 101.099 21.417V23.1553C100.828 23.0726 100.545 23.0347 100.262 23.043C99.9909 23.032 99.721 23.0796 99.4705 23.1825C99.2199 23.2854 98.9947 23.4411 98.8102 23.639C98.6257 23.8369 98.4863 24.0723 98.4017 24.3289C98.317 24.5856 98.289 24.8575 98.3197 25.126V30.4961H96.4561L96.4561 21.4424Z" fill="white"/>
    <path fill-rule="evenodd" clip-rule="evenodd" d="M109.691 27.8369C109.441 29.4805 107.836 30.6084 105.782 30.6084C103.141 30.6084 101.501 28.8437 101.501 26.0127C101.501 23.1729 103.15 21.3311 105.704 21.3311C108.216 21.3311 109.795 23.0518 109.795 25.7969V26.4336H103.383V26.5459C103.353 26.8791 103.395 27.2148 103.505 27.5306C103.616 27.8464 103.793 28.1352 104.024 28.3778C104.255 28.6203 104.535 28.8111 104.845 28.9374C105.156 29.0637 105.49 29.1226 105.825 29.1103C106.265 29.1515 106.707 29.0498 107.085 28.8203C107.463 28.5909 107.756 28.246 107.922 27.8369L109.691 27.8369ZM103.392 25.1348H107.931C107.947 24.8352 107.902 24.5354 107.797 24.2541C107.692 23.9729 107.53 23.7164 107.321 23.5006C107.111 23.2849 106.86 23.1145 106.582 23.0003C106.303 22.8861 106.004 22.8305 105.704 22.8369C105.4 22.8351 105.099 22.8933 104.819 23.008C104.538 23.1227 104.282 23.2918 104.067 23.5054C103.853 23.7191 103.682 23.973 103.566 24.2527C103.45 24.5323 103.391 24.8321 103.392 25.1348Z" fill="white"/>
    <path d="M37.6415 11.2534H36.8414V12.0635H37.667C38.5004 12.0635 38.9773 12.4278 38.9773 13.0191C38.9773 13.6021 38.471 14.0157 37.6954 14.0157C36.9198 14.0157 36.3939 13.6475 36.34 13.0767H35.4479C35.4747 13.3416 35.5548 13.5984 35.6833 13.8317C35.8118 14.0651 35.9862 14.2703 36.1959 14.4351C36.4056 14.5999 36.6465 14.7208 36.9041 14.7908C37.1617 14.8607 37.4308 14.8783 37.6954 14.8423C37.9594 14.875 38.2273 14.8548 38.4833 14.783C38.7394 14.7111 38.9786 14.589 39.1867 14.4238C39.3948 14.2585 39.5678 14.0536 39.6955 13.8208C39.8231 13.5881 39.9029 13.3323 39.9302 13.0684C39.9446 12.7013 39.8127 12.3434 39.5633 12.0731C39.3139 11.8027 38.9673 11.6418 38.5993 11.6255V11.5552C38.9097 11.4861 39.187 11.3129 39.3848 11.0645C39.5827 10.8161 39.6891 10.5076 39.6863 10.1904C39.6863 9.24365 38.8568 8.58594 37.6787 8.58594C37.4234 8.55286 37.164 8.57253 36.9166 8.64375C36.6693 8.71498 36.4392 8.83621 36.2409 8.99992C36.0426 9.16362 35.8801 9.36629 35.7638 9.5953C35.6474 9.82431 35.5795 10.0748 35.5644 10.3311H36.4428C36.4588 10.1899 36.5029 10.0533 36.5726 9.92938C36.6423 9.80547 36.7362 9.69675 36.8488 9.60964C36.9613 9.52252 37.0902 9.45878 37.2279 9.42217C37.3656 9.38556 37.5092 9.37683 37.6503 9.39649C38.3544 9.39649 38.7697 9.75196 38.7697 10.3023C38.7637 10.4405 38.729 10.5761 38.6679 10.7003C38.6068 10.8246 38.5205 10.9349 38.4145 11.0242C38.3085 11.1136 38.1851 11.1801 38.0521 11.2195C37.919 11.259 37.7792 11.2705 37.6415 11.2534Z" fill="white"/>
    <path fill-rule="evenodd" clip-rule="evenodd" d="M42.6232 12.0801C41.5499 12.1465 40.9437 12.6138 40.9437 13.4243C40.9445 13.6144 40.9851 13.8022 41.0631 13.9756C41.1411 14.149 41.2547 14.3042 41.3965 14.4312C41.5383 14.5581 41.7052 14.654 41.8865 14.7127C42.0678 14.7714 42.2593 14.7916 42.4489 14.772C42.7175 14.7843 42.9846 14.7254 43.2229 14.6012C43.4612 14.477 43.6621 14.2919 43.8053 14.065H43.8758V14.6978H44.7346V11.6211C44.7346 10.6699 44.0961 10.1079 42.964 10.1079C41.9397 10.1079 41.2091 10.604 41.118 11.3775H41.9808C42.0807 11.0591 42.4244 10.877 42.9219 10.877C43.532 10.877 43.8464 11.1455 43.8464 11.6211V12.0098L42.6232 12.0801ZM43.8464 12.6631V13.0396C43.8367 13.1816 43.7985 13.3203 43.734 13.4473C43.6696 13.5743 43.5801 13.6871 43.471 13.7789C43.3619 13.8708 43.2354 13.9398 43.099 13.9819C42.9626 14.024 42.8191 14.0383 42.6771 14.0239C42.1923 14.0239 41.8397 13.7881 41.8397 13.3828C41.8397 12.9858 42.1218 12.7749 42.7436 12.7334L43.8464 12.6631Z" fill="white"/>
    <path d="M47.0996 14.6978V10.9429L49.1817 10.9428V10.1948H46.2085V14.6978H47.0996Z" fill="white"/>
    <path fill-rule="evenodd" clip-rule="evenodd" d="M52.7169 14.772C53.8568 14.772 54.5825 13.875 54.5825 12.4443C54.5825 11.0132 53.8568 10.1201 52.7081 10.1202C52.419 10.1131 52.1336 10.1858 51.8834 10.3303C51.6331 10.4748 51.4278 10.6854 51.2901 10.939H51.2235V10.1948H50.3656V16.1948H51.2568V14.0156H51.3273C51.4626 14.2606 51.6653 14.462 51.9114 14.596C52.1576 14.73 52.4371 14.791 52.7169 14.772ZM52.4594 10.9185C53.2144 10.9185 53.6659 11.4932 53.6659 12.4443C53.6659 13.3994 53.2144 13.9741 52.4554 13.9741C51.7092 13.9741 51.2401 13.3867 51.2401 12.4483C51.2401 11.5054 51.7093 10.9185 52.4594 10.9185Z" fill="white"/>
    <path d="M55.7694 15.5454V16.3106C55.8526 16.3228 56.0642 16.3311 56.1386 16.3311C57.0592 16.3311 57.4861 15.9795 57.872 14.8838L59.5554 10.1948H58.6104L57.4822 13.7715H57.4117L56.2796 10.1948H55.3091L56.9436 14.7144L56.877 14.9336C56.8424 15.1203 56.7399 15.2877 56.5892 15.4037C56.4385 15.5196 56.2501 15.576 56.0602 15.562C55.963 15.5632 55.8658 15.5576 55.7694 15.5454Z" fill="white"/>
    <path d="M61.137 13.4199H60.2497C60.332 14.3296 61.133 14.7803 62.1192 14.7803C63.2346 14.7803 63.9652 14.2139 63.9652 13.3579C63.968 13.1105 63.8796 12.8706 63.7167 12.6838C63.5539 12.4971 63.328 12.3764 63.0819 12.3448V12.2745C63.2886 12.2254 63.4722 12.1072 63.602 11.9394C63.7317 11.7716 63.7998 11.5644 63.7948 11.3526C63.7948 10.5918 63.1808 10.1079 62.1075 10.1079C61.6967 10.0515 61.2802 10.158 60.9474 10.4047C60.6147 10.6513 60.3923 11.0183 60.3281 11.4268H61.1869C61.2447 11.0713 61.609 10.8604 62.1075 10.8604C62.6549 10.8604 62.9203 11.1128 62.9203 11.4434C62.9203 11.8198 62.6461 12.0264 62.1075 12.0264H61.4435V12.7168H62.1192C62.7499 12.7168 63.077 12.9238 63.077 13.3579C63.077 13.7632 62.7127 14.0239 62.1192 14.0239C61.5973 14.0239 61.2241 13.8169 61.137 13.4199Z" fill="white"/>
    <path d="M65.2486 10.1948V14.6978L66.1319 14.6978L68.2169 11.584H68.2834V14.6978H69.1668V10.1948H68.2834L66.2024 13.292H66.1319V10.1948H65.2486Z" fill="white"/>
    <path d="M72.6109 10.9429H74.0329V10.1949H70.2968V10.9429H71.7188V14.6978H72.6109V10.9429Z" fill="white"/>
    <path fill-rule="evenodd" clip-rule="evenodd" d="M78.0917 14.4875C78.4495 14.2494 78.712 13.8935 78.8335 13.4819L77.9746 13.4819C77.8702 13.6688 77.7124 13.8205 77.5212 13.9177C77.3301 14.0149 77.1143 14.0532 76.9013 14.0278C76.735 14.0298 76.5701 13.9971 76.4172 13.9317C76.2643 13.8664 76.1268 13.7699 76.0135 13.6484C75.9003 13.5269 75.8138 13.3831 75.7595 13.2263C75.7053 13.0695 75.6846 12.9031 75.6987 12.7378V12.688H78.8873V12.3779C78.8873 10.9639 78.1284 10.1079 76.8719 10.1079C76.5736 10.1054 76.2782 10.1668 76.0057 10.288C75.7332 10.4092 75.49 10.5874 75.2926 10.8104C75.0952 11.0335 74.9482 11.2963 74.8614 11.581C74.7747 11.8656 74.7503 12.1656 74.7899 12.4604C74.7492 12.7544 74.7732 13.0537 74.8601 13.3375C74.9471 13.6214 75.0949 13.8829 75.2934 14.1041C75.4918 14.3252 75.7362 14.5006 76.0094 14.6181C76.2827 14.7357 76.5783 14.7925 76.8758 14.7847C77.3035 14.8308 77.7339 14.7256 78.0917 14.4875ZM77.9785 12.0308H75.6987C75.6966 11.877 75.7253 11.7244 75.7833 11.5819C75.8413 11.4395 75.9273 11.31 76.0363 11.2013C76.1453 11.0925 76.2751 11.0067 76.4179 10.9488C76.5608 10.8909 76.7138 10.8622 76.868 10.8643C77.0199 10.8609 77.1707 10.8892 77.311 10.9475C77.4512 11.0057 77.5776 11.0925 77.6822 11.2024C77.7868 11.3122 77.8672 11.4427 77.9182 11.5853C77.9692 11.728 77.9898 11.8797 77.9785 12.0308Z" fill="white"/>
    <path fill-rule="evenodd" clip-rule="evenodd" d="M84.6476 10.1948H82.6116V14.6977H84.6682C85.6592 14.6977 86.2517 14.185 86.2517 13.3994C86.2549 13.1359 86.1565 12.8813 85.9768 12.6881C85.7971 12.4949 85.5498 12.3779 85.2861 12.3613V12.291C85.5033 12.2436 85.6976 12.1233 85.8365 11.9501C85.9753 11.777 86.0504 11.5615 86.049 11.3398C86.049 10.6411 85.5309 10.1948 84.6476 10.1948ZM83.495 12.043V10.877L84.4772 10.8769C84.9502 10.8769 85.1745 11.1045 85.1745 11.4556C85.1745 11.8364 84.9169 12.043 84.3783 12.043H83.495ZM83.495 14.0156V12.6963L84.44 12.6963C85.0413 12.6963 85.3606 12.9072 85.3606 13.3579C85.3606 13.7837 85.0785 14.0156 84.5517 14.0156H83.495Z" fill="white"/>
    <path fill-rule="evenodd" clip-rule="evenodd" d="M9.56145 9.74536e-07C9.19372 9.74536e-07 8.8304 9.74629e-07 8.46364 0.0020027C8.22037 0.00358748 7.97863 0.00756453 7.73453 0.0115805L7.54211 0.0147027C6.86874 0.0226045 6.19695 0.0816789 5.53259 0.191413C4.86915 0.303535 4.2265 0.514918 3.62637 0.818413C3.02697 1.12447 2.47929 1.52217 2.00318 1.99707C1.52457 2.47064 1.12561 3.01802 0.82165 3.61816C0.516847 4.21711 0.305496 4.85894 0.194896 5.52148C0.083244 6.18319 0.0231632 6.85252 0.0151925 7.52348C0.00886961 7.7318 0.00638907 7.94059 0.00391039 8.14922C0.00274095 8.24765 0.00157193 8.34605 0 8.44434V31.5586C0.00155352 31.657 0.00271351 31.7544 0.00386929 31.8514C0.00636177 32.0607 0.00883467 32.2683 0.0151925 32.4805C0.0231657 33.1514 0.0832464 33.8207 0.194896 34.4824C0.30519 35.1453 0.516554 35.7875 0.82165 36.3867C1.12548 36.9849 1.52449 37.5301 2.00318 38.001C2.47748 38.478 3.02552 38.876 3.62637 39.1797C4.2265 39.484 4.86908 39.6966 5.53259 39.8105C6.19707 39.9194 6.86879 39.9785 7.54211 39.9873C7.85207 39.9941 8.15663 39.998 8.46364 39.998C8.83039 40 9.19374 40 9.56145 40H110.444C110.804 40 111.171 40 111.531 39.998C111.837 39.998 112.15 39.9941 112.455 39.9873C113.128 39.9789 113.798 39.9198 114.461 39.8105C115.127 39.6958 115.772 39.4833 116.375 39.1797C116.975 38.8758 117.522 38.4778 117.996 38.001C118.474 37.5282 118.874 36.9835 119.181 36.3867C119.484 35.7871 119.693 35.1449 119.802 34.4824C119.914 33.8206 119.976 33.1515 119.988 32.4805C119.992 32.1699 119.992 31.8691 119.992 31.5586C120 31.1953 120 30.834 120 30.4648V9.53613C120 9.16992 120 8.80664 119.992 8.44434C119.992 8.1377 119.992 7.83008 119.988 7.52344C119.976 6.85243 119.914 6.18324 119.802 5.52144C119.693 4.85928 119.484 4.21751 119.181 3.61812C118.562 2.4152 117.581 1.43603 116.375 0.818323C115.772 0.51557 115.127 0.304243 114.461 0.191323C113.798 0.0811055 113.128 0.0220105 112.455 0.0145627L112.286 0.0118039C112.035 0.0076613 111.78 0.00346441 111.531 0.0018727C111.191 -1.37024e-05 110.846 -6.73169e-06 110.505 9.74536e-07H9.56145ZM8.46856 39.125C8.16303 39.125 7.86487 39.1211 7.56174 39.1143C6.93376 39.1061 6.30725 39.0516 5.68735 38.9512C5.10932 38.8519 4.54937 38.6673 4.02596 38.4033C3.50735 38.1415 3.03433 37.7983 2.62504 37.3867C2.20981 36.98 1.86412 36.5082 1.60166 35.9902C1.33631 35.4688 1.15267 34.9099 1.05714 34.333C0.953972 33.7131 0.898156 33.0863 0.890169 32.458C0.883812 32.2471 0.875488 31.5449 0.875488 31.5449V8.44434C0.875488 8.44434 0.884353 7.75293 0.89022 7.5498C0.897867 6.92248 0.953358 6.29666 1.05621 5.67773C1.15192 5.09925 1.3357 4.53875 1.6012 4.01563C1.8627 3.49795 2.20647 3.02586 2.61919 2.61768C3.03145 2.20562 3.50597 1.86061 4.02547 1.59521C4.54767 1.3321 5.10657 1.14873 5.68343 1.05127C6.30537 0.949839 6.93405 0.894998 7.5642 0.887212L8.46906 0.875002H111.526L112.442 0.887702C113.066 0.895102 113.689 0.949452 114.305 1.05029C114.888 1.14898 115.453 1.33362 115.981 1.59814C117.022 2.13299 117.869 2.97917 118.403 4.01807C118.664 4.53758 118.845 5.09351 118.939 5.66699C119.044 6.29099 119.102 6.92174 119.114 7.5542C119.117 7.83666 119.117 8.14002 119.117 8.44198V8.44434C119.125 8.81898 119.125 9.17558 119.125 9.5351V30.4659C119.125 30.8288 119.125 31.1829 119.117 31.54C119.117 31.8652 119.117 32.1631 119.113 32.4697C119.101 33.0909 119.044 33.7104 118.941 34.3232C118.848 34.9043 118.665 35.4675 118.4 35.9932C118.136 36.5056 117.792 36.9733 117.381 37.3789C116.972 37.7927 116.498 38.1379 115.978 38.4014C115.451 38.6674 114.887 38.8527 114.305 38.9512C113.686 39.0522 113.059 39.1067 112.431 39.1143C112.137 39.1211 111.83 39.125 111.531 39.125L110.444 39.127L8.46856 39.125Z" fill="white"/>
    </g>
    <defs>
    <clipPath id="clip0">
    <rect width="120" height="40" fill="white"/>
    </clipPath>
    </defs>
</svg>
