<svg width="96" height="96" viewBox="0 0 96 96" xmlns="http://www.w3.org/2000/svg">
    <path fill-rule="evenodd" clip-rule="evenodd" d="M40.1379 26.4828C38.5382 26.4828 37.2414 27.7796 37.2414 29.3793C37.2414 30.979 38.5382 32.2759 40.1379 32.2759H45.1035C46.7032 32.2759 48 30.979 48 29.3793C48 27.7796 46.7032 26.4828 45.1035 26.4828H40.1379ZM38.8966 29.3793C38.8966 28.6937 39.4523 28.1379 40.1379 28.1379H45.1035C45.7891 28.1379 46.3448 28.6937 46.3448 29.3793C46.3448 30.0649 45.7891 30.6207 45.1035 30.6207H40.1379C39.4523 30.6207 38.8966 30.0649 38.8966 29.3793Z" />
    <path d="M57.0994 43.7797C57.1448 44.2345 56.813 44.64 56.3582 44.6855L39.8065 46.3407C39.3517 46.3862 38.9462 46.0543 38.9007 45.5996C38.8552 45.1448 39.187 44.7392 39.6418 44.6937L56.1935 43.0386C56.6483 42.9931 57.0539 43.3249 57.0994 43.7797Z" />
    <path d="M56.3582 49.651C56.813 49.6055 57.1448 49.2 57.0994 48.7452C57.0539 48.2904 56.6483 47.9586 56.1935 48.0041L39.6418 49.6592C39.187 49.7047 38.8552 50.1103 38.9007 50.5651C38.9462 51.0199 39.3517 51.3517 39.8065 51.3062L56.3582 49.651Z" />
    <path fill-rule="evenodd" clip-rule="evenodd" d="M32.2759 26.4828C32.2759 23.7404 34.499 21.5172 37.2414 21.5172H58.7586C61.501 21.5172 63.7241 23.7404 63.7241 26.4828V69.5172C63.7241 72.2596 61.501 74.4828 58.7586 74.4828H37.2414C34.499 74.4828 32.2759 72.2596 32.2759 69.5172V26.4828ZM37.2414 23.1724C35.4131 23.1724 33.931 24.6545 33.931 26.4828V69.5172C33.931 71.3455 35.4131 72.8276 37.2414 72.8276H58.7586C60.5869 72.8276 62.069 71.3455 62.069 69.5172V26.4828C62.069 24.6545 60.5869 23.1724 58.7586 23.1724H37.2414Z" />
    <path fill-rule="evenodd" clip-rule="evenodd" d="M85.7108 79.4136L39.3659 96L1.65518 64.5864L10.2893 16.5864L56.6342 0L94.3448 31.4136L85.7108 79.4136ZM39.6987 94.123L3.45476 63.9313L11.7488 17.822L56.3015 1.87706L92.5453 32.0688L84.2513 78.178L39.6987 94.123Z" />
</svg>
