<svg width="96" height="96" viewBox="0 0 96 96" xmlns="http://www.w3.org/2000/svg">
    <path fill-rule="evenodd" clip-rule="evenodd" d="M49.8112 21.6305C50.1059 21.803 50.2649 22.1392 50.2116 22.4774C49.6304 26.1677 50.9502 29.4217 52.1752 32.4417C52.4199 33.0449 52.6608 33.6388 52.882 34.225C53.5184 35.9113 54.0238 37.6366 53.6723 39.2289C53.3007 40.9129 52.0387 42.2201 49.7219 43.223C47.3033 44.2699 45.1089 44.1454 43.4396 43.0151C41.7962 41.9023 40.833 39.9294 40.5999 37.623C40.1329 33.0018 42.5317 26.753 48.8793 21.6973C49.1465 21.4845 49.5165 21.4579 49.8112 21.6305ZM44.3658 41.6383C45.4614 42.3802 47.0361 42.5766 49.0661 41.6979C51.1092 40.8135 51.8418 39.8398 52.0559 38.8698C52.2903 37.8082 51.9727 36.5063 51.3337 34.8131C51.1391 34.2976 50.9166 33.7531 50.6834 33.1823L50.683 33.1815C49.6565 30.6697 48.4196 27.6429 48.4176 24.2778C43.5582 28.7768 41.884 33.8635 42.2471 37.4555C42.4465 39.4284 43.2442 40.8789 44.3658 41.6383Z" />
    <path d="M63.4568 48.1021C60.8704 47.5807 58.1857 47.8993 55.7919 49.0117L41.0764 55.8502C40.5457 56.0968 40.0897 56.48 39.7546 56.9608L38.9817 58.0696L40.7917 58.855C42.0089 59.3832 43.3698 59.4765 44.6473 59.1194L56.8482 55.7085C57.2886 55.5853 57.7451 55.8437 57.8678 56.2855C57.9905 56.7274 57.733 57.1854 57.2926 57.3085L45.0917 60.7194C43.4492 61.1785 41.6994 61.0586 40.1345 60.3795L37.3989 59.1925C35.4883 58.3966 33.0909 57.4457 30.8907 56.6949C29.7891 56.3191 28.7469 55.9968 27.8457 55.7694C26.9295 55.5382 26.2141 55.4196 25.7443 55.4196C25.222 55.4196 24.5398 55.7461 23.7868 56.3388C23.2652 56.7494 23.0947 57.3238 23.2035 57.9112C23.3161 58.5186 23.7336 59.133 24.4 59.4922L41.3334 68.6211C43.4256 69.749 45.9285 69.8085 48.0716 68.7812L67.2149 59.6048C67.9949 59.2309 68.8484 59.0368 69.7129 59.0368H73.6548C74.112 59.0368 74.4826 59.4086 74.4826 59.8673C74.4826 60.326 74.112 60.6978 73.6548 60.6978H69.7129C69.0954 60.6978 68.4858 60.8364 67.9286 61.1035L48.7853 70.2799C46.166 71.5355 43.1069 71.4628 40.5497 70.0842L23.6163 60.9553C22.5187 60.3636 21.7823 59.3288 21.5759 58.2149C21.3657 57.0809 21.7111 55.8616 22.7649 55.0321C23.5834 54.3878 24.6412 53.7586 25.7443 53.7586C26.4261 53.7586 27.3039 53.92 28.2496 54.1586C29.2103 54.401 30.2987 54.7385 31.4238 55.1224C33.4412 55.8108 35.6083 56.6592 37.424 57.4061L38.3978 56.0089C38.9005 55.2877 39.5846 54.7129 40.3805 54.3431L55.0961 47.5046C57.809 46.2438 60.8517 45.8827 63.7829 46.4737L73.8179 48.4967C74.2661 48.5871 74.5564 49.0248 74.4664 49.4745C74.3763 49.9242 73.9399 50.2155 73.4917 50.1251L63.4568 48.1021Z" />
    <path fill-rule="evenodd" clip-rule="evenodd" d="M85.7108 79.4136L39.3659 96L1.65517 64.5864L10.2893 16.5864L56.6342 0L94.3448 31.4136L85.7108 79.4136ZM39.6986 94.123L3.45475 63.9313L11.7488 17.822L56.3015 1.87706L92.5452 32.0688L84.2513 78.178L39.6986 94.123Z" fill="#141116"/>
</svg>
