<svg width="96" height="96" viewBox="0 0 96 96" xmlns="http://www.w3.org/2000/svg">
    <path fill-rule="evenodd" clip-rule="evenodd" d="M44.2898 21.9547C45.0223 20.6534 46.7308 20.2887 47.9315 21.1774L51.2906 23.6639C52.3441 24.4438 52.9655 25.6765 52.9655 26.9867V36.4391H53.7931C54.2502 36.4391 54.6207 36.8094 54.6207 37.2661V50.4983H56.2759C56.7329 50.4983 57.1034 50.8686 57.1034 51.3253V68.6925C57.1034 70.9763 55.2508 72.8276 52.9655 72.8276H43.0345C40.7492 72.8276 38.8966 70.9763 38.8966 68.6925V51.3253C38.8966 50.8686 39.2671 50.4983 39.7241 50.4983H41.3793V37.2661C41.3793 36.8094 41.7498 36.4391 42.2069 36.4391H43.0345V25.268C43.0345 24.5579 43.2175 23.8597 43.5659 23.2407L44.2898 21.9547ZM46.9463 22.5065C46.5461 22.2103 45.9766 22.3319 45.7324 22.7656L45.0085 24.0516C44.7995 24.423 44.6897 24.8419 44.6897 25.268V36.4391H51.3103V26.9867C51.3103 26.2006 50.9375 25.461 50.3054 24.993L46.9463 22.5065ZM51.3103 50.4983C50.8533 50.4983 50.4828 50.8686 50.4828 51.3253C50.4828 51.782 50.8533 52.1523 51.3103 52.1523H55.4483V68.6925C55.4483 70.0628 54.3367 71.1736 52.9655 71.1736H43.0345C41.6633 71.1736 40.5517 70.0628 40.5517 68.6925V52.1523H47.1724C47.6295 52.1523 48 51.782 48 51.3253C48 50.8686 47.6295 50.4983 47.1724 50.4983H43.0345V38.0931H52.9655V50.4983H51.3103Z" />
    <path fill-rule="evenodd" clip-rule="evenodd" d="M85.7108 79.4136L39.3659 96L1.65517 64.5864L10.2893 16.5864L56.6342 0L94.3448 31.4136L85.7108 79.4136ZM39.6986 94.123L3.45475 63.9313L11.7488 17.822L56.3015 1.87706L92.5452 32.0688L84.2513 78.178L39.6986 94.123Z" />
</svg>
