<svg width="96" height="96" viewBox="0 0 96 96" xmlns="http://www.w3.org/2000/svg">
    <path fill-rule="evenodd" clip-rule="evenodd" d="M24.6356 36.3565C23.1047 33.9908 23.6757 30.9395 25.7902 29.1581L31.5686 24.2901C33.2118 22.9058 35.6412 23.0094 37.1606 24.5288L37.2229 24.5911C38.1925 25.5607 38.1925 27.1327 37.2229 28.1023L33.7033 31.6218C33.0569 32.2682 33.0569 33.3162 33.7033 33.9626L35.1416 35.4009L41.0019 29.5405C41.3251 29.2174 41.8491 29.2174 42.1723 29.5405C42.4955 29.8637 42.4955 30.3877 42.1723 30.7109L36.312 36.5713L39.238 39.4973L45.0983 33.637C45.4215 33.3138 45.9455 33.3138 46.2687 33.637C46.5919 33.9601 46.5919 34.4841 46.2687 34.8073L40.4084 40.6677L43.3343 43.5936L49.1946 37.7333C49.5178 37.4101 50.0418 37.4101 50.365 37.7333C50.6882 38.0565 50.6882 38.5805 50.365 38.9036L44.5047 44.764L47.4306 47.6899L53.291 41.8296C53.6142 41.5064 54.1382 41.5064 54.4614 41.8296C54.7845 42.1528 54.7845 42.6768 54.4614 43L48.601 48.8603L51.527 51.7863L57.3873 45.926C57.7105 45.6028 58.2345 45.6028 58.5577 45.926C58.8809 46.2492 58.8809 46.7732 58.5577 47.0964L52.6974 52.9567L55.6233 55.8826L61.4836 50.0223C61.8068 49.6991 62.3308 49.6991 62.654 50.0223C62.9772 50.3455 62.9772 50.8695 62.654 51.1927L56.7937 57.053L59.7197 59.979L65.58 54.1186C65.9032 53.7954 66.4272 53.7954 66.7504 54.1186C67.0736 54.4418 67.0736 54.9658 66.7504 55.289L60.89 61.1493L62.0375 62.2968C62.6839 62.9432 63.7319 62.9432 64.3783 62.2968L67.8978 58.7772C68.8674 57.8076 70.4394 57.8076 71.409 58.7772L71.4713 58.8395C72.9907 60.3589 73.0943 62.7883 71.71 64.4315L66.805 70.2538C65.0428 72.3456 62.0287 72.928 59.675 71.4274C55.5064 68.7696 48.1373 63.5947 40.4925 55.9499C32.7919 48.2493 27.4047 40.6356 24.6356 36.3565ZM26.8566 30.4239C25.339 31.7025 24.9757 33.8356 26.0252 35.4572C28.753 39.6726 34.0691 47.1858 41.6629 54.7795C49.2001 62.3167 56.4668 67.4189 60.5648 70.0317C62.1721 71.0565 64.2748 70.6882 65.5392 69.1874L70.4441 63.3651C71.2747 62.3791 71.2125 60.9215 70.3009 60.0099L70.2386 59.9476C69.9154 59.6244 69.3914 59.6244 69.0682 59.9476L65.5486 63.4672C64.2559 64.7599 62.1599 64.7599 60.8671 63.4672L32.5329 35.133C31.2402 33.8402 31.2402 31.7442 32.5329 30.4515L36.0525 26.9319C36.3757 26.6087 36.3757 26.0847 36.0525 25.7615L35.9902 25.6992C35.0786 24.7876 33.6209 24.7253 32.635 25.556L26.8566 30.4239Z" />
    <path fill-rule="evenodd" clip-rule="evenodd" d="M85.7108 79.4136L39.3659 96L1.65518 64.5864L10.2893 16.5864L56.6342 0L94.3448 31.4136L85.7108 79.4136ZM39.6987 94.123L3.45476 63.9313L11.7488 17.822L56.3015 1.87706L92.5453 32.0688L84.2513 78.178L39.6987 94.123Z" />
</svg>
