<svg width="96" height="96" viewBox="0 0 96 96" xmlns="http://www.w3.org/2000/svg">
    <path fill-rule="evenodd" clip-rule="evenodd" d="M48.0001 31.4886C44.225 29.7247 41.4515 29.4654 39.2044 30.1241C36.9254 30.7923 35.3448 32.3716 33.9428 33.7725L33.9362 33.7791C32.4839 35.2303 31.2233 36.4846 29.4847 37.0094C27.7923 37.5204 25.4814 37.3749 21.8923 35.5502C21.6093 35.4063 21.269 35.437 21.0163 35.6292C20.7636 35.8213 20.6431 36.1411 20.7061 36.4522C22.1027 43.347 28.1557 46.1641 34.1335 46.3362C37.1352 46.4227 40.1904 45.8546 42.7797 44.7724C44.895 43.8883 46.7557 42.6363 48.0001 41.0625C49.2445 42.6363 51.1051 43.8883 53.2204 44.7724C55.8097 45.8546 58.8649 46.4227 61.8665 46.3362C67.8444 46.1641 73.8974 43.347 75.2939 36.4522C75.3569 36.1411 75.2364 35.8213 74.9837 35.6292C74.731 35.437 74.3907 35.4063 74.1077 35.5502C70.5185 37.3749 68.2077 37.5204 66.5154 37.0095C64.7768 36.4846 63.5162 35.2304 62.0639 33.7792L62.0574 33.7726C60.6554 32.3717 59.0749 30.7924 56.7958 30.1242C54.5488 29.4654 51.7753 29.7248 48.0001 31.4886ZM22.8043 37.7964C24.5474 42.4516 29.172 44.5375 34.1812 44.6818C36.9553 44.7617 39.776 44.2339 42.1415 43.2453C44.5199 42.2512 46.3548 40.828 47.278 39.1794C47.4243 38.918 47.7005 38.7561 48.0001 38.7561C48.2996 38.7561 48.5758 38.918 48.7221 39.1794C49.6453 40.828 51.4802 42.2512 53.8586 43.2453C56.2241 44.2339 59.0448 44.7617 61.8189 44.6818C66.828 44.5375 71.4526 42.4516 73.1957 37.7964C70.2268 39.0314 67.9456 39.1702 66.037 38.594C63.8898 37.9458 62.3675 36.4235 61.002 35.058L60.894 34.95C59.4519 33.509 58.1485 32.2456 56.3302 31.7125C54.5472 31.1898 52.1089 31.3344 48.3608 33.1499C48.133 33.2603 47.8671 33.2603 47.6393 33.1499C43.8913 31.3344 41.453 31.1898 39.6701 31.7124C37.8518 32.2455 36.5483 33.5089 35.1062 34.9499L34.9981 35.0579C34.0082 36.0478 32.9359 37.1202 31.6028 37.8821C31.097 38.1712 30.5536 38.4157 29.963 38.594C28.0544 39.1702 25.7732 39.0313 22.8043 37.7964Z" />
    <path d="M25.6552 48C26.1123 48 26.4828 48.3705 26.4828 48.8276C26.4828 52.4587 27.0878 55.2711 27.6858 57.1646C27.965 58.0489 28.2428 58.733 28.4569 59.2065L30.1617 58.07C30.4156 57.9007 30.7421 57.8849 31.0112 58.029C31.2803 58.173 31.4483 58.4534 31.4483 58.7586C31.4483 61.4182 32.794 64.358 34.2242 66.7076C34.9297 67.8666 35.6362 68.8509 36.1664 69.5451C36.2774 69.6906 36.3806 69.8231 36.4742 69.9416L37.4838 68.9321C37.6745 68.7413 37.9462 68.6555 38.2118 68.7021C38.4773 68.7486 38.7037 68.9219 38.8183 69.1659L38.8245 69.1788L38.8362 69.2028L38.8507 69.2321C38.8748 69.2806 38.9122 69.3542 38.9627 69.4494C39.0637 69.6398 39.2168 69.9157 39.4209 70.2485C39.83 70.916 40.4382 71.8034 41.2348 72.6874C42.8423 74.4713 45.119 76.1379 48 76.1379C50.881 76.1379 53.1577 74.4713 54.7652 72.6874C55.5618 71.8034 56.1701 70.916 56.5792 70.2485C56.7832 69.9157 56.9364 69.6398 57.0374 69.4494C57.0879 69.3542 57.1252 69.2806 57.1494 69.2321C57.1614 69.2079 57.1702 69.19 57.1756 69.1788L57.1818 69.1659C57.2963 68.9217 57.5226 68.7486 57.7882 68.7021C58.0539 68.6555 58.3255 68.7413 58.5163 68.9321L59.5258 69.9416C59.6194 69.8231 59.7226 69.6906 59.8337 69.5451C60.3638 68.8509 61.0704 67.8666 61.7759 66.7076C63.2061 64.358 64.5518 61.4182 64.5518 58.7586C64.5518 58.4534 64.7197 58.173 64.9888 58.029C65.2579 57.8849 65.5845 57.9007 65.8384 58.07L67.5432 59.2065C67.7572 58.733 68.035 58.0489 68.3143 57.1646C68.9122 55.2711 69.5173 52.4587 69.5173 48.8276C69.5173 48.3705 69.8878 48 70.3449 48C70.8019 48 71.1724 48.3705 71.1724 48.8276C71.1724 52.6448 70.5361 55.6254 69.8926 57.663C69.571 58.6815 69.2477 59.4641 69.0014 59.9977C68.8783 60.2645 68.7744 60.4691 68.6995 60.6099C68.6621 60.6804 68.6319 60.7348 68.6102 60.7732L68.5934 60.8026L68.5842 60.8186L68.5762 60.8321L68.5725 60.8383L68.5717 60.8396C68.4553 61.0336 68.2645 61.1716 68.0437 61.2212C67.8228 61.2709 67.5913 61.2279 67.403 61.1024L66.0996 60.2334C65.7243 62.8921 64.4269 65.5356 63.1897 67.5682C62.4469 68.7885 61.7052 69.8215 61.1491 70.5497C60.8708 70.9142 60.6381 71.2034 60.474 71.4027C60.3919 71.5024 60.3269 71.5797 60.2818 71.6327L60.2151 71.7104C60.0632 71.8848 59.8457 71.9918 59.6138 71.9995C59.3848 72.0072 59.163 71.9196 59.001 71.7576L58.1283 70.8848C58.1122 70.912 58.0957 70.9395 58.0789 70.9675C58.0504 71.015 58.0209 71.0637 57.9904 71.1135C57.5434 71.8427 56.8762 72.8173 55.9948 73.7954C54.2465 75.7356 51.5577 77.7931 48 77.7931C44.4424 77.7931 41.7536 75.7356 40.0052 73.7954C39.1239 72.8173 38.4566 71.8427 38.0097 71.1135C37.9612 71.0344 37.9152 70.9581 37.8718 70.8848L36.999 71.7576C36.8371 71.9196 36.6152 72.0072 36.3863 71.9995C36.1928 71.9931 36.009 71.9192 35.8656 71.7924C35.8172 71.7496 35.7754 71.7002 35.7337 71.651C35.7286 71.6449 35.7234 71.6388 35.7183 71.6327C35.6732 71.5797 35.6082 71.5024 35.5261 71.4027C35.3619 71.2034 35.1293 70.9142 34.8509 70.5497C34.2948 69.8215 33.5531 68.7885 32.8103 67.5682C31.5731 65.5356 30.2757 62.8921 29.9005 60.2334L28.597 61.1024C28.4087 61.2279 28.1772 61.2709 27.9564 61.2212C27.7678 61.1788 27.601 61.072 27.4838 60.9207C27.4216 60.8405 27.3731 60.7481 27.3256 60.6576C27.3173 60.6416 27.3089 60.6257 27.3005 60.6099C27.2257 60.4691 27.1218 60.2645 26.9986 59.9977C26.7523 59.4641 26.429 58.6815 26.1074 57.663C25.464 55.6254 24.8276 52.6448 24.8276 48.8276C24.8276 48.3705 25.1981 48 25.6552 48Z" />
    <path fill-rule="evenodd" clip-rule="evenodd" d="M85.7107 79.4136L39.3659 96L1.65515 64.5864L10.2893 16.5864L56.6342 0L94.3448 31.4136L85.7107 79.4136ZM39.6986 94.123L3.45473 63.9313L11.7487 17.822L56.3014 1.87706L92.5452 32.0688L84.2513 78.178L39.6986 94.123Z" />
</svg>
