<svg width="96" height="96" viewBox="0 0 96 96" xmlns="http://www.w3.org/2000/svg">
    <path fill-rule="evenodd" clip-rule="evenodd" d="M33.9653 24.2841C33.7605 24.0489 33.4408 23.9489 33.1384 24.0254C32.836 24.1019 32.6023 24.3418 32.534 24.6461C32.1559 26.328 32.2416 28.2612 32.4785 29.952C32.7168 31.6529 33.1188 33.1801 33.4234 34.0835C33.4564 34.1814 33.5074 34.2723 33.5738 34.3513L46.9177 50.2386L39.6321 58.913C38.3258 57.7816 36.6219 57.097 34.758 57.097C30.6448 57.097 27.3104 60.431 27.3104 64.5438C27.3104 68.6566 30.6448 71.9906 34.758 71.9906C38.8713 71.9906 42.2057 68.6566 42.2057 64.5438C42.2057 62.8956 41.6702 61.3725 40.7637 60.1389L47.9984 51.5252L55.2331 60.1389C54.3265 61.3725 53.791 62.8956 53.791 64.5438C53.791 68.6566 57.1255 71.9906 61.2387 71.9906C63.0357 71.9906 64.6841 71.3542 65.9707 70.2946C67.2723 72.0693 69.5692 73.087 72.1026 72.7703C72.5561 72.7136 72.8778 72.3001 72.8211 71.8467C72.7644 71.3932 72.3508 71.0716 71.8973 71.1283C69.8049 71.3898 68.0339 70.4827 67.1452 69.0805C68.1117 67.8244 68.6864 66.2512 68.6864 64.5438C68.6864 60.431 65.3519 57.097 61.2387 57.097C59.3748 57.097 57.6709 57.7816 56.3647 58.913L34.9435 33.4089C34.6758 32.5806 34.3283 31.2265 34.1175 29.7224C33.9807 28.7457 33.9053 27.7319 33.9381 26.7724L51.0883 46.4589C51.1053 46.479 51.1234 46.4986 51.1425 46.5173C51.2119 46.5856 51.2909 46.6393 51.3753 46.6782C51.5976 46.7807 51.8579 46.7804 52.0818 46.6722C52.1673 46.6311 52.2467 46.5746 52.3159 46.5032C52.3344 46.4842 52.3518 46.4645 52.3681 46.4442L62.4255 34.3482C62.4907 34.2698 62.5408 34.1801 62.5733 34.0835C62.878 33.1801 63.2799 31.6529 63.5182 29.952C63.7551 28.2612 63.8408 26.328 63.4628 24.6461C63.3939 24.3398 63.1577 24.0989 62.8527 24.024C62.5478 23.9491 62.2268 24.0533 62.0239 24.2928L48.1959 40.6192L33.9653 24.2841ZM61.0526 33.4109L51.7075 44.6502L49.2955 41.8815L62.0599 26.811C62.0893 27.7591 62.0142 28.7588 61.8792 29.7224C61.6683 31.2277 61.3204 32.5827 61.0526 33.4109ZM55.446 64.5438C55.446 61.345 58.0395 58.7518 61.2387 58.7518C64.4379 58.7518 67.0313 61.345 67.0313 64.5438C67.0313 67.7426 64.4379 70.3358 61.2387 70.3358C58.0395 70.3358 55.446 67.7426 55.446 64.5438ZM28.9654 64.5438C28.9654 61.345 31.5588 58.7518 34.758 58.7518C37.9572 58.7518 40.5507 61.345 40.5507 64.5438C40.5507 67.7426 37.9572 70.3358 34.758 70.3358C31.5588 70.3358 28.9654 67.7426 28.9654 64.5438Z" />
    <path fill-rule="evenodd" clip-rule="evenodd" d="M85.7108 79.4136L39.3659 96L1.65518 64.5864L10.2893 16.5864L56.6342 0L94.3448 31.4136L85.7108 79.4136ZM39.6987 94.123L3.45476 63.9313L11.7488 17.822L56.3015 1.87706L92.5453 32.0688L84.2513 78.178L39.6987 94.123Z" />
</svg>
