<svg width="96" height="96" viewBox="0 0 96 96" xmlns="http://www.w3.org/2000/svg">
    <path fill-rule="evenodd" clip-rule="evenodd" d="M42.3458 22.3046C42.3672 21.8637 42.731 21.5172 43.1724 21.5172H52.8276C53.269 21.5172 53.6328 21.8637 53.6542 22.3046L54.5814 41.3793H54.6207C54.8974 41.3793 55.1562 41.5182 55.3097 41.7484C55.3097 41.7484 55.3093 41.7478 54.6207 42.2069L55.3097 41.7484L55.3102 41.7493L55.3119 41.7519L55.3176 41.7604L55.3377 41.7911C55.3457 41.8033 55.3553 41.8181 55.3665 41.8355C55.3795 41.8556 55.3945 41.8791 55.4116 41.906C55.4754 42.0061 55.5676 42.1532 55.684 42.3453C55.9169 42.7295 56.247 43.2941 56.6418 44.0246C57.4313 45.4852 58.4806 47.6106 59.5291 50.2841C61.6249 55.6284 63.7241 63.1808 63.7241 72C63.7241 72.4571 63.3536 72.8276 62.8965 72.8276H33.1034C32.6464 72.8276 32.2759 72.4571 32.2759 72C32.2759 63.1808 34.3751 55.6284 36.4709 50.2841C37.5193 47.6106 38.5687 45.4852 39.3582 44.0246C39.753 43.2941 40.0831 42.7295 40.3159 42.3453C40.4324 42.1532 40.5245 42.0061 40.5883 41.906C40.6202 41.8559 40.6451 41.8175 40.6623 41.7911L40.6824 41.7604L40.6898 41.7493L40.6907 41.7478L41.3771 42.2054C40.9322 41.9088 40.7758 41.8043 40.7207 41.7676C40.6908 41.7477 40.6907 41.7478 40.6907 41.7478C40.8442 41.5176 41.1026 41.3793 41.3793 41.3793H41.4186L42.3458 22.3046ZM52.0393 23.1724L52.9243 41.3793H46.7586C46.3016 41.3793 45.931 41.7498 45.931 42.2069C45.931 42.664 46.3016 43.0345 46.7586 43.0345H47.1724V56.2759H46.5813C46.1953 56.2759 45.8605 56.5427 45.7745 56.919L43.8829 65.1949C43.8267 65.4405 43.8855 65.6982 44.0425 65.8952C44.1996 66.0922 44.4378 66.2069 44.6897 66.2069H51.3103C51.5622 66.2069 51.8004 66.0922 51.9575 65.8952C52.1145 65.6982 52.1733 65.4405 52.1171 65.1949L50.2255 56.919C50.1395 56.5427 49.8047 56.2759 49.4187 56.2759H48.8276V43.0345H54.1654C54.1969 43.0856 54.2313 43.1418 54.2685 43.2032C54.4883 43.5657 54.8047 44.1067 55.1858 44.8116C55.948 46.2217 56.9676 48.286 57.9882 50.8884C59.9642 55.9272 61.9369 62.9666 62.0626 71.1724H33.9374C34.063 62.9666 36.0358 55.9272 38.0118 50.8884C39.0324 48.286 40.052 46.2217 40.8142 44.8116C41.1953 44.1067 41.5117 43.5657 41.7314 43.2032C41.7687 43.1418 41.8031 43.0856 41.8346 43.0345H43.8621C44.3191 43.0345 44.6896 42.664 44.6896 42.2069C44.6896 41.7498 44.3191 41.3793 43.8621 41.3793H43.0757L43.9608 23.1724H52.0393ZM45.7277 64.5517L47.196 58.1281C47.2844 58.49 47.6108 58.7586 48 58.7586C48.3892 58.7586 48.7156 58.49 48.804 58.1281L50.2723 64.5517H45.7277Z" />
    <path fill-rule="evenodd" clip-rule="evenodd" d="M85.7108 79.4136L39.3659 96L1.65517 64.5864L10.2893 16.5864L56.6342 0L94.3448 31.4136L85.7108 79.4136ZM39.6986 94.123L3.45475 63.9313L11.7488 17.822L56.3015 1.87706L92.5452 32.0688L84.2513 78.178L39.6986 94.123Z" />
</svg>
