<svg width="96" height="96" viewBox="0 0 96 96" xmlns="http://www.w3.org/2000/svg">
    <path fill-rule="evenodd" clip-rule="evenodd" d="M41.3479 19.6773C41.3571 19.808 41.3949 19.9298 41.4546 20.0369C37.5845 22.8279 35.0708 27.2668 35.0708 32.2939C35.0708 34.5456 35.5672 37.1167 36.4559 39.3604C36.283 39.6132 36.1247 39.8775 35.9831 40.1545C34.9954 42.0873 34.9011 44.4746 36.0285 47.5375C36.1573 47.8872 36.4952 48.1138 36.8656 48.0985C37.236 48.0833 37.5544 47.8298 37.6544 47.4706C37.7965 46.96 37.9948 46.4924 38.245 46.0624C38.5766 48.3553 39.4661 50.0589 40.0877 51.2495C40.1946 51.4543 40.2936 51.6439 40.3805 51.8188C41.1306 53.3282 42.5487 54.9941 44.1783 56.3876C43.822 59.7517 42.7724 61.604 41.4312 62.7846C40.0011 64.0433 38.1439 64.6384 35.9605 65.3229L35.9137 65.3376C33.7952 66.0017 31.4202 66.7462 29.29 68.372C27.1159 70.0315 25.2558 72.5568 24.0355 76.687C23.9009 77.1427 24.1588 77.6218 24.6117 77.7573C25.0645 77.8927 25.5407 77.6332 25.6753 77.1776C26.8073 73.3464 28.4799 71.151 30.3239 69.7435C32.1963 68.3144 34.3056 67.6447 36.4694 66.9664L36.5575 66.9388C38.6419 66.2855 40.8318 65.5992 42.5575 64.0802C44.1359 62.6909 45.2561 60.6798 45.7448 57.5948C47.4519 58.7718 49.3634 59.6471 51.0626 59.6471C52.9056 59.6471 54.9986 58.6173 56.8094 57.2897C56.2444 59.9197 56.2822 62.9302 56.9426 67.1678L56.9432 67.1716L57.5645 71.0447C57.6398 71.5139 58.0789 71.833 58.5453 71.7572C59.0117 71.6815 59.3287 71.2396 59.2534 70.7704L59.0394 69.4363C59.3964 69.71 59.7651 69.9664 60.1375 70.2102C60.8251 70.6602 61.5753 71.0967 62.2992 71.518C62.7195 71.7626 63.131 72.0021 63.5165 72.2361C65.7202 73.5743 67.3835 74.9135 67.8231 77.1028C67.9166 77.5687 68.3678 77.8701 68.8309 77.776C69.2939 77.6818 69.5935 77.2278 69.4999 76.7619C68.9026 73.787 66.626 72.1138 64.4004 70.7623C63.9532 70.4907 63.5162 70.2368 63.0871 69.9875C62.3986 69.5874 61.73 69.199 61.0703 68.7672C60.095 68.1289 59.2467 67.4601 58.5979 66.6749C57.7761 61.2699 58.0552 58.1799 59.2032 55.2923C59.218 55.2549 59.2301 55.2172 59.2394 55.1793C60.3091 54.0855 61.2018 52.9111 61.7446 51.8188C62.722 49.8519 63.9414 46.2508 63.9227 42.5014C63.9223 42.4257 63.9215 42.3496 63.9203 42.2731C65.9161 39.6795 67.0544 35.6608 67.0544 32.2939C67.0544 27.2644 64.5382 22.8236 60.665 20.0329C60.7215 19.9302 60.7579 19.8141 60.7685 19.6896C61.1839 14.7866 55.9144 11.9641 52.1259 14.0854C49.9632 12.9461 47.3327 13.0273 45.2422 13.9284C42.9937 14.8977 41.1543 16.9297 41.3479 19.6773ZM45.9159 15.5107C44.2814 16.2153 43.1734 17.4781 43.0556 19.0202C45.4144 17.7099 48.1513 16.9615 51.0626 16.9615C53.977 16.9615 56.7167 17.7116 59.0772 19.0244C58.9807 16.2401 56.1579 14.5139 53.7288 15.2587C53.9921 15.5629 54.0136 16.0216 53.7581 16.352C53.468 16.7271 52.9306 16.7946 52.5578 16.5027L51.6525 15.7939C49.9702 14.7476 47.7265 14.7302 45.9159 15.5107ZM63.7197 39.3276C64.7461 37.2198 65.3436 34.5992 65.3436 32.2939C65.3436 24.8176 58.9915 18.6829 51.0626 18.6829C43.1337 18.6829 36.7815 24.8176 36.7815 32.2939C36.7815 34.0478 37.1207 36.051 37.7399 37.8888C38.5684 37.1201 39.5308 36.4751 40.517 35.8975C41.3738 35.3956 42.2791 34.928 43.1604 34.4729L43.3523 34.3737C44.3026 33.8826 45.2215 33.4027 46.0714 32.8857C47.7837 31.8441 49.0928 30.7225 49.7332 29.2495C49.9226 28.814 50.427 28.6154 50.8598 28.8059C51.2926 28.9965 51.4899 29.5039 51.3006 29.9394C50.4441 31.9092 48.7594 33.2621 46.9565 34.3587C46.0489 34.9108 45.0799 35.416 44.134 35.9049L43.9512 35.9994C43.0604 36.4595 42.1937 36.9072 41.3776 37.3852C39.621 38.414 38.2373 39.5078 37.5046 40.9416C37.0006 41.9278 36.7673 43.1527 37.0363 44.7635C38.2012 43.0373 40.0028 41.9014 42.0031 41.0687C44.0246 40.2273 46.3829 39.6455 48.6572 39.0844C49.4517 38.8884 50.2359 38.6949 50.992 38.4938C54.0031 37.6927 56.577 36.7716 58.1818 35.1817C59.697 33.6807 60.4678 31.4504 59.524 27.6515C59.4094 27.1903 59.688 26.723 60.1463 26.6077C60.6047 26.4924 61.0691 26.7728 61.1837 27.234C61.1945 27.2778 61.2052 27.3215 61.2157 27.3651C61.2461 27.4289 61.2626 27.4939 61.2773 27.5519C61.2822 27.5711 61.2869 27.5897 61.2918 27.6072C61.3663 27.8701 61.4724 28.2511 61.5996 28.7267C61.854 29.6776 62.1933 31.0084 62.5338 32.5294C62.9931 34.5813 63.4612 37.0089 63.7197 39.3276ZM59.3821 36.4084C60.1155 35.6817 60.6889 34.8431 61.075 33.8726C61.6683 36.6752 62.1989 39.9054 62.2119 42.5101C62.229 45.9243 61.1045 49.2579 60.2144 51.0489C59.507 52.4726 57.9781 54.2165 56.1834 55.6105C54.3659 57.0222 52.468 57.9257 51.0626 57.9257C49.6571 57.9257 47.7593 57.0222 45.9417 55.6105C44.147 54.2165 42.6181 52.4726 41.9107 51.0489C41.8125 50.8514 41.7061 50.6462 41.5949 50.4319C40.8265 48.9509 39.8339 47.0379 39.8247 44.2649C40.6106 43.6354 41.5654 43.1138 42.6571 42.6594C44.5482 41.8722 46.7141 41.3377 48.9475 40.7864C49.7689 40.5837 50.5999 40.3786 51.4293 40.158C54.4233 39.3614 57.418 38.3541 59.3821 36.4084Z" />
    <path fill-rule="evenodd" clip-rule="evenodd" d="M85.7108 79.4136L39.3659 96L1.65518 64.5864L10.2893 16.5864L56.6342 0L94.3448 31.4136L85.7108 79.4136ZM39.6987 94.123L3.45476 63.9313L11.7488 17.822L56.3015 1.87706L92.5453 32.0688L84.2513 78.178L39.6987 94.123Z" />
</svg>
